<svg width="64" height="64" viewBox="0 0 64 64" fill="none" xmlns="http://www.w3.org/2000/svg">
<g clip-path="url(#clip0_835_1645)">
<path d="M51.1588 2.56531C55.583 4.81966 59.1802 8.41669 61.4345 12.8409C64.1769 18.2231 63.9981 24.3903 63.9974 30.2687C63.9973 31.4229 63.9973 32.5771 63.9974 33.7313C63.9981 39.6095 64.177 45.7767 61.4347 51.1588C59.1803 55.583 55.5833 59.1802 51.1591 61.4345C45.7769 64.1769 39.6097 63.9981 33.7313 63.9974C32.5771 63.9973 31.4229 63.9973 30.2687 63.9974C24.3904 63.9981 18.2233 64.177 12.8411 61.4347C8.41722 59.1805 4.81996 55.5836 2.56564 51.1592C-0.176793 45.7769 0.0019065 39.6098 0.00258545 33.7313C0.00259582 32.5771 0.00271408 31.4229 0.00258545 30.2687C0.0019065 24.3902 -0.176792 18.2231 2.56564 12.8407C4.81996 8.41642 8.41722 4.81953 12.8411 2.56531C18.2233 -0.17699 24.3905 0.0019145 30.2687 0.00259342C31.4229 0.00272205 32.5771 0.00272205 33.7313 0.00259342C39.6095 0.0019145 45.7767 -0.17699 51.1588 2.56531Z" fill="#B81C1C"/>
<mask id="mask0_835_1645" style="mask-type:alpha" maskUnits="userSpaceOnUse" x="0" y="0" width="64" height="64">
<path d="M51.1588 2.56531C55.583 4.81966 59.1802 8.41669 61.4345 12.8409C64.1769 18.2231 63.9981 24.3903 63.9974 30.2687C63.9973 31.4229 63.9973 32.5771 63.9974 33.7313C63.9981 39.6095 64.177 45.7767 61.4347 51.1588C59.1803 55.583 55.5833 59.1802 51.1591 61.4345C45.7769 64.1769 39.6097 63.9981 33.7313 63.9974C32.5771 63.9973 31.4229 63.9973 30.2687 63.9974C24.3904 63.9981 18.2233 64.177 12.8411 61.4347C8.41722 59.1805 4.81996 55.5836 2.56564 51.1592C-0.176793 45.7769 0.0019065 39.6098 0.00258545 33.7313C0.00259582 32.5771 0.00271408 31.4229 0.00258545 30.2687C0.0019065 24.3902 -0.176792 18.2231 2.56564 12.8407C4.81996 8.41642 8.41722 4.81953 12.8411 2.56531C18.2233 -0.17699 24.3905 0.0019145 30.2687 0.00259342C31.4229 0.00272205 32.5771 0.00272205 33.7313 0.00259342C39.6095 0.0019145 45.7767 -0.17699 51.1588 2.56531Z" fill="#991B1B"/>
</mask>
<g mask="url(#mask0_835_1645)">
<g opacity="0.3">
<rect x="11.6364" y="-0.36364" width="40.7273" height="64.7273" stroke="url(#paint0_linear_835_1645)" stroke-width="0.727273"/>
<rect x="-0.363636" y="11.6364" width="64.7273" height="40.7273" stroke="url(#paint1_linear_835_1645)" stroke-width="0.727273"/>
</g>
<g filter="url(#filter0_d_835_1645)">
<path d="M12 30.6667C12 24.1328 12 20.8657 13.2717 18.3701C14.3901 16.1749 16.1748 14.3901 18.3701 13.2715C20.8657 12 24.1328 12 30.6667 12H33.3333C39.8672 12 43.1343 12 45.6299 13.2715C47.8251 14.3901 49.6099 16.1749 50.7285 18.3701C52 20.8657 52 24.1328 52 30.6667V33.3333C52 39.8672 52 43.1343 50.7285 45.6299C49.6099 47.8251 47.8251 49.6099 45.6299 50.7285C43.1343 52 39.8672 52 33.3333 52H30.6667C24.1328 52 20.8657 52 18.3701 50.7285C16.1748 49.6099 14.3901 47.8251 13.2717 45.6299C12 43.1343 12 39.8672 12 33.3333V30.6667Z" fill="#FDE1E1"/>
</g>
<g filter="url(#filter1_d_835_1645)">
<path d="M28.5003 21.6667C28.9836 21.6667 29.3753 22.0584 29.3753 22.5417C29.3753 24.0076 29.7722 26.3444 30.4742 27.2911C31.1588 28.2142 32.1456 28.7917 33.4587 28.7917C33.9419 28.7917 34.3337 29.1834 34.3337 29.6667C34.3337 30.1499 33.9419 30.5417 33.4587 30.5417C32.1456 30.5417 31.1588 31.1191 30.4742 32.0422C29.7722 32.9889 29.3753 35.3257 29.3753 36.7917C29.3753 37.2749 28.9836 37.6667 28.5003 37.6667C28.0171 37.6667 27.6253 37.2749 27.6253 36.7917C27.6253 35.3257 27.2285 32.9889 26.5264 32.0422C25.8419 31.1191 24.8551 30.5417 23.542 30.5417C23.0587 30.5417 22.667 30.1499 22.667 29.6667C22.667 29.1834 23.0587 28.7917 23.542 28.7917C24.8551 28.7917 25.8419 28.2142 26.5264 27.2911C27.2285 26.3444 27.6253 24.0076 27.6253 22.5417C27.6253 22.0584 28.0171 21.6667 28.5003 21.6667Z" fill="#DB2626"/>
<path d="M36.667 31.5C37.1502 31.5 37.542 31.8868 37.542 32.37C37.542 33.0598 37.8799 34.3002 38.4567 34.877C39.0334 35.4538 39.7689 35.7917 40.4587 35.7917C40.9419 35.7917 41.3337 36.1834 41.3337 36.6667C41.3337 37.1499 40.9419 37.5417 40.4587 37.5417C39.7689 37.5417 39.0334 37.8796 38.4567 38.4563C37.8799 39.0331 37.542 40.2702 37.542 40.96C37.542 41.4433 37.1502 41.83 36.667 41.83C36.1837 41.83 35.792 41.4433 35.792 40.96C35.792 40.2702 35.4541 39.0331 34.8773 38.4563C34.3006 37.8796 33.5651 37.5417 32.8753 37.5417C32.3921 37.5417 32.0003 37.1499 32.0003 36.6667C32.0003 36.1834 32.3921 35.7917 32.8753 35.7917C33.5651 35.7917 34.3006 35.4538 34.8773 34.877C35.4541 34.3002 35.792 33.0598 35.792 32.37C35.792 31.8868 36.1837 31.5 36.667 31.5Z" fill="#DB2626"/>
</g>
</g>
</g>
<defs>
<filter id="filter0_d_835_1645" x="11" y="12" width="42" height="42" filterUnits="userSpaceOnUse" color-interpolation-filters="sRGB">
<feFlood flood-opacity="0" result="BackgroundImageFix"/>
<feColorMatrix in="SourceAlpha" type="matrix" values="0 0 0 0 0 0 0 0 0 0 0 0 0 0 0 0 0 0 127 0" result="hardAlpha"/>
<feOffset dy="1"/>
<feGaussianBlur stdDeviation="0.5"/>
<feComposite in2="hardAlpha" operator="out"/>
<feColorMatrix type="matrix" values="0 0 0 0 0.498039 0 0 0 0 0.113725 0 0 0 0 0.113725 0 0 0 0.6 0"/>
<feBlend mode="normal" in2="BackgroundImageFix" result="effect1_dropShadow_835_1645"/>
<feBlend mode="normal" in="SourceGraphic" in2="effect1_dropShadow_835_1645" result="shape"/>
</filter>
<filter id="filter1_d_835_1645" x="20.742" y="20.7042" width="22.517" height="24.0133" filterUnits="userSpaceOnUse" color-interpolation-filters="sRGB">
<feFlood flood-opacity="0" result="BackgroundImageFix"/>
<feColorMatrix in="SourceAlpha" type="matrix" values="0 0 0 0 0 0 0 0 0 0 0 0 0 0 0 0 0 0 127 0" result="hardAlpha"/>
<feOffset dy="0.962501"/>
<feGaussianBlur stdDeviation="0.962501"/>
<feColorMatrix type="matrix" values="0 0 0 0 0.117647 0 0 0 0 0.160784 0 0 0 0 0.231373 0 0 0 0.2 0"/>
<feBlend mode="multiply" in2="BackgroundImageFix" result="effect1_dropShadow_835_1645"/>
<feBlend mode="normal" in="SourceGraphic" in2="effect1_dropShadow_835_1645" result="shape"/>
</filter>
<linearGradient id="paint0_linear_835_1645" x1="32" y1="-2.41338e-06" x2="32" y2="64" gradientUnits="userSpaceOnUse">
<stop stop-color="white" stop-opacity="0"/>
<stop offset="0.506241" stop-color="white"/>
<stop offset="1" stop-color="white" stop-opacity="0"/>
</linearGradient>
<linearGradient id="paint1_linear_835_1645" x1="-0.669107" y1="31.9976" x2="63.9976" y2="31.9976" gradientUnits="userSpaceOnUse">
<stop stop-color="white" stop-opacity="0"/>
<stop offset="0.5" stop-color="white"/>
<stop offset="1" stop-color="white" stop-opacity="0"/>
</linearGradient>
<clipPath id="clip0_835_1645">
<rect width="64" height="64" fill="white"/>
</clipPath>
</defs>
</svg>
