<svg width="64" height="64" viewBox="0 0 64 64" fill="none" xmlns="http://www.w3.org/2000/svg">
<g clip-path="url(#clip0_931_2465)">
<path d="M51.1588 2.56531C55.583 4.81966 59.1802 8.41669 61.4345 12.8409C64.1769 18.2231 63.9981 24.3903 63.9974 30.2687C63.9973 31.4229 63.9973 32.5771 63.9974 33.7313C63.9981 39.6095 64.177 45.7767 61.4347 51.1588C59.1803 55.583 55.5833 59.1802 51.1591 61.4345C45.7769 64.1769 39.6097 63.9981 33.7313 63.9974C32.5771 63.9973 31.4229 63.9973 30.2687 63.9974C24.3904 63.9981 18.2233 64.177 12.8411 61.4347C8.41722 59.1805 4.81996 55.5836 2.56564 51.1592C-0.176793 45.7769 0.0019065 39.6098 0.00258545 33.7313C0.00259582 32.5771 0.00271408 31.4229 0.00258545 30.2687C0.0019065 24.3902 -0.176792 18.2231 2.56564 12.8407C4.81996 8.41642 8.41722 4.81953 12.8411 2.56531C18.2233 -0.17699 24.3905 0.0019145 30.2687 0.00259342C31.4229 0.00272205 32.5771 0.00272205 33.7313 0.00259342C39.6095 0.0019145 45.7767 -0.17699 51.1588 2.56531Z" fill="#FDE1E1"/>
<path d="M13.0681 3.01081C18.0301 0.482612 23.6858 0.492082 29.2849 0.501457C29.613 0.502006 29.941 0.502556 30.2686 0.502593C31.4229 0.502722 32.5771 0.502722 33.7313 0.502593C34.059 0.502556 34.3869 0.502006 34.7151 0.501457C40.3141 0.492082 45.9699 0.482612 50.9318 3.01081C55.2619 5.21722 58.7826 8.73777 60.989 13.0679C63.5174 18.0301 63.5079 23.686 63.4985 29.2853C63.498 29.6133 63.4974 29.9411 63.4974 30.2686C63.4973 31.4229 63.4973 32.5771 63.4974 33.7314C63.4974 34.059 63.498 34.387 63.4985 34.7152C63.5079 40.3142 63.5174 45.9699 60.9892 50.9318C58.7828 55.2619 55.2622 58.7826 50.9321 60.989C45.9699 63.5174 40.314 63.5079 34.7148 63.4985C34.3867 63.498 34.0589 63.4974 33.7314 63.4974C32.5771 63.4973 31.4229 63.4973 30.2686 63.4974C29.941 63.4974 29.613 63.498 29.2848 63.4985C23.6858 63.5079 18.0301 63.5174 13.0681 60.9892C8.73828 58.7829 5.21752 55.2625 3.01114 50.9322C0.482647 45.9698 0.492097 40.3136 0.501453 34.7141C0.502 34.3862 0.502548 34.0586 0.502585 33.7313C0.502589 33.3803 0.502602 33.0294 0.502615 32.6784C0.502645 31.8752 0.502675 31.0719 0.502585 30.2687C0.502548 29.9414 0.502 29.6138 0.501453 29.2859C0.492097 23.6864 0.482647 18.0302 3.01114 13.0677C5.21752 8.73751 8.73828 5.21711 13.0681 3.01081ZM13.0681 3.01081L12.8411 2.56531L13.0681 3.01081Z" stroke="#DB2626" stroke-opacity="0.1"/>
<mask id="mask0_931_2465" style="mask-type:alpha" maskUnits="userSpaceOnUse" x="0" y="0" width="64" height="64">
<path d="M51.1588 2.56531C55.583 4.81966 59.1802 8.41669 61.4345 12.8409C64.1769 18.2231 63.9981 24.3903 63.9974 30.2687C63.9973 31.4229 63.9973 32.5771 63.9974 33.7313C63.9981 39.6095 64.177 45.7767 61.4347 51.1588C59.1803 55.583 55.5833 59.1802 51.1591 61.4345C45.7769 64.1769 39.6097 63.9981 33.7313 63.9974C32.5771 63.9973 31.4229 63.9973 30.2687 63.9974C24.3904 63.9981 18.2233 64.177 12.8411 61.4347C8.41722 59.1805 4.81996 55.5836 2.56564 51.1592C-0.176793 45.7769 0.0019065 39.6098 0.00258545 33.7313C0.00259582 32.5771 0.00271408 31.4229 0.00258545 30.2687C0.0019065 24.3902 -0.176792 18.2231 2.56564 12.8407C4.81996 8.41642 8.41722 4.81953 12.8411 2.56531C18.2233 -0.17699 24.3905 0.0019145 30.2687 0.00259342C31.4229 0.00272205 32.5771 0.00272205 33.7313 0.00259342C39.6095 0.0019145 45.7767 -0.17699 51.1588 2.56531Z" fill="#991B1B"/>
</mask>
<g mask="url(#mask0_931_2465)">
<g opacity="0.25">
<rect x="11.5" y="-0.5" width="41" height="65" stroke="url(#paint0_linear_931_2465)"/>
<rect x="-0.5" y="11.5" width="65" height="41" stroke="url(#paint1_linear_931_2465)"/>
</g>
<g filter="url(#filter0_d_931_2465)">
<path d="M12 30.6667C12 24.1328 12 20.8657 13.2717 18.3701C14.3901 16.1749 16.1748 14.3901 18.3701 13.2715C20.8657 12 24.1328 12 30.6667 12H33.3333C39.8672 12 43.1343 12 45.6299 13.2715C47.8251 14.3901 49.6099 16.1749 50.7285 18.3701C52 20.8657 52 24.1328 52 30.6667V33.3333C52 39.8672 52 43.1343 50.7285 45.6299C49.6099 47.8251 47.8251 49.6099 45.6299 50.7285C43.1343 52 39.8672 52 33.3333 52H30.6667C24.1328 52 20.8657 52 18.3701 50.7285C16.1748 49.6099 14.3901 47.8251 13.2717 45.6299C12 43.1343 12 39.8672 12 33.3333V30.6667Z" fill="url(#paint2_linear_931_2465)" shape-rendering="crispEdges"/>
<path d="M18.1431 12.826L18.1431 12.826C15.8538 13.9926 13.9926 15.8538 12.8261 18.1432C12.1484 19.4732 11.8221 20.987 11.6606 22.9633C11.5 24.9291 11.5 27.3961 11.5 30.6432V30.6667V33.3333V33.3568C11.5 36.6039 11.5 39.0709 11.6606 41.0367C11.8221 43.013 12.1484 44.5268 12.8261 45.8568C13.9926 48.1462 15.8538 50.0074 18.1431 51.174C19.4731 51.8516 20.9869 52.1779 22.9633 52.3394C24.9291 52.5 27.3961 52.5 30.6431 52.5H30.6667H33.3333H33.3568C36.6039 52.5 39.0709 52.5 41.0367 52.3394C43.013 52.1779 44.5268 51.8516 45.8568 51.174C48.1462 50.0074 50.0074 48.1462 51.174 45.8569C51.8516 44.5268 52.1779 43.0131 52.3394 41.0367C52.5 39.0709 52.5 36.6039 52.5 33.3568V33.3333V30.6667V30.6432C52.5 27.3961 52.5 24.9291 52.3394 22.9633C52.1779 20.9869 51.8516 19.4732 51.174 18.1431C50.0074 15.8538 48.1462 13.9926 45.8569 12.826L45.6299 13.2715L45.8568 12.826C44.5268 12.1484 43.013 11.8221 41.0367 11.6606C39.0709 11.5 36.6039 11.5 33.3568 11.5H33.3333H30.6667H30.6432C27.3961 11.5 24.9291 11.5 22.9633 11.6606C20.9869 11.8221 19.4731 12.1484 18.1431 12.826Z" stroke="#DB2626" stroke-opacity="0.34" shape-rendering="crispEdges"/>
</g>
</g>
<g clip-path="url(#clip1_931_2465)">
<g filter="url(#filter1_d_931_2465)">
<path fill-rule="evenodd" clip-rule="evenodd" d="M41.5541 32.9099L42.4053 33.8242C42.4731 33.8969 42.5504 33.9737 42.6311 34.0539C43.0302 34.4505 43.5105 34.9279 43.3207 35.3819L42.3764 37.6503C42.1874 38.1045 41.5088 38.1003 40.9457 38.0968C40.8325 38.0962 40.724 38.0955 40.6251 38.0986L39.3769 38.1387C38.9965 38.5977 38.5673 39.0211 38.1098 39.4027L38.0669 40.6481C38.0634 40.748 38.0637 40.8574 38.064 40.9713C38.0654 41.5352 38.0672 42.2105 37.6104 42.3989L35.3424 43.3335C34.8868 43.5216 34.4136 43.0419 34.0178 42.6407C33.9374 42.5593 33.8603 42.4811 33.7871 42.4123L32.8769 41.5598C32.2744 41.5954 31.6884 41.5672 31.0879 41.5561C30.7045 41.9129 29.9433 42.6336 29.9433 42.6336C29.9433 42.6336 29.0716 43.5114 28.6175 43.3223L26.349 42.378C25.895 42.189 25.9024 40.9478 25.9024 40.9478C25.9024 40.9478 25.8785 39.9007 25.8625 39.3776C25.419 39.0214 24.9188 38.5797 24.5988 38.1105C24.0748 38.0927 23.0257 38.065 23.0257 38.065C23.0257 38.065 21.7885 38.0677 21.6006 37.6117L20.666 35.3438C20.4785 34.8888 21.3583 34.0202 21.3583 34.0202C21.3583 34.0202 22.0831 33.2601 22.4422 32.8774C22.3729 32.2886 22.388 31.6748 22.4453 31.088L21.5922 30.1743C21.5244 30.1016 21.447 30.0248 21.3664 29.9447C20.9676 29.5485 20.4884 29.0723 20.6772 28.6181L21.6217 26.3497C21.8105 25.8959 22.4868 25.9002 23.0492 25.9038C23.1626 25.9046 23.2714 25.9053 23.3706 25.9022L24.6199 25.8639C25.0007 25.4085 25.4121 24.9582 25.887 24.6004L25.9312 23.3522C25.9349 23.2508 25.9346 23.1394 25.9343 23.0234C25.9328 22.4615 25.9309 21.7896 26.3858 21.6022L28.6537 20.6676C29.1091 20.4799 29.5841 20.9598 29.98 21.3598C30.0608 21.4414 30.1382 21.5196 30.2115 21.5882L31.1202 22.4437C31.6716 22.375 32.3415 22.3899 32.91 22.4469L33.8235 21.594C33.896 21.5263 33.9727 21.4492 34.0526 21.3688C34.4494 20.9696 34.9272 20.4889 35.3816 20.678L37.6502 21.6221C38.1039 21.811 38.0994 22.4875 38.0957 23.05C38.095 23.1633 38.0943 23.2719 38.0973 23.371L38.1376 24.6196C38.5623 25 39.0132 25.4227 39.4013 25.8869L40.6476 25.9318C40.7481 25.9353 40.8582 25.9349 40.9728 25.9345C41.536 25.9326 42.2093 25.9302 42.3973 26.3863L43.3319 28.6541C43.5203 29.1107 43.0391 29.5865 42.6377 29.9833C42.5571 30.063 42.4797 30.1395 42.4116 30.212L41.558 31.1199C41.6007 31.7128 41.6229 32.3177 41.5541 32.9099ZM31.9996 36.9903C34.7555 36.9903 36.9898 34.756 36.9898 32.0001C36.9898 29.2442 34.7555 27.0099 31.9996 27.0099C29.2437 27.0099 27.0094 29.2442 27.0094 32.0001C27.0094 34.756 29.2437 36.9903 31.9996 36.9903Z" fill="#DB2626"/>
</g>
<g filter="url(#filter2_d_931_2465)">
<path d="M30.6645 34.6398L34.5162 32.3129C34.7459 32.173 34.7459 31.8269 34.5162 31.687L30.6645 29.3601C30.4269 29.2178 30.1136 29.3965 30.1152 29.6735V34.3264C30.1136 34.6033 30.4269 34.7821 30.6645 34.6398Z" fill="#F77171"/>
</g>
</g>
</g>
<defs>
<filter id="filter0_d_931_2465" x="7" y="8" width="50" height="50" filterUnits="userSpaceOnUse" color-interpolation-filters="sRGB">
<feFlood flood-opacity="0" result="BackgroundImageFix"/>
<feColorMatrix in="SourceAlpha" type="matrix" values="0 0 0 0 0 0 0 0 0 0 0 0 0 0 0 0 0 0 127 0" result="hardAlpha"/>
<feOffset dy="1"/>
<feGaussianBlur stdDeviation="2"/>
<feComposite in2="hardAlpha" operator="out"/>
<feColorMatrix type="matrix" values="0 0 0 0 0.498039 0 0 0 0 0.113725 0 0 0 0 0.113725 0 0 0 0.25 0"/>
<feBlend mode="normal" in2="BackgroundImageFix" result="effect1_dropShadow_931_2465"/>
<feBlend mode="normal" in="SourceGraphic" in2="effect1_dropShadow_931_2465" result="shape"/>
</filter>
<filter id="filter1_d_931_2465" x="18.6348" y="19.6256" width="26.7393" height="26.75" filterUnits="userSpaceOnUse" color-interpolation-filters="sRGB">
<feFlood flood-opacity="0" result="BackgroundImageFix"/>
<feColorMatrix in="SourceAlpha" type="matrix" values="0 0 0 0 0 0 0 0 0 0 0 0 0 0 0 0 0 0 127 0" result="hardAlpha"/>
<feOffset dy="1"/>
<feGaussianBlur stdDeviation="1"/>
<feColorMatrix type="matrix" values="0 0 0 0 0.498039 0 0 0 0 0.113725 0 0 0 0 0.113725 0 0 0 0.13 0"/>
<feBlend mode="multiply" in2="BackgroundImageFix" result="effect1_dropShadow_931_2465"/>
<feBlend mode="normal" in="SourceGraphic" in2="effect1_dropShadow_931_2465" result="shape"/>
</filter>
<filter id="filter2_d_931_2465" x="28.1152" y="28.3101" width="8.57324" height="9.37976" filterUnits="userSpaceOnUse" color-interpolation-filters="sRGB">
<feFlood flood-opacity="0" result="BackgroundImageFix"/>
<feColorMatrix in="SourceAlpha" type="matrix" values="0 0 0 0 0 0 0 0 0 0 0 0 0 0 0 0 0 0 127 0" result="hardAlpha"/>
<feOffset dy="1"/>
<feGaussianBlur stdDeviation="1"/>
<feColorMatrix type="matrix" values="0 0 0 0 0.498039 0 0 0 0 0.113725 0 0 0 0 0.113725 0 0 0 0.13 0"/>
<feBlend mode="multiply" in2="BackgroundImageFix" result="effect1_dropShadow_931_2465"/>
<feBlend mode="normal" in="SourceGraphic" in2="effect1_dropShadow_931_2465" result="shape"/>
</filter>
<linearGradient id="paint0_linear_931_2465" x1="32" y1="1.40132e-06" x2="32" y2="64" gradientUnits="userSpaceOnUse">
<stop stop-color="#DB2626" stop-opacity="0"/>
<stop offset="0.506241" stop-color="#DB2626"/>
<stop offset="1" stop-color="#DB2626" stop-opacity="0"/>
</linearGradient>
<linearGradient id="paint1_linear_931_2465" x1="-0.669107" y1="31.9976" x2="63.9976" y2="31.9976" gradientUnits="userSpaceOnUse">
<stop stop-color="#DB2626" stop-opacity="0"/>
<stop offset="0.5" stop-color="#DB2626"/>
<stop offset="1" stop-color="#DB2626" stop-opacity="0"/>
</linearGradient>
<linearGradient id="paint2_linear_931_2465" x1="32" y1="12" x2="32" y2="52" gradientUnits="userSpaceOnUse">
<stop offset="0.4" stop-color="white"/>
<stop offset="1" stop-color="#FDF1F1"/>
</linearGradient>
<clipPath id="clip0_931_2465">
<rect width="64" height="64" fill="white"/>
</clipPath>
<clipPath id="clip1_931_2465">
<rect width="28" height="28" fill="white" transform="translate(18 18)"/>
</clipPath>
</defs>
</svg>
