<svg width="64" height="64" viewBox="0 0 64 64" fill="none" xmlns="http://www.w3.org/2000/svg">
<g clip-path="url(#clip0_835_1663)">
<path d="M51.1588 2.56531C55.583 4.81966 59.1802 8.41669 61.4345 12.8409C64.1769 18.2231 63.9981 24.3903 63.9974 30.2687C63.9973 31.4229 63.9973 32.5771 63.9974 33.7313C63.9981 39.6095 64.177 45.7767 61.4347 51.1588C59.1803 55.583 55.5833 59.1802 51.1591 61.4345C45.7769 64.1769 39.6097 63.9981 33.7313 63.9974C32.5771 63.9973 31.4229 63.9973 30.2687 63.9974C24.3904 63.9981 18.2233 64.177 12.8411 61.4347C8.41722 59.1805 4.81996 55.5836 2.56564 51.1592C-0.176793 45.7769 0.0019065 39.6098 0.00258545 33.7313C0.00259582 32.5771 0.00271408 31.4229 0.00258545 30.2687C0.0019065 24.3902 -0.176792 18.2231 2.56564 12.8407C4.81996 8.41642 8.41722 4.81953 12.8411 2.56531C18.2233 -0.17699 24.3905 0.0019145 30.2687 0.00259342C31.4229 0.00272205 32.5771 0.00272205 33.7313 0.00259342C39.6095 0.0019145 45.7767 -0.17699 51.1588 2.56531Z" fill="#B81C1C"/>
<mask id="mask0_835_1663" style="mask-type:alpha" maskUnits="userSpaceOnUse" x="0" y="0" width="64" height="64">
<path d="M51.1588 2.56531C55.583 4.81966 59.1802 8.41669 61.4345 12.8409C64.1769 18.2231 63.9981 24.3903 63.9974 30.2687C63.9973 31.4229 63.9973 32.5771 63.9974 33.7313C63.9981 39.6095 64.177 45.7767 61.4347 51.1588C59.1803 55.583 55.5833 59.1802 51.1591 61.4345C45.7769 64.1769 39.6097 63.9981 33.7313 63.9974C32.5771 63.9973 31.4229 63.9973 30.2687 63.9974C24.3904 63.9981 18.2233 64.177 12.8411 61.4347C8.41722 59.1805 4.81996 55.5836 2.56564 51.1592C-0.176793 45.7769 0.0019065 39.6098 0.00258545 33.7313C0.00259582 32.5771 0.00271408 31.4229 0.00258545 30.2687C0.0019065 24.3902 -0.176792 18.2231 2.56564 12.8407C4.81996 8.41642 8.41722 4.81953 12.8411 2.56531C18.2233 -0.17699 24.3905 0.0019145 30.2687 0.00259342C31.4229 0.00272205 32.5771 0.00272205 33.7313 0.00259342C39.6095 0.0019145 45.7767 -0.17699 51.1588 2.56531Z" fill="#991B1B"/>
</mask>
<g mask="url(#mask0_835_1663)">
<g opacity="0.3">
<rect x="11.6364" y="-0.363636" width="40.7273" height="64.7273" stroke="url(#paint0_linear_835_1663)" stroke-width="0.727273"/>
<rect x="-0.363636" y="11.6364" width="64.7273" height="40.7273" stroke="url(#paint1_linear_835_1663)" stroke-width="0.727273"/>
</g>
<g filter="url(#filter0_d_835_1663)">
<path d="M12 30.6667C12 24.1328 12 20.8657 13.2717 18.3701C14.3901 16.1749 16.1748 14.3901 18.3701 13.2715C20.8657 12 24.1328 12 30.6667 12H33.3333C39.8672 12 43.1343 12 45.6299 13.2715C47.8251 14.3901 49.6099 16.1749 50.7285 18.3701C52 20.8657 52 24.1328 52 30.6667V33.3333C52 39.8672 52 43.1343 50.7285 45.6299C49.6099 47.8251 47.8251 49.6099 45.6299 50.7285C43.1343 52 39.8672 52 33.3333 52H30.6667C24.1328 52 20.8657 52 18.3701 50.7285C16.1748 49.6099 14.3901 47.8251 13.2717 45.6299C12 43.1343 12 39.8672 12 33.3333V30.6667Z" fill="#FDE1E1"/>
</g>
</g>
<g clip-path="url(#clip1_835_1663)">
<g filter="url(#filter1_d_835_1663)">
<path d="M30.6643 34.6398L34.516 32.313C34.6234 32.2476 34.6918 32.1257 34.6918 32C34.6918 31.8743 34.6234 31.7524 34.516 31.687L30.6643 29.3602C30.5539 29.294 30.4099 29.2925 30.2981 29.3563C30.1863 29.4201 30.1143 29.5448 30.1151 29.6735V34.3265C30.1143 34.4552 30.1863 34.5799 30.2981 34.6437C30.4099 34.7075 30.5539 34.706 30.6643 34.6398Z" fill="#DB2626"/>
<path fill-rule="evenodd" clip-rule="evenodd" d="M41.554 32.9099L42.4052 33.8242C42.473 33.8969 42.5504 33.9738 42.631 34.0539C43.0301 34.4505 43.5104 34.928 43.3206 35.3819L42.3763 37.6503C42.1873 38.1045 41.5087 38.1003 40.9456 38.0969C40.8325 38.0962 40.7239 38.0955 40.625 38.0986L39.3768 38.1387C38.9964 38.5978 38.5672 39.0212 38.1097 39.4028L38.0668 40.6482C38.0633 40.748 38.0636 40.8574 38.0639 40.9713C38.0654 41.5352 38.0671 42.2105 37.6103 42.3989L35.3423 43.3335C34.8867 43.5216 34.4135 43.0419 34.0177 42.6408C33.9374 42.5593 33.8602 42.4811 33.787 42.4124L32.8769 41.5598C32.403 41.5878 31.9393 41.5763 31.4708 41.5648C31.3436 41.5616 31.2161 41.5585 31.0879 41.5561L30.1734 42.4071C30.1005 42.4752 30.0235 42.5527 29.9432 42.6336C29.5472 43.0324 29.0715 43.5114 28.6174 43.3224L26.349 42.378C25.8949 42.1891 25.8989 41.5109 25.9023 40.9479C25.903 40.8345 25.9036 40.7258 25.9005 40.6267L25.8624 39.3776C25.4189 39.0214 24.9187 38.5797 24.5988 38.1105L23.3513 38.0682C23.2508 38.0645 23.1405 38.0648 23.0256 38.065C22.4629 38.0662 21.7884 38.0677 21.6005 37.6117L20.6659 35.3438C20.4784 34.8888 20.9581 34.4152 21.3582 34.0202C21.44 33.9394 21.5185 33.8619 21.5873 33.7885L22.4421 32.8774C22.3728 32.2886 22.3879 31.6748 22.4452 31.0881L21.5921 30.1743C21.5243 30.1016 21.4469 30.0248 21.3663 29.9447C20.9675 29.5485 20.4883 29.0723 20.6771 28.6181L21.6216 26.3497C21.8104 25.8959 22.4867 25.9003 23.0491 25.9039C23.1625 25.9046 23.2713 25.9053 23.3705 25.9022L24.6198 25.8639C25.0007 25.4085 25.412 24.9582 25.8869 24.6004L25.9311 23.3522C25.9348 23.2508 25.9345 23.1394 25.9342 23.0234C25.9327 22.4615 25.9308 21.7896 26.3857 21.6022L28.6536 20.6676C29.109 20.4799 29.584 20.9598 29.9799 21.3598C30.0607 21.4414 30.1381 21.5196 30.2114 21.5882L31.1201 22.4437C31.6715 22.375 32.3414 22.39 32.9099 22.4469L33.8234 21.594C33.8959 21.5263 33.9726 21.4492 34.0525 21.3688C34.4493 20.9696 34.9271 20.4889 35.3815 20.678L37.6501 21.6222C38.1038 21.811 38.0993 22.4876 38.0956 23.05C38.0949 23.1633 38.0942 23.272 38.0972 23.3711L38.1375 24.6196C38.5622 25 39.0131 25.4227 39.4012 25.8869L40.6475 25.9318C40.748 25.9353 40.8581 25.935 40.9727 25.9346C41.5359 25.9326 42.2092 25.9303 42.3972 26.3863L43.3318 28.6541C43.5202 29.1107 43.039 29.5865 42.6376 29.9833C42.557 30.063 42.4797 30.1395 42.4116 30.212L41.5579 31.12C41.6006 31.7128 41.6229 32.3177 41.554 32.9099ZM31.9995 36.9903C34.7554 36.9903 36.9897 34.756 36.9897 32.0001C36.9897 29.2442 34.7554 27.0099 31.9995 27.0099C29.2436 27.0099 27.0093 29.2442 27.0093 32.0001C27.0093 34.756 29.2436 36.9903 31.9995 36.9903Z" fill="#DB2626"/>
</g>
</g>
</g>
<defs>
<filter id="filter0_d_835_1663" x="11" y="12" width="42" height="42" filterUnits="userSpaceOnUse" color-interpolation-filters="sRGB">
<feFlood flood-opacity="0" result="BackgroundImageFix"/>
<feColorMatrix in="SourceAlpha" type="matrix" values="0 0 0 0 0 0 0 0 0 0 0 0 0 0 0 0 0 0 127 0" result="hardAlpha"/>
<feOffset dy="1"/>
<feGaussianBlur stdDeviation="0.5"/>
<feComposite in2="hardAlpha" operator="out"/>
<feColorMatrix type="matrix" values="0 0 0 0 0.498039 0 0 0 0 0.113725 0 0 0 0 0.113725 0 0 0 0.6 0"/>
<feBlend mode="normal" in2="BackgroundImageFix" result="effect1_dropShadow_835_1663"/>
<feBlend mode="normal" in="SourceGraphic" in2="effect1_dropShadow_835_1663" result="shape"/>
</filter>
<filter id="filter1_d_835_1663" x="18.699" y="19.6632" width="26.6" height="26.6" filterUnits="userSpaceOnUse" color-interpolation-filters="sRGB">
<feFlood flood-opacity="0" result="BackgroundImageFix"/>
<feColorMatrix in="SourceAlpha" type="matrix" values="0 0 0 0 0 0 0 0 0 0 0 0 0 0 0 0 0 0 127 0" result="hardAlpha"/>
<feOffset dy="0.962501"/>
<feGaussianBlur stdDeviation="0.962501"/>
<feColorMatrix type="matrix" values="0 0 0 0 0.117647 0 0 0 0 0.160784 0 0 0 0 0.231373 0 0 0 0.2 0"/>
<feBlend mode="multiply" in2="BackgroundImageFix" result="effect1_dropShadow_835_1663"/>
<feBlend mode="normal" in="SourceGraphic" in2="effect1_dropShadow_835_1663" result="shape"/>
</filter>
<linearGradient id="paint0_linear_835_1663" x1="32" y1="1.40132e-06" x2="32" y2="64" gradientUnits="userSpaceOnUse">
<stop stop-color="white" stop-opacity="0"/>
<stop offset="0.506241" stop-color="white"/>
<stop offset="1" stop-color="white" stop-opacity="0"/>
</linearGradient>
<linearGradient id="paint1_linear_835_1663" x1="-0.669107" y1="31.9976" x2="63.9976" y2="31.9976" gradientUnits="userSpaceOnUse">
<stop stop-color="white" stop-opacity="0"/>
<stop offset="0.5" stop-color="white"/>
<stop offset="1" stop-color="white" stop-opacity="0"/>
</linearGradient>
<clipPath id="clip0_835_1663">
<rect width="64" height="64" fill="white"/>
</clipPath>
<clipPath id="clip1_835_1663">
<rect width="28" height="28" fill="white" transform="translate(18 18)"/>
</clipPath>
</defs>
</svg>
