<svg width="401" height="240" viewBox="0 0 401 240" fill="none" xmlns="http://www.w3.org/2000/svg">
<g clip-path="url(#clip0_817_1377)">
<rect width="400" height="240" transform="translate(0.5)" fill="white"/>
<line x1="11" y1="-19" x2="11" y2="258" stroke="#F2F3F5"/>
<line x1="31" y1="-19" x2="31" y2="258" stroke="#F2F3F5"/>
<line x1="51" y1="-19" x2="51" y2="258" stroke="#F2F3F5"/>
<line x1="71" y1="-19" x2="71" y2="258" stroke="#F2F3F5"/>
<line x1="91" y1="-19" x2="91" y2="258" stroke="#F2F3F5"/>
<line x1="111" y1="-19" x2="111" y2="258" stroke="#F2F3F5"/>
<line x1="131" y1="-19" x2="131" y2="258" stroke="#F2F3F5"/>
<line x1="151" y1="-19" x2="151" y2="258" stroke="#F2F3F5"/>
<line x1="171" y1="-19" x2="171" y2="258" stroke="#F2F3F5"/>
<line x1="191" y1="-19" x2="191" y2="258" stroke="#F2F3F5"/>
<line x1="211" y1="-19" x2="211" y2="258" stroke="#F2F3F5"/>
<line x1="231" y1="-19" x2="231" y2="258" stroke="#F2F3F5"/>
<line x1="251" y1="-19" x2="251" y2="258" stroke="#F2F3F5"/>
<line x1="271" y1="-19" x2="271" y2="258" stroke="#F2F3F5"/>
<line x1="291" y1="-19" x2="291" y2="258" stroke="#F2F3F5"/>
<line x1="311" y1="-19" x2="311" y2="258" stroke="#F2F3F5"/>
<line x1="331" y1="-19" x2="331" y2="258" stroke="#F2F3F5"/>
<line x1="351" y1="-19" x2="351" y2="258" stroke="#F2F3F5"/>
<line x1="371" y1="-19" x2="371" y2="258" stroke="#F2F3F5"/>
<line x1="391" y1="-19" x2="391" y2="258" stroke="#F2F3F5"/>
<line x1="-28.5" y1="19.5" x2="429.5" y2="19.5" stroke="#F2F3F5"/>
<line x1="-28.5" y1="39.5" x2="429.5" y2="39.5" stroke="#F2F3F5"/>
<line x1="-28.5" y1="59.5" x2="429.5" y2="59.5" stroke="#F2F3F5"/>
<line x1="-28.5" y1="79.5" x2="429.5" y2="79.5" stroke="#F2F3F5"/>
<line x1="-28.5" y1="99.5" x2="429.5" y2="99.5" stroke="#F2F3F5"/>
<line x1="-28.5" y1="119.5" x2="429.5" y2="119.5" stroke="#F2F3F5"/>
<line x1="-28.5" y1="139.5" x2="429.5" y2="139.5" stroke="#F2F3F5"/>
<line x1="-28.5" y1="159.5" x2="429.5" y2="159.5" stroke="#F2F3F5"/>
<line x1="-28.5" y1="179.5" x2="429.5" y2="179.5" stroke="#F2F3F5"/>
<line x1="-28.5" y1="199.5" x2="429.5" y2="199.5" stroke="#F2F3F5"/>
<line x1="-28.5" y1="219.5" x2="429.5" y2="219.5" stroke="#F2F3F5"/>
<line x1="-28.5" y1="239.5" x2="429.5" y2="239.5" stroke="#F2F3F5"/>
<rect width="400" height="240" transform="translate(0.5)" fill="url(#paint0_linear_817_1377)"/>
<rect width="400" height="240" transform="translate(0.5)" fill="url(#paint1_linear_817_1377)"/>
<rect x="161" y="68.5" width="39" height="39" rx="19.5" fill="white"/>
<path d="M180.5 77.75C181.846 77.75 183.179 78.0151 184.423 78.5302C185.666 79.0453 186.796 79.8004 187.748 80.7522C188.7 81.704 189.455 82.8339 189.97 84.0775C190.485 85.3211 190.75 86.654 190.75 88C190.75 88.6808 190.181 89.25 189.5 89.25C188.819 89.25 188.25 88.6811 188.25 88.0005C188.244 86.4559 187.776 84.9483 186.908 83.6712C186.039 82.394 184.808 81.4057 183.373 80.8331C181.938 80.2604 180.365 80.1296 178.855 80.4574C177.545 80.7421 176.334 81.3612 175.338 82.25H177.12C177.801 82.25 178.37 82.8192 178.37 83.5C178.37 84.1808 177.801 84.75 177.12 84.75H172.62C172.288 84.75 171.971 84.6183 171.736 84.3839C171.502 84.1495 171.37 83.8315 171.37 83.5V79C171.37 78.3192 171.939 77.75 172.62 77.75C173.301 77.75 173.87 78.3192 173.87 79V80.2072C175.714 78.6319 178.063 77.757 180.5 77.75Z" fill="#EE4444"/>
<path d="M172.75 87.9997C172.754 89.5452 173.22 91.0541 174.088 92.3327C174.957 93.6114 176.187 94.6013 177.623 95.1751C179.058 95.749 180.632 95.8806 182.142 95.5531C183.454 95.2687 184.666 94.6493 185.662 93.76H183.88C183.199 93.76 182.63 93.1908 182.63 92.51C182.63 91.8292 183.199 91.26 183.88 91.26H188.417C188.74 91.2697 189.047 91.404 189.273 91.6347C189.499 91.8654 189.627 92.1747 189.63 92.4976L189.63 92.5L189.63 97C189.63 97.6808 189.061 98.25 188.38 98.25C187.699 98.25 187.13 97.6808 187.13 97V95.7899C185.753 96.9578 184.089 97.7436 182.305 98.0627C180.335 98.4152 178.304 98.1831 176.464 97.395C174.624 96.6069 173.055 95.2974 171.951 93.628C170.847 91.9585 170.255 90.0023 170.25 88.0007C170.25 87.3196 170.819 86.75 171.5 86.75C172.181 86.75 172.75 87.319 172.75 87.9997Z" fill="#EE4444"/>
<rect x="161" y="68.5" width="39" height="39" rx="19.5" stroke="#4B5563"/>
<g opacity="0.3">
<rect x="227.5" y="45" width="116" height="156" rx="8" fill="#4B5563"/>
</g>
<rect x="231" y="38.5" width="119" height="159" rx="7.5" fill="url(#paint2_linear_817_1377)"/>
<rect x="268.5" y="50" width="70" height="5" rx="2.5" fill="#FDE1E1"/>
<rect x="268.5" y="60" width="43.75" height="3" rx="1.5" fill="#E4E6EA"/>
<rect x="268.5" y="68" width="43.75" height="3" rx="1.5" fill="#E4E6EA"/>
<rect x="240.5" y="50" width="16" height="5" rx="2.5" fill="#EE4444"/>
<rect x="268.5" y="87" width="70" height="5" rx="2.5" fill="#FDE1E1"/>
<rect x="268.5" y="97" width="43.75" height="3" rx="1.5" fill="#E4E6EA"/>
<rect x="268.5" y="105" width="43.75" height="3" rx="1.5" fill="#E4E6EA"/>
<rect x="240.5" y="87" width="16" height="5" rx="2.5" fill="#EE4444"/>
<rect x="268.5" y="124" width="70" height="5" rx="2.5" fill="#FDE1E1"/>
<rect x="268.5" y="134" width="43.75" height="3" rx="1.5" fill="#E4E6EA"/>
<rect x="268.5" y="142" width="43.75" height="3" rx="1.5" fill="#E4E6EA"/>
<rect x="240.5" y="124" width="16" height="5" rx="2.5" fill="#EE4444"/>
<rect x="268.5" y="161" width="70" height="5" rx="2.5" fill="#FDE1E1"/>
<rect x="268.5" y="171" width="43.75" height="3" rx="1.5" fill="#E4E6EA"/>
<rect x="268.5" y="179" width="43.75" height="3" rx="1.5" fill="#E4E6EA"/>
<rect x="240.5" y="161" width="16" height="5" rx="2.5" fill="#EE4444"/>
<rect x="231" y="38.5" width="119" height="159" rx="7.5" stroke="#4B5563"/>
<g clip-path="url(#clip1_817_1377)">
<mask id="path-53-inside-1_817_1377" fill="white">
<path d="M50.5 88C50.5 83.5817 54.0817 80 58.5 80H138.5C142.918 80 146.5 83.5817 146.5 88V152C146.5 156.418 142.918 160 138.5 160H58.5C54.0817 160 50.5 156.418 50.5 152V88Z"/>
</mask>
<path d="M50.5 88C50.5 83.5817 54.0817 80 58.5 80H138.5C142.918 80 146.5 83.5817 146.5 88V152C146.5 156.418 142.918 160 138.5 160H58.5C54.0817 160 50.5 156.418 50.5 152V88Z" fill="white"/>
<g clip-path="url(#clip2_817_1377)">
<path d="M103.8 116.397C103.8 115.887 103.405 114.8 102.205 114.8C101.506 114.8 100.861 115.254 100.66 115.959L94.2605 138.359C94.2185 138.506 94.1984 138.654 94.1984 138.799C94.155 139.315 94.6 140.4 95.8 140.4C96.496 140.4 97.1365 139.942 97.3375 139.239L103.738 116.839C103.78 116.69 103.8 116.542 103.8 116.397ZM91.8 121.955C91.8 121.041 91.0525 120.355 90.2 120.355C89.7906 120.355 89.381 120.511 89.069 120.824L83.469 126.424C83.1563 126.78 83 127.19 83 127.555C83 127.92 83.1563 128.42 83.4688 128.73L89.0688 134.33C89.38 134.645 89.79 134.755 90.2 134.755C91.0525 134.755 91.8 134.068 91.8 133.155C91.8 132.746 91.6438 132.336 91.3313 132.023L86.8625 127.555L91.3315 123.086C91.645 122.815 91.8 122.41 91.8 121.955ZM115 127.555C115 127.146 114.844 126.736 114.531 126.423L108.931 120.823C108.62 120.555 108.21 120.355 107.8 120.355C106.948 120.355 106.2 121.041 106.2 121.955C106.2 122.364 106.356 122.774 106.669 123.086L111.138 127.555L106.669 132.024C106.355 132.38 106.2 132.79 106.2 133.155C106.2 134.069 106.948 134.755 107.8 134.755C108.209 134.755 108.619 134.599 108.931 134.286L114.531 128.686C114.845 128.42 115 128.01 115 127.555Z" fill="#6B7280"/>
</g>
<rect x="50.5" y="80" width="96" height="16" fill="#D0D4DA"/>
</g>
<path d="M49.5 88C49.5 83.0294 53.5294 79 58.5 79H138.5C143.471 79 147.5 83.0294 147.5 88H145.5C145.5 84.134 142.366 81 138.5 81H58.5C54.634 81 51.5 84.134 51.5 88H49.5ZM147.5 152C147.5 156.971 143.471 161 138.5 161H58.5C53.5294 161 49.5 156.971 49.5 152H51.5C51.5 155.866 54.634 159 58.5 159H138.5C142.366 159 145.5 155.866 145.5 152H147.5ZM58.5 161C53.5294 161 49.5 156.971 49.5 152V88C49.5 83.0294 53.5294 79 58.5 79V81C54.634 81 51.5 84.134 51.5 88V152C51.5 155.866 54.634 159 58.5 159V161ZM138.5 79C143.471 79 147.5 83.0294 147.5 88V152C147.5 156.971 143.471 161 138.5 161V159C142.366 159 145.5 155.866 145.5 152V88C145.5 84.134 142.366 81 138.5 81V79Z" fill="#4B5563" mask="url(#path-53-inside-1_817_1377)"/>
<path d="M158.243 126L154 122L158.243 118" stroke="#6B7280" stroke-width="2" stroke-linecap="round" stroke-linejoin="round"/>
<path d="M219 122H156.38" stroke="#6B7280" stroke-width="2" stroke-linecap="round" stroke-linejoin="round" stroke-dasharray="4 4"/>
<path d="M215.242 142L219.485 138L215.242 134" stroke="#6B7280" stroke-width="2" stroke-linecap="round" stroke-linejoin="round"/>
<path d="M219 138H156.38" stroke="#6B7280" stroke-width="2" stroke-linecap="round" stroke-linejoin="round" stroke-dasharray="4 4"/>
</g>
<defs>
<linearGradient id="paint0_linear_817_1377" x1="200" y1="0" x2="200" y2="240" gradientUnits="userSpaceOnUse">
<stop stop-color="white"/>
<stop offset="0.196875" stop-color="white" stop-opacity="0"/>
<stop offset="0.808333" stop-color="white" stop-opacity="0"/>
<stop offset="1" stop-color="white"/>
</linearGradient>
<linearGradient id="paint1_linear_817_1377" x1="2.98023e-06" y1="120" x2="400" y2="120" gradientUnits="userSpaceOnUse">
<stop stop-color="white"/>
<stop offset="0.166667" stop-color="white" stop-opacity="0"/>
<stop offset="0.835" stop-color="white" stop-opacity="0"/>
<stop offset="1" stop-color="white"/>
</linearGradient>
<linearGradient id="paint2_linear_817_1377" x1="290.5" y1="38" x2="290.5" y2="198" gradientUnits="userSpaceOnUse">
<stop stop-color="white"/>
<stop offset="1" stop-color="#F8F9FA"/>
</linearGradient>
<clipPath id="clip0_817_1377">
<rect width="400" height="240" fill="white" transform="translate(0.5)"/>
</clipPath>
<clipPath id="clip1_817_1377">
<path d="M50.5 88C50.5 83.5817 54.0817 80 58.5 80H138.5C142.918 80 146.5 83.5817 146.5 88V152C146.5 156.418 142.918 160 138.5 160H58.5C54.0817 160 50.5 156.418 50.5 152V88Z" fill="white"/>
</clipPath>
<clipPath id="clip2_817_1377">
<rect width="32" height="25.6" fill="white" transform="translate(83 115)"/>
</clipPath>
</defs>
</svg>
