<svg width="400" height="240" viewBox="0 0 400 240" fill="none" xmlns="http://www.w3.org/2000/svg">
<g clip-path="url(#clip0_819_1794)">
<rect width="400" height="240" fill="white"/>
<line x1="10.5" y1="-19" x2="10.5" y2="258" stroke="#F2F3F5"/>
<line x1="30.5" y1="-19" x2="30.5" y2="258" stroke="#F2F3F5"/>
<line x1="50.5" y1="-19" x2="50.5" y2="258" stroke="#F2F3F5"/>
<line x1="70.5" y1="-19" x2="70.5" y2="258" stroke="#F2F3F5"/>
<line x1="90.5" y1="-19" x2="90.5" y2="258" stroke="#F2F3F5"/>
<line x1="110.5" y1="-19" x2="110.5" y2="258" stroke="#F2F3F5"/>
<line x1="130.5" y1="-19" x2="130.5" y2="258" stroke="#F2F3F5"/>
<line x1="150.5" y1="-19" x2="150.5" y2="258" stroke="#F2F3F5"/>
<line x1="170.5" y1="-19" x2="170.5" y2="258" stroke="#F2F3F5"/>
<line x1="190.5" y1="-19" x2="190.5" y2="258" stroke="#F2F3F5"/>
<line x1="210.5" y1="-19" x2="210.5" y2="258" stroke="#F2F3F5"/>
<line x1="230.5" y1="-19" x2="230.5" y2="258" stroke="#F2F3F5"/>
<line x1="250.5" y1="-19" x2="250.5" y2="258" stroke="#F2F3F5"/>
<line x1="270.5" y1="-19" x2="270.5" y2="258" stroke="#F2F3F5"/>
<line x1="290.5" y1="-19" x2="290.5" y2="258" stroke="#F2F3F5"/>
<line x1="310.5" y1="-19" x2="310.5" y2="258" stroke="#F2F3F5"/>
<line x1="330.5" y1="-19" x2="330.5" y2="258" stroke="#F2F3F5"/>
<line x1="350.5" y1="-19" x2="350.5" y2="258" stroke="#F2F3F5"/>
<line x1="370.5" y1="-19" x2="370.5" y2="258" stroke="#F2F3F5"/>
<line x1="390.5" y1="-19" x2="390.5" y2="258" stroke="#F2F3F5"/>
<line x1="-29" y1="19.5" x2="429" y2="19.5" stroke="#F2F3F5"/>
<line x1="-29" y1="39.5" x2="429" y2="39.5" stroke="#F2F3F5"/>
<line x1="-29" y1="59.5" x2="429" y2="59.5" stroke="#F2F3F5"/>
<line x1="-29" y1="79.5" x2="429" y2="79.5" stroke="#F2F3F5"/>
<line x1="-29" y1="99.5" x2="429" y2="99.5" stroke="#F2F3F5"/>
<line x1="-29" y1="119.5" x2="429" y2="119.5" stroke="#F2F3F5"/>
<line x1="-29" y1="139.5" x2="429" y2="139.5" stroke="#F2F3F5"/>
<line x1="-29" y1="159.5" x2="429" y2="159.5" stroke="#F2F3F5"/>
<line x1="-29" y1="179.5" x2="429" y2="179.5" stroke="#F2F3F5"/>
<line x1="-29" y1="199.5" x2="429" y2="199.5" stroke="#F2F3F5"/>
<line x1="-29" y1="219.5" x2="429" y2="219.5" stroke="#F2F3F5"/>
<line x1="-29" y1="239.5" x2="429" y2="239.5" stroke="#F2F3F5"/>
<rect width="400" height="240" fill="url(#paint0_linear_819_1794)"/>
<rect width="400" height="240" fill="url(#paint1_linear_819_1794)"/>
<path d="M312.999 120H250.379" stroke="#9BA2AE" stroke-width="2" stroke-linecap="round" stroke-linejoin="round" stroke-dasharray="4 4"/>
<path d="M312.314 174.51L251.062 161.49" stroke="#9BA2AE" stroke-width="2" stroke-linecap="round" stroke-linejoin="round" stroke-dasharray="4 4"/>
<rect x="104.5" y="73" width="162" height="105" rx="7.5" fill="#E4E6EA"/>
<rect width="80" height="45" transform="translate(105 73.5)" fill="white"/>
<path fill-rule="evenodd" clip-rule="evenodd" d="M138.215 88.1034C138.04 88.7183 137.946 89.3674 137.946 90.0385C137.946 93.9328 141.103 97.0897 144.997 97.0897C148.609 97.0897 151.586 94.3749 151.999 90.8748C149.656 91.5316 147.18 91.6288 144.775 91.1455C142.369 90.662 140.123 89.6154 138.215 88.1034ZM139.556 85.5533C141.2 86.9729 143.188 87.9496 145.331 88.3802C147.474 88.8109 149.685 88.6779 151.75 88.0036C150.877 85.1013 148.184 82.9872 144.997 82.9872C142.807 82.9872 140.849 83.9861 139.556 85.5533ZM154.773 88.653C154.099 83.8569 149.979 80.1667 144.997 80.1667C139.545 80.1667 135.125 84.5864 135.125 90.0385C135.125 95.4905 139.545 99.9102 144.997 99.9102C140.883 99.9102 136.937 101.545 134.028 104.454C131.119 107.363 129.484 111.309 129.484 115.423C129.484 115.797 129.633 116.156 129.897 116.42C130.162 116.685 130.521 116.833 130.895 116.833H159.1C159.474 116.833 159.832 116.685 160.097 116.42C160.361 116.156 160.51 115.797 160.51 115.423C160.51 111.309 158.876 107.363 155.966 104.454C153.057 101.545 149.111 99.9102 144.997 99.9102C150.449 99.9102 154.869 95.4905 154.869 90.0385C154.869 89.6045 154.841 89.1772 154.787 88.758C154.783 88.723 154.779 88.688 154.773 88.653ZM144.997 102.731C141.631 102.731 138.403 104.068 136.022 106.448C133.977 108.494 132.702 111.165 132.383 114.013H157.611C157.293 111.165 156.017 108.494 153.972 106.448C151.592 104.068 148.363 102.731 144.997 102.731Z" fill="#FDE1E1"/>
<path d="M136.022 106.448C138.403 104.068 141.631 102.731 144.997 102.731C148.363 102.731 151.592 104.068 153.972 106.448C156.017 108.494 157.293 111.165 157.611 114.013H132.383C132.702 111.165 133.977 108.494 136.022 106.448Z" fill="#FDE1E1"/>
<path d="M145.331 88.3802C143.188 87.9496 141.2 86.9729 139.556 85.5533C140.849 83.9861 142.807 82.9872 144.997 82.9872C148.184 82.9872 150.877 85.1013 151.75 88.0036C149.685 88.6779 147.474 88.8109 145.331 88.3802Z" fill="#FDE1E1"/>
<rect x="107" y="108.5" width="18" height="5" rx="2.5" fill="#E4E6EA"/>
<rect width="80" height="45" transform="translate(186 73.5)" fill="white"/>
<path d="M235.691 98.9028C234.565 97.0561 234.573 94.9209 234.646 92.7596V90.6336C234.293 90.633 233.942 91.6574 233.592 91.6245C233.404 93.5064 232.523 95.251 231.12 96.5199C230.557 97.0296 229.925 97.448 229.249 97.7661L235.691 98.9028Z" fill="#FDE1E1"/>
<path d="M217.357 90.6336V92.7596C217.429 94.9209 217.437 97.0561 216.312 98.9028L222.756 97.7661C222.08 97.448 221.449 97.0296 220.885 96.5199C219.483 95.251 218.602 93.5064 218.413 91.6245C218.063 91.6576 217.71 90.633 217.357 90.6336Z" fill="#FDE1E1"/>
<path d="M226.001 101.314C222.266 101.314 218.684 102.798 216.043 105.439C213.402 108.08 211.918 111.662 211.918 115.397H240.085C240.085 111.662 238.601 108.08 235.96 105.439C233.319 102.798 229.736 101.314 226.001 101.314Z" fill="#FDE1E1"/>
<path d="M234.646 90.6336V90.2472C234.646 87.9546 233.735 85.7558 232.114 84.1347C230.493 82.5136 228.294 81.6028 226.001 81.6028C223.709 81.6028 221.51 82.5136 219.889 84.1347C218.268 85.7558 217.357 87.9546 217.357 90.2472V90.6336C218.998 90.6309 220.619 90.2757 222.11 89.5919C223.601 88.9082 224.928 87.8814 226.001 86.64C227.074 87.8814 228.401 88.9082 229.893 89.5919C231.384 90.2757 233.005 90.6309 234.646 90.6336Z" fill="#FDE1E1"/>
<path d="M234.646 92.7596C234.573 94.9209 234.565 97.0561 235.691 98.9028L229.249 97.7661M234.646 92.7596V90.2472M234.646 92.7596V90.6336M234.646 90.2472C234.646 87.9546 233.735 85.7558 232.114 84.1347C230.493 82.5136 228.294 81.6028 226.001 81.6028C223.709 81.6028 221.51 82.5136 219.889 84.1347C218.268 85.7558 217.357 87.9546 217.357 90.2472M234.646 90.2472V90.6336M217.357 90.2472V92.7596M217.357 90.2472V90.6336M217.357 92.7596C217.429 94.9209 217.437 97.0561 216.312 98.9028L222.756 97.7661M217.357 92.7596V90.6336M217.357 90.6336C218.998 90.6309 220.619 90.2757 222.11 89.5919C223.601 88.9082 224.928 87.8814 226.001 86.64C227.074 87.8814 228.401 88.9082 229.893 89.5919C231.384 90.2757 233.005 90.6309 234.646 90.6336M217.357 90.6336C217.71 90.633 218.063 91.6576 218.413 91.6245C218.602 93.5064 219.483 95.251 220.885 96.5199C221.449 97.0296 222.08 97.448 222.756 97.7661M234.646 90.6336C234.293 90.633 233.942 91.6574 233.592 91.6245C233.404 93.5064 232.523 95.251 231.12 96.5199C230.557 97.0296 229.925 97.448 229.249 97.7661M222.756 97.7661C223.764 98.2399 224.871 98.4914 226.003 98.4914C227.134 98.4914 228.242 98.2399 229.249 97.7661M226.001 101.314C222.266 101.314 218.684 102.798 216.043 105.439C213.402 108.08 211.918 111.662 211.918 115.397H240.085C240.085 111.662 238.601 108.08 235.96 105.439C233.319 102.798 229.736 101.314 226.001 101.314Z" stroke="#FDE1E1" stroke-width="2.81667" stroke-linecap="round" stroke-linejoin="round"/>
<rect x="188" y="108.5" width="18" height="5" rx="2.5" fill="#E4E6EA"/>
<rect width="80" height="45" transform="translate(105 119.5)" fill="white"/>
<path d="M154.691 144.903C153.565 143.056 153.573 140.921 153.646 138.76V136.634C153.293 136.633 152.942 137.657 152.592 137.625C152.404 139.506 151.523 141.251 150.12 142.52C149.557 143.03 148.925 143.448 148.249 143.766L154.691 144.903Z" fill="#FDE1E1"/>
<path d="M136.357 136.634V138.76C136.429 140.921 136.437 143.056 135.312 144.903L141.756 143.766C141.08 143.448 140.449 143.03 139.885 142.52C138.483 141.251 137.602 139.506 137.413 137.625C137.063 137.658 136.71 136.633 136.357 136.634Z" fill="#FDE1E1"/>
<path d="M145.001 147.314C141.266 147.314 137.684 148.798 135.043 151.439C132.402 154.08 130.918 157.662 130.918 161.397H159.085C159.085 157.662 157.601 154.08 154.96 151.439C152.319 148.798 148.736 147.314 145.001 147.314Z" fill="#FDE1E1"/>
<path d="M153.646 136.634V136.247C153.646 133.955 152.735 131.756 151.114 130.135C149.493 128.514 147.294 127.603 145.001 127.603C142.709 127.603 140.51 128.514 138.889 130.135C137.268 131.756 136.357 133.955 136.357 136.247V136.634C137.998 136.631 139.619 136.276 141.11 135.592C142.601 134.908 143.928 133.881 145.001 132.64C146.074 133.881 147.401 134.908 148.893 135.592C150.384 136.276 152.005 136.631 153.646 136.634Z" fill="#FDE1E1"/>
<path d="M153.646 138.76C153.573 140.921 153.565 143.056 154.691 144.903L148.249 143.766M153.646 138.76V136.247M153.646 138.76V136.634M153.646 136.247C153.646 133.955 152.735 131.756 151.114 130.135C149.493 128.514 147.294 127.603 145.001 127.603C142.709 127.603 140.51 128.514 138.889 130.135C137.268 131.756 136.357 133.955 136.357 136.247M153.646 136.247V136.634M136.357 136.247V138.76M136.357 136.247V136.634M136.357 138.76C136.429 140.921 136.437 143.056 135.312 144.903L141.756 143.766M136.357 138.76V136.634M136.357 136.634C137.998 136.631 139.619 136.276 141.11 135.592C142.601 134.908 143.928 133.881 145.001 132.64C146.074 133.881 147.401 134.908 148.893 135.592C150.384 136.276 152.005 136.631 153.646 136.634M136.357 136.634C136.71 136.633 137.063 137.658 137.413 137.625C137.602 139.506 138.483 141.251 139.885 142.52C140.449 143.03 141.08 143.448 141.756 143.766M153.646 136.634C153.293 136.633 152.942 137.657 152.592 137.625C152.404 139.506 151.523 141.251 150.12 142.52C149.557 143.03 148.925 143.448 148.249 143.766M141.756 143.766C142.764 144.24 143.871 144.491 145.003 144.491C146.134 144.491 147.242 144.24 148.249 143.766M145.001 147.314C141.266 147.314 137.684 148.798 135.043 151.439C132.402 154.08 130.918 157.662 130.918 161.397H159.085C159.085 157.662 157.601 154.08 154.96 151.439C152.319 148.798 148.736 147.314 145.001 147.314Z" stroke="#FDE1E1" stroke-width="2.81667" stroke-linecap="round" stroke-linejoin="round"/>
<rect x="107" y="154.5" width="18" height="5" rx="2.5" fill="#E4E6EA"/>
<rect width="80" height="45" transform="translate(186 119.5)" fill="white"/>
<path fill-rule="evenodd" clip-rule="evenodd" d="M219.215 134.103C219.04 134.718 218.946 135.367 218.946 136.038C218.946 139.933 222.103 143.09 225.997 143.09C229.609 143.09 232.586 140.375 232.999 136.875C230.656 137.532 228.18 137.629 225.775 137.145C223.369 136.662 221.123 135.615 219.215 134.103ZM220.556 131.553C222.2 132.973 224.188 133.95 226.331 134.38C228.474 134.811 230.685 134.678 232.75 134.004C231.877 131.101 229.184 128.987 225.997 128.987C223.807 128.987 221.849 129.986 220.556 131.553ZM235.773 134.653C235.099 129.857 230.979 126.167 225.997 126.167C220.545 126.167 216.125 130.586 216.125 136.038C216.125 141.491 220.545 145.91 225.997 145.91C221.883 145.91 217.937 147.545 215.028 150.454C212.119 153.363 210.484 157.309 210.484 161.423C210.484 161.797 210.633 162.156 210.897 162.42C211.162 162.685 211.521 162.833 211.895 162.833H240.1C240.474 162.833 240.832 162.685 241.097 162.42C241.361 162.156 241.51 161.797 241.51 161.423C241.51 157.309 239.876 153.363 236.966 150.454C234.057 147.545 230.111 145.91 225.997 145.91C231.449 145.91 235.869 141.491 235.869 136.038C235.869 135.605 235.841 135.177 235.787 134.758C235.783 134.723 235.779 134.688 235.773 134.653ZM225.997 148.731C222.631 148.731 219.403 150.068 217.022 152.448C214.977 154.494 213.702 157.166 213.383 160.013H238.611C238.293 157.166 237.017 154.494 234.972 152.448C232.592 150.068 229.363 148.731 225.997 148.731Z" fill="#FDE1E1"/>
<path d="M217.022 152.448C219.403 150.068 222.631 148.731 225.997 148.731C229.363 148.731 232.592 150.068 234.972 152.448C237.017 154.494 238.293 157.166 238.611 160.013H213.383C213.702 157.166 214.977 154.494 217.022 152.448Z" fill="#FDE1E1"/>
<path d="M226.331 134.38C224.188 133.95 222.2 132.973 220.556 131.553C221.849 129.986 223.807 128.987 225.997 128.987C229.184 128.987 231.877 131.101 232.75 134.004C230.685 134.678 228.474 134.811 226.331 134.38Z" fill="#FDE1E1"/>
<rect x="188" y="154.5" width="18" height="5" rx="2.5" fill="#E4E6EA"/>
<rect width="161" height="12" transform="translate(105 165.5)" fill="#E4E6EA"/>
<rect x="104.5" y="73" width="162" height="105" rx="7.5" stroke="#4B5563"/>
<g opacity="0.3">
<rect x="250.5" y="56" width="37" height="37" rx="18.5" fill="#4B5563"/>
<path d="M268.884 86.5823C268.569 86.5823 268.313 86.4843 268.116 86.2884C267.919 86.0925 267.821 85.8368 267.821 85.5214V83.7779C266.704 83.5876 265.767 83.1969 265.011 82.6058C264.255 82.0147 263.659 81.274 263.225 80.3837C263.088 80.1112 263.092 79.8162 263.235 79.4985C263.378 79.1809 263.609 78.954 263.928 78.8177C264.21 78.7177 264.495 78.724 264.783 78.8366C265.072 78.9491 265.308 79.1535 265.493 79.4496C265.881 80.166 266.382 80.6943 266.995 81.0344C267.609 81.3745 268.3 81.5446 269.067 81.5446C270.107 81.5446 270.944 81.2971 271.576 80.8022C272.208 80.3072 272.525 79.6426 272.525 78.8083C272.525 77.8933 272.216 77.164 271.599 76.6203C270.981 76.0766 269.829 75.545 268.141 75.0257C266.6 74.5619 265.434 73.8997 264.643 73.0391C263.853 72.1785 263.458 71.0905 263.458 69.775C263.458 68.6016 263.834 67.5873 264.586 66.7322C265.338 65.8772 266.416 65.3627 267.821 65.1888V63.462C267.821 63.1576 267.919 62.9075 268.116 62.7116C268.313 62.5157 268.569 62.4177 268.884 62.4177C269.187 62.4177 269.439 62.5157 269.642 62.7116C269.844 62.9075 269.945 63.1576 269.945 63.462V65.1888C270.732 65.3139 271.453 65.5681 272.105 65.9514C272.758 66.3348 273.291 66.8279 273.704 67.4308C273.873 67.6921 273.904 67.9733 273.795 68.2743C273.687 68.5752 273.473 68.7938 273.155 68.9301C272.908 69.0426 272.637 69.0569 272.344 68.9728C272.051 68.8888 271.777 68.7112 271.522 68.4402C271.224 68.0905 270.848 67.8246 270.395 67.6428C269.941 67.4609 269.424 67.3699 268.842 67.3699C267.894 67.3699 267.151 67.5722 266.614 67.9768C266.077 68.3814 265.808 68.9571 265.808 69.704C265.808 70.4508 266.084 71.0756 266.637 71.5783C267.189 72.0809 268.374 72.6052 270.191 73.1511C271.749 73.654 272.919 74.343 273.701 75.2181C274.484 76.0932 274.875 77.2455 274.875 78.675C274.864 80.0793 274.443 81.225 273.613 82.112C272.783 82.9989 271.56 83.5653 269.945 83.8112V85.5214C269.945 85.8368 269.844 86.0925 269.642 86.2884C269.439 86.4843 269.187 86.5823 268.884 86.5823Z" fill="#4B5563"/>
<rect x="250.5" y="56" width="37" height="37" rx="18.5" stroke="#4B5563"/>
</g>
<rect x="252.5" y="52" width="39" height="39" rx="19.5" fill="white"/>
<path d="M275.201 78.7H262.401C261.517 78.7 260.801 77.984 260.801 77.1V65.9C260.801 65.016 261.517 64.3 262.401 64.3H275.201C276.085 64.3 276.801 65.016 276.801 65.9V77.1C276.801 77.984 276.085 78.7 275.201 78.7Z" fill="#EE4444"/>
<path d="M282.654 66.1156C282.797 65.9819 282.989 65.9 283.2 65.9C283.642 65.9 284 66.2582 284 66.7V76.3C284 76.7418 283.642 77.1 283.2 77.1C282.989 77.1 282.797 77.0181 282.654 76.8844L279.596 74.1635C278.835 73.487 278.4 72.5178 278.4 71.5C278.4 70.4822 278.835 69.513 279.596 68.8365L282.654 66.1156Z" fill="#EE4444"/>
<rect x="252.5" y="52" width="39" height="39" rx="19.5" stroke="#4B5563"/>
<rect x="292.5" y="98" width="39" height="39" rx="19.5" fill="white"/>
<g clip-path="url(#clip1_819_1794)">
<path d="M303 125.5L304.3 121.6C303.176 119.938 302.77 117.97 303.156 116.062C303.542 114.154 304.695 112.436 306.4 111.226C308.104 110.017 310.245 109.399 312.424 109.487C314.603 109.576 316.672 110.364 318.245 111.707C319.819 113.049 320.791 114.854 320.98 116.785C321.169 118.716 320.563 120.643 319.274 122.207C317.985 123.771 316.101 124.866 313.972 125.287C311.843 125.709 309.614 125.429 307.7 124.5L303 125.5Z" fill="#EE4444" stroke="#EE4444" stroke-width="1.5" stroke-linecap="round" stroke-linejoin="round"/>
</g>
<rect x="292.5" y="98" width="39" height="39" rx="19.5" stroke="#4B5563"/>
<rect x="292.5" y="149" width="39" height="39" rx="19.5" fill="white"/>
<g clip-path="url(#clip2_819_1794)">
<path d="M312 158.5L312.117 158.507C312.34 158.533 312.548 158.634 312.707 158.793C312.866 158.952 312.967 159.16 312.993 159.383L313 159.5V163.5L313.005 163.65C313.041 164.126 313.246 164.574 313.583 164.912C313.92 165.25 314.367 165.457 314.843 165.494L315 165.5H319L319.117 165.507C319.34 165.533 319.548 165.634 319.707 165.793C319.866 165.952 319.967 166.16 319.993 166.383L320 166.5V175.5C320 176.265 319.708 177.002 319.183 177.558C318.658 178.115 317.94 178.45 317.176 178.495L317 178.5H307C306.235 178.5 305.498 178.208 304.942 177.683C304.385 177.158 304.05 176.44 304.005 175.676L304 175.5V161.5C304 160.735 304.292 159.999 304.817 159.442C305.342 158.885 306.06 158.55 306.824 158.505L307 158.5H312Z" fill="#EE4444"/>
<path d="M318.999 163.5H314.999L314.998 159.499L318.999 163.5Z" fill="#EE4444"/>
</g>
<rect x="292.5" y="149" width="39" height="39" rx="19.5" stroke="#4B5563"/>
<g opacity="0.3">
<rect x="68" y="63.5" width="50" height="24" rx="8" fill="#4B5563"/>
</g>
<rect x="70.5" y="58" width="53" height="27" rx="7.5" fill="white"/>
<rect x="70.5" y="58" width="53" height="27" rx="7.5" fill="url(#paint2_linear_819_1794)"/>
<path d="M82.6348 67.3906H85.2861C85.8298 67.3906 86.2969 67.472 86.6875 67.6348C87.0814 67.7975 87.3841 68.0384 87.5957 68.3574C87.8073 68.6764 87.9131 69.0687 87.9131 69.5342C87.9131 69.915 87.848 70.2422 87.7178 70.5156C87.5908 70.7858 87.4102 71.012 87.1758 71.1943C86.9447 71.3734 86.6729 71.5166 86.3604 71.624L85.8965 71.8682H83.5918L83.582 70.7256H85.2959C85.5531 70.7256 85.7663 70.68 85.9355 70.5889C86.1048 70.4977 86.2318 70.3708 86.3164 70.208C86.4043 70.0452 86.4482 69.8564 86.4482 69.6416C86.4482 69.4137 86.4059 69.2168 86.3213 69.0508C86.2367 68.8848 86.1081 68.7578 85.9355 68.6699C85.763 68.582 85.5465 68.5381 85.2861 68.5381H84.0996V74.5H82.6348V67.3906ZM86.6094 74.5L84.9883 71.3311L86.5361 71.3213L88.1768 74.4316V74.5H86.6094ZM95.0809 70.7793V71.1162C95.0809 71.6566 95.0076 72.1416 94.8611 72.5713C94.7146 73.001 94.5079 73.3672 94.241 73.6699C93.9741 73.9694 93.6551 74.1989 93.284 74.3584C92.9161 74.5179 92.5076 74.5977 92.0584 74.5977C91.6124 74.5977 91.2039 74.5179 90.8328 74.3584C90.465 74.1989 90.146 73.9694 89.8758 73.6699C89.6056 73.3672 89.3956 73.001 89.2459 72.5713C89.0994 72.1416 89.0262 71.6566 89.0262 71.1162V70.7793C89.0262 70.2357 89.0994 69.7507 89.2459 69.3242C89.3924 68.8945 89.5991 68.5283 89.866 68.2256C90.1362 67.9229 90.4552 67.6917 90.823 67.5322C91.1941 67.3727 91.6027 67.293 92.0486 67.293C92.4979 67.293 92.9064 67.3727 93.2742 67.5322C93.6453 67.6917 93.9643 67.9229 94.2312 68.2256C94.5014 68.5283 94.7098 68.8945 94.8562 69.3242C95.006 69.7507 95.0809 70.2357 95.0809 70.7793ZM93.6014 71.1162V70.7695C93.6014 70.3919 93.5672 70.0599 93.4988 69.7734C93.4305 69.487 93.3296 69.2461 93.1961 69.0508C93.0626 68.8555 92.8999 68.709 92.7078 68.6113C92.5158 68.5104 92.296 68.46 92.0486 68.46C91.8012 68.46 91.5815 68.5104 91.3895 68.6113C91.2007 68.709 91.0395 68.8555 90.9061 69.0508C90.7758 69.2461 90.6766 69.487 90.6082 69.7734C90.5398 70.0599 90.5057 70.3919 90.5057 70.7695V71.1162C90.5057 71.4906 90.5398 71.8226 90.6082 72.1123C90.6766 72.3988 90.7775 72.6413 90.9109 72.8398C91.0444 73.0352 91.2072 73.1833 91.3992 73.2842C91.5913 73.3851 91.811 73.4355 92.0584 73.4355C92.3058 73.4355 92.5255 73.3851 92.7176 73.2842C92.9096 73.1833 93.0708 73.0352 93.201 72.8398C93.3312 72.6413 93.4305 72.3988 93.4988 72.1123C93.5672 71.8226 93.6014 71.4906 93.6014 71.1162ZM102.175 70.7793V71.1162C102.175 71.6566 102.102 72.1416 101.956 72.5713C101.809 73.001 101.602 73.3672 101.336 73.6699C101.069 73.9694 100.75 74.1989 100.379 74.3584C100.011 74.5179 99.6021 74.5977 99.1529 74.5977C98.707 74.5977 98.2984 74.5179 97.9273 74.3584C97.5595 74.1989 97.2405 73.9694 96.9703 73.6699C96.7001 73.3672 96.4902 73.001 96.3404 72.5713C96.1939 72.1416 96.1207 71.6566 96.1207 71.1162V70.7793C96.1207 70.2357 96.1939 69.7507 96.3404 69.3242C96.4869 68.8945 96.6936 68.5283 96.9605 68.2256C97.2307 67.9229 97.5497 67.6917 97.9176 67.5322C98.2887 67.3727 98.6972 67.293 99.1432 67.293C99.5924 67.293 100.001 67.3727 100.369 67.5322C100.74 67.6917 101.059 67.9229 101.326 68.2256C101.596 68.5283 101.804 68.8945 101.951 69.3242C102.101 69.7507 102.175 70.2357 102.175 70.7793ZM100.696 71.1162V70.7695C100.696 70.3919 100.662 70.0599 100.593 69.7734C100.525 69.487 100.424 69.2461 100.291 69.0508C100.157 68.8555 99.9944 68.709 99.8023 68.6113C99.6103 68.5104 99.3906 68.46 99.1432 68.46C98.8958 68.46 98.676 68.5104 98.484 68.6113C98.2952 68.709 98.134 68.8555 98.0006 69.0508C97.8704 69.2461 97.7711 69.487 97.7027 69.7734C97.6344 70.0599 97.6002 70.3919 97.6002 70.7695V71.1162C97.6002 71.4906 97.6344 71.8226 97.7027 72.1123C97.7711 72.3988 97.872 72.6413 98.0055 72.8398C98.1389 73.0352 98.3017 73.1833 98.4937 73.2842C98.6858 73.3851 98.9055 73.4355 99.1529 73.4355C99.4003 73.4355 99.6201 73.3851 99.8121 73.2842C100.004 73.1833 100.165 73.0352 100.296 72.8398C100.426 72.6413 100.525 72.3988 100.593 72.1123C100.662 71.8226 100.696 71.4906 100.696 71.1162ZM104.099 67.3906H105.339L107.165 72.6104L108.992 67.3906H110.232L107.663 74.5H106.667L104.099 67.3906ZM103.43 67.3906H104.665L104.89 72.4785V74.5H103.43V67.3906ZM109.665 67.3906H110.906V74.5H109.441V72.4785L109.665 67.3906Z" fill="#4B5563"/>
<rect x="70.5" y="58" width="53" height="27" rx="7.5" stroke="#4B5563"/>
</g>
<defs>
<linearGradient id="paint0_linear_819_1794" x1="200" y1="0" x2="200" y2="240" gradientUnits="userSpaceOnUse">
<stop stop-color="white"/>
<stop offset="0.196875" stop-color="white" stop-opacity="0"/>
<stop offset="0.808333" stop-color="white" stop-opacity="0"/>
<stop offset="1" stop-color="white"/>
</linearGradient>
<linearGradient id="paint1_linear_819_1794" x1="2.98023e-06" y1="120" x2="400" y2="120" gradientUnits="userSpaceOnUse">
<stop stop-color="white"/>
<stop offset="0.166667" stop-color="white" stop-opacity="0"/>
<stop offset="0.835" stop-color="white" stop-opacity="0"/>
<stop offset="1" stop-color="white"/>
</linearGradient>
<linearGradient id="paint2_linear_819_1794" x1="97" y1="57.5" x2="97" y2="85.5" gradientUnits="userSpaceOnUse">
<stop stop-color="white"/>
<stop offset="1" stop-color="#F8F9FA"/>
</linearGradient>
<clipPath id="clip0_819_1794">
<rect width="400" height="240" fill="white"/>
</clipPath>
<clipPath id="clip1_819_1794">
<rect width="24" height="24" fill="white" transform="translate(300 105.5)"/>
</clipPath>
<clipPath id="clip2_819_1794">
<rect width="24" height="24" fill="white" transform="translate(300 156.5)"/>
</clipPath>
</defs>
</svg>
