<svg width="401" height="240" viewBox="0 0 401 240" fill="none" xmlns="http://www.w3.org/2000/svg">
<g clip-path="url(#clip0_817_1585)">
<rect width="400" height="240" transform="translate(0.5)" fill="white"/>
<line x1="11" y1="-19" x2="11" y2="258" stroke="#F2F3F5"/>
<line x1="31" y1="-19" x2="31" y2="258" stroke="#F2F3F5"/>
<line x1="51" y1="-19" x2="51" y2="258" stroke="#F2F3F5"/>
<line x1="71" y1="-19" x2="71" y2="258" stroke="#F2F3F5"/>
<line x1="91" y1="-19" x2="91" y2="258" stroke="#F2F3F5"/>
<line x1="111" y1="-19" x2="111" y2="258" stroke="#F2F3F5"/>
<line x1="131" y1="-19" x2="131" y2="258" stroke="#F2F3F5"/>
<line x1="151" y1="-19" x2="151" y2="258" stroke="#F2F3F5"/>
<line x1="171" y1="-19" x2="171" y2="258" stroke="#F2F3F5"/>
<line x1="191" y1="-19" x2="191" y2="258" stroke="#F2F3F5"/>
<line x1="211" y1="-19" x2="211" y2="258" stroke="#F2F3F5"/>
<line x1="231" y1="-19" x2="231" y2="258" stroke="#F2F3F5"/>
<line x1="251" y1="-19" x2="251" y2="258" stroke="#F2F3F5"/>
<line x1="271" y1="-19" x2="271" y2="258" stroke="#F2F3F5"/>
<line x1="291" y1="-19" x2="291" y2="258" stroke="#F2F3F5"/>
<line x1="311" y1="-19" x2="311" y2="258" stroke="#F2F3F5"/>
<line x1="331" y1="-19" x2="331" y2="258" stroke="#F2F3F5"/>
<line x1="351" y1="-19" x2="351" y2="258" stroke="#F2F3F5"/>
<line x1="371" y1="-19" x2="371" y2="258" stroke="#F2F3F5"/>
<line x1="391" y1="-19" x2="391" y2="258" stroke="#F2F3F5"/>
<line x1="-28.5" y1="19.5" x2="429.5" y2="19.5" stroke="#F2F3F5"/>
<line x1="-28.5" y1="39.5" x2="429.5" y2="39.5" stroke="#F2F3F5"/>
<line x1="-28.5" y1="59.5" x2="429.5" y2="59.5" stroke="#F2F3F5"/>
<line x1="-28.5" y1="79.5" x2="429.5" y2="79.5" stroke="#F2F3F5"/>
<line x1="-28.5" y1="99.5" x2="429.5" y2="99.5" stroke="#F2F3F5"/>
<line x1="-28.5" y1="119.5" x2="429.5" y2="119.5" stroke="#F2F3F5"/>
<line x1="-28.5" y1="139.5" x2="429.5" y2="139.5" stroke="#F2F3F5"/>
<line x1="-28.5" y1="159.5" x2="429.5" y2="159.5" stroke="#F2F3F5"/>
<line x1="-28.5" y1="179.5" x2="429.5" y2="179.5" stroke="#F2F3F5"/>
<line x1="-28.5" y1="199.5" x2="429.5" y2="199.5" stroke="#F2F3F5"/>
<line x1="-28.5" y1="219.5" x2="429.5" y2="219.5" stroke="#F2F3F5"/>
<line x1="-28.5" y1="239.5" x2="429.5" y2="239.5" stroke="#F2F3F5"/>
<rect width="400" height="240" transform="translate(0.5)" fill="url(#paint0_linear_817_1585)"/>
<rect width="400" height="240" transform="translate(0.5)" fill="url(#paint1_linear_817_1585)"/>
<rect x="64.5" y="46.5" width="152" height="147" rx="7.5" fill="url(#paint2_linear_817_1585)" stroke="#9BA2AE" stroke-dasharray="4 4"/>
<g opacity="0.3">
<rect x="74.5" y="61" width="116" height="55" rx="8" fill="#4B5563"/>
</g>
<rect x="77.5" y="54.5" width="119" height="58" rx="7.5" fill="url(#paint3_linear_817_1585)"/>
<rect x="115" y="88" width="70" height="5" rx="2.5" fill="#FDE1E1"/>
<rect x="115" y="98" width="43.75" height="3" rx="1.5" fill="#E4E6EA"/>
<rect x="87" y="88" width="16" height="5" rx="2.5" fill="#EE4444"/>
<path d="M91.7559 72.6416H93.2158C93.1865 73.1201 93.0547 73.5449 92.8203 73.916C92.5892 74.2871 92.2653 74.5768 91.8486 74.7852C91.4352 74.9935 90.9372 75.0977 90.3545 75.0977C89.8988 75.0977 89.4902 75.0195 89.1289 74.8633C88.7676 74.7038 88.4583 74.4759 88.2012 74.1797C87.9473 73.8835 87.7536 73.5254 87.6201 73.1055C87.4867 72.6855 87.4199 72.2152 87.4199 71.6943V71.2012C87.4199 70.6803 87.4883 70.21 87.625 69.79C87.765 69.3669 87.9635 69.0072 88.2207 68.7109C88.4811 68.4147 88.792 68.1868 89.1533 68.0273C89.5146 67.8678 89.9183 67.7881 90.3643 67.7881C90.9567 67.7881 91.4564 67.8955 91.8633 68.1104C92.2734 68.3252 92.5908 68.6214 92.8154 68.999C93.0433 69.3766 93.18 69.8063 93.2256 70.2881H91.7607C91.7445 70.0016 91.6875 69.7591 91.5898 69.5605C91.4922 69.3587 91.3441 69.2074 91.1455 69.1064C90.9502 69.0023 90.6898 68.9502 90.3643 68.9502C90.1201 68.9502 89.9069 68.9958 89.7246 69.0869C89.5423 69.1781 89.3893 69.3164 89.2656 69.502C89.1419 69.6875 89.0492 69.9219 88.9873 70.2051C88.9287 70.485 88.8994 70.8138 88.8994 71.1914V71.6943C88.8994 72.0622 88.9271 72.3861 88.9824 72.666C89.0378 72.9427 89.1224 73.1771 89.2363 73.3691C89.3535 73.5579 89.5033 73.7012 89.6855 73.7988C89.8711 73.8932 90.0941 73.9404 90.3545 73.9404C90.6605 73.9404 90.9128 73.8916 91.1113 73.7939C91.3099 73.6963 91.4613 73.5514 91.5654 73.3594C91.6729 73.1673 91.7363 72.9281 91.7559 72.6416ZM98.3035 67.8906H99.7635V72.5879C99.7635 73.1348 99.6463 73.5954 99.4119 73.9697C99.1808 74.3441 98.8602 74.6257 98.45 74.8145C98.0431 75.0033 97.5743 75.0977 97.0437 75.0977C96.5132 75.0977 96.0411 75.0033 95.6277 74.8145C95.2176 74.6257 94.8953 74.3441 94.6609 73.9697C94.4298 73.5954 94.3143 73.1348 94.3143 72.5879V67.8906H95.7791V72.5879C95.7791 72.9069 95.8296 73.1673 95.9305 73.3691C96.0314 73.571 96.1762 73.7191 96.365 73.8135C96.5571 73.9079 96.7833 73.9551 97.0437 73.9551C97.3107 73.9551 97.5369 73.9079 97.7225 73.8135C97.9113 73.7191 98.0545 73.571 98.1521 73.3691C98.2531 73.1673 98.3035 72.9069 98.3035 72.5879V67.8906ZM104.871 73.1396C104.871 73.0127 104.851 72.8988 104.812 72.7979C104.776 72.6937 104.708 72.5993 104.607 72.5146C104.506 72.4268 104.365 72.3405 104.182 72.2559C104 72.1712 103.764 72.0833 103.474 71.9922C103.152 71.888 102.846 71.7708 102.556 71.6406C102.27 71.5104 102.016 71.359 101.795 71.1865C101.576 71.0107 101.404 70.8073 101.277 70.5762C101.153 70.3451 101.091 70.0765 101.091 69.7705C101.091 69.4743 101.157 69.2057 101.287 68.9648C101.417 68.7207 101.599 68.5124 101.834 68.3398C102.068 68.1641 102.345 68.029 102.664 67.9346C102.986 67.8402 103.339 67.793 103.723 67.793C104.247 67.793 104.705 67.8874 105.095 68.0762C105.486 68.265 105.789 68.5238 106.004 68.8525C106.222 69.1813 106.331 69.5573 106.331 69.9805H104.876C104.876 69.7721 104.832 69.5898 104.744 69.4336C104.659 69.2741 104.529 69.1488 104.353 69.0576C104.181 68.9665 103.962 68.9209 103.699 68.9209C103.445 68.9209 103.233 68.96 103.064 69.0381C102.895 69.113 102.768 69.2155 102.683 69.3457C102.599 69.4727 102.556 69.6159 102.556 69.7754C102.556 69.8958 102.586 70.0049 102.644 70.1025C102.706 70.2002 102.797 70.2913 102.918 70.376C103.038 70.4606 103.186 70.5404 103.362 70.6152C103.538 70.6901 103.741 70.7633 103.972 70.835C104.36 70.9521 104.7 71.084 104.993 71.2305C105.289 71.377 105.536 71.5413 105.735 71.7236C105.934 71.9059 106.083 72.1126 106.184 72.3438C106.285 72.5749 106.336 72.8369 106.336 73.1299C106.336 73.4391 106.275 73.7158 106.155 73.96C106.034 74.2041 105.86 74.4108 105.632 74.5801C105.405 74.7493 105.133 74.8779 104.817 74.9658C104.501 75.0537 104.148 75.0977 103.757 75.0977C103.406 75.0977 103.059 75.0521 102.717 74.9609C102.376 74.8665 102.065 74.7249 101.785 74.5361C101.508 74.3473 101.287 74.1064 101.121 73.8135C100.955 73.5205 100.872 73.1738 100.872 72.7734H102.341C102.341 72.9948 102.376 73.182 102.444 73.335C102.512 73.488 102.608 73.6117 102.732 73.7061C102.859 73.8005 103.009 73.8688 103.181 73.9111C103.357 73.9535 103.549 73.9746 103.757 73.9746C104.011 73.9746 104.22 73.9388 104.382 73.8672C104.548 73.7956 104.671 73.6963 104.749 73.5693C104.83 73.4424 104.871 73.2992 104.871 73.1396ZM110.71 67.8906V75H109.25V67.8906H110.71ZM112.898 67.8906V69.0381H107.097V67.8906H112.898ZM119.636 71.2793V71.6162C119.636 72.1566 119.563 72.6416 119.416 73.0713C119.27 73.501 119.063 73.8672 118.796 74.1699C118.529 74.4694 118.21 74.6989 117.839 74.8584C117.471 75.0179 117.063 75.0977 116.613 75.0977C116.168 75.0977 115.759 75.0179 115.388 74.8584C115.02 74.6989 114.701 74.4694 114.431 74.1699C114.161 73.8672 113.951 73.501 113.801 73.0713C113.654 72.6416 113.581 72.1566 113.581 71.6162V71.2793C113.581 70.7357 113.654 70.2507 113.801 69.8242C113.947 69.3945 114.154 69.0283 114.421 68.7256C114.691 68.4229 115.01 68.1917 115.378 68.0322C115.749 67.8727 116.158 67.793 116.604 67.793C117.053 67.793 117.461 67.8727 117.829 68.0322C118.2 68.1917 118.519 68.4229 118.786 68.7256C119.057 69.0283 119.265 69.3945 119.411 69.8242C119.561 70.2507 119.636 70.7357 119.636 71.2793ZM118.156 71.6162V71.2695C118.156 70.8919 118.122 70.5599 118.054 70.2734C117.986 69.987 117.885 69.7461 117.751 69.5508C117.618 69.3555 117.455 69.209 117.263 69.1113C117.071 69.0104 116.851 68.96 116.604 68.96C116.356 68.96 116.137 69.0104 115.945 69.1113C115.756 69.209 115.595 69.3555 115.461 69.5508C115.331 69.7461 115.232 69.987 115.163 70.2734C115.095 70.5599 115.061 70.8919 115.061 71.2695V71.6162C115.061 71.9906 115.095 72.3226 115.163 72.6123C115.232 72.8988 115.333 73.1413 115.466 73.3398C115.599 73.5352 115.762 73.6833 115.954 73.7842C116.146 73.8851 116.366 73.9355 116.613 73.9355C116.861 73.9355 117.081 73.8851 117.273 73.7842C117.465 73.6833 117.626 73.5352 117.756 73.3398C117.886 73.1413 117.986 72.8988 118.054 72.6123C118.122 72.3226 118.156 71.9906 118.156 71.6162ZM121.56 67.8906H122.8L124.626 73.1104L126.452 67.8906H127.692L125.124 75H124.128L121.56 67.8906ZM120.891 67.8906H122.126L122.351 72.9785V75H120.891V67.8906ZM127.126 67.8906H128.366V75H126.901V72.9785L127.126 67.8906ZM134.723 75H133.175L133.185 73.8574H134.723C135.107 73.8574 135.431 73.7712 135.695 73.5986C135.959 73.4229 136.157 73.1673 136.291 72.832C136.427 72.4967 136.496 72.0915 136.496 71.6162V71.2695C136.496 70.9049 136.457 70.5843 136.379 70.3076C136.304 70.0309 136.191 69.7982 136.042 69.6094C135.892 69.4206 135.708 69.279 135.49 69.1846C135.272 69.0869 135.021 69.0381 134.738 69.0381H133.146V67.8906H134.738C135.213 67.8906 135.648 67.972 136.042 68.1348C136.439 68.2943 136.782 68.5238 137.072 68.8232C137.362 69.1227 137.585 69.4808 137.741 69.8975C137.9 70.3109 137.98 70.7715 137.98 71.2793V71.6162C137.98 72.1208 137.9 72.5814 137.741 72.998C137.585 73.4147 137.362 73.7728 137.072 74.0723C136.785 74.3685 136.442 74.598 136.042 74.7607C135.644 74.9202 135.205 75 134.723 75ZM134.005 67.8906V75H132.541V67.8906H134.005ZM142.028 69.1064L140.094 75H138.537L141.178 67.8906H142.169L142.028 69.1064ZM143.634 75L141.696 69.1064L141.539 67.8906H142.54L145.197 75H143.634ZM143.546 72.3535V73.501H139.791V72.3535H143.546ZM148.629 67.8906V75H147.169V67.8906H148.629ZM150.817 67.8906V69.0381H145.016V67.8906H150.817ZM154.215 69.1064L152.281 75H150.724L153.365 67.8906H154.356L154.215 69.1064ZM155.821 75L153.883 69.1064L153.727 67.8906H154.728L157.384 75H155.821ZM155.733 72.3535V73.501H151.979V72.3535H155.733Z" fill="#4B5563"/>
<rect x="77.5" y="54.5" width="119" height="58" rx="7.5" stroke="#4B5563"/>
<rect x="77.5" y="126.5" width="119" height="58" rx="7.5" fill="white"/>
<rect x="115" y="160" width="70" height="5" rx="2.5" fill="#E4E6EA"/>
<rect x="115" y="170" width="43.75" height="3" rx="1.5" fill="#E4E6EA"/>
<rect x="87" y="160" width="16" height="5" rx="2.5" fill="#E4E6EA"/>
<path d="M90.5254 141.106L88.5918 147H87.0342L89.6758 139.891H90.667L90.5254 141.106ZM92.1318 147L90.1934 141.106L90.0371 139.891H91.0381L93.6943 147H92.1318ZM92.0439 144.354V145.501H88.2891V144.354H92.0439ZM100.34 139.891V147H98.8748L96.0184 142.234V147H94.5535V139.891H96.0184L98.8797 144.661V139.891H100.34ZM104.793 141.106L102.859 147H101.301L103.943 139.891H104.934L104.793 141.106ZM106.399 147L104.461 141.106L104.304 139.891H105.305L107.962 147H106.399ZM106.311 144.354V145.501H102.556V144.354H106.311ZM113.391 145.857V147H109.812V145.857H113.391ZM110.286 139.891V147H108.821V139.891H110.286ZM114.099 139.891L115.583 143.133L117.068 139.891H118.664L116.325 144.412V147H114.841V144.412L112.497 139.891H114.099ZM122.78 139.891V147H121.32V139.891H122.78ZM124.968 139.891V141.038H119.167V139.891H124.968ZM127.56 139.891V147H126.1V139.891H127.56ZM133.254 144.642H134.713C134.684 145.12 134.552 145.545 134.318 145.916C134.087 146.287 133.763 146.577 133.346 146.785C132.933 146.993 132.435 147.098 131.852 147.098C131.396 147.098 130.988 147.02 130.627 146.863C130.265 146.704 129.956 146.476 129.699 146.18C129.445 145.883 129.251 145.525 129.118 145.105C128.984 144.686 128.918 144.215 128.918 143.694V143.201C128.918 142.68 128.986 142.21 129.123 141.79C129.263 141.367 129.461 141.007 129.718 140.711C129.979 140.415 130.29 140.187 130.651 140.027C131.012 139.868 131.416 139.788 131.862 139.788C132.454 139.788 132.954 139.896 133.361 140.11C133.771 140.325 134.088 140.621 134.313 140.999C134.541 141.377 134.678 141.806 134.723 142.288H133.258C133.242 142.002 133.185 141.759 133.088 141.561C132.99 141.359 132.842 141.207 132.643 141.106C132.448 141.002 132.187 140.95 131.862 140.95C131.618 140.95 131.405 140.996 131.222 141.087C131.04 141.178 130.887 141.316 130.763 141.502C130.64 141.688 130.547 141.922 130.485 142.205C130.426 142.485 130.397 142.814 130.397 143.191V143.694C130.397 144.062 130.425 144.386 130.48 144.666C130.535 144.943 130.62 145.177 130.734 145.369C130.851 145.558 131.001 145.701 131.183 145.799C131.369 145.893 131.592 145.94 131.852 145.94C132.158 145.94 132.41 145.892 132.609 145.794C132.808 145.696 132.959 145.551 133.063 145.359C133.171 145.167 133.234 144.928 133.254 144.642ZM139.577 145.14C139.577 145.013 139.557 144.899 139.518 144.798C139.482 144.694 139.414 144.599 139.313 144.515C139.212 144.427 139.07 144.34 138.888 144.256C138.706 144.171 138.47 144.083 138.18 143.992C137.858 143.888 137.552 143.771 137.262 143.641C136.976 143.51 136.722 143.359 136.5 143.187C136.282 143.011 136.11 142.807 135.983 142.576C135.859 142.345 135.797 142.076 135.797 141.771C135.797 141.474 135.862 141.206 135.993 140.965C136.123 140.721 136.305 140.512 136.539 140.34C136.774 140.164 137.051 140.029 137.37 139.935C137.692 139.84 138.045 139.793 138.429 139.793C138.953 139.793 139.411 139.887 139.801 140.076C140.192 140.265 140.495 140.524 140.709 140.853C140.927 141.181 141.037 141.557 141.037 141.98H139.581C139.581 141.772 139.537 141.59 139.45 141.434C139.365 141.274 139.235 141.149 139.059 141.058C138.886 140.966 138.668 140.921 138.405 140.921C138.151 140.921 137.939 140.96 137.77 141.038C137.601 141.113 137.474 141.215 137.389 141.346C137.304 141.473 137.262 141.616 137.262 141.775C137.262 141.896 137.291 142.005 137.35 142.103C137.412 142.2 137.503 142.291 137.623 142.376C137.744 142.461 137.892 142.54 138.068 142.615C138.244 142.69 138.447 142.763 138.678 142.835C139.065 142.952 139.406 143.084 139.699 143.23C139.995 143.377 140.242 143.541 140.441 143.724C140.639 143.906 140.789 144.113 140.89 144.344C140.991 144.575 141.041 144.837 141.041 145.13C141.041 145.439 140.981 145.716 140.861 145.96C140.74 146.204 140.566 146.411 140.338 146.58C140.11 146.749 139.839 146.878 139.523 146.966C139.207 147.054 138.854 147.098 138.463 147.098C138.112 147.098 137.765 147.052 137.423 146.961C137.081 146.867 136.771 146.725 136.491 146.536C136.214 146.347 135.993 146.106 135.827 145.813C135.661 145.521 135.578 145.174 135.578 144.773H137.047C137.047 144.995 137.081 145.182 137.15 145.335C137.218 145.488 137.314 145.612 137.438 145.706C137.565 145.8 137.715 145.869 137.887 145.911C138.063 145.953 138.255 145.975 138.463 145.975C138.717 145.975 138.926 145.939 139.088 145.867C139.254 145.796 139.376 145.696 139.454 145.569C139.536 145.442 139.577 145.299 139.577 145.14Z" fill="#4B5563"/>
<rect x="77.5" y="126.5" width="119" height="58" rx="7.5" stroke="#4B5563"/>
<rect x="266.5" y="83.5" width="71" height="71" rx="7.5" fill="url(#paint4_linear_817_1585)"/>
<path d="M309.725 116.078L308.668 114.944C308.67 114.934 308.669 114.924 308.668 114.909C308.691 114.656 308.706 114.401 308.716 114.146C308.718 114.073 308.715 113.994 308.717 113.92C308.719 113.725 308.716 113.536 308.707 113.347C308.703 113.264 308.699 113.187 308.694 113.105C308.689 112.979 308.683 112.854 308.673 112.723L309.733 111.596C310.238 111.058 311.155 110.343 310.875 109.663L309.715 106.849C309.434 106.168 308.281 106.311 307.544 106.285L305.997 106.229C305.88 106.089 305.754 105.956 305.633 105.822C305.629 105.816 305.623 105.809 305.617 105.801C305.574 105.756 305.538 105.707 305.494 105.663C305.429 105.591 305.353 105.523 305.286 105.454C305.188 105.355 305.09 105.255 304.99 105.16C304.825 105.001 304.651 104.852 304.48 104.703C304.473 104.696 304.462 104.69 304.456 104.685C304.447 104.676 304.438 104.666 304.429 104.657L304.379 103.107C304.356 102.374 304.501 101.219 303.824 100.937L301.009 99.7657C300.332 99.4838 299.612 100.402 299.076 100.902L297.942 101.961C297.688 101.935 297.436 101.922 297.183 101.912C297.113 101.909 297.042 101.911 296.966 101.911C296.803 101.91 296.639 101.905 296.472 101.912C296.261 101.918 296.049 101.931 295.839 101.95C295.812 101.951 295.784 101.951 295.763 101.953C295.748 101.956 295.737 101.954 295.721 101.957L294.594 100.895C294.057 100.393 293.341 99.4725 292.661 99.7528L289.847 100.912C289.166 101.193 289.31 102.349 289.283 103.084L289.228 104.633C289.211 104.646 289.194 104.663 289.178 104.679C288.993 104.833 288.812 104.992 288.635 105.158C288.57 105.222 288.508 105.286 288.444 105.351C288.319 105.473 288.193 105.599 288.073 105.728C288.011 105.795 287.955 105.863 287.895 105.932C287.813 106.02 287.734 106.107 287.656 106.201L286.105 106.248C285.372 106.271 284.217 106.127 283.935 106.803L282.763 109.618C282.481 110.296 283.398 111.013 283.899 111.549L284.957 112.683C284.94 112.859 284.932 113.033 284.923 113.211C284.923 113.227 284.92 113.244 284.92 113.261C284.906 113.562 284.899 113.862 284.909 114.162C284.914 114.293 284.924 114.422 284.932 114.554C284.94 114.66 284.942 114.768 284.952 114.873C284.951 114.885 284.952 114.896 284.953 114.903L283.893 116.034C283.39 116.57 282.469 117.284 282.749 117.964L283.909 120.778C284.19 121.459 285.346 121.318 286.081 121.344L287.629 121.397C287.64 121.412 287.652 121.421 287.663 121.437C287.82 121.625 287.985 121.809 288.157 121.995C288.217 122.06 288.281 122.116 288.343 122.179C288.469 122.307 288.596 122.434 288.727 122.557C288.792 122.613 288.86 122.672 288.925 122.732C289.017 122.813 289.106 122.896 289.197 122.969L289.245 124.519C289.268 125.253 289.124 126.411 289.801 126.692L292.616 127.864C293.294 128.146 294.01 127.229 294.547 126.728L295.681 125.672C295.694 125.673 295.706 125.671 295.718 125.671C295.865 125.687 296.009 125.693 296.154 125.7C296.198 125.704 296.24 125.704 296.281 125.709C296.349 125.711 296.415 125.716 296.48 125.719C296.558 125.72 296.636 125.718 296.713 125.718C296.903 125.722 297.092 125.719 297.279 125.71C297.361 125.707 297.445 125.701 297.525 125.696C297.653 125.691 297.776 125.684 297.901 125.677L299.031 126.735C299.569 127.24 300.281 128.159 300.961 127.878L303.775 126.718C304.456 126.437 304.315 125.283 304.341 124.546L304.395 123C304.527 122.89 304.655 122.775 304.778 122.662C304.796 122.642 304.816 122.628 304.835 122.612C304.878 122.571 304.924 122.537 304.961 122.498C305.036 122.431 305.1 122.358 305.169 122.292C305.266 122.193 305.37 122.094 305.469 121.991C305.614 121.836 305.759 121.674 305.899 121.505C305.915 121.49 305.928 121.477 305.941 121.457C305.953 121.447 305.96 121.44 305.967 121.432L307.516 121.382C308.249 121.359 309.407 121.503 309.689 120.826L310.861 118.011C311.144 117.334 310.225 116.615 309.725 116.078ZM303.005 113.815C303.005 117.234 300.232 120.007 296.813 120.007C293.393 120.007 290.621 117.234 290.621 113.815C290.621 110.395 293.393 107.623 296.813 107.623C300.232 107.623 303.005 110.395 303.005 113.815Z" fill="#EE4444"/>
<g clip-path="url(#clip1_817_1585)">
<path d="M320.741 128.201L319.886 127.836C319.884 127.831 319.881 127.825 319.877 127.818C319.828 127.673 319.774 127.53 319.717 127.388C319.7 127.347 319.679 127.304 319.662 127.264C319.616 127.156 319.568 127.053 319.517 126.952C319.495 126.907 319.474 126.866 319.451 126.823C319.417 126.754 319.383 126.688 319.346 126.618L319.652 125.742C319.797 125.324 320.126 124.708 319.806 124.404L318.484 123.144C318.163 122.839 317.566 123.199 317.156 123.365L316.295 123.712C316.196 123.664 316.095 123.621 315.996 123.577C315.992 123.575 315.987 123.572 315.982 123.57C315.947 123.556 315.915 123.538 315.881 123.524C315.827 123.501 315.769 123.482 315.715 123.46C315.638 123.43 315.56 123.399 315.482 123.371C315.352 123.325 315.221 123.285 315.091 123.246C315.085 123.243 315.077 123.243 315.073 123.242C315.066 123.239 315.059 123.235 315.051 123.232L314.646 122.395C314.454 121.999 314.252 121.331 313.812 121.341L311.983 121.386C311.543 121.397 311.373 122.076 311.201 122.481L310.838 123.338C310.692 123.386 310.551 123.44 310.41 123.496C310.371 123.512 310.332 123.53 310.291 123.549C310.201 123.588 310.11 123.625 310.02 123.67C309.906 123.725 309.793 123.784 309.682 123.845C309.668 123.853 309.653 123.859 309.641 123.865C309.634 123.871 309.627 123.872 309.62 123.878L308.742 123.571C308.325 123.426 307.709 123.097 307.404 123.416L306.145 124.739C305.84 125.059 306.201 125.657 306.365 126.067L306.713 126.929C306.707 126.94 306.702 126.954 306.697 126.966C306.634 127.096 306.573 127.228 306.517 127.361C306.497 127.412 306.478 127.463 306.459 127.514C306.42 127.611 306.382 127.711 306.347 127.811C306.33 127.863 306.316 127.914 306.299 127.966C306.276 128.035 306.254 128.102 306.234 128.172L305.396 128.577C304.999 128.768 304.331 128.971 304.342 129.411L304.386 131.239C304.397 131.68 305.075 131.849 305.48 132.021L306.337 132.384C306.37 132.484 306.409 132.582 306.447 132.682C306.451 132.69 306.454 132.701 306.458 132.71C306.523 132.878 306.593 133.044 306.672 133.206C306.706 133.277 306.743 133.345 306.78 133.415C306.81 133.472 306.837 133.53 306.869 133.586C306.871 133.592 306.874 133.598 306.877 133.602L306.571 134.48C306.427 134.897 306.096 135.513 306.416 135.817L307.738 137.077C308.058 137.382 308.657 137.022 309.067 136.857L309.928 136.508C309.938 136.514 309.947 136.516 309.957 136.522C310.089 136.587 310.224 136.647 310.363 136.707C310.412 136.728 310.461 136.743 310.51 136.763C310.611 136.802 310.711 136.841 310.813 136.876C310.862 136.891 310.914 136.907 310.965 136.924C311.034 136.946 311.103 136.969 311.171 136.987L311.576 137.825C311.767 138.222 311.971 138.891 312.411 138.881L314.24 138.836C314.68 138.825 314.849 138.148 315.021 137.742L315.385 136.887C315.392 136.884 315.398 136.88 315.405 136.877C315.489 136.85 315.57 136.818 315.651 136.787C315.676 136.778 315.699 136.768 315.723 136.76C315.761 136.745 315.798 136.732 315.834 136.717C315.877 136.699 315.919 136.679 315.962 136.66C316.067 136.616 316.17 136.568 316.27 136.517C316.314 136.496 316.359 136.472 316.402 136.45C316.47 136.415 316.536 136.382 316.603 136.347L317.48 136.652C317.899 136.797 318.513 137.127 318.817 136.807L320.077 135.485C320.382 135.164 320.023 134.566 319.857 134.156L319.509 133.296C319.555 133.203 319.597 133.108 319.637 133.016C319.641 133.001 319.649 132.989 319.655 132.975C319.669 132.942 319.686 132.912 319.697 132.882C319.722 132.827 319.739 132.771 319.76 132.718C319.79 132.64 319.823 132.561 319.852 132.48C319.893 132.36 319.933 132.235 319.969 132.109C319.974 132.097 319.978 132.086 319.98 132.072C319.984 132.064 319.986 132.058 319.988 132.052L320.825 131.647C321.221 131.455 321.891 131.251 321.88 130.812L321.836 128.983C321.826 128.543 321.147 128.373 320.741 128.201ZM316.506 128.6C317.34 130.474 316.497 132.671 314.623 133.505C312.748 134.34 310.552 133.497 309.717 131.622C308.883 129.748 309.726 127.551 311.6 126.717C313.475 125.882 315.671 126.725 316.506 128.6Z" fill="#FDC9C9"/>
</g>
<rect x="266.5" y="83.5" width="71" height="71" rx="7.5" stroke="#4B5563"/>
<circle cx="205" cy="120" r="4" fill="#6B7280"/>
<circle cx="267" cy="120" r="6" fill="#6B7280"/>
<rect x="207.666" y="119.5" width="56.8889" height="1" fill="#6B7280"/>
</g>
<defs>
<linearGradient id="paint0_linear_817_1585" x1="200" y1="0" x2="200" y2="240" gradientUnits="userSpaceOnUse">
<stop stop-color="white"/>
<stop offset="0.196875" stop-color="white" stop-opacity="0"/>
<stop offset="0.808333" stop-color="white" stop-opacity="0"/>
<stop offset="1" stop-color="white"/>
</linearGradient>
<linearGradient id="paint1_linear_817_1585" x1="2.98023e-06" y1="120" x2="400" y2="120" gradientUnits="userSpaceOnUse">
<stop stop-color="white"/>
<stop offset="0.166667" stop-color="white" stop-opacity="0"/>
<stop offset="0.835" stop-color="white" stop-opacity="0"/>
<stop offset="1" stop-color="white"/>
</linearGradient>
<linearGradient id="paint2_linear_817_1585" x1="140.5" y1="46" x2="140.5" y2="194" gradientUnits="userSpaceOnUse">
<stop stop-color="white" stop-opacity="0.5"/>
<stop offset="1" stop-color="white" stop-opacity="0.75"/>
</linearGradient>
<linearGradient id="paint3_linear_817_1585" x1="137" y1="54" x2="137" y2="113" gradientUnits="userSpaceOnUse">
<stop stop-color="white"/>
<stop offset="1" stop-color="#F8F9FA"/>
</linearGradient>
<linearGradient id="paint4_linear_817_1585" x1="302" y1="83" x2="302" y2="155" gradientUnits="userSpaceOnUse">
<stop stop-color="white"/>
<stop offset="1" stop-color="#F8F9FA"/>
</linearGradient>
<clipPath id="clip0_817_1585">
<rect width="400" height="240" fill="white" transform="translate(0.5)"/>
</clipPath>
<clipPath id="clip1_817_1585">
<rect width="17.7778" height="17.7778" fill="white" transform="translate(304.227 121.222)"/>
</clipPath>
</defs>
</svg>
