<svg width="401" height="240" viewBox="0 0 401 240" fill="none" xmlns="http://www.w3.org/2000/svg">
<g clip-path="url(#clip0_817_1463)">
<rect width="400" height="240" transform="translate(0.5)" fill="white"/>
<line x1="11" y1="-19" x2="11" y2="258" stroke="#F2F3F5"/>
<line x1="31" y1="-19" x2="31" y2="258" stroke="#F2F3F5"/>
<line x1="51" y1="-19" x2="51" y2="258" stroke="#F2F3F5"/>
<line x1="71" y1="-19" x2="71" y2="258" stroke="#F2F3F5"/>
<line x1="91" y1="-19" x2="91" y2="258" stroke="#F2F3F5"/>
<line x1="111" y1="-19" x2="111" y2="258" stroke="#F2F3F5"/>
<line x1="131" y1="-19" x2="131" y2="258" stroke="#F2F3F5"/>
<line x1="151" y1="-19" x2="151" y2="258" stroke="#F2F3F5"/>
<line x1="171" y1="-19" x2="171" y2="258" stroke="#F2F3F5"/>
<line x1="191" y1="-19" x2="191" y2="258" stroke="#F2F3F5"/>
<line x1="211" y1="-19" x2="211" y2="258" stroke="#F2F3F5"/>
<line x1="231" y1="-19" x2="231" y2="258" stroke="#F2F3F5"/>
<line x1="251" y1="-19" x2="251" y2="258" stroke="#F2F3F5"/>
<line x1="271" y1="-19" x2="271" y2="258" stroke="#F2F3F5"/>
<line x1="291" y1="-19" x2="291" y2="258" stroke="#F2F3F5"/>
<line x1="311" y1="-19" x2="311" y2="258" stroke="#F2F3F5"/>
<line x1="331" y1="-19" x2="331" y2="258" stroke="#F2F3F5"/>
<line x1="351" y1="-19" x2="351" y2="258" stroke="#F2F3F5"/>
<line x1="371" y1="-19" x2="371" y2="258" stroke="#F2F3F5"/>
<line x1="391" y1="-19" x2="391" y2="258" stroke="#F2F3F5"/>
<line x1="-28.5" y1="19.5" x2="429.5" y2="19.5" stroke="#F2F3F5"/>
<line x1="-28.5" y1="39.5" x2="429.5" y2="39.5" stroke="#F2F3F5"/>
<line x1="-28.5" y1="59.5" x2="429.5" y2="59.5" stroke="#F2F3F5"/>
<line x1="-28.5" y1="79.5" x2="429.5" y2="79.5" stroke="#F2F3F5"/>
<line x1="-28.5" y1="99.5" x2="429.5" y2="99.5" stroke="#F2F3F5"/>
<line x1="-28.5" y1="119.5" x2="429.5" y2="119.5" stroke="#F2F3F5"/>
<line x1="-28.5" y1="139.5" x2="429.5" y2="139.5" stroke="#F2F3F5"/>
<line x1="-28.5" y1="159.5" x2="429.5" y2="159.5" stroke="#F2F3F5"/>
<line x1="-28.5" y1="179.5" x2="429.5" y2="179.5" stroke="#F2F3F5"/>
<line x1="-28.5" y1="199.5" x2="429.5" y2="199.5" stroke="#F2F3F5"/>
<line x1="-28.5" y1="219.5" x2="429.5" y2="219.5" stroke="#F2F3F5"/>
<line x1="-28.5" y1="239.5" x2="429.5" y2="239.5" stroke="#F2F3F5"/>
<rect width="400" height="240" transform="translate(0.5)" fill="url(#paint0_linear_817_1463)"/>
<rect width="400" height="240" transform="translate(0.5)" fill="url(#paint1_linear_817_1463)"/>
<rect x="85" y="56.5" width="231" height="119" rx="7.5" fill="url(#paint2_linear_817_1463)" stroke="#9BA2AE" stroke-dasharray="4 4"/>
<rect x="69" y="36.5" width="71" height="79" rx="7.5" fill="white"/>
<path d="M104.5 77.75C105.881 77.75 107 76.6307 107 75.25C107 73.8693 105.881 72.75 104.5 72.75C103.119 72.75 102 73.8693 102 75.25C102 76.6307 103.119 77.75 104.5 77.75Z" fill="#6B7280"/>
<path d="M99.0156 69.9531C100.491 68.5379 102.456 67.7477 104.5 67.7477C106.544 67.7477 108.509 68.5379 109.984 69.9531" stroke="#6B7280" stroke-width="3.75" stroke-linecap="round" stroke-linejoin="round"/>
<path d="M93.7188 64.6406C96.6022 61.827 100.471 60.2521 104.5 60.2521C108.529 60.2521 112.398 61.827 115.281 64.6406" stroke="#E4E6EA" stroke-width="3.75" stroke-linecap="round" stroke-linejoin="round"/>
<path d="M88.4219 59.3438C92.7076 55.1204 98.483 52.7528 104.5 52.7528C110.517 52.7528 116.292 55.1204 120.578 59.3438" stroke="#E4E6EA" stroke-width="3.75" stroke-linecap="round" stroke-linejoin="round"/>
<path d="M94.1798 103.646L95.879 96.4688H96.8282L97.045 97.6641L95.2345 105H94.2149L94.1798 103.646ZM93.3067 96.4688L94.713 103.646L94.5958 105H93.4591L91.5665 96.4688H93.3067ZM98.5391 103.617L99.9278 96.4688H101.668L99.7813 105H98.6446L98.5391 103.617ZM97.3614 96.4688L99.0723 103.676L99.0255 105H98.0059L96.1837 97.6582L96.418 96.4688H97.3614ZM105.212 96.4688V105H103.46V96.4688H105.212ZM109.337 96.4688V105H107.579V96.4688H109.337ZM112.735 100.113V101.484H108.856V100.113H112.735ZM113.145 96.4688V97.8457H108.856V96.4688H113.145ZM116.754 96.4688V105H115.002V96.4688H116.754Z" fill="#4B5563"/>
<rect x="69" y="36.5" width="71" height="79" rx="7.5" stroke="#4B5563"/>
<rect x="253" y="36.5" width="76" height="79" rx="7.5" fill="white"/>
<rect width="40" height="40" transform="translate(271 44)" fill="white"/>
<path d="M277.983 70.4702H276.516C275.31 70.4702 274.333 71.5719 274.333 72.9308V78.4627C274.333 79.823 275.31 80.9238 276.516 80.9238H277.983C279.189 80.9238 280.166 79.823 280.166 78.4627V72.9308C280.166 71.5719 279.189 70.4702 277.983 70.4702Z" fill="#6B7280"/>
<path d="M286.792 64.2269H285.138C283.985 64.2269 283.049 65.3286 283.049 66.6875V67.0778V78.0739V78.4639C283.049 79.8239 283.985 80.9247 285.138 80.9247H286.792C287.946 80.9247 288.882 79.8239 288.882 78.4639V78.0739V67.0778V66.6875C288.882 65.3286 287.946 64.2269 286.792 64.2269Z" fill="#6B7280"/>
<path d="M295.656 57.9816H294.001C292.848 57.9816 291.912 59.0835 291.912 60.4427V61.2297V77.6777V78.4647C291.912 79.825 292.848 80.9258 294.001 80.9258H295.656C296.81 80.9258 297.745 79.825 297.745 78.4647V77.6777V61.2297V60.4427C297.745 59.0838 296.81 57.9816 295.656 57.9816Z" fill="#E4E6EA"/>
<path d="M304.519 51.7374H302.865C301.711 51.7374 300.775 52.8393 300.775 54.1985V61.2296V71.4333V78.4647C300.775 79.8249 301.711 80.9258 302.865 80.9258H304.519C305.674 80.9258 306.609 79.8249 306.609 78.4647V71.4333V61.2296V54.1985C306.609 52.8393 305.674 51.7374 304.519 51.7374Z" fill="#E4E6EA"/>
<path d="M270.869 100.002H271.772C272.061 100.002 272.299 99.9531 272.486 99.8555C272.674 99.7539 272.813 99.6133 272.903 99.4336C272.996 99.25 273.043 99.0371 273.043 98.7949C273.043 98.5762 273 98.3828 272.914 98.2148C272.832 98.043 272.705 97.9102 272.533 97.8164C272.361 97.7188 272.145 97.6699 271.883 97.6699C271.676 97.6699 271.485 97.7109 271.309 97.793C271.133 97.875 270.992 97.9902 270.887 98.1387C270.781 98.2871 270.729 98.4668 270.729 98.6777H269.035C269.035 98.209 269.16 97.8008 269.41 97.4531C269.664 97.1055 270.004 96.834 270.43 96.6387C270.856 96.4434 271.324 96.3457 271.836 96.3457C272.414 96.3457 272.92 96.4395 273.354 96.627C273.787 96.8105 274.125 97.082 274.367 97.4414C274.61 97.8008 274.731 98.2461 274.731 98.7773C274.731 99.0469 274.668 99.3086 274.543 99.5625C274.418 99.8125 274.238 100.039 274.004 100.242C273.774 100.441 273.492 100.602 273.16 100.723C272.828 100.84 272.455 100.898 272.041 100.898H270.869V100.002ZM270.869 101.285V100.412H272.041C272.506 100.412 272.914 100.465 273.266 100.57C273.617 100.676 273.912 100.828 274.151 101.027C274.389 101.223 274.569 101.455 274.69 101.725C274.811 101.99 274.871 102.285 274.871 102.609C274.871 103.008 274.795 103.363 274.643 103.676C274.49 103.984 274.276 104.246 273.998 104.461C273.725 104.676 273.404 104.84 273.037 104.953C272.67 105.062 272.27 105.117 271.836 105.117C271.477 105.117 271.123 105.068 270.776 104.971C270.432 104.869 270.119 104.719 269.838 104.52C269.561 104.316 269.338 104.062 269.17 103.758C269.006 103.449 268.924 103.084 268.924 102.662H270.617C270.617 102.881 270.672 103.076 270.781 103.248C270.891 103.42 271.041 103.555 271.233 103.652C271.428 103.75 271.645 103.799 271.883 103.799C272.153 103.799 272.383 103.75 272.574 103.652C272.77 103.551 272.918 103.41 273.02 103.23C273.125 103.047 273.178 102.834 273.178 102.592C273.178 102.279 273.121 102.029 273.008 101.842C272.895 101.65 272.733 101.51 272.522 101.42C272.311 101.33 272.061 101.285 271.772 101.285H270.869ZM283.689 100.541V103.922C283.556 104.082 283.351 104.256 283.074 104.443C282.796 104.627 282.439 104.785 282.001 104.918C281.564 105.051 281.035 105.117 280.414 105.117C279.863 105.117 279.361 105.027 278.908 104.848C278.455 104.664 278.064 104.396 277.736 104.045C277.412 103.693 277.162 103.264 276.986 102.756C276.81 102.244 276.722 101.66 276.722 101.004V100.471C276.722 99.8145 276.806 99.2305 276.974 98.7188C277.146 98.207 277.39 97.7754 277.706 97.4238C278.023 97.0723 278.4 96.8047 278.837 96.6211C279.275 96.4375 279.761 96.3457 280.296 96.3457C281.039 96.3457 281.648 96.4668 282.124 96.709C282.601 96.9473 282.964 97.2793 283.214 97.7051C283.468 98.127 283.624 98.6113 283.683 99.1582H281.978C281.935 98.8691 281.853 98.6172 281.732 98.4023C281.611 98.1875 281.437 98.0195 281.21 97.8984C280.988 97.7773 280.699 97.7168 280.343 97.7168C280.05 97.7168 279.789 97.7773 279.558 97.8984C279.331 98.0156 279.14 98.1895 278.984 98.4199C278.828 98.6504 278.708 98.9355 278.626 99.2754C278.544 99.6152 278.503 100.01 278.503 100.459V101.004C278.503 101.449 278.546 101.844 278.632 102.188C278.718 102.527 278.845 102.814 279.013 103.049C279.185 103.279 279.396 103.453 279.646 103.57C279.896 103.688 280.187 103.746 280.519 103.746C280.796 103.746 281.027 103.723 281.21 103.676C281.398 103.629 281.548 103.572 281.662 103.506C281.779 103.436 281.869 103.369 281.931 103.307V101.795H280.326V100.541H283.689ZM293.074 96.4688L289.945 105.732H288.691L291.82 96.4688H293.074ZM304.217 101.812V103.137H298.071L297.989 102.111L301.545 96.4688H302.887L301.434 98.9004L299.665 101.812H304.217ZM303.251 96.4688V105H301.563V96.4688H303.251ZM312.789 100.541V103.922C312.656 104.082 312.451 104.256 312.174 104.443C311.896 104.627 311.539 104.785 311.101 104.918C310.664 105.051 310.135 105.117 309.514 105.117C308.963 105.117 308.461 105.027 308.008 104.848C307.555 104.664 307.164 104.396 306.836 104.045C306.512 103.693 306.262 103.264 306.086 102.756C305.91 102.244 305.822 101.66 305.822 101.004V100.471C305.822 99.8145 305.906 99.2305 306.074 98.7188C306.246 98.207 306.49 97.7754 306.806 97.4238C307.123 97.0723 307.5 96.8047 307.937 96.6211C308.375 96.4375 308.861 96.3457 309.396 96.3457C310.139 96.3457 310.748 96.4668 311.224 96.709C311.701 96.9473 312.064 97.2793 312.314 97.7051C312.568 98.127 312.724 98.6113 312.783 99.1582H311.078C311.035 98.8691 310.953 98.6172 310.832 98.4023C310.711 98.1875 310.537 98.0195 310.31 97.8984C310.088 97.7773 309.799 97.7168 309.443 97.7168C309.15 97.7168 308.889 97.7773 308.658 97.8984C308.431 98.0156 308.24 98.1895 308.084 98.4199C307.928 98.6504 307.808 98.9355 307.726 99.2754C307.644 99.6152 307.603 100.01 307.603 100.459V101.004C307.603 101.449 307.646 101.844 307.732 102.188C307.818 102.527 307.945 102.814 308.113 103.049C308.285 103.279 308.496 103.453 308.746 103.57C308.996 103.688 309.287 103.746 309.619 103.746C309.896 103.746 310.127 103.723 310.31 103.676C310.498 103.629 310.648 103.572 310.762 103.506C310.879 103.436 310.969 103.369 311.031 103.307V101.795H309.426V100.541H312.789Z" fill="#4B5563"/>
<rect x="253" y="36.5" width="76" height="79" rx="7.5" stroke="#4B5563"/>
<g clip-path="url(#clip1_817_1463)">
<path d="M95.8137 158.314C98.8143 155.313 100.5 151.243 100.5 147C100.5 142.757 98.8143 138.687 95.8137 135.686C92.8131 132.686 88.7435 131 84.5 131C80.2565 131 76.1869 132.686 73.1863 135.686C70.1857 138.687 68.5 142.757 68.5 147C68.5 151.243 70.1857 155.313 73.1863 158.314C76.1869 161.314 80.2565 163 84.5 163C88.7435 163 92.8131 161.314 95.8137 158.314Z" fill="#FDE1E1"/>
<path d="M84.4999 139C84.2471 139 83.9972 139.053 83.7661 139.156C83.5351 139.258 83.3282 139.408 83.1586 139.596C82.989 139.783 82.8606 140.004 82.7816 140.244C82.7026 140.484 82.6748 140.738 82.6999 140.99L83.3999 148.004C83.4234 148.28 83.5495 148.536 83.7532 148.723C83.9569 148.91 84.2234 149.014 84.4999 149.014C84.7765 149.014 85.0429 148.91 85.2466 148.723C85.4503 148.536 85.5764 148.28 85.5999 148.004L86.2999 140.99C86.325 140.738 86.2972 140.484 86.2182 140.244C86.1392 140.004 86.0108 139.783 85.8412 139.596C85.6716 139.408 85.4647 139.258 85.2337 139.156C85.0026 139.053 84.7527 139 84.4999 139ZM84.5039 151C83.9735 151 83.4648 151.211 83.0897 151.586C82.7146 151.961 82.5039 152.47 82.5039 153C82.5039 153.53 82.7146 154.039 83.0897 154.414C83.4648 154.789 83.9735 155 84.5039 155C85.0343 155 85.543 154.789 85.9181 154.414C86.2932 154.039 86.5039 153.53 86.5039 153C86.5039 152.47 86.2932 151.961 85.9181 151.586C85.543 151.211 85.0343 151 84.5039 151Z" fill="#EE4444"/>
</g>
<g clip-path="url(#clip2_817_1463)">
<path d="M327.814 158.314C330.814 155.313 332.5 151.243 332.5 147C332.5 142.757 330.814 138.687 327.814 135.686C324.813 132.686 320.743 131 316.5 131C312.257 131 308.187 132.686 305.186 135.686C302.186 138.687 300.5 142.757 300.5 147C300.5 151.243 302.186 155.313 305.186 158.314C308.187 161.314 312.257 163 316.5 163C320.743 163 324.813 161.314 327.814 158.314Z" fill="#FDE1E1"/>
<path d="M316.5 139C316.247 139 315.997 139.053 315.766 139.156C315.535 139.258 315.328 139.408 315.159 139.596C314.989 139.783 314.861 140.004 314.782 140.244C314.703 140.484 314.675 140.738 314.7 140.99L315.4 148.004C315.423 148.28 315.55 148.536 315.753 148.723C315.957 148.91 316.223 149.014 316.5 149.014C316.776 149.014 317.043 148.91 317.247 148.723C317.45 148.536 317.576 148.28 317.6 148.004L318.3 140.99C318.325 140.738 318.297 140.484 318.218 140.244C318.139 140.004 318.011 139.783 317.841 139.596C317.672 139.408 317.465 139.258 317.234 139.156C317.003 139.053 316.753 139 316.5 139ZM316.504 151C315.973 151 315.465 151.211 315.09 151.586C314.715 151.961 314.504 152.47 314.504 153C314.504 153.53 314.715 154.039 315.09 154.414C315.465 154.789 315.973 155 316.504 155C317.034 155 317.543 154.789 317.918 154.414C318.293 154.039 318.504 153.53 318.504 153C318.504 152.47 318.293 151.961 317.918 151.586C317.543 151.211 317.034 151 316.504 151Z" fill="#EE4444"/>
</g>
<g opacity="0.3">
<rect x="161.5" y="137" width="68" height="66" rx="8" fill="#4B5563"/>
</g>
<rect x="165" y="130.5" width="71" height="69" rx="7.5" fill="url(#paint3_linear_817_1463)"/>
<g clip-path="url(#clip3_817_1463)">
<path d="M203.7 161.2H190.9C190.016 161.2 189.3 160.484 189.3 159.6V148.4C189.3 147.516 190.016 146.8 190.9 146.8H203.7C204.584 146.8 205.3 147.516 205.3 148.4V159.6C205.3 160.484 204.584 161.2 203.7 161.2Z" fill="#EE4444"/>
<path d="M211.154 148.616C211.297 148.482 211.489 148.4 211.7 148.4C212.142 148.4 212.5 148.758 212.5 149.2V158.8C212.5 159.242 212.142 159.6 211.7 159.6C211.489 159.6 211.297 159.518 211.154 159.384L208.096 156.664C207.335 155.987 206.9 155.018 206.9 154C206.9 152.982 207.335 152.013 208.096 151.336L211.154 148.616Z" fill="#EE4444"/>
</g>
<path d="M183.179 183.872L184.595 177.891H185.386L185.566 178.887L184.058 185H183.208L183.179 183.872ZM182.451 177.891L183.623 183.872L183.525 185H182.578L181.001 177.891H182.451ZM186.812 183.848L187.969 177.891H189.419L187.847 185H186.899L186.812 183.848ZM185.83 177.891L187.256 183.896L187.217 185H186.367L184.849 178.882L185.044 177.891H185.83ZM192.602 185.098C192.192 185.098 191.824 185.033 191.499 184.902C191.173 184.769 190.897 184.585 190.669 184.351C190.444 184.116 190.272 183.844 190.151 183.535C190.031 183.223 189.971 182.891 189.971 182.539V182.344C189.971 181.943 190.027 181.577 190.141 181.245C190.255 180.913 190.418 180.625 190.63 180.381C190.845 180.137 191.105 179.95 191.411 179.819C191.717 179.686 192.062 179.619 192.446 179.619C192.82 179.619 193.152 179.681 193.442 179.805C193.732 179.928 193.974 180.104 194.17 180.332C194.368 180.56 194.518 180.833 194.619 181.152C194.72 181.468 194.77 181.82 194.77 182.207V182.793H190.571V181.855H193.388V181.748C193.388 181.553 193.353 181.379 193.281 181.226C193.213 181.069 193.109 180.946 192.969 180.854C192.829 180.763 192.65 180.718 192.431 180.718C192.246 180.718 192.086 180.758 191.953 180.84C191.819 180.921 191.71 181.035 191.626 181.182C191.544 181.328 191.483 181.501 191.44 181.699C191.401 181.895 191.382 182.109 191.382 182.344V182.539C191.382 182.751 191.411 182.946 191.47 183.125C191.531 183.304 191.618 183.459 191.728 183.589C191.842 183.719 191.979 183.82 192.138 183.892C192.301 183.963 192.485 183.999 192.69 183.999C192.944 183.999 193.18 183.95 193.398 183.853C193.62 183.752 193.81 183.6 193.97 183.398L194.653 184.141C194.542 184.3 194.391 184.453 194.199 184.6C194.01 184.746 193.782 184.867 193.515 184.961C193.249 185.052 192.944 185.098 192.602 185.098ZM195.771 177.5H197.177V183.789L197.036 185H195.771V177.5ZM200.522 182.305V182.407C200.522 182.801 200.48 183.162 200.395 183.491C200.314 183.82 200.187 184.105 200.014 184.346C199.842 184.583 199.627 184.769 199.37 184.902C199.116 185.033 198.816 185.098 198.471 185.098C198.149 185.098 197.869 185.033 197.631 184.902C197.397 184.772 197.2 184.588 197.041 184.351C196.881 184.113 196.753 183.835 196.655 183.516C196.557 183.197 196.484 182.848 196.435 182.471V182.246C196.484 181.868 196.557 181.52 196.655 181.201C196.753 180.882 196.881 180.604 197.041 180.366C197.2 180.129 197.397 179.945 197.631 179.814C197.866 179.684 198.143 179.619 198.462 179.619C198.81 179.619 199.113 179.686 199.37 179.819C199.63 179.95 199.845 180.135 200.014 180.376C200.187 180.614 200.314 180.897 200.395 181.226C200.48 181.551 200.522 181.911 200.522 182.305ZM199.116 182.407V182.305C199.116 182.09 199.1 181.888 199.067 181.699C199.038 181.507 198.986 181.34 198.911 181.196C198.836 181.05 198.733 180.934 198.603 180.85C198.476 180.765 198.312 180.723 198.11 180.723C197.918 180.723 197.755 180.755 197.622 180.82C197.488 180.885 197.378 180.977 197.29 181.094C197.205 181.211 197.142 181.351 197.099 181.514C197.057 181.673 197.031 181.849 197.021 182.041V182.681C197.031 182.938 197.073 183.166 197.148 183.364C197.226 183.56 197.343 183.714 197.5 183.828C197.659 183.939 197.866 183.994 198.12 183.994C198.318 183.994 198.483 183.955 198.613 183.877C198.743 183.799 198.844 183.688 198.916 183.545C198.99 183.402 199.043 183.234 199.072 183.042C199.101 182.847 199.116 182.635 199.116 182.407ZM201.684 177.891H204.335C204.879 177.891 205.346 177.972 205.737 178.135C206.131 178.298 206.433 178.538 206.645 178.857C206.857 179.176 206.962 179.569 206.962 180.034C206.962 180.415 206.897 180.742 206.767 181.016C206.64 181.286 206.459 181.512 206.225 181.694C205.994 181.873 205.722 182.017 205.41 182.124L204.946 182.368H202.641L202.631 181.226H204.345C204.602 181.226 204.815 181.18 204.985 181.089C205.154 180.998 205.281 180.871 205.366 180.708C205.454 180.545 205.497 180.356 205.497 180.142C205.497 179.914 205.455 179.717 205.371 179.551C205.286 179.385 205.157 179.258 204.985 179.17C204.812 179.082 204.596 179.038 204.335 179.038H203.149V185H201.684V177.891ZM205.659 185L204.038 181.831L205.585 181.821L207.226 184.932V185H205.659ZM211.176 177.891V185H209.716V177.891H211.176ZM213.363 177.891V179.038H207.563V177.891H213.363ZM218.383 182.642H219.843C219.813 183.12 219.682 183.545 219.447 183.916C219.216 184.287 218.892 184.577 218.476 184.785C218.062 184.993 217.564 185.098 216.981 185.098C216.526 185.098 216.117 185.02 215.756 184.863C215.395 184.704 215.085 184.476 214.828 184.18C214.574 183.883 214.381 183.525 214.247 183.105C214.114 182.686 214.047 182.215 214.047 181.694V181.201C214.047 180.68 214.115 180.21 214.252 179.79C214.392 179.367 214.59 179.007 214.848 178.711C215.108 178.415 215.419 178.187 215.78 178.027C216.142 177.868 216.545 177.788 216.991 177.788C217.584 177.788 218.083 177.896 218.49 178.11C218.9 178.325 219.218 178.621 219.442 178.999C219.67 179.377 219.807 179.806 219.853 180.288H218.388C218.371 180.002 218.314 179.759 218.217 179.561C218.119 179.359 217.971 179.207 217.772 179.106C217.577 179.002 217.317 178.95 216.991 178.95C216.747 178.95 216.534 178.996 216.352 179.087C216.169 179.178 216.016 179.316 215.893 179.502C215.769 179.688 215.676 179.922 215.614 180.205C215.556 180.485 215.526 180.814 215.526 181.191V181.694C215.526 182.062 215.554 182.386 215.609 182.666C215.665 182.943 215.749 183.177 215.863 183.369C215.98 183.558 216.13 183.701 216.312 183.799C216.498 183.893 216.721 183.94 216.981 183.94C217.287 183.94 217.54 183.892 217.738 183.794C217.937 183.696 218.088 183.551 218.192 183.359C218.3 183.167 218.363 182.928 218.383 182.642Z" fill="#4B5563"/>
<rect x="165" y="130.5" width="71" height="69" rx="7.5" stroke="#4B5563"/>
</g>
<defs>
<linearGradient id="paint0_linear_817_1463" x1="200" y1="0" x2="200" y2="240" gradientUnits="userSpaceOnUse">
<stop stop-color="white"/>
<stop offset="0.196875" stop-color="white" stop-opacity="0"/>
<stop offset="0.808333" stop-color="white" stop-opacity="0"/>
<stop offset="1" stop-color="white"/>
</linearGradient>
<linearGradient id="paint1_linear_817_1463" x1="2.98023e-06" y1="120" x2="400" y2="120" gradientUnits="userSpaceOnUse">
<stop stop-color="white"/>
<stop offset="0.166667" stop-color="white" stop-opacity="0"/>
<stop offset="0.835" stop-color="white" stop-opacity="0"/>
<stop offset="1" stop-color="white"/>
</linearGradient>
<linearGradient id="paint2_linear_817_1463" x1="200.5" y1="56" x2="200.5" y2="176" gradientUnits="userSpaceOnUse">
<stop stop-color="white" stop-opacity="0.5"/>
<stop offset="1" stop-color="white" stop-opacity="0.75"/>
</linearGradient>
<linearGradient id="paint3_linear_817_1463" x1="200.5" y1="130" x2="200.5" y2="200" gradientUnits="userSpaceOnUse">
<stop stop-color="white"/>
<stop offset="1" stop-color="#F8F9FA"/>
</linearGradient>
<clipPath id="clip0_817_1463">
<rect width="400" height="240" fill="white" transform="translate(0.5)"/>
</clipPath>
<clipPath id="clip1_817_1463">
<rect width="32" height="32" fill="white" transform="translate(68.5 131)"/>
</clipPath>
<clipPath id="clip2_817_1463">
<rect width="32" height="32" fill="white" transform="translate(300.5 131)"/>
</clipPath>
<clipPath id="clip3_817_1463">
<rect width="24" height="24" fill="white" transform="translate(188.5 142)"/>
</clipPath>
</defs>
</svg>
