<svg width="64" height="64" viewBox="0 0 64 64" fill="none" xmlns="http://www.w3.org/2000/svg">
<g clip-path="url(#clip0_835_1654)">
<path d="M51.1588 2.56531C55.583 4.81966 59.1802 8.41669 61.4345 12.8409C64.1769 18.2231 63.9981 24.3903 63.9974 30.2687C63.9973 31.4229 63.9973 32.5771 63.9974 33.7313C63.9981 39.6095 64.177 45.7767 61.4347 51.1588C59.1803 55.583 55.5833 59.1802 51.1591 61.4345C45.7769 64.1769 39.6097 63.9981 33.7313 63.9974C32.5771 63.9973 31.4229 63.9973 30.2687 63.9974C24.3904 63.9981 18.2233 64.177 12.8411 61.4347C8.41722 59.1805 4.81996 55.5836 2.56564 51.1592C-0.176793 45.7769 0.0019065 39.6098 0.00258545 33.7313C0.00259582 32.5771 0.00271408 31.4229 0.00258545 30.2687C0.0019065 24.3902 -0.176792 18.2231 2.56564 12.8407C4.81996 8.41642 8.41722 4.81953 12.8411 2.56531C18.2233 -0.17699 24.3905 0.0019145 30.2687 0.00259342C31.4229 0.00272205 32.5771 0.00272205 33.7313 0.00259342C39.6095 0.0019145 45.7767 -0.17699 51.1588 2.56531Z" fill="#B81C1C"/>
<mask id="mask0_835_1654" style="mask-type:alpha" maskUnits="userSpaceOnUse" x="0" y="0" width="64" height="64">
<path d="M51.1588 2.56531C55.583 4.81966 59.1802 8.41669 61.4345 12.8409C64.1769 18.2231 63.9981 24.3903 63.9974 30.2687C63.9973 31.4229 63.9973 32.5771 63.9974 33.7313C63.9981 39.6095 64.177 45.7767 61.4347 51.1588C59.1803 55.583 55.5833 59.1802 51.1591 61.4345C45.7769 64.1769 39.6097 63.9981 33.7313 63.9974C32.5771 63.9973 31.4229 63.9973 30.2687 63.9974C24.3904 63.9981 18.2233 64.177 12.8411 61.4347C8.41722 59.1805 4.81996 55.5836 2.56564 51.1592C-0.176793 45.7769 0.0019065 39.6098 0.00258545 33.7313C0.00259582 32.5771 0.00271408 31.4229 0.00258545 30.2687C0.0019065 24.3902 -0.176792 18.2231 2.56564 12.8407C4.81996 8.41642 8.41722 4.81953 12.8411 2.56531C18.2233 -0.17699 24.3905 0.0019145 30.2687 0.00259342C31.4229 0.00272205 32.5771 0.00272205 33.7313 0.00259342C39.6095 0.0019145 45.7767 -0.17699 51.1588 2.56531Z" fill="#991B1B"/>
</mask>
<g mask="url(#mask0_835_1654)">
<g opacity="0.3">
<rect x="11.6364" y="-0.363642" width="40.7273" height="64.7273" stroke="url(#paint0_linear_835_1654)" stroke-width="0.727273"/>
<rect x="-0.363636" y="11.6364" width="64.7273" height="40.7273" stroke="url(#paint1_linear_835_1654)" stroke-width="0.727273"/>
</g>
<g filter="url(#filter0_d_835_1654)">
<path d="M12 30.6667C12 24.1328 12 20.8657 13.2717 18.3701C14.3901 16.1749 16.1748 14.3901 18.3701 13.2715C20.8657 12 24.1328 12 30.6667 12H33.3333C39.8672 12 43.1343 12 45.6299 13.2715C47.8251 14.3901 49.6099 16.1749 50.7285 18.3701C52 20.8657 52 24.1328 52 30.6667V33.3333C52 39.8672 52 43.1343 50.7285 45.6299C49.6099 47.8251 47.8251 49.6099 45.6299 50.7285C43.1343 52 39.8672 52 33.3333 52H30.6667C24.1328 52 20.8657 52 18.3701 50.7285C16.1748 49.6099 14.3901 47.8251 13.2717 45.6299C12 43.1343 12 39.8672 12 33.3333V30.6667Z" fill="#FDE1E1"/>
</g>
</g>
<g clip-path="url(#clip1_835_1654)">
<g filter="url(#filter1_d_835_1654)">
<path d="M30.7625 28.1376C30.4343 28.4658 30.2499 28.9109 30.2499 29.375C30.2499 29.8391 30.4343 30.2842 30.7625 30.6124C31.0907 30.9406 31.5358 31.125 31.9999 31.125C32.4641 31.125 32.9092 30.9406 33.2374 30.6124C33.5656 30.2842 33.7499 29.8391 33.7499 29.375C33.7499 28.9109 33.5656 28.4658 33.2374 28.1376C32.9092 27.8094 32.4641 27.625 31.9999 27.625C31.5358 27.625 31.0907 27.8094 30.7625 28.1376Z" fill="#DB2626"/>
<path fill-rule="evenodd" clip-rule="evenodd" d="M19.0251 24.2751C19.6815 23.6187 20.5717 23.25 21.5 23.25H42.5C43.4283 23.25 44.3185 23.6187 44.9749 24.2751C45.6313 24.9315 46 25.8217 46 26.75V32C46 32.9283 45.6313 33.8185 44.9749 34.4749C44.3185 35.1313 43.4283 35.5 42.5 35.5H21.5C20.5717 35.5 19.6815 35.1313 19.0251 34.4749C18.3687 33.8185 18 32.9283 18 32V26.75C18 25.8217 18.3687 24.9315 19.0251 24.2751ZM34.4749 26.9001C33.8185 26.2437 32.9283 25.875 32 25.875C31.0717 25.875 30.1815 26.2437 29.5251 26.9001C28.8687 27.5565 28.5 28.4467 28.5 29.375C28.5 30.3033 28.8687 31.1935 29.5251 31.8499C30.1815 32.5063 31.0717 32.875 32 32.875C32.9283 32.875 33.8185 32.5063 34.4749 31.8499C35.1312 31.1935 35.5 30.3033 35.5 29.375C35.5 28.4467 35.1312 27.5565 34.4749 26.9001ZM39.2563 29.9937C39.4204 30.1578 39.6429 30.25 39.875 30.25C40.1071 30.25 40.3296 30.1578 40.4937 29.9937C40.6578 29.8296 40.75 29.6071 40.75 29.375C40.75 29.1429 40.6578 28.9204 40.4937 28.7563C40.3296 28.5922 40.1071 28.5 39.875 28.5C39.6429 28.5 39.4204 28.5922 39.2563 28.7563C39.0922 28.9204 39 29.1429 39 29.375C39 29.6071 39.0922 29.8296 39.2563 29.9937Z" fill="#DB2626"/>
<path d="M29.9121 37.2207C29.8051 37.2657 29.7082 37.3316 29.6269 37.4145C29.3207 37.7243 28.9462 38.02 28.5717 38.2825C28.2658 38.4941 27.9511 38.6926 27.6284 38.8775C27.506 38.9495 27.3811 39.0172 27.2539 39.0805L27.2364 39.091L27.2329 39.0928C27.0568 39.181 26.9156 39.3262 26.8322 39.5047C26.7488 39.6832 26.7281 39.8847 26.7735 40.0764C26.8189 40.2682 26.9276 40.439 27.0821 40.5612C27.2366 40.6835 27.4279 40.75 27.6249 40.75H36.3749C36.5726 40.7508 36.7647 40.6846 36.92 40.5623C37.0752 40.4399 37.1845 40.2686 37.23 40.0762C37.2754 39.8838 37.2544 39.6817 37.1703 39.5028C37.0862 39.3239 36.9441 39.1788 36.7669 39.091H36.7617L36.7442 39.0805C36.2896 38.8417 35.8501 38.5752 35.4282 38.2825C35.0554 38.0218 34.6792 37.7243 34.3729 37.4145C34.2917 37.3316 34.1948 37.2657 34.0878 37.2207C33.9809 37.1756 33.866 37.1523 33.7499 37.152H30.2499C30.1339 37.1523 30.019 37.1756 29.9121 37.2207Z" fill="#DB2626"/>
</g>
</g>
</g>
<defs>
<filter id="filter0_d_835_1654" x="11" y="12" width="42" height="42" filterUnits="userSpaceOnUse" color-interpolation-filters="sRGB">
<feFlood flood-opacity="0" result="BackgroundImageFix"/>
<feColorMatrix in="SourceAlpha" type="matrix" values="0 0 0 0 0 0 0 0 0 0 0 0 0 0 0 0 0 0 127 0" result="hardAlpha"/>
<feOffset dy="1"/>
<feGaussianBlur stdDeviation="0.5"/>
<feComposite in2="hardAlpha" operator="out"/>
<feColorMatrix type="matrix" values="0 0 0 0 0.498039 0 0 0 0 0.113725 0 0 0 0 0.113725 0 0 0 0.6 0"/>
<feBlend mode="normal" in2="BackgroundImageFix" result="effect1_dropShadow_835_1654"/>
<feBlend mode="normal" in="SourceGraphic" in2="effect1_dropShadow_835_1654" result="shape"/>
</filter>
<filter id="filter1_d_835_1654" x="16.075" y="22.2875" width="31.85" height="21.35" filterUnits="userSpaceOnUse" color-interpolation-filters="sRGB">
<feFlood flood-opacity="0" result="BackgroundImageFix"/>
<feColorMatrix in="SourceAlpha" type="matrix" values="0 0 0 0 0 0 0 0 0 0 0 0 0 0 0 0 0 0 127 0" result="hardAlpha"/>
<feOffset dy="0.962501"/>
<feGaussianBlur stdDeviation="0.962501"/>
<feColorMatrix type="matrix" values="0 0 0 0 0.117647 0 0 0 0 0.160784 0 0 0 0 0.231373 0 0 0 0.2 0"/>
<feBlend mode="multiply" in2="BackgroundImageFix" result="effect1_dropShadow_835_1654"/>
<feBlend mode="normal" in="SourceGraphic" in2="effect1_dropShadow_835_1654" result="shape"/>
</filter>
<linearGradient id="paint0_linear_835_1654" x1="32" y1="-4.32073e-06" x2="32" y2="64" gradientUnits="userSpaceOnUse">
<stop stop-color="white" stop-opacity="0"/>
<stop offset="0.506241" stop-color="white"/>
<stop offset="1" stop-color="white" stop-opacity="0"/>
</linearGradient>
<linearGradient id="paint1_linear_835_1654" x1="-0.669107" y1="31.9976" x2="63.9976" y2="31.9976" gradientUnits="userSpaceOnUse">
<stop stop-color="white" stop-opacity="0"/>
<stop offset="0.5" stop-color="white"/>
<stop offset="1" stop-color="white" stop-opacity="0"/>
</linearGradient>
<clipPath id="clip0_835_1654">
<rect width="64" height="64" fill="white"/>
</clipPath>
<clipPath id="clip1_835_1654">
<rect width="28" height="28" fill="white" transform="translate(18 18)"/>
</clipPath>
</defs>
</svg>
