<svg width="64" height="64" viewBox="0 0 64 64" fill="none" xmlns="http://www.w3.org/2000/svg">
<g clip-path="url(#clip0_931_2463)">
<path d="M51.1588 2.56531C55.583 4.81966 59.1802 8.41669 61.4345 12.8409C64.1769 18.2231 63.9981 24.3903 63.9974 30.2687C63.9973 31.4229 63.9973 32.5771 63.9974 33.7313C63.9981 39.6095 64.177 45.7767 61.4347 51.1588C59.1803 55.583 55.5833 59.1802 51.1591 61.4345C45.7769 64.1769 39.6097 63.9981 33.7313 63.9974C32.5771 63.9973 31.4229 63.9973 30.2687 63.9974C24.3904 63.9981 18.2233 64.177 12.8411 61.4347C8.41722 59.1805 4.81996 55.5836 2.56564 51.1592C-0.176793 45.7769 0.0019065 39.6098 0.00258545 33.7313C0.00259582 32.5771 0.00271408 31.4229 0.00258545 30.2687C0.0019065 24.3902 -0.176792 18.2231 2.56564 12.8407C4.81996 8.41642 8.41722 4.81953 12.8411 2.56531C18.2233 -0.17699 24.3905 0.0019145 30.2687 0.00259342C31.4229 0.00272205 32.5771 0.00272205 33.7313 0.00259342C39.6095 0.0019145 45.7767 -0.17699 51.1588 2.56531Z" fill="#FDE1E1"/>
<path d="M13.0681 3.01081C18.0301 0.482612 23.6858 0.492082 29.2849 0.501457C29.613 0.502006 29.941 0.502556 30.2686 0.502593C31.4229 0.502722 32.5771 0.502722 33.7313 0.502593C34.059 0.502556 34.3869 0.502006 34.7151 0.501457C40.3141 0.492082 45.9699 0.482612 50.9318 3.01081C55.2619 5.21722 58.7826 8.73777 60.989 13.0679C63.5174 18.0301 63.5079 23.686 63.4985 29.2853C63.498 29.6133 63.4974 29.9411 63.4974 30.2686C63.4973 31.4229 63.4973 32.5771 63.4974 33.7314C63.4974 34.059 63.498 34.387 63.4985 34.7152C63.5079 40.3142 63.5174 45.9699 60.9892 50.9318C58.7828 55.2619 55.2622 58.7826 50.9321 60.989C45.9699 63.5174 40.314 63.5079 34.7148 63.4985C34.3867 63.498 34.0589 63.4974 33.7314 63.4974C32.5771 63.4973 31.4229 63.4973 30.2686 63.4974C29.941 63.4974 29.613 63.498 29.2848 63.4985C23.6858 63.5079 18.0301 63.5174 13.0681 60.9892C8.73828 58.7829 5.21752 55.2625 3.01114 50.9322C0.482647 45.9698 0.492097 40.3136 0.501453 34.7141C0.502 34.3862 0.502548 34.0586 0.502585 33.7313C0.502589 33.3803 0.502602 33.0294 0.502615 32.6784C0.502645 31.8752 0.502675 31.0719 0.502585 30.2687C0.502548 29.9414 0.502 29.6138 0.501453 29.2859C0.492097 23.6864 0.482647 18.0302 3.01114 13.0677C5.21752 8.73751 8.73828 5.21711 13.0681 3.01081ZM13.0681 3.01081L12.8411 2.56531L13.0681 3.01081Z" stroke="#DB2626" stroke-opacity="0.1"/>
<mask id="mask0_931_2463" style="mask-type:alpha" maskUnits="userSpaceOnUse" x="0" y="0" width="64" height="64">
<path d="M51.1588 2.56531C55.583 4.81966 59.1802 8.41669 61.4345 12.8409C64.1769 18.2231 63.9981 24.3903 63.9974 30.2687C63.9973 31.4229 63.9973 32.5771 63.9974 33.7313C63.9981 39.6095 64.177 45.7767 61.4347 51.1588C59.1803 55.583 55.5833 59.1802 51.1591 61.4345C45.7769 64.1769 39.6097 63.9981 33.7313 63.9974C32.5771 63.9973 31.4229 63.9973 30.2687 63.9974C24.3904 63.9981 18.2233 64.177 12.8411 61.4347C8.41722 59.1805 4.81996 55.5836 2.56564 51.1592C-0.176793 45.7769 0.0019065 39.6098 0.00258545 33.7313C0.00259582 32.5771 0.00271408 31.4229 0.00258545 30.2687C0.0019065 24.3902 -0.176792 18.2231 2.56564 12.8407C4.81996 8.41642 8.41722 4.81953 12.8411 2.56531C18.2233 -0.17699 24.3905 0.0019145 30.2687 0.00259342C31.4229 0.00272205 32.5771 0.00272205 33.7313 0.00259342C39.6095 0.0019145 45.7767 -0.17699 51.1588 2.56531Z" fill="#991B1B"/>
</mask>
<g mask="url(#mask0_931_2463)">
<g opacity="0.25">
<rect x="11.5" y="-0.5" width="41" height="65" stroke="url(#paint0_linear_931_2463)"/>
<rect x="-0.5" y="11.5" width="65" height="41" stroke="url(#paint1_linear_931_2463)"/>
</g>
<g filter="url(#filter0_d_931_2463)">
<path d="M12 30.6667C12 24.1328 12 20.8657 13.2717 18.3701C14.3901 16.1749 16.1748 14.3901 18.3701 13.2715C20.8657 12 24.1328 12 30.6667 12H33.3333C39.8672 12 43.1343 12 45.6299 13.2715C47.8251 14.3901 49.6099 16.1749 50.7285 18.3701C52 20.8657 52 24.1328 52 30.6667V33.3333C52 39.8672 52 43.1343 50.7285 45.6299C49.6099 47.8251 47.8251 49.6099 45.6299 50.7285C43.1343 52 39.8672 52 33.3333 52H30.6667C24.1328 52 20.8657 52 18.3701 50.7285C16.1748 49.6099 14.3901 47.8251 13.2717 45.6299C12 43.1343 12 39.8672 12 33.3333V30.6667Z" fill="url(#paint2_linear_931_2463)" shape-rendering="crispEdges"/>
<path d="M18.1431 12.826L18.1431 12.826C15.8538 13.9926 13.9926 15.8538 12.8261 18.1432C12.1484 19.4732 11.8221 20.987 11.6606 22.9633C11.5 24.9291 11.5 27.3961 11.5 30.6432V30.6667V33.3333V33.3568C11.5 36.6039 11.5 39.0709 11.6606 41.0367C11.8221 43.013 12.1484 44.5268 12.8261 45.8568C13.9926 48.1462 15.8538 50.0074 18.1431 51.174C19.4731 51.8516 20.9869 52.1779 22.9633 52.3394C24.9291 52.5 27.3961 52.5 30.6431 52.5H30.6667H33.3333H33.3568C36.6039 52.5 39.0709 52.5 41.0367 52.3394C43.013 52.1779 44.5268 51.8516 45.8568 51.174C48.1462 50.0074 50.0074 48.1462 51.174 45.8569C51.8516 44.5268 52.1779 43.0131 52.3394 41.0367C52.5 39.0709 52.5 36.6039 52.5 33.3568V33.3333V30.6667V30.6432C52.5 27.3961 52.5 24.9291 52.3394 22.9633C52.1779 20.9869 51.8516 19.4732 51.174 18.1431C50.0074 15.8538 48.1462 13.9926 45.8569 12.826L45.6299 13.2715L45.8568 12.826C44.5268 12.1484 43.013 11.8221 41.0367 11.6606C39.0709 11.5 36.6039 11.5 33.3568 11.5H33.3333H30.6667H30.6432C27.3961 11.5 24.9291 11.5 22.9633 11.6606C20.9869 11.8221 19.4731 12.1484 18.1431 12.826Z" stroke="#DB2626" stroke-opacity="0.34" shape-rendering="crispEdges"/>
</g>
</g>
<g clip-path="url(#clip1_931_2463)">
<g filter="url(#filter1_d_931_2463)">
<path fill-rule="evenodd" clip-rule="evenodd" d="M19.0251 24.2751C19.6815 23.6187 20.5717 23.25 21.5 23.25H42.5C43.4283 23.25 44.3185 23.6187 44.9749 24.2751C45.6313 24.9315 46 25.8217 46 26.75V32C46 32.9283 45.6313 33.8185 44.9749 34.4749C44.3185 35.1313 43.4283 35.5 42.5 35.5H21.5C20.5717 35.5 19.6815 35.1313 19.0251 34.4749C18.3687 33.8185 18 32.9283 18 32V26.75C18 25.8217 18.3687 24.9315 19.0251 24.2751ZM34.4749 26.9001C33.8185 26.2437 32.9283 25.875 32 25.875C31.0717 25.875 30.1815 26.2437 29.5251 26.9001C28.8687 27.5565 28.5 28.4467 28.5 29.375C28.5 30.3033 28.8687 31.1935 29.5251 31.8499C30.1815 32.5063 31.0717 32.875 32 32.875C32.9283 32.875 33.8185 32.5063 34.4749 31.8499C35.1312 31.1935 35.5 30.3033 35.5 29.375C35.5 28.4467 35.1312 27.5565 34.4749 26.9001ZM39.2563 29.9937C39.4204 30.1578 39.6429 30.25 39.875 30.25C40.1071 30.25 40.3296 30.1578 40.4937 29.9937C40.6578 29.8296 40.75 29.6071 40.75 29.375C40.75 29.1429 40.6578 28.9204 40.4937 28.7563C40.3296 28.5922 40.1071 28.5 39.875 28.5C39.6429 28.5 39.4204 28.5922 39.2563 28.7563C39.0922 28.9204 39 29.1429 39 29.375C39 29.6071 39.0922 29.8296 39.2563 29.9937Z" fill="#DB2626"/>
</g>
<g filter="url(#filter2_d_931_2463)">
<path d="M30.7625 28.1376C30.4343 28.4658 30.2499 28.9109 30.2499 29.375C30.2499 29.8391 30.4343 30.2842 30.7625 30.6124C31.0907 30.9406 31.5358 31.125 31.9999 31.125C32.4641 31.125 32.9092 30.9406 33.2374 30.6124C33.5656 30.2842 33.7499 29.8391 33.7499 29.375C33.7499 28.9109 33.5656 28.4658 33.2374 28.1376C32.9092 27.8094 32.4641 27.625 31.9999 27.625C31.5358 27.625 31.0907 27.8094 30.7625 28.1376Z" fill="#F77171"/>
<path d="M29.9121 37.2207C29.8051 37.2657 29.7082 37.3316 29.6269 37.4145C29.3207 37.7243 28.9462 38.02 28.5717 38.2825C28.2658 38.4941 27.9511 38.6926 27.6284 38.8775C27.506 38.9495 27.3811 39.0172 27.2539 39.0805L27.2364 39.091L27.2329 39.0928C27.0568 39.181 26.9156 39.3262 26.8322 39.5047C26.7488 39.6832 26.7281 39.8847 26.7735 40.0764C26.8189 40.2682 26.9276 40.439 27.0821 40.5612C27.2366 40.6835 27.4279 40.75 27.6249 40.75H36.3749C36.5726 40.7508 36.7647 40.6846 36.92 40.5623C37.0752 40.4399 37.1845 40.2686 37.23 40.0762C37.2754 39.8838 37.2544 39.6817 37.1703 39.5028C37.0862 39.3239 36.9441 39.1788 36.7669 39.091H36.7617L36.7442 39.0805C36.2896 38.8417 35.8501 38.5752 35.4282 38.2825C35.0554 38.0218 34.6792 37.7243 34.3729 37.4145C34.2917 37.3316 34.1948 37.2657 34.0878 37.2207C33.9809 37.1756 33.866 37.1523 33.7499 37.152H30.2499C30.1339 37.1523 30.019 37.1756 29.9121 37.2207Z" fill="#F77171"/>
</g>
</g>
</g>
<defs>
<filter id="filter0_d_931_2463" x="7" y="8" width="50" height="50" filterUnits="userSpaceOnUse" color-interpolation-filters="sRGB">
<feFlood flood-opacity="0" result="BackgroundImageFix"/>
<feColorMatrix in="SourceAlpha" type="matrix" values="0 0 0 0 0 0 0 0 0 0 0 0 0 0 0 0 0 0 127 0" result="hardAlpha"/>
<feOffset dy="1"/>
<feGaussianBlur stdDeviation="2"/>
<feComposite in2="hardAlpha" operator="out"/>
<feColorMatrix type="matrix" values="0 0 0 0 0.498039 0 0 0 0 0.113725 0 0 0 0 0.113725 0 0 0 0.25 0"/>
<feBlend mode="normal" in2="BackgroundImageFix" result="effect1_dropShadow_931_2463"/>
<feBlend mode="normal" in="SourceGraphic" in2="effect1_dropShadow_931_2463" result="shape"/>
</filter>
<filter id="filter1_d_931_2463" x="16" y="22.25" width="32" height="16.25" filterUnits="userSpaceOnUse" color-interpolation-filters="sRGB">
<feFlood flood-opacity="0" result="BackgroundImageFix"/>
<feColorMatrix in="SourceAlpha" type="matrix" values="0 0 0 0 0 0 0 0 0 0 0 0 0 0 0 0 0 0 127 0" result="hardAlpha"/>
<feOffset dy="1"/>
<feGaussianBlur stdDeviation="1"/>
<feColorMatrix type="matrix" values="0 0 0 0 0.498039 0 0 0 0 0.113725 0 0 0 0 0.113725 0 0 0 0.13 0"/>
<feBlend mode="multiply" in2="BackgroundImageFix" result="effect1_dropShadow_931_2463"/>
<feBlend mode="normal" in="SourceGraphic" in2="effect1_dropShadow_931_2463" result="shape"/>
</filter>
<filter id="filter2_d_931_2463" x="24.75" y="26.625" width="14.5029" height="17.125" filterUnits="userSpaceOnUse" color-interpolation-filters="sRGB">
<feFlood flood-opacity="0" result="BackgroundImageFix"/>
<feColorMatrix in="SourceAlpha" type="matrix" values="0 0 0 0 0 0 0 0 0 0 0 0 0 0 0 0 0 0 127 0" result="hardAlpha"/>
<feOffset dy="1"/>
<feGaussianBlur stdDeviation="1"/>
<feColorMatrix type="matrix" values="0 0 0 0 0.498039 0 0 0 0 0.113725 0 0 0 0 0.113725 0 0 0 0.13 0"/>
<feBlend mode="multiply" in2="BackgroundImageFix" result="effect1_dropShadow_931_2463"/>
<feBlend mode="normal" in="SourceGraphic" in2="effect1_dropShadow_931_2463" result="shape"/>
</filter>
<linearGradient id="paint0_linear_931_2463" x1="32" y1="1.40132e-06" x2="32" y2="64" gradientUnits="userSpaceOnUse">
<stop stop-color="#DB2626" stop-opacity="0"/>
<stop offset="0.506241" stop-color="#DB2626"/>
<stop offset="1" stop-color="#DB2626" stop-opacity="0"/>
</linearGradient>
<linearGradient id="paint1_linear_931_2463" x1="-0.669107" y1="31.9976" x2="63.9976" y2="31.9976" gradientUnits="userSpaceOnUse">
<stop stop-color="#DB2626" stop-opacity="0"/>
<stop offset="0.5" stop-color="#DB2626"/>
<stop offset="1" stop-color="#DB2626" stop-opacity="0"/>
</linearGradient>
<linearGradient id="paint2_linear_931_2463" x1="32" y1="12" x2="32" y2="52" gradientUnits="userSpaceOnUse">
<stop offset="0.4" stop-color="white"/>
<stop offset="1" stop-color="#FDF1F1"/>
</linearGradient>
<clipPath id="clip0_931_2463">
<rect width="64" height="64" fill="white"/>
</clipPath>
<clipPath id="clip1_931_2463">
<rect width="28" height="28" fill="white" transform="translate(18 18)"/>
</clipPath>
</defs>
</svg>
