<svg width="64" height="64" viewBox="0 0 64 64" fill="none" xmlns="http://www.w3.org/2000/svg">
<g clip-path="url(#clip0_835_1607)">
<path d="M51.1588 2.56531C55.583 4.81966 59.1802 8.41669 61.4345 12.8409C64.1769 18.2231 63.9981 24.3903 63.9974 30.2687C63.9973 31.4229 63.9973 32.5771 63.9974 33.7313C63.9981 39.6095 64.177 45.7767 61.4347 51.1588C59.1803 55.583 55.5833 59.1802 51.1591 61.4345C45.7769 64.1769 39.6097 63.9981 33.7313 63.9974C32.5771 63.9973 31.4229 63.9973 30.2687 63.9974C24.3904 63.9981 18.2233 64.177 12.8411 61.4347C8.41722 59.1805 4.81996 55.5836 2.56564 51.1592C-0.176793 45.7769 0.0019065 39.6098 0.00258545 33.7313C0.00259582 32.5771 0.00271408 31.4229 0.00258545 30.2687C0.0019065 24.3902 -0.176792 18.2231 2.56564 12.8407C4.81996 8.41642 8.41722 4.81953 12.8411 2.56531C18.2233 -0.17699 24.3905 0.0019145 30.2687 0.00259342C31.4229 0.00272205 32.5771 0.00272205 33.7313 0.00259342C39.6095 0.0019145 45.7767 -0.17699 51.1588 2.56531Z" fill="#B81C1C"/>
<mask id="mask0_835_1607" style="mask-type:alpha" maskUnits="userSpaceOnUse" x="0" y="0" width="64" height="64">
<path d="M51.1588 2.56531C55.583 4.81966 59.1802 8.41669 61.4345 12.8409C64.1769 18.2231 63.9981 24.3903 63.9974 30.2687C63.9973 31.4229 63.9973 32.5771 63.9974 33.7313C63.9981 39.6095 64.177 45.7767 61.4347 51.1588C59.1803 55.583 55.5833 59.1802 51.1591 61.4345C45.7769 64.1769 39.6097 63.9981 33.7313 63.9974C32.5771 63.9973 31.4229 63.9973 30.2687 63.9974C24.3904 63.9981 18.2233 64.177 12.8411 61.4347C8.41722 59.1805 4.81996 55.5836 2.56564 51.1592C-0.176793 45.7769 0.0019065 39.6098 0.00258545 33.7313C0.00259582 32.5771 0.00271408 31.4229 0.00258545 30.2687C0.0019065 24.3902 -0.176792 18.2231 2.56564 12.8407C4.81996 8.41642 8.41722 4.81953 12.8411 2.56531C18.2233 -0.17699 24.3905 0.0019145 30.2687 0.00259342C31.4229 0.00272205 32.5771 0.00272205 33.7313 0.00259342C39.6095 0.0019145 45.7767 -0.17699 51.1588 2.56531Z" fill="#991B1B"/>
</mask>
<g mask="url(#mask0_835_1607)">
<g opacity="0.3">
<rect x="11.6364" y="-0.363636" width="40.7273" height="64.7273" stroke="url(#paint0_linear_835_1607)" stroke-width="0.727273"/>
<rect x="-0.363636" y="11.6364" width="64.7273" height="40.7273" stroke="url(#paint1_linear_835_1607)" stroke-width="0.727273"/>
</g>
<g filter="url(#filter0_d_835_1607)">
<path d="M12 30.6667C12 24.1328 12 20.8657 13.2717 18.3701C14.3901 16.1749 16.1748 14.3901 18.3701 13.2715C20.8657 12 24.1328 12 30.6667 12H33.3333C39.8672 12 43.1343 12 45.6299 13.2715C47.8251 14.3901 49.6099 16.1749 50.7285 18.3701C52 20.8657 52 24.1328 52 30.6667V33.3333C52 39.8672 52 43.1343 50.7285 45.6299C49.6099 47.8251 47.8251 49.6099 45.6299 50.7285C43.1343 52 39.8672 52 33.3333 52H30.6667C24.1328 52 20.8657 52 18.3701 50.7285C16.1748 49.6099 14.3901 47.8251 13.2717 45.6299C12 43.1343 12 39.8672 12 33.3333V30.6667Z" fill="#FDE1E1"/>
</g>
</g>
<g clip-path="url(#clip1_835_1607)">
<g filter="url(#filter1_d_835_1607)">
<path d="M39.7207 26.7056L25.4698 20.4324C25.1847 20.3074 24.8616 20.3007 24.5715 20.4138C24.2848 20.5274 24.0489 20.7568 23.9275 21.0403L20.4275 29.207C20.3056 29.4913 20.3017 29.8125 20.4166 30.0997C20.5314 30.387 20.7557 30.6169 21.04 30.7388L29.1565 34.2167L27.7098 37.8333H22.6663V35.5C22.6663 34.8557 22.144 34.3333 21.4997 34.3333H20.333V43.6667H21.4997C22.144 43.6667 22.6663 43.1443 22.6663 42.5V40.1667H27.7098C28.67 40.1667 29.5205 39.5903 29.8752 38.699L31.3008 35.136L35.2897 36.8452C35.5728 36.9668 35.8925 36.9715 36.179 36.8583C36.4656 36.7451 36.6957 36.5231 36.8192 36.2408L40.3192 28.241C40.443 27.958 40.4495 27.6374 40.3373 27.3496C40.2251 27.0617 40.0034 26.8302 39.7207 26.7056ZM41.6843 36.0171C41.4452 36.6155 40.7662 36.9069 40.1677 36.6679C39.569 36.4288 39.2776 35.7497 39.5168 35.1511L40.982 31.4845C41.221 30.8863 41.8995 30.595 42.4978 30.8336C43.0967 31.0725 43.3884 31.7517 43.1492 32.3504L41.6843 36.0171Z" fill="#DB2626"/>
</g>
</g>
</g>
<defs>
<filter id="filter0_d_835_1607" x="11" y="12" width="42" height="42" filterUnits="userSpaceOnUse" color-interpolation-filters="sRGB">
<feFlood flood-opacity="0" result="BackgroundImageFix"/>
<feColorMatrix in="SourceAlpha" type="matrix" values="0 0 0 0 0 0 0 0 0 0 0 0 0 0 0 0 0 0 127 0" result="hardAlpha"/>
<feOffset dy="1"/>
<feGaussianBlur stdDeviation="0.5"/>
<feComposite in2="hardAlpha" operator="out"/>
<feColorMatrix type="matrix" values="0 0 0 0 0.498039 0 0 0 0 0.113725 0 0 0 0 0.113725 0 0 0 0.6 0"/>
<feBlend mode="normal" in2="BackgroundImageFix" result="effect1_dropShadow_835_1607"/>
<feBlend mode="normal" in="SourceGraphic" in2="effect1_dropShadow_835_1607" result="shape"/>
</filter>
<filter id="filter1_d_835_1607" x="18.408" y="19.3711" width="26.7494" height="27.1831" filterUnits="userSpaceOnUse" color-interpolation-filters="sRGB">
<feFlood flood-opacity="0" result="BackgroundImageFix"/>
<feColorMatrix in="SourceAlpha" type="matrix" values="0 0 0 0 0 0 0 0 0 0 0 0 0 0 0 0 0 0 127 0" result="hardAlpha"/>
<feOffset dy="0.962501"/>
<feGaussianBlur stdDeviation="0.962501"/>
<feColorMatrix type="matrix" values="0 0 0 0 0.117647 0 0 0 0 0.160784 0 0 0 0 0.231373 0 0 0 0.2 0"/>
<feBlend mode="multiply" in2="BackgroundImageFix" result="effect1_dropShadow_835_1607"/>
<feBlend mode="normal" in="SourceGraphic" in2="effect1_dropShadow_835_1607" result="shape"/>
</filter>
<linearGradient id="paint0_linear_835_1607" x1="32" y1="1.40132e-06" x2="32" y2="64" gradientUnits="userSpaceOnUse">
<stop stop-color="white" stop-opacity="0"/>
<stop offset="0.506241" stop-color="white"/>
<stop offset="1" stop-color="white" stop-opacity="0"/>
</linearGradient>
<linearGradient id="paint1_linear_835_1607" x1="-0.669107" y1="31.9976" x2="63.9976" y2="31.9976" gradientUnits="userSpaceOnUse">
<stop stop-color="white" stop-opacity="0"/>
<stop offset="0.5" stop-color="white"/>
<stop offset="1" stop-color="white" stop-opacity="0"/>
</linearGradient>
<clipPath id="clip0_835_1607">
<rect width="64" height="64" fill="white"/>
</clipPath>
<clipPath id="clip1_835_1607">
<rect width="28" height="28.0001" fill="white" transform="translate(18 18)"/>
</clipPath>
</defs>
</svg>
