<svg width="1440" height="500" viewBox="0 0 1440 500" fill="none" xmlns="http://www.w3.org/2000/svg">
<path d="M-35.6621 -1.76743C22.1721 21.3751 73.0511 51.9645 114.53 88.5308C212.185 175.452 196.182 246.533 253.518 256.278C342.116 271.33 405.011 105.724 593.292 75.4573C731.387 53.2456 869.177 114.771 901.069 129.027C1025.49 184.573 1040.14 248.945 1130.66 248.586C1196.87 248.374 1217.54 213.847 1321.62 197.032C1394.07 185.328 1457 190.261 1499.32 196.377" stroke="#BFDBFE" stroke-miterlimit="10"/>
<path d="M-35.8516 5.96973C21.9878 29.1202 72.8742 59.714 114.365 96.2826C212.021 183.221 196.017 254.284 253.329 264.031C341.951 279.082 404.846 113.476 593.104 83.2109C731.223 61.0139 869.013 122.539 900.905 136.779C1025.33 192.325 1039.95 256.699 1130.49 256.338C1196.71 256.126 1217.35 221.6 1321.45 204.784C1393.93 193.078 1456.83 198.013 1499.15 204.128" stroke="#BFDBFE" stroke-miterlimit="10"/>
<path d="M-36.0449 13.7068C21.8 36.8519 72.6876 67.4464 114.172 104.02C211.828 190.958 195.824 262.021 253.159 271.767C341.687 286.825 404.676 121.211 592.934 90.9461C731.03 68.751 868.82 130.276 900.711 144.516C1025.14 200.078 1039.78 264.434 1130.3 264.075C1196.51 263.863 1217.18 229.319 1321.26 212.505C1393.74 200.799 1456.64 205.734 1498.96 211.849" stroke="#BFDBFE" stroke-miterlimit="10"/>
<path d="M-36.1953 21.4403C21.6382 44.5977 72.5172 75.1978 113.999 111.772C211.655 198.71 195.652 269.773 252.964 279.52C341.585 294.571 404.481 128.965 592.738 98.6998C730.857 76.5028 868.647 138.028 900.539 152.268C1024.96 207.83 1039.59 272.188 1130.13 271.827C1196.34 271.614 1216.99 237.073 1321.09 220.257C1393.56 208.551 1456.47 213.486 1498.79 219.601" stroke="#BFDBFE" stroke-miterlimit="10"/>
<path d="M-36.4102 29.1791C21.4292 52.3297 72.3156 82.9235 113.807 119.492C211.486 206.428 195.46 277.51 252.794 287.239C341.392 302.292 404.311 136.683 592.568 106.418C730.688 84.2215 868.455 145.749 900.369 159.986C1024.77 215.551 1039.42 279.906 1129.93 279.548C1196.15 279.335 1216.82 244.791 1320.89 227.977C1393.37 216.271 1456.28 221.223 1498.59 227.321" stroke="#BFDBFE" stroke-miterlimit="10"/>
<path d="M-36.5781 36.9144C21.2563 60.0697 72.1416 90.6629 113.639 127.227C211.294 214.165 195.292 285.245 252.603 294.976C341.154 310.032 404.12 144.42 592.395 114.088C730.491 91.8927 868.282 153.418 900.173 167.657C1024.6 223.22 1039.22 287.578 1129.76 287.217C1195.97 287.004 1216.62 252.463 1320.72 235.647C1393.2 223.941 1456.1 228.892 1498.45 234.989" stroke="#BFDBFE" stroke-miterlimit="10"/>
<path d="M-36.7246 44.6642C21.1087 67.8232 71.9814 98.4301 113.448 135.014C211.127 221.95 195.102 293.032 252.436 302.761C341.035 317.83 403.954 152.221 592.211 121.957C730.329 99.7432 868.096 161.27 900.011 175.508C1024.41 231.072 1039.06 295.428 1129.58 295.069C1195.79 294.857 1216.46 260.313 1320.54 243.499C1393.01 231.81 1455.92 236.744 1498.24 242.843" stroke="#BFDBFE" stroke-miterlimit="10"/>
<path d="M-36.9473 52.3354C20.8976 75.4805 71.7853 106.075 113.269 142.648C210.924 229.57 194.922 300.65 252.234 310.397C340.855 325.448 403.751 159.841 592.031 129.575C730.126 107.363 867.916 168.889 899.809 183.144C1024.23 238.69 1038.86 303.048 1129.4 302.704C1195.61 302.491 1216.28 267.948 1320.36 251.15C1392.81 239.446 1455.71 244.381 1498.06 250.494" stroke="#BFDBFE" stroke-miterlimit="10"/>
<path d="M-37.1348 60.1371C20.7125 83.2857 71.6069 113.879 113.105 150.448C210.76 237.37 194.734 308.452 252.07 318.197C340.621 333.253 403.587 167.641 591.84 137.327C729.958 115.114 867.725 176.641 899.641 190.895C1024.04 246.443 1038.69 310.815 1129.21 310.456C1195.42 310.244 1216.09 275.716 1320.17 258.902C1392.64 247.196 1455.55 252.131 1497.87 258.246" stroke="#BFDBFE" stroke-miterlimit="10"/>
<path d="M-37.2559 67.8688C20.5767 91.0426 71.4494 121.66 112.919 158.251C210.575 245.189 194.572 316.253 251.907 325.998C340.505 341.051 403.401 175.444 591.681 145.178C729.776 122.966 867.566 184.491 899.459 198.747C1023.88 254.293 1038.51 318.667 1129.05 318.307C1195.26 318.094 1215.93 283.567 1320.01 266.753C1392.46 255.049 1455.37 259.984 1497.71 266.097" stroke="#BFDBFE" stroke-miterlimit="10"/>
<path d="M-37.4766 75.5756C20.3578 98.7309 71.2432 129.324 112.74 165.888C210.396 252.826 194.392 323.89 251.704 333.637C340.302 348.69 403.221 183.082 591.479 152.817C729.598 130.62 867.365 192.147 899.28 206.384C1023.68 261.932 1038.33 326.305 1128.87 325.944C1195.06 325.733 1215.73 291.206 1319.83 274.39C1392.31 262.684 1455.21 267.619 1497.53 273.734" stroke="#BFDBFE" stroke-miterlimit="10"/>
<path d="M-37.668 83.3449C20.1714 106.495 71.0578 137.089 112.549 173.658C210.205 260.596 194.201 331.659 251.536 341.405C340.134 356.457 403.03 190.851 591.311 160.584C729.407 138.389 867.197 199.915 899.088 214.154C1023.51 269.716 1038.14 334.074 1128.68 333.713C1194.89 333.501 1215.56 298.957 1319.64 282.143C1392.09 270.439 1454.99 275.374 1497.34 281.487" stroke="#BFDBFE" stroke-miterlimit="10"/>
<path d="M-37.791 91.0765C20.0384 114.237 70.9227 144.829 112.426 181.389C210.082 268.327 194.078 339.391 251.39 349.138C339.94 364.178 402.902 198.517 591.118 168.321C729.237 146.124 867.004 207.652 898.919 221.889C1023.32 277.453 1037.97 341.809 1128.51 341.449C1194.7 341.238 1215.37 306.694 1319.47 289.878C1391.94 278.172 1454.85 283.124 1497.17 289.222" stroke="#BFDBFE" stroke-miterlimit="10"/>
<path d="M-38.0332 98.8174C19.8061 121.968 70.6926 152.562 112.184 189.13C209.839 276.068 193.837 347.148 251.171 356.877C339.769 371.93 402.665 206.323 590.945 176.057C729.041 153.862 866.832 215.387 898.7 229.628C1023.13 285.191 1037.75 349.548 1128.29 349.188C1194.5 348.975 1215.17 314.432 1319.25 297.617C1391.7 285.913 1454.61 290.865 1496.95 296.962" stroke="#BFDBFE" stroke-miterlimit="10"/>
<path d="M-38.2012 106.553C19.6332 129.708 70.5185 160.301 112.016 196.866C209.671 283.804 193.669 354.884 250.98 364.614C339.554 379.669 402.497 214.059 590.755 183.81C728.875 161.613 866.642 223.141 898.556 237.378C1022.96 292.942 1037.61 357.298 1128.15 356.938C1194.33 356.727 1215.01 322.183 1319.1 305.367C1391.58 293.678 1454.49 298.613 1496.81 304.712" stroke="#BFDBFE" stroke-miterlimit="10"/>
<path d="M-38.3203 114.3C19.5292 137.441 70.4179 168.036 111.896 204.613C209.551 291.535 193.549 362.615 250.883 372.344C339.412 387.418 402.374 221.757 590.588 191.545C728.683 169.334 866.473 230.859 898.365 245.098C1022.79 300.661 1037.41 365.018 1127.95 364.658C1194.17 364.445 1214.84 329.902 1318.91 313.087C1391.37 301.4 1454.27 306.335 1496.61 312.432" stroke="#BFDBFE" stroke-miterlimit="10"/>
<path d="M-38.5605 122.057C19.2843 145.202 70.172 175.797 111.656 212.37C209.311 299.292 193.308 370.372 250.62 380.119C339.218 395.171 402.137 229.563 590.395 199.298C728.513 177.085 866.28 238.612 898.196 252.866C1022.6 308.414 1037.24 372.786 1127.78 372.426C1194 372.213 1214.65 337.688 1318.74 320.872C1391.22 309.166 1454.12 314.101 1496.45 320.216" stroke="#BFDBFE" stroke-miterlimit="10"/>
<path d="M-38.7539 129.778C19.091 152.923 69.9787 183.518 111.463 220.091C209.117 307.013 193.115 378.093 250.45 387.838C339.025 402.893 401.944 237.284 590.227 207.051C728.322 184.839 866.112 246.364 898.005 260.62C1022.43 316.166 1037.05 380.54 1127.59 380.18C1193.81 379.967 1214.48 345.44 1318.55 328.626C1391.01 316.922 1453.91 321.857 1496.26 327.97" stroke="#BFDBFE" stroke-miterlimit="10"/>
<path d="M-38.8535 137.508C18.9858 160.659 69.8723 191.253 111.363 227.821C209.019 314.759 193.015 385.823 250.328 395.57C338.858 410.661 401.843 244.998 590.032 214.755C728.151 192.558 865.941 254.083 897.833 268.323C1022.23 323.871 1036.88 388.243 1127.42 387.882C1193.63 387.67 1214.28 353.144 1318.38 336.328C1390.86 324.622 1453.76 329.557 1496.08 335.673" stroke="#BFDBFE" stroke-miterlimit="10"/>
<path d="M-39.1133 145.299C18.7316 168.444 69.6193 199.039 111.103 235.612C208.759 322.55 192.756 393.613 250.091 403.359C338.689 418.411 401.585 252.805 589.865 222.538C727.957 200.294 865.748 261.819 897.639 276.058C1022.06 331.621 1036.69 395.979 1127.23 395.618C1193.44 395.405 1214.11 360.862 1318.19 344.047C1390.64 332.344 1453.54 337.278 1495.89 343.392" stroke="#BFDBFE" stroke-miterlimit="10"/>
<path d="M-39.2871 152.986C18.5522 176.136 69.4386 206.73 110.93 243.299C208.585 330.237 192.582 401.3 249.894 411.047C338.492 426.1 401.411 260.492 589.673 230.293C727.793 208.096 865.583 269.621 897.474 283.861C1021.88 339.425 1036.52 403.781 1127.06 403.42C1193.27 403.208 1213.92 368.666 1318.02 351.85C1390.5 340.144 1453.4 345.079 1495.72 351.194" stroke="#BFDBFE" stroke-miterlimit="10"/>
<path d="M-39.3887 160.716C18.4507 183.866 69.3371 214.46 110.828 251.029C208.484 337.967 192.482 409.047 249.816 418.776C338.325 433.901 401.311 268.238 589.497 237.962C727.593 215.767 865.383 277.293 897.274 291.532C1021.7 347.095 1036.32 411.452 1126.86 411.091C1193.07 410.879 1213.75 376.335 1317.82 359.521C1390.28 347.817 1453.2 352.767 1495.52 358.865" stroke="#BFDBFE" stroke-miterlimit="10"/>
<path d="M-39.6426 168.539C18.1918 191.694 69.0772 222.288 110.574 258.852C208.23 345.79 192.228 416.87 249.538 426.601C338.136 441.653 401.055 276.045 589.313 245.78C727.426 223.501 865.216 285.026 897.107 299.266C1021.53 354.828 1036.16 419.186 1126.7 418.825C1192.91 418.613 1213.56 384.071 1317.66 367.255C1390.13 355.549 1453.04 360.5 1495.36 366.599" stroke="#BFDBFE" stroke-miterlimit="10"/>
<path d="M-39.8398 176.211C18.0026 199.352 68.8897 229.941 110.376 266.508C208.031 353.446 192.029 424.526 249.363 434.255C337.963 449.324 400.858 283.717 589.137 253.434C727.233 231.239 865.024 292.765 896.915 307.004C1021.34 362.566 1035.99 426.922 1126.5 426.563C1192.72 426.351 1213.39 391.807 1317.46 374.993C1389.92 363.306 1452.84 368.239 1495.16 374.337" stroke="#BFDBFE" stroke-miterlimit="10"/>
<path d="M-39.918 183.937C17.9269 207.082 68.8146 237.676 110.299 274.249C207.953 361.171 191.951 432.251 249.263 441.998C337.797 457.139 400.783 291.475 588.944 261.185C727.062 238.972 864.852 300.497 896.745 314.753C1021.17 370.299 1035.79 434.656 1126.33 434.312C1192.55 434.1 1213.19 399.558 1317.29 382.758C1389.77 371.053 1452.67 375.987 1495 382.103" stroke="#BFDBFE" stroke-miterlimit="10"/>
<path d="M-40.2031 191.681C17.6418 214.826 68.5294 245.421 110.014 281.994C207.668 368.915 191.666 439.996 249.001 449.741C337.599 464.793 400.518 299.185 588.775 268.92C726.87 246.709 864.657 308.185 896.576 322.488C1020.98 378.036 1035.63 442.408 1126.14 442.049C1192.35 441.837 1213.03 407.31 1317.1 390.495C1389.58 378.79 1452.48 383.724 1494.8 389.84" stroke="#BFDBFE" stroke-miterlimit="10"/>
<path d="M-40.375 199.416C17.4643 222.567 68.3508 253.161 109.842 289.729C207.498 376.667 191.494 447.731 248.806 457.478C337.427 472.529 400.323 306.922 588.58 276.657C726.698 254.444 864.489 315.969 896.381 330.225C1020.81 385.771 1035.43 450.145 1125.97 449.785C1192.18 449.572 1212.83 415.047 1316.93 398.231C1389.41 386.525 1452.31 391.46 1494.63 397.575" stroke="#BFDBFE" stroke-miterlimit="10"/>
</svg>
