<svg width="1440" height="399" viewBox="0 0 1440 399" fill="none" xmlns="http://www.w3.org/2000/svg">
<path d="M-24.4297 167.747C74.4589 159.527 144.25 133.381 189.987 110.746C236.238 87.8557 269.548 62.7452 330.416 49.245C397.549 34.2448 441.414 40.9649 458.764 44.745C482.818 49.995 481.323 53.5651 520.673 65.7453C596.263 89.1457 610.623 78.7355 644.491 94.2458C700.648 119.956 683.902 158.972 742.64 202.248C785.176 233.598 855.602 258.543 919.308 241.248C979.299 224.958 986.049 184.052 1049.17 178.247C1075.09 175.862 1096.65 181.157 1139.76 191.747C1195.02 205.248 1232.12 221.898 1246.97 227.748C1290.99 245.103 1362.03 256.023 1478 221.748" stroke="#3B82F6" stroke-miterlimit="10"/>
<path d="M-25.0957 180.977C70.5615 173.882 142.074 150.212 191.964 126.751C232.492 107.431 263.401 86.2506 305.998 71.1153C315.314 67.8153 325.129 64.6202 335.699 61.8602C402.304 44.4899 446.003 47.355 464.244 49.11C488.705 51.45 488.705 54.1201 527.27 65.9553C554.45 74.2804 573.808 79.0355 588.802 82.1555C614.29 87.4506 627.05 87.8106 647.163 97.9958C654.667 101.765 661.71 106.38 668.151 111.751C697.943 136.576 696.675 168.047 746.096 201.407C789.116 230.448 859.073 252.408 921.692 235.233C926.653 233.869 931.542 232.257 936.339 230.403C984.749 211.668 995.621 178.712 1051.1 173.537C1056.94 172.983 1062.82 172.818 1068.69 173.042C1088.41 173.732 1108.79 178.622 1141.08 186.542C1194.56 199.742 1231.09 216.078 1247.47 222.543C1259.47 227.234 1271.84 230.917 1284.46 233.553C1328.13 242.793 1389.86 243.753 1476.7 220.173" stroke="#3B82F6" stroke-miterlimit="10"/>
<path d="M-25.7598 195.377C66.651 189.377 139.961 168.377 193.942 143.807C236.811 124.306 269.154 102.031 310.966 86.1306C320.509 82.4855 330.399 78.7955 341.014 75.6304C407.091 55.8751 450.563 53.4901 469.77 54.6301C494.519 56.1301 496.165 55.8451 533.884 67.3203C560.294 75.3754 579.576 80.8205 594.283 84.6456C619.062 91.0507 630.976 92.3407 649.79 102.916C656.959 106.989 663.698 111.768 669.903 117.181C698.683 141.841 700.103 171.422 749.585 201.782C793.087 228.498 862.577 247.473 924.108 230.418C929.318 228.918 934.135 227.418 938.649 225.618C988.584 206.538 999.638 175.112 1053.08 170.117C1058.88 169.55 1064.71 169.364 1070.53 169.562C1090.58 170.147 1110.94 174.902 1142.44 182.747C1194.17 195.587 1230.09 211.653 1248.01 218.583C1259.92 223.232 1272.18 226.923 1284.68 229.623C1327.95 239.073 1389.39 241.068 1475.37 219.828" stroke="#3B82F6" stroke-miterlimit="10"/>
<path d="M-26.4082 210.753C62.7561 205.908 137.817 187.382 195.936 161.912C241.085 142.112 274.908 118.816 315.904 102.136C325.689 98.1458 335.67 93.9757 346.3 90.3907C411.848 68.2803 455.019 63.6452 475.268 61.1252C500.318 58.0202 503.595 58.5452 540.484 69.6603C566.153 77.4155 585.36 83.5656 599.856 88.0956C623.91 95.5958 635.008 97.8458 652.524 108.796C659.303 113.179 665.697 118.121 671.64 123.571C699.409 148.052 703.607 175.727 753.028 203.073C797.074 227.463 866.035 243.468 926.48 226.518C931.644 225.018 936.431 223.518 940.915 221.763C992.345 202.262 1003.62 172.427 1054.99 167.462C1060.75 166.881 1066.54 166.675 1072.33 166.847C1092.71 167.312 1113.1 171.962 1143.77 179.657C1193.72 192.122 1229.06 207.903 1248.51 215.418C1260.34 219.996 1272.5 223.691 1284.89 226.473C1327.77 236.133 1388.93 239.178 1474.03 220.263" stroke="#3B82F6" stroke-miterlimit="10"/>
<path d="M-27.0723 226.158C58.8607 222.438 135.643 206.418 197.915 180.032C245.358 159.917 280.647 135.586 320.857 118.156C330.868 113.821 340.925 109.156 351.601 105.166C416.62 80.7455 459.398 72.4354 480.779 67.6653C506.041 62.0252 510.979 61.2902 547.098 72.0454C572.088 79.5455 591.129 86.3556 605.383 91.5457C628.712 100.126 638.98 103.366 655.212 114.676C661.588 119.359 667.642 124.46 673.332 129.946C700.104 154.217 707.08 180.002 756.456 204.422C801.046 226.473 869.463 239.523 928.836 222.693C933.939 221.193 938.696 219.693 943.165 217.968C996.105 198.062 1007.58 169.967 1056.9 164.942C1062.62 164.368 1068.36 164.143 1074.11 164.267C1094.8 164.627 1115.12 169.157 1145.08 176.702C1193.28 188.822 1228.04 204.332 1249.01 212.388C1260.76 216.921 1272.81 220.626 1285.09 223.473C1327.59 233.358 1388.46 237.423 1472.7 220.863" stroke="#3B82F6" stroke-miterlimit="10"/>
<path d="M-27.707 236.088C54.9946 233.493 133.514 219.993 199.922 192.692C249.646 172.247 286.414 146.837 325.84 128.716C336.062 124.021 346.224 118.921 356.93 114.481C421.391 87.7506 463.822 75.8404 486.275 68.7153C511.764 60.6452 518.453 58.5302 553.696 68.9403C573.158 74.71 592.262 81.6121 610.909 89.6107C633.558 99.2558 642.966 103.516 657.869 115.111C664.377 120.196 669.541 125.611 675.128 130.876C700.904 154.877 710.673 178.877 759.959 200.297C805.138 219.993 872.981 230.103 931.266 213.393C936.325 211.893 941.051 210.393 945.49 208.698C999.955 188.432 1011.63 161.822 1058.89 156.947C1064.56 156.371 1070.27 156.131 1075.97 156.227C1096.99 156.512 1117.28 160.877 1146.42 168.227C1192.86 179.957 1227.04 195.227 1249.52 203.823C1261.2 208.308 1273.16 212.016 1285.33 214.923C1327.44 225.033 1388 230.148 1471.39 215.913" stroke="#3B82F6" stroke-miterlimit="10"/>
<path d="M-28.4023 243.168C51.0528 241.668 131.308 230.673 201.87 202.487C253.873 181.712 292.091 155.192 330.761 136.486C341.211 131.416 351.448 125.866 362.199 121.006C426.177 92.0107 468.275 76.5154 491.786 67.0053C517.455 56.5801 525.881 53.0101 560.309 63.0602C579.599 68.6924 598.371 75.9488 616.419 84.7506C638.329 95.4307 646.936 100.741 660.541 112.741C666.581 118.036 671.337 123.676 676.879 129.001C701.673 152.852 714.251 174.782 763.416 193.367C809.214 210.678 876.468 217.878 933.666 201.272C938.664 199.772 943.345 198.272 947.785 196.607C1003.77 176.027 1015.69 150.947 1060.84 146.252C1066.47 145.661 1072.13 145.401 1077.79 145.472C1099.11 145.652 1119.41 149.882 1147.75 157.142C1192.42 168.527 1226.01 183.512 1250.04 192.677C1261.63 197.106 1273.48 200.818 1285.54 203.793C1327.27 214.128 1387.55 220.293 1470.07 208.368" stroke="#3B82F6" stroke-miterlimit="10"/>
<path d="M-29.0508 250.353C47.1579 250.008 129.12 241.458 203.864 212.388C258.132 191.267 297.784 163.607 335.7 144.227C346.376 138.751 356.719 132.751 367.5 127.501C430.965 96.2708 472.761 77.2505 497.283 65.2503C523.3 52.5301 533.311 47.46 566.908 57.1501C586.059 62.7233 604.52 70.4115 621.947 80.0705C643.087 91.7557 650.908 98.1758 663.23 110.476C668.756 115.996 673.135 121.816 678.616 127.246C702.444 150.842 717.876 170.822 766.89 186.542C813.322 201.437 879.942 205.743 936.008 189.272C940.96 187.772 945.611 186.272 950.02 184.622C1007.54 163.622 1019.59 140.116 1062.74 135.451C1068.33 134.861 1073.94 134.58 1079.56 134.611C1101.21 134.611 1121.48 138.781 1149.02 145.922C1191.93 156.917 1224.93 171.662 1250.49 181.352C1262 185.743 1273.76 189.469 1285.7 192.512C1327.05 203.012 1387.04 210.228 1468.68 200.672" stroke="#3B82F6" stroke-miterlimit="10"/>
<path d="M-29.7148 257.568C43.2625 258.348 126.946 252.273 205.842 222.318C262.391 200.852 303.477 172.037 340.653 152.072C351.525 146.237 361.989 139.831 372.785 134.071C435.752 100.606 477.276 78.0605 502.795 63.5702C529.129 48.57 540.74 41.9699 573.522 51.3C592.527 56.8089 610.681 64.8844 627.474 75.3004C647.964 88.0056 654.865 95.5357 665.903 108.136C670.931 113.896 674.963 119.866 680.368 125.401C703.229 148.757 721.485 166.742 770.348 179.642C817.444 192.077 883.415 193.547 938.439 177.182C943.347 175.682 947.967 174.182 952.346 172.577C1011.4 151.262 1023.62 129.256 1064.73 124.681C1070.28 124.089 1075.86 123.789 1081.43 123.781C1103.4 123.646 1123.71 127.726 1150.43 134.716C1191.56 145.352 1223.98 159.842 1251.07 170.072C1262.49 174.433 1274.15 178.183 1285.98 181.307C1326.94 192.077 1386.65 200.282 1467.43 193.067" stroke="#3B82F6" stroke-miterlimit="10"/>
<path d="M-30.3789 264.753C39.3671 266.613 124.802 262.998 207.851 232.173C266.74 210.348 309.17 180.362 345.636 159.842C356.72 153.602 367.289 146.792 378.116 140.611C440.569 104.956 481.836 78.9005 508.337 61.8452C535.048 44.6399 548.215 36.4498 580.166 45.4199C599.039 50.9097 616.889 59.4107 633.016 70.5903C652.796 84.2706 658.836 92.9707 668.591 105.856C673.121 111.856 676.76 117.961 682.181 123.616C704.106 146.717 725.215 162.617 773.897 172.787C821.658 182.732 886.964 181.397 940.916 165.152C945.763 163.652 950.353 162.152 954.717 160.652C1015.3 139.006 1027.69 118.501 1066.74 114.046C1072.26 113.423 1077.8 113.102 1083.35 113.086C1105.64 112.936 1125.87 116.791 1151.86 123.586C1191.23 133.861 1223.06 148.097 1251.68 158.867C1262.03 162.767 1273.49 166.622 1286.31 170.072C1326.88 181.052 1386.3 190.307 1466.21 185.417" stroke="#3B82F6" stroke-miterlimit="10"/>
<path d="M-31.043 271.729C35.3962 274.729 122.567 273.589 209.799 241.908C270.893 219.723 314.788 188.537 350.559 167.477C361.839 160.832 372.529 153.632 383.386 147.002C445.386 109.156 486.427 79.6055 513.803 60.0002C540.892 40.4999 555.599 30.8097 586.735 39.4199C605.498 44.8956 623.064 53.8089 638.527 65.7003C657.629 80.3705 662.687 90.2557 671.249 103.396C675.28 109.636 678.557 115.891 683.857 121.651C704.846 144.467 728.794 158.372 777.28 165.752C825.765 173.132 890.362 169.052 943.226 152.927C948.028 151.427 952.588 149.927 956.922 148.427C1019.04 126.451 1031.62 107.446 1068.66 103.096C1074.12 102.462 1079.61 102.127 1085.1 102.091C1107.75 101.806 1127.93 105.556 1153.05 112.261C1190.67 122.161 1221.89 136.156 1252.06 147.452C1262.36 151.322 1273.73 155.162 1286.4 158.687C1326.58 169.877 1385.71 180.167 1464.76 177.632" stroke="#3B82F6" stroke-miterlimit="10"/>
<path d="M-31.6934 278.614C31.5597 282.769 120.377 284.044 211.791 251.523C275.21 229.023 320.419 196.562 355.496 175.022C366.987 167.957 377.798 160.382 388.715 153.302C450.232 113.251 491.062 80.2505 519.298 58.0051C546.825 36.3748 563.088 25.0046 593.287 33.2697C613.34 38.7598 631.55 50.115 644.008 60.6602C662.444 76.2904 666.657 87.3906 673.89 100.786C677.393 107.266 680.323 113.671 685.547 119.551C705.615 142.051 732.357 153.887 780.676 158.552C829.796 163.337 893.773 156.557 945.551 140.551C950.292 139.051 954.822 137.551 959.14 136.051C1022.79 113.731 1035.53 96.2258 1070.49 91.9957C1075.9 91.3527 1081.35 90.9972 1086.81 90.9307C1109.75 90.4957 1129.92 94.1557 1154.34 100.726C1190.18 110.266 1220.77 124.006 1252.48 135.841C1262.74 139.666 1274.02 143.522 1286.52 147.092C1326.32 158.507 1385.17 169.832 1463.34 169.592" stroke="#3B82F6" stroke-miterlimit="10"/>
<path d="M-32.3574 285.409C27.6643 290.704 118.127 294.229 213.769 261.033C279.348 237.993 326.036 204.483 360.449 182.417C372.121 174.917 383.098 166.982 393.985 159.452C455.079 117.286 495.713 80.7155 524.81 55.9501C552.79 32.1297 570.442 19.1695 599.947 27.0596C619.29 32.2797 637.409 44.2349 649.58 55.5601C667.352 72.1504 670.553 84.4506 676.608 98.1158C679.628 104.836 682.18 111.361 687.344 117.361C706.491 139.621 736.071 149.282 784.21 151.367C834.039 153.512 897.322 144.077 948.012 128.176C952.713 126.686 957.208 125.186 961.496 123.676C1026.7 101.056 1039.61 85.0206 1072.51 80.9105C1077.88 80.2502 1083.29 79.8747 1088.7 79.7855C1111.95 79.2305 1132.12 82.7855 1155.76 89.2057C1189.82 98.3708 1219.85 111.931 1253.12 124.246C1263.33 128.056 1274.5 131.881 1286.87 135.511C1326.28 147.152 1384.83 159.512 1462.15 161.642" stroke="#3B82F6" stroke-miterlimit="10"/>
<path d="M-33.0234 292.099C23.7518 298.504 115.951 304.504 215.746 270.439C283.604 247.053 331.667 212.253 365.4 189.752C377.253 181.847 388.352 173.522 399.284 165.542C459.94 121.231 500.452 81.1505 530.305 53.7751C558.768 27.7497 577.869 13.1394 606.483 20.6846C625.132 25.6196 643.176 38.1898 655.029 50.325C672.167 67.8753 674.357 81.4055 679.189 95.3258C681.635 102.301 683.915 108.961 688.989 115.066C707.335 137.026 739.739 146.027 787.681 144.002C838.084 141.872 900.809 131.416 950.427 115.636C955.077 114.146 959.537 112.646 963.805 111.136C1030.58 88.3056 1043.62 73.6354 1074.47 69.6453C1079.8 68.9797 1085.17 68.5892 1090.54 68.4753C1114.11 67.8153 1134.33 71.2354 1157.1 77.4755C1189.34 86.3556 1218.84 99.7508 1253.63 112.516C1263.79 116.296 1274.88 120.121 1287.08 123.811C1326.11 135.676 1384.38 149.072 1460.81 153.542" stroke="#3B82F6" stroke-miterlimit="10"/>
<path d="M-33.7461 298.714C19.7978 306.214 113.719 314.719 217.666 279.769C287.804 256.038 337.15 219.963 370.279 196.952C382.359 188.612 393.578 179.942 404.51 171.452C464.759 124.951 505.045 81.4505 535.758 51.45C564.765 23.2496 585.346 7.07931 613.159 14.2494C631.098 18.8995 649.067 32.0697 660.618 45.0149C677.122 63.4952 678.255 78.2555 681.954 92.4157C683.857 99.6458 685.835 106.426 690.833 112.666C708.198 134.326 743.29 139.666 791.141 136.546C842.208 133.261 904.268 118.666 952.799 103.006C957.329 101.506 961.859 100.006 966.072 98.5058C1034.37 75.3304 1047.61 62.1452 1076.41 58.2901C1081.69 57.6063 1087.01 57.1958 1092.34 57.0601C1116.22 56.2801 1136.37 59.5952 1158.41 65.7153C1188.96 74.1604 1217.82 87.2256 1254.13 100.606C1264.26 104.356 1275.27 108.106 1287.35 111.931C1325.99 123.931 1383.99 138.436 1459.49 145.247" stroke="#3B82F6" stroke-miterlimit="10"/>
<path d="M-34.334 305.254C15.9635 313.909 111.59 324.859 219.72 289.039C292.199 264.963 342.784 227.538 375.248 204.123C387.449 195.332 398.894 186.332 409.827 177.422C469.758 128.941 509.787 81.7205 541.195 49.14C570.67 18.6745 592.61 0.944225 619.714 7.78434C636.943 12.1494 654.866 25.9196 666.1 39.6598C681.985 59.1602 682.031 75.0604 684.598 89.4907C685.911 96.9908 687.618 103.876 692.525 110.236C709.014 131.596 746.884 134.656 794.554 129.061C846.241 123.061 907.712 105.886 955.141 90.3307C959.671 88.8306 964.095 87.3306 968.308 85.9506C1038.14 62.4302 1051.54 50.685 1078.29 46.95C1083.58 46.2759 1088.89 45.8754 1094.21 45.7499C1116.36 44.9212 1138.5 47.7083 1159.74 54.0001C1188.52 62.0852 1216.79 74.8954 1254.65 88.8156C1264.73 92.5207 1275.63 96.3158 1287.52 100.156C1343.07 117.816 1400.2 130.177 1458.12 137.071" stroke="#3B82F6" stroke-miterlimit="10"/>
<path d="M-35 311.749C12.0661 321.529 109.414 334.955 221.697 298.249C296.395 273.829 348.324 235.143 380.244 211.248C521.926 105.091 566.772 -13.471 626.371 1.24423C642.89 5.3243 660.769 19.6945 671.671 34.2448C694.955 65.2953 680.278 88.8456 694.32 107.746C728.748 154.097 883.611 102.331 970.647 73.2454C1055.51 44.8799 1058.65 35.7448 1095.97 34.2448C1161.13 31.5897 1195 57.5851 1287.74 88.2456C1342.89 106.388 1399.45 119.935 1456.86 128.746" stroke="#3B82F6" stroke-miterlimit="10"/>
<path d="M-35 316.039C13.3194 326.734 107.648 338.99 214.992 303.859C289.087 279.544 338.811 240.483 373.072 215.358C509.937 115.111 552.624 6.53934 613.34 16.2295C637.062 20.0096 661.146 27.5847 677.046 39.1949C708.288 62.0252 696.676 82.4406 714.796 100.696C754.463 140.686 898.907 95.7908 981.775 69.1053C1062.5 43.0199 1065.76 35.6398 1105.22 37.1398C1170.78 39.6299 1203.11 62.6402 1290.48 92.0707C1344.98 110.423 1401.11 123.636 1458.11 131.536" stroke="#3B82F6" stroke-miterlimit="10"/>
<path d="M-35 320.509C45.5819 338.937 129.698 335.177 208.288 309.634C281.779 285.439 329.207 245.973 365.9 219.633C497.766 125.041 539.049 24.8396 600.324 31.3797C631.415 34.7098 660.648 35.5498 682.422 44.3249C719.779 59.3252 712.5 75.9754 735.271 93.8257C778.773 127.891 914.204 89.4156 992.919 65.1303C1069.37 41.3249 1072.77 35.5498 1114.47 40.1999C1180.28 47.52 1211.22 68.0103 1293.21 96.0758C1347.07 114.625 1402.74 127.505 1459.31 134.506" stroke="#3B82F6" stroke-miterlimit="10"/>
<path d="M-35 328.459C43.2355 347.108 125.148 343.795 201.599 318.889C274.47 294.799 319.619 254.928 358.727 227.388C485.324 138.256 525.912 57.0151 587.293 50.01C625.692 45.6299 659.651 47.43 687.812 52.9201C730.364 61.2002 727.887 73.0054 755.761 90.4207C801.906 119.251 929.53 86.6706 1004.05 64.6352C1076.35 43.2599 1079.71 38.8048 1123.71 46.725C1189.73 58.6051 1219.31 76.8304 1295.96 103.546C1349.17 122.314 1404.41 134.868 1460.54 140.956" stroke="#3B82F6" stroke-miterlimit="10"/>
<path d="M-35 340.565C40.8831 359.424 120.592 356.543 194.894 332.255C267.162 308.254 310.015 267.979 351.555 239.253C472.791 155.417 512.957 81.9305 574.277 72.7504C619.833 65.9403 660.059 55.5301 693.188 65.6253C738.774 79.5155 740.48 80.4755 776.237 91.1257C819.256 123.541 944.841 87.9906 1015.19 68.2503C1083.29 49.2 1086.64 46.05 1132.97 57.3751C1199.15 73.5604 1227.39 89.8207 1298.69 115.126C1351.27 134.107 1406.07 146.331 1461.77 151.502" stroke="#3B82F6" stroke-miterlimit="10"/>
<path d="M-35 352.955C38.5271 372.038 116.036 369.631 188.22 346.025C259.884 322.144 300.427 281.419 344.413 251.523C460.168 172.832 499.88 106.426 561.185 95.8958C614.035 86.8356 658.005 72.4654 698.594 78.7505C750.929 86.8506 755.565 83.6706 796.742 92.2507C841.876 121.096 960.137 89.5957 1026.26 72.2704C1090.16 55.5451 1093.51 53.5501 1142.15 68.4303C1208.59 88.7106 1235.39 103.246 1301.36 127.111C1353.3 146.307 1407.68 158.202 1462.93 162.452" stroke="#3B82F6" stroke-miterlimit="10"/>
<path d="M-35 365.585C36.1543 384.853 111.443 382.897 181.486 359.96C252.545 336.185 290.748 295.009 337.21 263.958C447.439 190.292 486.698 130.606 548.23 119.206C608.221 108.091 656.737 98.9708 703.939 92.0257C762.224 83.4456 770.589 87.0006 817.187 93.5257C864.51 118.891 975.433 91.4257 1037.46 76.4554C1097.17 62.0552 1100.52 61.1252 1151.47 79.6505C1218.03 103.861 1243.5 116.896 1304.1 139.276C1355.4 158.679 1409.36 170.245 1464.15 173.582" stroke="#3B82F6" stroke-miterlimit="10"/>
<path d="M-35 378.38C21.2165 394.536 97.1232 399.981 174.797 374.075C245.298 350.555 281.099 308.749 330.038 276.574C434.634 207.813 473.486 154.622 535.199 142.697C602.483 129.706 655.997 117.001 709.329 105.481C773.202 91.6657 787.093 82.0206 837.678 94.9808C890.089 108.406 990.729 93.4808 1048.59 80.8206C1104.1 68.7304 1107.48 68.8204 1160.71 91.0357C1227.6 119.041 1251.55 130.756 1306.9 151.607C1341.32 164.567 1393.23 181.517 1465.45 184.877" stroke="#3B82F6" stroke-miterlimit="10"/>
<path d="M-35 391.401C22.5302 408.441 95.3566 412.746 168.092 388.4C237.989 365 271.42 322.654 322.865 289.399C421.754 225.453 460.047 178.607 522.183 166.397C596.776 151.727 655.393 135.331 714.705 119.146C784.33 100.141 801.71 85.6806 858.153 96.6458C911.954 107.146 1006.01 95.6258 1059.74 85.3956C1111.07 75.6154 1114.58 76.5154 1169.96 102.646C1237.19 134.341 1259.57 144.887 1309.64 164.147C1343.55 177.197 1394.69 194.147 1466.68 196.397" stroke="#3B82F6" stroke-miterlimit="10"/>
<path d="M-35 404.571C23.8892 422.571 93.5899 425.661 161.388 402.891C230.681 379.61 261.711 336.71 315.693 302.389C408.828 243.168 446.608 202.607 509.151 190.262C591.128 174.077 654.865 153.872 720.081 132.976C795.58 108.796 816.342 89.8507 878.628 98.4758C933.894 106.126 1021.29 98.0108 1070.86 90.1357C1117.95 82.6356 1121.67 84.3606 1179.21 114.421C1246.85 149.747 1267.57 159.227 1312.37 176.852C1345.8 190.007 1396.14 207.018 1467.9 208.068" stroke="#3B82F6" stroke-miterlimit="10"/>
<path d="M-35 417.936C25.1425 436.791 91.8383 438.756 154.684 417.561C223.373 394.386 251.972 350.885 308.52 315.559C395.843 260.988 432.082 219.393 496.135 214.308C586.946 207.093 654.381 172.607 725.456 146.987C806.889 117.646 834.175 79.4855 899.104 100.486C953.342 118.081 1036.51 100.486 1082.01 95.0558C1124.86 89.8807 1128.82 92.3257 1188.46 126.361C1256.58 165.257 1275.54 173.807 1315.1 189.737C1348.04 203.013 1397.61 220.038 1469.12 219.933" stroke="#3B82F6" stroke-miterlimit="10"/>
<path d="M-35 431.736C26.4562 451.507 90.0717 452.257 147.994 432.756C216.064 409.686 242.202 365.525 301.348 329.255C382.887 279.259 418.628 244.998 483.104 238.878C581.253 229.533 653.959 191.882 730.847 161.522C818.275 127.021 847.674 86.3556 919.594 103.021C976.641 116.251 1051.84 103.591 1093.14 100.501C1131.78 97.6058 1136.08 100.756 1197.7 138.841C1266.36 181.262 1283.51 188.957 1317.85 203.147C1350.27 216.558 1399.07 233.568 1470.36 232.308" stroke="#3B82F6" stroke-miterlimit="10"/>
<path d="M-35 446.406C27.7548 467.092 88.2899 466.687 141.29 448.657C208.756 425.691 232.387 380.81 294.176 343.655C369.765 298.189 405.159 271.309 470.088 264.154C575.606 252.528 653.566 211.878 736.222 176.777C829.72 137.071 861.551 94.7557 940.07 106.276C999.774 115.036 1067.09 107.326 1104.28 106.651C1138.68 106.021 1143.37 109.861 1206.96 152.027C1276.19 197.942 1291.52 204.873 1320.58 217.278C1352.49 230.868 1400.61 247.818 1471.58 245.403" stroke="#3B82F6" stroke-miterlimit="10"/>
<path d="M-35 461.332C29.0685 482.932 86.5232 481.342 134.586 464.902C201.448 442.026 222.527 396.336 287.003 358.4C356.689 317.389 391.645 297.934 457.057 289.774C569.883 275.704 653.204 232.203 741.598 192.362C841.257 147.467 875.775 104.116 960.545 109.861C1022.76 114.076 1082.36 111.361 1115.41 113.146C1145.55 114.751 1150.71 119.251 1216.2 165.557C1286.1 214.953 1299.37 221.253 1323.32 231.753C1354.68 245.568 1401.99 262.428 1472.81 258.843" stroke="#3B82F6" stroke-miterlimit="10"/>
<path d="M-35 477.577C30.3821 500.077 84.7112 497.227 127.882 482.452C194.094 459.532 212.591 413.046 279.831 374.45C343.582 337.85 378.115 325.849 444.041 316.699C564.115 300.034 652.871 253.848 746.913 209.253C852.612 159.167 890.648 121.591 980.96 114.751C1045.32 109.891 1097.55 116.701 1126.49 120.946C1152.42 124.756 1158.05 129.946 1225.4 180.377C1295.97 233.268 1307.21 238.878 1325.99 247.503C1356.76 261.648 1403.39 278.314 1473.97 273.574" stroke="#3B82F6" stroke-miterlimit="10"/>
<path d="M-35 493.657C31.6807 517.073 82.9445 513.053 121.192 499.852C186.786 477.037 202.565 429.441 272.658 390.351C330.46 358.115 364.556 353.6 431.01 343.475C558.316 324.079 652.554 275.329 752.364 226.008C864.238 170.702 905.853 130.006 1001.51 119.506C1067.95 112.246 1112.9 121.801 1137.68 128.596C1159.41 134.596 1165.55 140.446 1234.7 195.062C1306.03 251.403 1315.12 256.458 1328.8 263.133C1358.88 277.804 1404.92 294.049 1475.27 288.154" stroke="#3B82F6" stroke-miterlimit="10"/>
<path d="M-35 509.752C32.9491 534.068 81.2684 528.893 114.488 517.253C179.417 494.542 192.433 445.596 265.486 406.251C317.339 378.32 350.981 381.35 417.994 370.25C552.458 347.975 652.252 296.749 757.739 242.748C875.79 182.237 921.104 138.361 1021.99 124.246C1090.77 114.631 1128.24 126.826 1148.82 136.246C1166.39 144.287 1172.98 150.932 1243.95 209.748C1316.05 269.554 1322.92 274.099 1331.53 278.749C1360.63 294.484 1406.37 309.799 1476.49 302.749" stroke="#3B82F6" stroke-miterlimit="10"/>
</svg>
