<svg width="1440" height="720" viewBox="0 0 1440 720" fill="none" xmlns="http://www.w3.org/2000/svg">
<path d="M-34.9297 109.793C187.502 199.516 307.401 317.851 376.55 414.657C434.194 495.365 433.171 528.379 494.38 588.593C627.208 719.256 881.656 809.361 1004.98 697.074C1065.72 641.761 1043.25 571.665 1072.31 438.969C1098.45 319.599 1166.03 155.424 1354.73 -23" stroke="#BFDBFE" stroke-miterlimit="10"/>
<path d="M-34.4844 138.741C181.868 215.851 300.567 327.175 369.681 417.773C427.833 494.025 432.562 524.517 497.576 583.696C633.962 707.842 872.921 794.273 996.414 689.502C1060.02 635.541 1045.55 566.644 1079.6 434.336C1109.57 317.855 1178.54 156.487 1363.98 -20.337" stroke="#BFDBFE" stroke-miterlimit="10"/>
<path d="M-34.041 167.685C176.227 232.186 293.82 336.528 362.821 420.889C421.603 492.758 431.846 520.659 500.783 578.8C640.425 696.573 864.566 779.386 987.869 681.934C1054.48 629.284 1047.76 561.691 1086.91 429.708C1120.59 316.142 1191.06 157.562 1373.26 -17.6539" stroke="#BFDBFE" stroke-miterlimit="10"/>
<path d="M-33.5938 196.633C170.59 248.525 287.192 345.908 355.965 424.029C415.453 491.567 431.018 516.829 504.009 573.899C646.632 685.464 856.575 764.724 979.337 674.362C1049.09 623.028 1049.87 556.794 1094.23 425.076C1131.47 314.454 1203.59 158.637 1382.52 -14.9829" stroke="#BFDBFE" stroke-miterlimit="10"/>
<path d="M-33.1484 225.577C164.972 264.852 280.699 355.289 349.107 427.126C409.405 490.44 430.12 513.035 507.194 569.002C652.547 674.519 848.871 750.302 970.767 666.791C1043.8 616.759 1051.83 551.929 1101.51 420.444C1142.19 312.773 1216.09 159.708 1391.76 -12.2919" stroke="#BFDBFE" stroke-miterlimit="10"/>
<path d="M-32.7051 254.52C159.315 281.186 274.353 364.673 342.247 430.242C403.484 489.381 429.075 509.297 510.4 564.101C658.265 663.755 841.482 736.124 962.214 659.223C1038.66 610.527 1053.65 547.088 1108.81 415.812C1152.79 311.089 1228.61 160.782 1401.03 -9.64099" stroke="#BFDBFE" stroke-miterlimit="10"/>
<path d="M-32.2578 283.464C153.678 297.501 268.187 374.018 335.391 433.358C397.703 488.378 427.966 505.624 513.607 559.204C663.801 653.167 834.361 722.204 953.666 651.651C1033.65 604.351 1055.4 542.248 1116.12 411.184C1163.28 309.388 1241.14 161.857 1410.29 -6.96594" stroke="#BFDBFE" stroke-miterlimit="10"/>
<path d="M-31.7988 312.412C148.053 313.852 262.225 383.319 328.547 436.474C392.094 487.408 426.805 502.03 516.825 554.307C669.185 642.76 827.493 708.536 945.129 644.079C1028.77 598.251 1057 537.399 1123.43 406.552C1173.63 307.668 1253.64 162.944 1419.55 -4.29492" stroke="#BFDBFE" stroke-miterlimit="10"/>
<path d="M-31.3691 341.356C142.399 330.187 256.442 392.531 321.674 439.594C386.644 486.453 425.514 498.549 520.018 549.406C674.424 632.529 820.808 695.125 936.564 636.511C1023.99 592.251 1058.43 532.51 1130.72 401.919C1183.87 305.911 1266.16 164.003 1428.84 -1.62402" stroke="#BFDBFE" stroke-miterlimit="10"/>
<path d="M-30.9258 370.288C136.762 346.51 250.886 401.61 314.814 442.698C381.36 485.467 424.189 495.108 523.221 544.498C679.543 622.454 814.289 681.946 928.011 628.927C1019.31 586.363 1059.75 527.561 1138.02 397.275C1194 304.099 1278.68 165.066 1438.07 1.03503" stroke="#BFDBFE" stroke-miterlimit="10"/>
<path d="M-30.4766 399.248C131.148 362.857 245.552 410.562 307.964 445.827C376.295 484.44 422.821 491.815 526.433 539.609C684.6 612.568 807.928 669.037 919.465 621.371C1014.74 580.653 1060.95 522.568 1145.33 392.655C1204.04 302.262 1291.2 166.152 1447.34 3.72607" stroke="#BFDBFE" stroke-miterlimit="10"/>
<path d="M-30.0332 428.192C125.487 379.188 240.417 419.309 301.104 448.943C371.417 483.281 421.42 488.623 529.636 534.712C689.592 602.827 801.678 656.343 910.913 613.799C1010.26 575.11 1062.02 517.483 1152.63 388.027C1213.99 300.357 1303.72 167.223 1456.6 6.39307" stroke="#BFDBFE" stroke-miterlimit="10"/>
<path d="M-29.5879 457.14C119.848 395.523 235.46 427.831 294.246 452.063C366.724 481.937 419.952 485.539 532.844 529.815C694.545 593.234 795.51 643.874 902.366 606.228C1005.84 569.772 1062.97 512.305 1159.93 383.395C1223.87 298.392 1316.23 168.298 1465.87 9.06421" stroke="#BFDBFE" stroke-miterlimit="10"/>
<path d="M-29.1426 486.084C114.214 411.857 230.651 436.105 287.388 455.179C362.197 480.329 418.476 482.571 536.041 524.914C699.462 583.773 789.39 631.594 893.808 598.66C1001.5 564.671 1063.81 507.015 1167.23 378.763C1233.69 296.358 1328.75 169.361 1475.13 11.7472" stroke="#BFDBFE" stroke-miterlimit="10"/>
<path d="M-28.6973 515.028C108.575 428.188 225.939 444.11 280.514 458.295C357.773 478.372 416.969 479.715 539.242 520.017C704.375 574.444 783.294 619.551 885.25 591.088C997.204 559.834 1064.54 501.609 1174.53 374.118C1243.43 294.245 1341.25 170.432 1484.37 14.394" stroke="#BFDBFE" stroke-miterlimit="10"/>
<path d="M-28.2539 543.976C102.955 444.523 221.265 451.842 273.671 461.412C353.44 475.978 415.479 476.976 542.46 515.117C709.298 565.248 777.22 607.676 876.714 583.52C992.959 555.29 1065.21 496.091 1181.84 369.502C1253.17 292.083 1353.79 171.519 1493.65 17.0813" stroke="#BFDBFE" stroke-miterlimit="10"/>
<path d="M-27.7871 572.92C97.3173 460.858 217.136 473.812 266.834 464.532C348.124 449.348 413.997 474.354 545.69 510.22C714.253 556.136 771.11 595.977 868.165 575.948C988.717 551.083 1065.78 490.408 1189.15 364.87C1262.86 289.849 1366.3 172.593 1502.91 19.7683" stroke="#BFDBFE" stroke-miterlimit="10"/>
<path d="M-27.3613 601.864C91.6631 477.193 212.909 478.504 259.957 467.648C342.417 448.622 412.473 471.839 548.875 505.323C719.222 547.153 764.926 584.451 859.615 568.376C984.463 547.209 1066.29 484.604 1196.45 360.23C1272.54 287.531 1378.82 173.656 1512.18 22.4152" stroke="#BFDBFE" stroke-miterlimit="10"/>
<path d="M-26.9141 630.812C86.0264 493.524 208.131 482.735 253.101 470.764C337.045 448.421 410.979 469.437 552.086 500.442C724.222 538.245 758.668 573.057 851.067 560.828C980.177 543.74 1066.74 478.677 1203.76 355.626C1282.2 285.181 1391.34 174.751 1521.44 25.1143" stroke="#BFDBFE" stroke-miterlimit="10"/>
<path d="M-26.4707 659.756C80.3858 509.859 201.347 480.486 246.245 473.88C334.681 460.898 409.506 467.135 555.292 495.537C729.269 529.414 752.297 561.779 842.518 553.249C975.82 540.632 1067.14 472.557 1211.07 350.974C1291.86 282.714 1403.87 175.814 1530.7 27.7653" stroke="#BFDBFE" stroke-miterlimit="10"/>
<path d="M-26.0254 688.7C74.7471 526.193 195.757 487.295 239.383 477C329.079 455.837 408.042 464.937 558.493 490.636C734.35 520.663 745.784 550.626 833.964 545.677C971.369 537.968 1067.51 466.348 1218.36 346.353C1301.52 280.208 1416.38 176.897 1539.97 30.4482" stroke="#BFDBFE" stroke-miterlimit="10"/>
<path d="M-25.582 717.648C69.1105 542.528 189.783 494.113 232.523 480.117C322.961 450.487 406.604 462.835 561.699 485.731C739.49 511.976 739.117 539.561 825.416 538.101C966.787 535.694 1067.85 459.972 1225.67 341.717C1311.18 277.645 1428.89 177.959 1549.23 33.1112" stroke="#BFDBFE" stroke-miterlimit="10"/>
</svg>
