<svg width="1440" height="690" viewBox="0 0 1440 690" fill="none" xmlns="http://www.w3.org/2000/svg">
<path d="M-25 105.998C194.713 196.536 313.146 315.945 381.451 413.63C438.389 495.071 437.379 528.385 497.84 589.146C629.045 720.995 880.383 811.918 1002.2 698.612C1062.2 642.796 1040 572.064 1068.7 438.163C1094.53 317.71 1161.29 152.044 1347.67 -28" stroke="#60A5FA" stroke-miterlimit="10"/>
<path d="M-24.5605 135.209C189.147 213.019 306.396 325.354 374.664 416.775C432.106 493.719 436.777 524.488 500.997 584.205C635.716 709.478 871.754 796.693 993.737 690.971C1056.57 636.519 1042.28 566.997 1075.91 433.489C1105.51 315.949 1173.64 153.117 1356.81 -25.313" stroke="#60A5FA" stroke-miterlimit="10"/>
<path d="M-24.1211 164.416C183.577 229.503 299.732 334.792 367.89 419.919C425.954 492.44 436.071 520.595 504.166 579.263C642.101 698.106 863.502 781.671 985.299 683.334C1051.1 630.206 1044.46 561.999 1083.12 428.818C1116.4 314.221 1186 154.201 1365.98 -22.6055" stroke="#60A5FA" stroke-miterlimit="10"/>
<path d="M-23.6816 193.627C178.007 245.99 293.184 344.258 361.116 423.088C419.877 491.239 435.251 516.73 507.351 574.318C648.23 686.896 855.607 766.876 976.869 675.694C1045.77 623.893 1046.54 557.058 1090.35 424.145C1127.14 312.518 1198.38 155.286 1375.13 -19.9099" stroke="#60A5FA" stroke-miterlimit="10"/>
<path d="M-23.2405 222.833C172.458 262.465 286.771 353.724 354.343 426.212C413.904 490.101 434.365 512.902 510.497 569.377C654.074 675.852 847.998 752.323 968.404 668.053C1040.54 617.568 1048.48 552.149 1097.55 419.47C1137.73 310.822 1210.73 156.366 1384.26 -17.1946" stroke="#60A5FA" stroke-miterlimit="10"/>
<path d="M-22.801 252.04C166.872 278.948 280.504 363.193 347.568 429.357C408.057 489.033 433.335 509.13 513.666 564.431C659.723 664.99 840.701 738.017 959.958 660.417C1035.47 611.279 1050.28 547.264 1104.76 414.796C1148.21 309.122 1223.1 157.451 1393.41 -14.5198" stroke="#60A5FA" stroke-miterlimit="10"/>
<path d="M-22.3615 281.247C161.302 295.411 274.411 372.623 340.794 432.501C402.344 488.021 432.237 505.423 516.831 559.49C665.19 654.306 833.665 723.97 951.512 652.776C1030.52 605.047 1052 542.38 1111.98 410.126C1158.56 307.406 1235.48 158.536 1402.55 -11.8203" stroke="#60A5FA" stroke-miterlimit="10"/>
<path d="M-21.9066 310.458C155.747 311.91 268.523 382.007 334.035 435.646C396.805 487.042 431.092 501.797 520.012 554.549C670.509 643.804 826.882 710.178 943.081 645.135C1025.7 598.891 1053.58 537.487 1119.21 405.451C1168.78 305.67 1247.82 159.632 1411.7 -9.12524" stroke="#60A5FA" stroke-miterlimit="10"/>
<path d="M-21.4826 339.665C150.162 328.394 262.811 391.304 327.245 438.794C391.421 486.079 429.816 498.284 523.165 549.604C675.683 633.48 820.278 696.645 934.619 637.499C1020.98 592.837 1055 532.554 1126.4 400.777C1178.9 303.898 1260.19 160.701 1420.87 -6.42969" stroke="#60A5FA" stroke-miterlimit="10"/>
<path d="M-21.0432 368.859C144.595 344.865 257.324 400.466 320.47 441.926C386.204 485.083 428.509 494.812 526.33 544.65C680.742 623.314 813.841 683.347 926.173 629.846C1016.36 586.896 1056.3 527.56 1133.62 396.091C1188.91 302.068 1272.56 161.773 1430 -3.74683" stroke="#60A5FA" stroke-miterlimit="10"/>
<path d="M-20.6021 398.082C139.047 361.36 252.053 409.499 313.702 445.083C381.198 484.047 427.155 491.49 529.501 539.717C685.735 613.339 807.555 670.32 917.729 622.222C1011.84 581.133 1057.48 522.522 1140.83 391.429C1198.83 300.215 1284.92 162.87 1439.15 -1.03101" stroke="#60A5FA" stroke-miterlimit="10"/>
<path d="M-20.1627 427.289C133.457 377.839 246.982 418.325 306.927 448.228C376.38 482.877 425.772 488.268 532.666 534.775C690.666 603.509 801.383 657.511 909.282 614.581C1007.41 575.54 1058.54 517.39 1148.05 386.759C1208.66 298.292 1297.28 163.95 1448.3 1.65991" stroke="#60A5FA" stroke-miterlimit="10"/>
<path d="M-19.7231 456.5C127.887 394.323 242.085 426.925 300.153 451.376C371.745 481.522 424.322 485.156 535.835 529.834C695.559 593.829 795.29 644.929 900.84 606.941C1003.05 570.154 1059.48 512.165 1155.26 382.085C1218.41 296.31 1309.65 165.035 1457.45 4.35547" stroke="#60A5FA" stroke-miterlimit="10"/>
<path d="M-19.2837 485.706C122.32 410.806 237.335 435.274 293.378 454.521C367.272 479.899 422.864 482.161 538.992 524.889C700.415 584.282 789.244 632.538 892.386 599.304C998.764 565.006 1060.31 506.827 1162.47 377.41C1228.11 294.258 1322.01 166.107 1466.6 7.06274" stroke="#60A5FA" stroke-miterlimit="10"/>
<path d="M-18.8442 514.913C116.75 427.284 232.68 443.351 286.588 457.665C362.903 477.924 421.374 479.279 542.153 519.947C705.268 574.868 783.223 620.384 883.932 591.663C994.517 560.125 1061.04 501.372 1169.67 372.724C1237.74 292.125 1334.36 167.188 1475.73 9.7334" stroke="#60A5FA" stroke-miterlimit="10"/>
<path d="M-18.4047 544.124C111.2 443.768 228.064 451.153 279.829 460.809C358.624 475.508 419.904 476.516 545.334 515.002C710.132 565.589 777.225 608.401 875.502 584.027C990.326 555.54 1061.69 495.803 1176.9 368.066C1247.36 289.944 1346.74 168.285 1484.9 12.4451" stroke="#60A5FA" stroke-miterlimit="10"/>
<path d="M-17.9451 573.331C105.63 460.251 223.984 473.323 273.075 463.958C353.371 448.636 418.439 473.869 548.523 510.061C715.025 556.394 771.187 596.597 867.056 576.386C986.135 551.295 1062.26 490.069 1184.12 363.392C1256.93 287.69 1359.11 169.369 1494.05 15.1565" stroke="#60A5FA" stroke-miterlimit="10"/>
<path d="M-17.5242 602.537C100.045 476.734 219.81 478.058 266.282 467.103C347.735 447.904 416.934 471.332 551.669 505.12C719.934 547.329 765.079 584.966 858.611 568.746C981.932 547.386 1062.76 484.213 1191.33 358.709C1266.49 285.351 1371.47 170.442 1503.2 17.8276" stroke="#60A5FA" stroke-miterlimit="10"/>
<path d="M-17.0847 631.748C94.4753 493.213 215.087 482.327 259.508 470.247C342.426 447.701 415.456 468.907 554.838 500.194C724.87 538.341 758.895 573.468 850.165 561.129C977.697 543.885 1063.2 478.232 1198.54 354.063C1276.03 282.979 1383.84 171.546 1512.35 20.551" stroke="#60A5FA" stroke-miterlimit="10"/>
<path d="M-16.6453 660.955C88.9051 509.696 208.388 480.056 252.737 473.391C340.092 460.291 414.002 466.584 558.007 495.245C729.857 529.429 752.604 562.088 841.722 553.48C973.395 540.748 1063.6 472.056 1205.77 349.369C1285.57 280.49 1396.21 172.619 1521.5 23.2258" stroke="#60A5FA" stroke-miterlimit="10"/>
<path d="M-16.2057 690.162C83.335 526.18 202.866 486.929 245.959 476.54C334.558 455.185 412.556 464.367 561.168 490.3C734.876 520.599 746.171 550.834 833.272 545.84C968.997 538.062 1063.96 465.792 1212.97 344.707C1295.11 277.961 1408.57 173.712 1530.64 25.9338" stroke="#60A5FA" stroke-miterlimit="10"/>
<path d="M-15.7662 719.373C77.7689 542.663 196.967 493.808 239.184 479.685C328.516 449.786 411.138 462.246 564.337 485.35C739.955 511.833 739.586 539.668 824.83 538.195C964.473 535.767 1064.3 459.357 1220.19 340.029C1304.66 275.375 1420.93 174.784 1539.79 28.6208" stroke="#60A5FA" stroke-miterlimit="10"/>
</svg>
