<svg width="480" height="480" viewBox="0 0 480 480" fill="none" xmlns="http://www.w3.org/2000/svg">
<path d="M416 0H64C28.654 0 0 28.654 0 64V416C0 451.346 28.654 480 64 480H416C451.346 480 480 451.346 480 416V64C480 28.654 451.346 0 416 0Z" fill="#F4F6FA"/>
<path d="M396.603 270.377C395.824 269.377 394.735 268.663 393.507 268.348L389.863 267.404C382.79 265.568 372.904 263.813 362.216 261.916C355.323 260.692 348.096 259.409 341.075 258.007C339.957 257.784 338.912 257.285 338.037 256.555C337.711 256.162 337.422 255.74 337.173 255.294C336.207 253.569 335.808 251.496 335.991 249.496C336.203 247.199 337.588 245.395 338.683 244.266C339.834 243.078 341.054 242.242 341.535 241.917C347.407 237.943 351.522 232.527 352.883 224.812C354.164 217.547 352.46 211.359 348.879 206.695C348.159 205.758 347.359 204.875 346.484 204.054C342.895 200.231 337.819 197.543 331.83 196.487C325.018 195.286 318.593 196.472 313.601 199.651C308.641 202.809 304.923 208.041 303.642 215.306C302.282 223.021 304.296 229.518 308.455 235.26C308.796 235.73 309.656 236.934 310.332 238.443C310.975 239.879 311.659 242.048 311.072 244.278C310.561 246.22 309.476 248.032 307.979 249.323C306.467 250.625 304.404 251.488 302.102 251.135C284.404 248.425 265.392 246.599 253.376 245.446C252.127 245.327 250.879 245.206 249.631 245.085C246.434 244.775 243.587 247.126 243.272 250.368C242.163 261.78 239.976 282.956 237.244 302.711C237.099 303.756 237.314 304.885 238.207 305.447C238.29 305.5 238.377 305.55 238.466 305.599C238.627 305.94 238.868 306.234 239.207 306.447C239.611 306.701 240.082 306.913 240.611 307.052C241.072 307.173 241.854 307.076 242.916 306.601C243.904 306.159 244.745 305.566 245.15 305.272C251.889 300.392 259.822 297.882 269.152 299.527C275.302 300.612 280.392 303.212 284.258 306.876C285.421 308.105 286.465 309.442 287.374 310.87C291.354 317.121 292.693 324.928 291.29 332.884C289.887 340.841 285.959 347.719 280.081 352.231C274.174 356.766 266.459 358.783 257.797 357.256C251.281 356.107 246.099 353.287 241.977 349.344C240.59 347.888 239.329 346.317 238.207 344.648C237.926 344.233 237.339 343.389 236.562 342.635C236.433 342.51 236.3 342.39 236.163 342.274C235.972 342.052 235.771 341.839 235.562 341.635C234.727 340.826 234.025 340.466 233.55 340.423C233.04 340.375 232.526 340.405 232.025 340.511C230.993 340.734 230.405 341.721 230.183 342.753C228.275 351.633 226.615 360.831 225.093 369.262C223.345 378.945 221.78 387.618 220.232 393.638C219.945 394.75 219.989 395.92 220.357 397.008C220.725 398.095 221.402 399.051 222.305 399.76C223.202 400.905 224.491 401.678 225.924 401.93L366.22 426.668C367.749 426.937 369.323 426.588 370.596 425.697C371.868 424.806 372.734 423.447 373.005 421.917L398.738 275.976C398.925 274.937 398.825 273.866 398.449 272.88C398.073 271.893 397.434 271.028 396.603 270.377Z" fill="#CBD5E1"/>
<path d="M248.495 147.564C250.495 147.748 252.568 147.349 254.293 146.383C256.034 145.408 257.55 143.765 258.006 141.48C259.408 134.459 260.691 127.232 261.915 120.339C263.812 109.651 265.567 99.765 267.403 92.692L268.347 89.048C269.1 86.13 271.973 84.288 274.975 84.817L420.915 110.551C422.339 110.801 423.619 111.57 424.51 112.708C425.579 113.544 426.323 114.726 426.616 116.051C426.783 116.802 426.8 117.578 426.666 118.336L401.928 258.632C401.331 262.02 397.974 264.182 394.636 263.324C388.618 261.776 379.949 260.211 370.269 258.464C361.835 256.941 352.634 255.28 343.752 253.372C342.878 253.185 342.035 252.734 341.663 251.973C341.095 251.656 340.65 251.182 340.51 250.531C340.403 250.03 340.374 249.516 340.422 249.006C340.465 248.531 340.825 247.829 341.634 246.994C342.388 246.217 343.232 245.63 343.647 245.349C350.537 240.686 355.609 234.089 357.254 224.759C358.782 216.096 356.765 208.381 352.23 202.475C351.65 201.72 351.031 200.996 350.375 200.306C346.034 196.18 340.311 193.399 333.883 192.266C325.927 190.863 318.119 192.202 311.869 196.182C305.588 200.181 301.054 206.741 299.526 215.404C297.881 224.734 300.391 232.667 305.271 239.406C305.565 239.811 306.157 240.652 306.6 241.64C307.075 242.701 307.172 243.484 307.051 243.945C306.912 244.474 306.699 244.945 306.446 245.349C305.884 246.242 304.755 246.456 303.71 246.312C283.955 243.58 262.779 241.393 251.367 240.284C250.572 240.209 249.801 239.974 249.1 239.591C248.4 239.209 247.785 238.687 247.292 238.059C246.521 237.458 245.915 236.673 245.529 235.775C245.143 234.878 244.99 233.897 245.084 232.925C245.205 231.677 245.326 230.428 245.445 229.18C246.598 217.164 248.424 198.152 251.134 180.454C251.485 178.165 250.635 176.114 249.345 174.604C248.165 173.601 246.775 172.876 245.277 172.484C243.047 171.897 240.878 172.581 239.442 173.224C237.933 173.899 236.73 174.76 236.26 175.1C230.517 179.259 224.02 181.274 216.305 179.914C210.642 178.915 206.214 176.436 203.041 173.042C201.743 171.828 200.604 170.455 199.65 168.955C196.471 163.963 195.285 157.538 196.486 150.725C197.688 143.912 201 138.281 205.694 134.677C210.358 131.096 216.546 129.392 223.811 130.673C229.673 131.706 234.207 134.331 237.791 138.107C239.321 139.557 240.687 141.205 241.916 143.021C242.178 143.407 242.771 144.274 243.612 145.197C244.748 146.225 246.42 147.373 248.495 147.564Z" fill="#9D1C1C"/>
<path d="M147.542 234.189C147.726 232.189 147.327 230.115 146.361 228.39V228.391C146.112 227.946 145.823 227.524 145.497 227.131C144.621 226.401 143.577 225.901 142.458 225.678C135.44 224.277 128.217 222.995 121.327 221.772C110.635 219.874 100.745 218.118 93.6713 216.282L90.0263 215.338C88.7983 215.023 87.7095 214.309 86.9303 213.309C86.0988 212.658 85.4605 211.793 85.0845 210.806C84.7084 209.82 84.6088 208.749 84.7963 207.71L110.529 61.767C110.663 61.0096 110.944 60.2858 111.357 59.6371C111.771 58.9883 112.308 58.4274 112.938 57.9863C113.568 57.5452 114.279 57.2325 115.03 57.0662C115.781 56.8999 116.557 56.8832 117.314 57.017L257.61 81.755C259.043 82.0071 260.332 82.78 261.229 83.9251C262.132 84.634 262.809 85.5904 263.177 86.6776C263.545 87.7647 263.589 88.9355 263.302 90.047C261.754 96.067 260.188 104.741 258.44 114.425C256.917 122.856 255.257 132.053 253.35 140.931C253.128 141.963 252.541 142.951 251.509 143.173C251.008 143.28 250.494 143.31 249.983 143.262C249.509 143.218 248.806 142.859 247.972 142.05C247.755 141.84 247.554 141.623 247.369 141.411C247.233 141.295 247.101 141.175 246.972 141.05C246.194 140.296 245.607 139.451 245.326 139.036C244.204 137.368 242.943 135.797 241.556 134.341C237.434 130.398 232.252 127.578 225.737 126.429C217.074 124.902 209.359 126.919 203.452 131.453C197.575 135.966 193.647 142.844 192.244 150.8C190.841 158.757 192.18 166.564 196.159 172.814C197.068 174.242 198.111 175.58 199.275 176.809C203.142 180.474 208.232 183.073 214.381 184.157C223.712 185.802 231.645 183.293 238.383 178.413C238.789 178.119 239.629 177.526 240.618 177.084C241.679 176.609 242.462 176.511 242.923 176.633C243.418 176.762 243.892 176.966 244.326 177.238C244.665 177.451 244.907 177.746 245.067 178.087C245.155 178.135 245.241 178.185 245.326 178.238C246.22 178.799 246.434 179.928 246.289 180.974C243.557 200.728 241.371 221.904 240.261 233.317C239.946 236.559 237.1 238.91 233.902 238.599C232.749 238.487 231.496 238.367 230.157 238.239L230.119 238.235C218.102 237.081 199.111 235.257 181.432 232.549C179.129 232.197 177.067 233.059 175.555 234.362C174.057 235.652 172.973 237.464 172.462 239.407C171.874 241.637 172.559 243.806 173.202 245.242C173.877 246.751 174.738 247.954 175.078 248.424C179.237 254.167 181.252 260.664 179.892 268.379C178.611 275.644 174.893 280.876 169.933 284.034C164.941 287.213 158.516 288.399 151.703 287.198C145.714 286.141 140.638 283.455 137.05 279.632C136.182 278.818 135.381 277.934 134.655 276.99C131.074 272.325 129.37 266.138 130.651 258.873C132.011 251.158 136.127 245.742 141.999 241.768C142.479 241.443 143.7 240.606 144.851 239.419C145.946 238.289 147.331 236.486 147.542 234.189Z" fill="#9D1C1C"/>
<path d="M142.02 231.608C141.647 230.847 140.805 230.396 139.931 230.208C131.051 228.3 121.853 226.64 113.421 225.118C103.738 223.37 95.0658 221.805 89.0458 220.257C88.2574 220.054 87.4356 220.016 86.6319 220.146C85.8283 220.276 85.0601 220.57 84.3755 221.011C83.6909 221.451 83.1048 222.028 82.6538 222.706C82.2028 223.384 81.8967 224.147 81.7548 224.949L57.0168 365.245C56.8324 366.29 56.9356 367.366 57.3153 368.358C57.6951 369.349 58.3371 370.218 59.1728 370.873C60.0637 372.011 61.3437 372.779 62.7668 373.03L208.708 398.764C211.71 399.293 214.582 397.451 215.336 394.533L216.28 390.889C218.116 383.815 219.871 373.926 221.769 363.236C222.992 356.344 224.275 349.12 225.676 342.101C226.133 339.816 227.648 338.173 229.389 337.198C231.115 336.232 233.188 335.833 235.188 336.017C237.263 336.208 238.935 337.356 240.072 338.384C240.688 339.068 241.255 339.795 241.767 340.56C242.996 342.376 244.362 344.024 245.892 345.474C249.476 349.25 254.01 351.875 259.872 352.908C267.137 354.189 273.324 352.485 277.989 348.904C282.683 345.3 285.995 339.668 287.196 332.856C288.398 326.043 287.211 319.618 284.033 314.626C283.079 313.126 281.94 311.753 280.642 310.539C277.469 307.145 273.041 304.665 267.378 303.667C259.663 302.307 253.166 304.322 247.423 308.48C246.953 308.821 245.75 309.681 244.241 310.357C242.805 311 240.636 311.684 238.406 311.097C236.907 310.704 235.517 309.98 234.337 308.976C233.047 307.466 232.198 305.416 232.548 303.127C235.256 285.445 237.081 266.451 238.235 254.433L238.238 254.401C238.366 253.062 238.486 251.809 238.599 250.656C238.693 249.684 238.54 248.703 238.154 247.806C237.768 246.908 237.161 246.123 236.391 245.522C235.898 244.894 235.283 244.372 234.582 243.99C233.882 243.607 233.111 243.372 232.316 243.297C220.904 242.188 199.728 240.001 179.973 237.269C178.928 237.124 177.799 237.339 177.237 238.232C176.965 238.666 176.761 239.14 176.632 239.636C176.511 240.097 176.608 240.879 177.083 241.941C177.525 242.929 178.118 243.769 178.412 244.175C183.292 250.914 185.802 258.847 184.157 268.177C182.629 276.84 178.095 283.4 171.814 287.399C165.563 291.379 157.756 292.718 149.8 291.315C143.372 290.182 137.649 287.401 133.308 283.275C132.652 282.585 132.032 281.861 131.453 281.106C126.918 275.199 124.901 267.485 126.429 258.822C128.074 249.491 133.146 242.895 140.036 238.232C140.451 237.951 141.295 237.364 142.049 236.587C142.858 235.752 143.218 235.05 143.261 234.575C143.311 234.031 143.273 233.515 143.173 233.05C143.032 232.399 142.588 231.925 142.02 231.608Z" fill="#CBD5E1"/>
<path d="M333.245 247.427C333.048 249.566 333.473 251.793 334.519 253.661C335.575 255.547 337.383 257.234 339.928 257.743C346.993 259.154 354.239 260.44 361.138 261.664C371.796 263.555 381.625 265.3 388.675 267.13L392.32 268.074C394.855 268.729 396.461 271.225 395.999 273.846L370.266 419.787C370.031 421.121 369.276 422.306 368.166 423.083C367.057 423.86 365.684 424.164 364.35 423.929L224.054 399.191C223.354 399.068 222.687 398.801 222.095 398.407C221.504 398.013 221 397.501 220.615 396.903C220.231 396.305 219.975 395.634 219.862 394.932C219.749 394.231 219.782 393.513 219.958 392.825C221.414 387.162 222.883 379.18 224.495 370.26L224.83 368.403C226.353 359.967 228.011 350.779 229.917 341.911C230.115 340.987 230.584 340.374 231.183 340.245C231.61 340.154 232.048 340.129 232.482 340.17C232.7 340.19 233.247 340.405 234.04 341.174C234.759 341.871 235.311 342.663 235.586 343.069C240.346 350.102 247.108 355.309 256.667 356.994C265.526 358.556 273.456 356.495 279.538 351.826C285.582 347.186 289.597 340.132 291.028 332.015C292.46 323.897 291.1 315.895 287.007 309.468C282.889 303 276.142 298.351 267.283 296.789C257.724 295.103 249.589 297.683 242.71 302.665C242.313 302.952 241.524 303.507 240.609 303.916C239.601 304.368 239.013 304.383 238.802 304.327C238.38 304.217 237.977 304.043 237.607 303.812C237.088 303.486 236.857 302.75 236.987 301.814C239.721 282.044 241.909 260.856 243.019 249.44C243.294 246.605 245.779 244.562 248.559 244.832L252.304 245.193C264.322 246.346 283.314 248.17 300.988 250.877C303.555 251.27 305.83 250.303 307.468 248.891C309.09 247.494 310.251 245.546 310.797 243.469C311.45 240.989 310.683 238.625 310.016 237.136C309.308 235.554 308.41 234.3 308.063 233.82C304.006 228.218 302.06 221.923 303.381 214.436C304.627 207.368 308.229 202.323 313.004 199.283C317.818 196.218 324.049 195.053 330.7 196.226C337.352 197.399 342.808 200.624 346.284 205.151C349.73 209.641 351.39 215.613 350.144 222.682C348.824 230.169 344.843 235.419 339.114 239.296C338.624 239.627 337.351 240.499 336.144 241.743C335.009 242.915 333.479 244.874 333.245 247.427Z" fill="#FEFEFE"/>
<path d="M234.04 341.174C233.247 340.405 232.7 340.19 232.482 340.17C232.048 340.129 231.61 340.154 231.183 340.245C230.584 340.374 230.115 340.987 229.917 341.911C228.011 350.779 226.353 359.967 224.83 368.403L224.495 370.26C222.883 379.18 221.414 387.162 219.958 392.825C219.782 393.513 219.749 394.231 219.862 394.932C219.975 395.634 220.231 396.305 220.615 396.903C221 397.501 221.504 398.013 222.095 398.407C222.687 398.801 223.354 399.068 224.054 399.191L364.35 423.929C365.684 424.164 367.057 423.86 368.166 423.083C369.276 422.306 370.031 421.121 370.266 419.787L395.999 273.846C396.461 271.225 394.855 268.729 392.32 268.074L388.675 267.13C381.625 265.3 371.796 263.555 361.138 261.664C354.239 260.44 346.993 259.154 339.928 257.743C337.383 257.234 335.575 255.547 334.519 253.661C333.473 251.793 333.048 249.566 333.245 247.427C333.479 244.874 335.009 242.915 336.144 241.743C337.351 240.499 338.624 239.627 339.114 239.296C344.843 235.419 348.824 230.169 350.144 222.682C351.39 215.613 349.73 209.641 346.284 205.151C342.808 200.624 337.352 197.399 330.7 196.226C324.049 195.053 317.818 196.218 313.004 199.283C308.229 202.323 304.627 207.368 303.381 214.436C302.06 221.923 304.006 228.218 308.063 233.82C308.41 234.3 309.308 235.554 310.016 237.136C310.683 238.625 311.45 240.989 310.797 243.469C310.251 245.546 309.09 247.494 307.468 248.891C305.83 250.303 303.555 251.27 300.988 250.877C283.314 248.17 264.322 246.346 252.304 245.193L248.559 244.832C245.779 244.562 243.294 246.605 243.019 249.44C241.909 260.856 239.721 282.044 236.987 301.814C236.857 302.75 237.088 303.486 237.607 303.812C237.977 304.043 238.38 304.217 238.802 304.327C239.013 304.383 239.601 304.368 240.609 303.916C241.524 303.507 242.313 302.952 242.71 302.665C249.589 297.683 257.724 295.103 267.283 296.789C276.142 298.351 282.889 303 287.007 309.468C291.1 315.895 292.46 323.897 291.028 332.015C289.597 340.132 285.582 347.186 279.538 351.826C273.456 356.495 265.526 358.556 256.667 356.994C247.108 355.309 240.346 350.102 235.586 343.069C235.311 342.663 234.759 341.871 234.04 341.174ZM234.04 341.174L234.562 340.635" stroke="#CBD5E1" stroke-width="1.5"/>
<path d="M247.426 147.311C249.565 147.508 251.792 147.083 253.66 146.037C255.546 144.981 257.234 143.173 257.742 140.627C259.153 133.562 260.439 126.316 261.663 119.418C263.555 108.76 265.299 98.9311 267.129 91.8811L268.073 88.2361C268.728 85.7011 271.224 84.0941 273.845 84.5561L419.785 110.289C420.445 110.406 421.076 110.651 421.642 111.011C422.208 111.371 422.697 111.84 423.082 112.389C423.466 112.938 423.739 113.558 423.884 114.213C424.03 114.868 424.044 115.545 423.928 116.205L399.19 256.502C399.066 257.202 398.798 257.869 398.404 258.46C398.011 259.052 397.499 259.556 396.901 259.941C396.303 260.325 395.632 260.582 394.931 260.695C394.229 260.808 393.511 260.775 392.823 260.598C387.16 259.142 379.178 257.673 370.258 256.061L368.401 255.726C359.966 254.203 350.778 252.544 341.91 250.639C340.985 250.441 340.372 249.972 340.243 249.373C340.153 248.946 340.127 248.508 340.168 248.074C340.188 247.856 340.404 247.309 341.172 246.516C341.87 245.796 342.661 245.245 343.067 244.97C350.101 240.21 355.307 233.447 356.993 223.889C358.555 215.03 356.494 207.1 351.825 201.018C347.185 194.974 340.131 190.959 332.013 189.527C323.896 188.096 315.894 189.456 309.466 193.549C302.999 197.667 298.35 204.414 296.788 213.273C295.102 222.832 297.682 230.967 302.663 237.846C302.951 238.243 303.506 239.032 303.915 239.947C304.366 240.955 304.381 241.542 304.326 241.754C304.206 242.207 304.025 242.609 303.811 242.949C303.485 243.468 302.749 243.698 301.812 243.569C282.043 240.835 260.855 238.647 249.439 237.537C246.604 237.262 244.561 234.777 244.831 231.997L245.192 228.252C246.345 216.234 248.169 197.242 250.876 179.567C251.269 177.001 250.302 174.726 248.89 173.088C247.493 171.466 245.546 170.305 243.468 169.758C240.988 169.106 238.625 169.873 237.136 170.539C235.553 171.248 234.299 172.146 233.82 172.493C228.217 176.55 221.923 178.496 214.435 177.175C207.367 175.929 202.323 172.326 199.282 167.552C196.217 162.737 195.052 156.507 196.225 149.855C197.398 143.204 200.623 137.748 205.151 134.272C209.64 130.825 215.613 129.165 222.681 130.412C230.168 131.732 235.418 135.713 239.295 141.441C239.627 141.931 240.498 143.204 241.743 144.411C242.914 145.547 244.873 147.076 247.426 147.311Z" fill="#C42323" stroke="#9D1C1C" stroke-width="1.5"/>
<path d="M147.289 233.258C147.486 231.118 147.061 228.891 146.015 227.024C144.959 225.137 143.151 223.45 140.605 222.942C133.54 221.531 126.295 220.245 119.396 219.021C108.738 217.129 98.9091 215.385 91.8591 213.555L88.2141 212.611C85.6791 211.956 84.0721 209.459 84.5341 206.839L110.267 60.8991C110.383 60.2384 110.629 59.6072 110.989 59.0414C111.349 58.4756 111.818 57.9863 112.367 57.6016C112.917 57.2168 113.537 56.9441 114.192 56.7991C114.846 56.654 115.524 56.6394 116.184 56.7561L256.48 81.4941C257.18 81.6181 257.847 81.8854 258.438 82.2792C259.03 82.673 259.534 83.1848 259.918 83.7825C260.303 84.3803 260.56 85.051 260.673 85.7527C260.786 86.4544 260.752 87.1718 260.575 87.8601C259.119 93.5231 257.651 101.505 256.039 110.425L255.703 112.282C254.181 120.717 252.522 129.905 250.617 138.774C250.418 139.698 249.95 140.311 249.351 140.44C248.924 140.531 248.486 140.556 248.052 140.515C247.834 140.495 247.287 140.28 246.494 139.511C245.774 138.813 245.222 138.022 244.948 137.616C240.187 130.583 233.425 125.376 223.867 123.69C215.008 122.128 207.078 124.189 200.996 128.858C194.951 133.499 190.936 140.553 189.505 148.67C188.074 156.788 189.434 164.789 193.527 171.217C197.645 177.685 204.392 182.334 213.251 183.896C222.809 185.581 230.945 183.001 237.823 178.02C238.22 177.733 239.009 177.178 239.924 176.768C240.932 176.317 241.52 176.302 241.732 176.358C242.185 176.477 242.587 176.659 242.927 176.873C243.445 177.198 243.676 177.935 243.547 178.871C240.812 198.641 238.625 219.828 237.515 231.244C237.239 234.079 234.755 236.123 231.975 235.853C230.727 235.732 229.478 235.611 228.229 235.492C216.211 234.339 197.22 232.515 179.545 229.808C176.979 229.415 174.703 230.382 173.065 231.794C171.444 233.191 170.283 235.138 169.736 237.216C169.084 239.695 169.851 242.059 170.517 243.548C171.225 245.131 172.124 246.385 172.471 246.864C176.528 252.467 178.473 258.761 177.153 266.249C175.907 273.317 172.304 278.361 167.53 281.402C162.715 284.467 156.485 285.632 149.833 284.459C143.182 283.286 137.725 280.061 134.25 275.533C130.803 271.044 129.143 265.071 130.389 258.003C131.71 250.516 135.691 245.266 141.419 241.389C141.909 241.057 143.182 240.186 144.389 238.941C145.525 237.77 147.054 235.811 147.289 233.258Z" fill="#C42323" stroke="#9D1C1C" stroke-width="1.5"/>
<path d="M176.357 238.827C176.476 238.374 176.658 237.972 176.872 237.632C177.198 237.113 177.934 236.882 178.87 237.012C198.64 239.746 219.828 241.934 231.244 243.044C234.078 243.319 236.122 245.804 235.852 248.583L235.494 252.298L235.491 252.329C234.338 264.347 232.514 283.339 229.807 301.013C229.414 303.58 230.381 305.855 231.793 307.493C233.19 309.115 235.137 310.276 237.215 310.822C239.694 311.475 242.058 310.708 243.547 310.041C245.13 309.333 246.384 308.435 246.863 308.088C252.466 304.031 258.76 302.085 266.248 303.406C273.316 304.652 278.36 308.255 281.4 313.029C284.466 317.843 285.631 324.074 284.458 330.725C283.285 337.377 280.06 342.833 275.532 346.309C271.043 349.756 265.07 351.416 258.002 350.169C250.515 348.849 245.265 344.868 241.388 339.14C241.056 338.65 240.185 337.376 238.94 336.17C237.769 335.034 235.81 333.505 233.257 333.27C231.117 333.073 228.89 333.498 227.023 334.544C225.136 335.6 223.449 337.408 222.941 339.954C221.53 347.018 220.244 354.264 219.02 361.163C217.128 371.821 215.384 381.65 213.554 388.7L212.61 392.345C211.955 394.88 209.458 396.487 206.838 396.025L60.8984 370.292C60.2379 370.176 59.6067 369.93 59.041 369.57C58.4753 369.21 57.9861 368.742 57.6013 368.192C57.2166 367.643 56.9439 367.023 56.7987 366.368C56.6536 365.713 56.6389 365.036 56.7554 364.376L81.4934 224.079C81.6173 223.379 81.8845 222.712 82.2783 222.12C82.6721 221.528 83.184 221.024 83.7819 220.64C84.3798 220.255 85.0507 219.998 85.7525 219.885C86.4544 219.772 87.172 219.805 87.8604 219.983C93.5234 221.439 101.505 222.908 110.425 224.52L112.282 224.855C120.717 226.378 129.905 228.036 138.773 229.942C139.698 230.14 140.311 230.609 140.44 231.208C140.524 231.6 140.557 232.04 140.515 232.507C140.494 232.725 140.279 233.272 139.511 234.065C138.813 234.784 138.022 235.336 137.616 235.611C130.582 240.371 125.375 247.133 123.69 256.692C122.128 265.551 124.189 273.481 128.858 279.563C133.498 285.607 140.552 289.622 148.67 291.054C156.787 292.485 164.789 291.125 171.216 287.032C177.684 282.914 182.333 276.167 183.895 267.308C185.581 257.749 183.001 249.614 178.02 242.735C177.732 242.338 177.177 241.549 176.768 240.634C176.316 239.626 176.301 239.038 176.357 238.827Z" fill="#FEFEFE"/>
<path d="M176.357 238.827L175.632 238.636M176.357 238.827C176.476 238.374 176.658 237.972 176.872 237.632C177.198 237.113 177.934 236.882 178.87 237.012C198.64 239.746 219.828 241.934 231.244 243.044C234.078 243.319 236.122 245.804 235.852 248.583L235.494 252.298L235.491 252.329C234.338 264.347 232.514 283.339 229.807 301.013C229.414 303.58 230.381 305.855 231.793 307.493C233.19 309.115 235.137 310.276 237.215 310.822C239.694 311.475 242.058 310.708 243.547 310.041C245.13 309.333 246.384 308.435 246.863 308.088C252.466 304.031 258.76 302.085 266.248 303.406C273.316 304.652 278.36 308.255 281.4 313.029C284.466 317.843 285.631 324.074 284.458 330.725C283.285 337.377 280.06 342.833 275.532 346.309C271.043 349.756 265.07 351.416 258.002 350.169C250.515 348.849 245.265 344.868 241.388 339.14C241.056 338.65 240.185 337.376 238.94 336.17C237.769 335.034 235.81 333.505 233.257 333.27C231.117 333.073 228.89 333.498 227.023 334.544C225.136 335.6 223.449 337.408 222.941 339.954C221.53 347.018 220.244 354.264 219.02 361.163C217.128 371.821 215.384 381.65 213.554 388.7L212.61 392.345C211.955 394.88 209.458 396.487 206.838 396.025L60.8984 370.292C60.2379 370.176 59.6067 369.93 59.041 369.57C58.4753 369.21 57.9861 368.742 57.6013 368.192C57.2166 367.643 56.9439 367.023 56.7987 366.368C56.6536 365.713 56.6389 365.036 56.7554 364.376L81.4934 224.079C81.6173 223.379 81.8845 222.712 82.2783 222.12C82.6721 221.528 83.184 221.024 83.7819 220.64C84.3798 220.255 85.0507 219.998 85.7525 219.885C86.4544 219.772 87.172 219.805 87.8604 219.983C93.5234 221.439 101.505 222.908 110.425 224.52L112.282 224.855C120.717 226.378 129.905 228.036 138.773 229.942C139.698 230.14 140.311 230.609 140.44 231.208C140.524 231.6 140.557 232.04 140.515 232.507C140.494 232.725 140.279 233.272 139.511 234.065M176.357 238.827C176.301 239.038 176.316 239.626 176.768 240.634C177.177 241.549 177.732 242.338 178.02 242.735C183.001 249.614 185.581 257.749 183.895 267.308C182.333 276.167 177.684 282.914 171.216 287.032C164.789 291.125 156.787 292.485 148.67 291.054C140.552 289.622 133.498 285.607 128.858 279.563C124.189 273.481 122.128 265.551 123.69 256.692C125.375 247.133 130.582 240.371 137.616 235.611C138.022 235.336 138.813 234.784 139.511 234.065M139.511 234.065L140.049 234.587" stroke="#CBD5E1" stroke-width="1.5"/>
<path d="M367.14 116.992L369.819 117.465L368.308 126.036L365.629 125.564L367.14 116.992ZM370.498 117.584L373.177 118.057L372.958 119.296L372.992 119.302C373.582 118.594 374.547 118.022 376.07 118.291C377.727 118.583 378.657 119.869 378.312 121.828L377.29 127.621L374.612 127.148L375.483 122.209C375.71 120.92 375.335 120.405 374.447 120.248C373.426 120.068 372.749 120.484 372.539 121.673L371.665 126.628L368.987 126.156L370.498 117.584ZM382.789 119.83L381.725 125.864L384.684 126.386L384.25 128.847L378.277 127.794L379.775 119.298L382.789 119.83ZM386.607 120.425L389.285 120.897L387.774 129.469L385.095 128.996L386.607 120.425ZM392.379 121.443L393.122 127.408L393.156 127.414L395.895 122.063L398.54 122.529L394.065 130.578L391.119 130.058L389.667 120.964L392.379 121.443ZM397.244 126.719C397.687 124.208 399.624 122.426 402.504 122.934C405.417 123.448 406.586 125.432 406.028 128.596L405.957 128.998L399.796 127.912C399.603 129.103 400.309 129.901 401.313 130.078C402.268 130.246 402.746 129.882 402.99 129.476L405.719 129.957C404.926 131.613 403.302 132.5 400.892 132.075C398.112 131.585 396.772 129.398 397.244 126.719ZM400.105 126.257L403.553 126.865C403.748 125.76 403.198 125.059 402.161 124.876C401.14 124.696 400.367 125.164 400.105 126.257ZM361.292 118.759C362.04 118.89 362.809 118.719 363.432 118.285C364.053 117.849 364.476 117.184 364.608 116.436C364.74 115.689 364.57 114.919 364.135 114.297C363.699 113.675 363.035 113.252 362.287 113.119C361.539 112.988 360.77 113.158 360.148 113.594C359.526 114.029 359.102 114.693 358.969 115.441C358.838 116.189 359.008 116.958 359.444 117.581C359.88 118.203 360.544 118.627 361.292 118.759Z" fill="#EDBDBD"/>
<path d="M361.07 120.021C361.608 120.12 362.16 120.111 362.695 119.996C363.23 119.881 363.737 119.661 364.187 119.35C364.863 118.879 365.384 118.218 365.683 117.451C365.982 116.683 366.046 115.844 365.867 115.04C365.748 114.506 365.524 114.001 365.208 113.554C364.893 113.107 364.491 112.727 364.028 112.437C363.452 112.075 362.797 111.86 362.12 111.812C361.442 111.763 360.763 111.882 360.142 112.157C359.521 112.433 358.977 112.857 358.559 113.392C358.14 113.928 357.86 114.558 357.743 115.227C357.553 116.303 357.796 117.411 358.419 118.309C359.042 119.207 359.995 119.822 361.07 120.021Z" stroke="#EDBDBD" stroke-width="0.25" stroke-miterlimit="10"/>
</svg>
