<svg width="500" height="300" viewBox="0 0 500 300" fill="none" xmlns="http://www.w3.org/2000/svg">
<g clip-path="url(#clip0_1058_2797)">
<rect width="500" height="300" fill="white"/>
<line x1="13.125" y1="-23.75" x2="13.125" y2="322.5" stroke="#F2F3F5" stroke-width="1.25"/>
<line x1="38.125" y1="-23.75" x2="38.125" y2="322.5" stroke="#F2F3F5" stroke-width="1.25"/>
<line x1="63.125" y1="-23.75" x2="63.125" y2="322.5" stroke="#F2F3F5" stroke-width="1.25"/>
<line x1="88.125" y1="-23.75" x2="88.125" y2="322.5" stroke="#F2F3F5" stroke-width="1.25"/>
<line x1="113.125" y1="-23.75" x2="113.125" y2="322.5" stroke="#F2F3F5" stroke-width="1.25"/>
<line x1="138.125" y1="-23.75" x2="138.125" y2="322.5" stroke="#F2F3F5" stroke-width="1.25"/>
<line x1="163.125" y1="-23.75" x2="163.125" y2="322.5" stroke="#F2F3F5" stroke-width="1.25"/>
<line x1="188.125" y1="-23.75" x2="188.125" y2="322.5" stroke="#F2F3F5" stroke-width="1.25"/>
<line x1="213.125" y1="-23.75" x2="213.125" y2="322.5" stroke="#F2F3F5" stroke-width="1.25"/>
<line x1="238.125" y1="-23.75" x2="238.125" y2="322.5" stroke="#F2F3F5" stroke-width="1.25"/>
<line x1="263.125" y1="-23.75" x2="263.125" y2="322.5" stroke="#F2F3F5" stroke-width="1.25"/>
<line x1="288.125" y1="-23.75" x2="288.125" y2="322.5" stroke="#F2F3F5" stroke-width="1.25"/>
<line x1="313.125" y1="-23.75" x2="313.125" y2="322.5" stroke="#F2F3F5" stroke-width="1.25"/>
<line x1="338.125" y1="-23.75" x2="338.125" y2="322.5" stroke="#F2F3F5" stroke-width="1.25"/>
<line x1="363.125" y1="-23.75" x2="363.125" y2="322.5" stroke="#F2F3F5" stroke-width="1.25"/>
<line x1="388.125" y1="-23.75" x2="388.125" y2="322.5" stroke="#F2F3F5" stroke-width="1.25"/>
<line x1="413.125" y1="-23.75" x2="413.125" y2="322.5" stroke="#F2F3F5" stroke-width="1.25"/>
<line x1="438.125" y1="-23.75" x2="438.125" y2="322.5" stroke="#F2F3F5" stroke-width="1.25"/>
<line x1="463.125" y1="-23.75" x2="463.125" y2="322.5" stroke="#F2F3F5" stroke-width="1.25"/>
<line x1="488.125" y1="-23.75" x2="488.125" y2="322.5" stroke="#F2F3F5" stroke-width="1.25"/>
<line x1="-36.25" y1="24.375" x2="536.25" y2="24.375" stroke="#F2F3F5" stroke-width="1.25"/>
<line x1="-36.25" y1="49.375" x2="536.25" y2="49.375" stroke="#F2F3F5" stroke-width="1.25"/>
<line x1="-36.25" y1="74.375" x2="536.25" y2="74.375" stroke="#F2F3F5" stroke-width="1.25"/>
<line x1="-36.25" y1="99.375" x2="536.25" y2="99.375" stroke="#F2F3F5" stroke-width="1.25"/>
<line x1="-36.25" y1="124.375" x2="536.25" y2="124.375" stroke="#F2F3F5" stroke-width="1.25"/>
<line x1="-36.25" y1="149.375" x2="536.25" y2="149.375" stroke="#F2F3F5" stroke-width="1.25"/>
<line x1="-36.25" y1="174.375" x2="536.25" y2="174.375" stroke="#F2F3F5" stroke-width="1.25"/>
<line x1="-36.25" y1="199.375" x2="536.25" y2="199.375" stroke="#F2F3F5" stroke-width="1.25"/>
<line x1="-36.25" y1="224.375" x2="536.25" y2="224.375" stroke="#F2F3F5" stroke-width="1.25"/>
<line x1="-36.25" y1="249.375" x2="536.25" y2="249.375" stroke="#F2F3F5" stroke-width="1.25"/>
<line x1="-36.25" y1="274.375" x2="536.25" y2="274.375" stroke="#F2F3F5" stroke-width="1.25"/>
<line x1="-36.25" y1="299.375" x2="536.25" y2="299.375" stroke="#F2F3F5" stroke-width="1.25"/>
<rect width="500" height="300" fill="url(#paint0_linear_1058_2797)"/>
<rect width="500" height="300" fill="url(#paint1_linear_1058_2797)"/>
<g opacity="0.3">
<rect x="140.625" y="113.75" width="210" height="82.5" rx="10" fill="#4B5563"/>
</g>
<mask id="path-34-inside-1_1058_2797" fill="white">
<path d="M145.625 113.75C145.625 108.227 150.102 103.75 155.625 103.75H350.625C356.148 103.75 360.625 108.227 360.625 113.75V181.25C360.625 186.773 356.148 191.25 350.625 191.25H155.625C150.102 191.25 145.625 186.773 145.625 181.25V113.75Z"/>
</mask>
<path d="M145.625 113.75C145.625 108.227 150.102 103.75 155.625 103.75H350.625C356.148 103.75 360.625 108.227 360.625 113.75V181.25C360.625 186.773 356.148 191.25 350.625 191.25H155.625C150.102 191.25 145.625 186.773 145.625 181.25V113.75Z" fill="white"/>
<g clip-path="url(#clip1_1058_2797)">
<path d="M209.614 141.879H216.414V163.638H209.614V141.879Z" fill="#C42323"/>
<path d="M218.138 141.879H224.938V145.024H225.023C226.17 143.027 228.296 141.199 232.163 141.199C236.37 141.199 239.218 143.962 239.218 148.934V163.64H232.418V151.101C232.418 147.828 231.271 146.724 229.018 146.724C226.425 146.724 224.938 148.041 224.938 151.059V163.638H218.138V141.879Z" fill="#C42323"/>
<path d="M249.374 142.072V157.391H256.886V163.638H241.723V142.072H249.374Z" fill="#C42323"/>
<path d="M259.031 141.879H265.831V163.638H259.031V141.879Z" fill="#C42323"/>
<path d="M273.683 141.879L278.104 156.244H278.189L282.609 141.879H289.324L281.802 163.638H274.322L266.8 141.879H273.683Z" fill="#C42323"/>
<path d="M287.953 152.758C287.953 146.384 291.949 141.156 299.259 141.156C306.654 141.156 310.394 145.533 310.394 153.566V154.586H294.754C294.796 157.604 296.879 159.261 299.43 159.261C301.853 159.261 302.872 158.156 303.297 157.052H310.224C308.991 161.472 305.378 164.362 299.259 164.362C292.203 164.361 287.953 159.558 287.953 152.758ZM294.795 150.379H303.55C303.55 147.574 301.892 146.087 299.258 146.087C296.666 146.087 294.965 147.574 294.795 150.379Z" fill="#C42323"/>
<path d="M195.985 148.768C199.938 148.768 203.143 145.563 203.143 141.61C203.143 137.657 199.938 134.452 195.985 134.452C192.032 134.452 188.827 137.657 188.827 141.61C188.827 145.563 192.032 148.768 195.985 148.768Z" fill="#C42323"/>
<path d="M195.985 151.97C201.707 151.97 206.345 147.332 206.345 141.61C206.345 135.888 201.707 131.25 195.985 131.25C190.263 131.25 185.625 135.888 185.625 141.61C185.625 147.332 190.263 151.97 195.985 151.97Z" stroke="#C42323" stroke-width="0.331272" stroke-miterlimit="10"/>
</g>
<path d="M155.625 105H350.625V102.5H155.625V105ZM359.375 113.75V181.25H361.875V113.75H359.375ZM350.625 190H155.625V192.5H350.625V190ZM146.875 181.25V113.75H144.375V181.25H146.875ZM155.625 190C150.793 190 146.875 186.082 146.875 181.25H144.375C144.375 187.463 149.412 192.5 155.625 192.5V190ZM359.375 181.25C359.375 186.082 355.457 190 350.625 190V192.5C356.838 192.5 361.875 187.463 361.875 181.25H359.375ZM350.625 105C355.457 105 359.375 108.918 359.375 113.75H361.875C361.875 107.537 356.838 102.5 350.625 102.5V105ZM155.625 102.5C149.412 102.5 144.375 107.537 144.375 113.75H146.875C146.875 108.918 150.793 105 155.625 105V102.5Z" fill="#4B5563" mask="url(#path-34-inside-1_1058_2797)"/>
</g>
<defs>
<linearGradient id="paint0_linear_1058_2797" x1="250" y1="0" x2="250" y2="300" gradientUnits="userSpaceOnUse">
<stop stop-color="white"/>
<stop offset="0.196875" stop-color="white" stop-opacity="0"/>
<stop offset="0.808333" stop-color="white" stop-opacity="0"/>
<stop offset="1" stop-color="white"/>
</linearGradient>
<linearGradient id="paint1_linear_1058_2797" x1="3.72529e-06" y1="150" x2="500" y2="150" gradientUnits="userSpaceOnUse">
<stop stop-color="white"/>
<stop offset="0.166667" stop-color="white" stop-opacity="0"/>
<stop offset="0.835" stop-color="white" stop-opacity="0"/>
<stop offset="1" stop-color="white"/>
</linearGradient>
<clipPath id="clip0_1058_2797">
<rect width="500" height="300" fill="white"/>
</clipPath>
<clipPath id="clip1_1058_2797">
<rect width="125" height="37.5" fill="white" transform="translate(185.625 128.75)"/>
</clipPath>
</defs>
</svg>
