<svg width="320" height="240" viewBox="0 0 320 240" fill="none" xmlns="http://www.w3.org/2000/svg">
<path opacity="0.4" d="M90.1848 69.3587C89.8328 69.3587 89.5336 69.2766 89.2872 69.1123C89.0408 68.9363 88.8413 68.6606 88.6888 68.2851L86.2072 62.1427C86.0781 61.8142 86.0371 61.5267 86.084 61.2803C86.1309 61.0222 86.2541 60.8169 86.4536 60.6643C86.6648 60.5001 86.9523 60.4179 87.316 60.4179C87.6211 60.4179 87.8733 60.4942 88.0728 60.6467C88.2723 60.7875 88.4424 61.0633 88.5832 61.4739L90.5192 66.6307H90.1144L92.1208 61.2451C92.2147 60.9635 92.3496 60.7582 92.5256 60.6291C92.7133 60.4883 92.9539 60.4179 93.2472 60.4179C93.5405 60.4179 93.7752 60.4883 93.9512 60.6291C94.1389 60.7699 94.2856 60.9753 94.3912 61.2451L96.3624 66.6307H96.028L97.9464 61.4035C98.0872 61.0281 98.2691 60.7699 98.492 60.6291C98.7149 60.4883 98.9555 60.4179 99.2136 60.4179C99.5421 60.4179 99.7944 60.5001 99.9704 60.6643C100.158 60.8286 100.264 61.0398 100.287 61.2979C100.322 61.5561 100.275 61.8377 100.146 62.1427L97.6824 68.2851C97.5416 68.6489 97.3421 68.9187 97.084 69.0947C96.8376 69.2707 96.5384 69.3587 96.1864 69.3587C95.8461 69.3587 95.5469 69.2707 95.2888 69.0947C95.0424 68.9187 94.8429 68.6489 94.6904 68.2851L92.5784 62.7939H93.7224L91.6632 68.2675C91.5224 68.6313 91.3288 68.907 91.0824 69.0947C90.836 69.2707 90.5368 69.3587 90.1848 69.3587ZM106.071 69.3939C105.05 69.3939 104.17 69.2121 103.431 68.8483C102.703 68.4729 102.14 67.9507 101.741 67.2819C101.354 66.6014 101.16 65.8035 101.16 64.8883C101.16 63.9966 101.348 63.2163 101.724 62.5475C102.099 61.867 102.621 61.339 103.29 60.9635C103.97 60.5763 104.739 60.3827 105.596 60.3827C106.217 60.3827 106.781 60.4883 107.285 60.6995C107.79 60.899 108.224 61.1923 108.588 61.5795C108.951 61.955 109.227 62.4185 109.415 62.9699C109.602 63.5097 109.696 64.1139 109.696 64.7827C109.696 65.0057 109.626 65.1758 109.485 65.2931C109.344 65.3987 109.139 65.4515 108.869 65.4515H103.343V64.0787H107.778L107.496 64.3251C107.496 63.8441 107.426 63.4451 107.285 63.1283C107.144 62.7998 106.939 62.5534 106.669 62.3891C106.411 62.2249 106.088 62.1427 105.701 62.1427C105.267 62.1427 104.897 62.2425 104.592 62.4419C104.287 62.6414 104.053 62.9289 103.888 63.3043C103.724 63.6798 103.642 64.1315 103.642 64.6595V64.8003C103.642 65.6921 103.847 66.3491 104.258 66.7715C104.68 67.1939 105.302 67.4051 106.124 67.4051C106.405 67.4051 106.728 67.3699 107.092 67.2995C107.455 67.2291 107.796 67.1177 108.112 66.9651C108.382 66.8361 108.623 66.795 108.834 66.8419C109.045 66.8771 109.209 66.971 109.327 67.1235C109.444 67.2761 109.509 67.4521 109.52 67.6515C109.544 67.851 109.503 68.0505 109.397 68.2499C109.292 68.4377 109.116 68.5961 108.869 68.7251C108.47 68.9481 108.018 69.1123 107.514 69.2179C107.021 69.3353 106.54 69.3939 106.071 69.3939ZM116.575 69.3939C115.883 69.3939 115.267 69.2238 114.727 68.8835C114.199 68.5315 113.847 68.0681 113.671 67.4931L113.864 66.9123V68.0035C113.864 68.4377 113.753 68.7721 113.53 69.0067C113.307 69.2414 112.984 69.3587 112.562 69.3587C112.14 69.3587 111.811 69.2414 111.576 69.0067C111.354 68.7721 111.242 68.4377 111.242 68.0035V57.9891C111.242 57.5433 111.354 57.2089 111.576 56.9859C111.811 56.7513 112.146 56.6339 112.58 56.6339C113.002 56.6339 113.325 56.7513 113.548 56.9859C113.782 57.2089 113.9 57.5433 113.9 57.9891V62.1603H113.688C113.876 61.6323 114.234 61.2041 114.762 60.8755C115.29 60.547 115.894 60.3827 116.575 60.3827C117.338 60.3827 118 60.5646 118.564 60.9283C119.127 61.2921 119.567 61.8083 119.884 62.4771C120.2 63.1459 120.359 63.9438 120.359 64.8707C120.359 65.7977 120.2 66.6014 119.884 67.2819C119.567 67.9625 119.121 68.4846 118.546 68.8483C117.983 69.2121 117.326 69.3939 116.575 69.3939ZM115.783 67.4051C116.158 67.4051 116.487 67.3113 116.768 67.1235C117.062 66.9358 117.285 66.6601 117.437 66.2963C117.602 65.9209 117.684 65.4457 117.684 64.8707C117.684 64.0142 117.508 63.3865 117.156 62.9875C116.804 62.5769 116.346 62.3715 115.783 62.3715C115.407 62.3715 115.073 62.4595 114.78 62.6355C114.498 62.8115 114.275 63.0873 114.111 63.4627C113.947 63.8265 113.864 64.2958 113.864 64.8707C113.864 65.7273 114.04 66.3667 114.392 66.7891C114.744 67.1998 115.208 67.4051 115.783 67.4051ZM123.322 69.3411C122.888 69.3411 122.553 69.2179 122.319 68.9715C122.096 68.7134 121.984 68.3555 121.984 67.8979V61.8787C121.984 61.4094 122.096 61.0515 122.319 60.8051C122.553 60.547 122.888 60.4179 123.322 60.4179C123.744 60.4179 124.067 60.547 124.29 60.8051C124.525 61.0515 124.642 61.4094 124.642 61.8787V67.8979C124.642 68.3555 124.53 68.7134 124.307 68.9715C124.085 69.2179 123.756 69.3411 123.322 69.3411ZM123.322 58.9747C122.829 58.9747 122.448 58.8633 122.178 58.6403C121.92 58.4057 121.791 58.0771 121.791 57.6547C121.791 57.2206 121.92 56.8921 122.178 56.6691C122.448 56.4345 122.829 56.3171 123.322 56.3171C123.815 56.3171 124.19 56.4345 124.448 56.6691C124.706 56.8921 124.835 57.2206 124.835 57.6547C124.835 58.0771 124.706 58.4057 124.448 58.6403C124.19 58.8633 123.815 58.9747 123.322 58.9747ZM128.031 69.3587C127.597 69.3587 127.263 69.2414 127.028 69.0067C126.805 68.7721 126.694 68.4377 126.694 68.0035V61.7555C126.694 61.3214 126.805 60.9929 127.028 60.7699C127.263 60.5353 127.585 60.4179 127.996 60.4179C128.418 60.4179 128.741 60.5353 128.964 60.7699C129.187 60.9929 129.298 61.3214 129.298 61.7555V62.7587L129.105 62.1779C129.375 61.603 129.774 61.163 130.302 60.8579C130.841 60.5411 131.452 60.3827 132.132 60.3827C132.824 60.3827 133.393 60.5177 133.839 60.7875C134.285 61.0457 134.62 61.4446 134.842 61.9843C135.065 62.5123 135.177 63.187 135.177 64.0083V68.0035C135.177 68.4377 135.06 68.7721 134.825 69.0067C134.602 69.2414 134.273 69.3587 133.839 69.3587C133.417 69.3587 133.088 69.2414 132.854 69.0067C132.631 68.7721 132.519 68.4377 132.519 68.0035V64.1315C132.519 63.5331 132.408 63.1049 132.185 62.8467C131.974 62.5769 131.645 62.4419 131.199 62.4419C130.636 62.4419 130.184 62.6179 129.844 62.9699C129.516 63.3219 129.351 63.7913 129.351 64.3779V68.0035C129.351 68.907 128.911 69.3587 128.031 69.3587ZM140.082 69.3939C139.449 69.3939 138.88 69.2707 138.375 69.0243C137.871 68.7779 137.478 68.4435 137.196 68.0211C136.914 67.5987 136.774 67.1235 136.774 66.5955C136.774 65.9619 136.938 65.4633 137.266 65.0995C137.595 64.7241 138.129 64.4601 138.868 64.3075C139.607 64.1433 140.587 64.0611 141.807 64.0611H142.74V65.4339H141.825C141.226 65.4339 140.739 65.4691 140.364 65.5395C140 65.5982 139.736 65.7038 139.572 65.8563C139.419 66.0089 139.343 66.2201 139.343 66.4899C139.343 66.8185 139.455 67.0883 139.678 67.2995C139.912 67.5107 140.247 67.6163 140.681 67.6163C141.021 67.6163 141.32 67.5401 141.578 67.3875C141.848 67.2233 142.059 67.0062 142.212 66.7363C142.365 66.4547 142.441 66.1379 142.441 65.7859V63.7619C142.441 63.2457 142.323 62.8819 142.089 62.6707C141.854 62.4478 141.455 62.3363 140.892 62.3363C140.575 62.3363 140.229 62.3774 139.854 62.4595C139.49 62.5299 139.085 62.6531 138.639 62.8291C138.381 62.9465 138.152 62.9758 137.953 62.9171C137.753 62.8467 137.601 62.7294 137.495 62.5651C137.39 62.3891 137.337 62.2014 137.337 62.0019C137.337 61.7907 137.395 61.5913 137.513 61.4035C137.63 61.2041 137.824 61.0574 138.094 60.9635C138.645 60.7406 139.161 60.5881 139.642 60.5059C140.135 60.4238 140.587 60.3827 140.998 60.3827C141.901 60.3827 142.64 60.5177 143.215 60.7875C143.802 61.0457 144.242 61.4505 144.535 62.0019C144.829 62.5417 144.975 63.2398 144.975 64.0963V68.0035C144.975 68.4377 144.87 68.7721 144.658 69.0067C144.447 69.2414 144.142 69.3587 143.743 69.3587C143.344 69.3587 143.033 69.2414 142.81 69.0067C142.599 68.7721 142.494 68.4377 142.494 68.0035V67.3523L142.617 67.4579C142.546 67.8569 142.394 68.203 142.159 68.4963C141.936 68.7779 141.649 69.0009 141.297 69.1651C140.945 69.3177 140.54 69.3939 140.082 69.3939ZM148.331 69.3587C147.885 69.3587 147.544 69.2414 147.31 69.0067C147.075 68.7721 146.958 68.4377 146.958 68.0035V61.7555C146.958 61.3214 147.069 60.9929 147.292 60.7699C147.527 60.5353 147.849 60.4179 148.26 60.4179C148.683 60.4179 149.005 60.5353 149.228 60.7699C149.451 60.9929 149.563 61.3214 149.563 61.7555V62.6707H149.387C149.527 61.9667 149.838 61.4211 150.319 61.0339C150.8 60.6467 151.422 60.4297 152.185 60.3827C152.478 60.3593 152.701 60.4355 152.854 60.6115C153.018 60.7758 153.106 61.0515 153.118 61.4387C153.141 61.8025 153.065 62.0899 152.889 62.3011C152.725 62.5123 152.443 62.6414 152.044 62.6883L151.639 62.7235C150.971 62.7822 150.472 62.9758 150.143 63.3043C149.827 63.6329 149.668 64.1081 149.668 64.7299V68.0035C149.668 68.4377 149.551 68.7721 149.316 69.0067C149.093 69.2414 148.765 69.3587 148.331 69.3587Z" fill="url(#paint0_linear_1064_2261)"/>
<path opacity="0.6" d="M69.8653 90.9947C69.3325 90.9947 68.9221 90.8507 68.6341 90.5627C68.3605 90.2747 68.2237 89.8643 68.2237 89.3315V77.0411C68.2237 76.4939 68.3605 76.0835 68.6341 75.8099C68.9221 75.5219 69.3325 75.3779 69.8653 75.3779C70.3837 75.3779 70.7797 75.5219 71.0533 75.8099C71.3413 76.0835 71.4853 76.4939 71.4853 77.0411V84.5795H71.5285L74.6605 81.1019C74.9773 80.7419 75.2653 80.4755 75.5245 80.3027C75.7981 80.1155 76.1581 80.0219 76.6045 80.0219C77.0509 80.0219 77.3893 80.1371 77.6197 80.3675C77.8645 80.5979 77.9869 80.8787 77.9869 81.2099C78.0013 81.5267 77.8645 81.8507 77.5765 82.1819L74.2717 85.8755V84.6443L77.9437 88.8779C78.2173 89.2091 78.3325 89.5403 78.2893 89.8715C78.2605 90.2027 78.1165 90.4763 77.8573 90.6923C77.5981 90.8939 77.2669 90.9947 76.8637 90.9947C76.3741 90.9947 75.9781 90.9011 75.6757 90.7139C75.3877 90.5267 75.0925 90.2387 74.7901 89.8499L71.5285 86.2211H71.4853V89.3315C71.4853 90.4403 70.9453 90.9947 69.8653 90.9947ZM85.1971 91.0379C84.0595 91.0379 83.0659 90.8147 82.2163 90.3683C81.3811 89.9219 80.7331 89.2811 80.2723 88.4459C79.8115 87.6107 79.5811 86.6243 79.5811 85.4867C79.5811 84.6371 79.7107 83.8739 79.9699 83.1971C80.2291 82.5203 80.6035 81.9443 81.0931 81.4691C81.5971 80.9795 82.1947 80.6123 82.8859 80.3675C83.5771 80.1083 84.3475 79.9787 85.1971 79.9787C86.3347 79.9787 87.3211 80.2019 88.1563 80.6483C89.0059 81.0947 89.6611 81.7283 90.1219 82.5491C90.5971 83.3699 90.8347 84.3491 90.8347 85.4867C90.8347 86.3507 90.6979 87.1211 90.4243 87.7979C90.1651 88.4747 89.7907 89.0579 89.3011 89.5475C88.8115 90.0371 88.2139 90.4115 87.5083 90.6707C86.8171 90.9155 86.0467 91.0379 85.1971 91.0379ZM85.1971 88.5971C85.6723 88.5971 86.0827 88.4819 86.4283 88.2515C86.7739 88.0211 87.0475 87.6827 87.2491 87.2363C87.4507 86.7755 87.5515 86.1923 87.5515 85.4867C87.5515 84.4355 87.3355 83.6651 86.9035 83.1755C86.4715 82.6715 85.9027 82.4195 85.1971 82.4195C84.7363 82.4195 84.3259 82.5275 83.9659 82.7435C83.6203 82.9595 83.3467 83.2979 83.1451 83.7587C82.9579 84.2051 82.8643 84.7811 82.8643 85.4867C82.8643 86.5379 83.0803 87.3227 83.5123 87.8411C83.9443 88.3451 84.5059 88.5971 85.1971 88.5971ZM94.4606 90.9947C93.9278 90.9947 93.5174 90.8507 93.2294 90.5627C92.9558 90.2747 92.819 89.8643 92.819 89.3315V81.6635C92.819 81.1307 92.9558 80.7275 93.2294 80.4539C93.5174 80.1659 93.9134 80.0219 94.4174 80.0219C94.9358 80.0219 95.3318 80.1659 95.6054 80.4539C95.879 80.7275 96.0158 81.1307 96.0158 81.6635V82.8947L95.7782 82.1819C96.1094 81.4763 96.599 80.9363 97.247 80.5619C97.9094 80.1731 98.6582 79.9787 99.4934 79.9787C100.343 79.9787 101.041 80.1443 101.589 80.4755C102.136 80.7923 102.546 81.2819 102.82 81.9443C103.093 82.5923 103.23 83.4203 103.23 84.4283V89.3315C103.23 89.8643 103.086 90.2747 102.798 90.5627C102.525 90.8507 102.121 90.9947 101.589 90.9947C101.07 90.9947 100.667 90.8507 100.379 90.5627C100.105 90.2747 99.9686 89.8643 99.9686 89.3315V84.5795C99.9686 83.8451 99.8318 83.3195 99.5582 83.0027C99.299 82.6715 98.8958 82.5059 98.3486 82.5059C97.6574 82.5059 97.103 82.7219 96.6854 83.1539C96.2822 83.5859 96.0806 84.1619 96.0806 84.8819V89.3315C96.0806 90.4403 95.5406 90.9947 94.4606 90.9947ZM109.726 91.0379C109.092 91.0379 108.437 90.9803 107.76 90.8651C107.098 90.7499 106.493 90.5555 105.946 90.2819C105.658 90.1379 105.449 89.9579 105.32 89.7419C105.204 89.5115 105.154 89.2811 105.168 89.0507C105.183 88.8203 105.255 88.6115 105.384 88.4243C105.528 88.2371 105.708 88.1147 105.924 88.0571C106.155 87.9851 106.407 88.0067 106.68 88.1219C107.271 88.3667 107.811 88.5395 108.3 88.6403C108.79 88.7411 109.272 88.7915 109.748 88.7915C110.367 88.7915 110.813 88.6979 111.087 88.5107C111.375 88.3091 111.519 88.0499 111.519 87.7331C111.519 87.4451 111.425 87.2291 111.238 87.0851C111.051 86.9411 110.777 86.8403 110.417 86.7827L108.149 86.3723C107.256 86.2139 106.565 85.8899 106.076 85.4003C105.6 84.8963 105.363 84.2555 105.363 83.4779C105.363 82.7579 105.564 82.1387 105.968 81.6203C106.371 81.0875 106.925 80.6843 107.631 80.4107C108.351 80.1227 109.164 79.9787 110.072 79.9787C110.72 79.9787 111.317 80.0363 111.864 80.1515C112.412 80.2667 112.937 80.4539 113.441 80.7131C113.7 80.8427 113.88 81.0155 113.981 81.2315C114.096 81.4475 114.132 81.6707 114.089 81.9011C114.06 82.1315 113.974 82.3403 113.83 82.5275C113.686 82.7147 113.499 82.8371 113.268 82.8947C113.052 82.9523 112.8 82.9235 112.512 82.8083C112.052 82.5923 111.627 82.4411 111.238 82.3547C110.849 82.2539 110.475 82.2035 110.115 82.2035C109.467 82.2035 108.999 82.3115 108.711 82.5275C108.423 82.7291 108.279 82.9883 108.279 83.3051C108.279 83.5499 108.358 83.7587 108.516 83.9315C108.689 84.0899 108.948 84.1979 109.294 84.2555L111.562 84.6659C112.498 84.8243 113.211 85.1411 113.7 85.6163C114.19 86.0771 114.435 86.7107 114.435 87.5171C114.435 88.6115 114.003 89.4755 113.139 90.1091C112.289 90.7283 111.152 91.0379 109.726 91.0379ZM120.206 91.0379C119.313 91.0379 118.572 90.8723 117.981 90.5411C117.391 90.2099 116.952 89.7131 116.664 89.0507C116.39 88.3739 116.253 87.5387 116.253 86.5451V81.6635C116.253 81.1163 116.39 80.7059 116.664 80.4323C116.952 80.1587 117.355 80.0219 117.873 80.0219C118.392 80.0219 118.795 80.1587 119.083 80.4323C119.371 80.7059 119.515 81.1163 119.515 81.6635V86.6315C119.515 87.2651 119.644 87.7403 119.904 88.0571C120.163 88.3595 120.573 88.5107 121.135 88.5107C121.754 88.5107 122.258 88.2947 122.647 87.8627C123.05 87.4163 123.252 86.8331 123.252 86.1131V81.6635C123.252 81.1163 123.388 80.7059 123.662 80.4323C123.95 80.1587 124.353 80.0219 124.872 80.0219C125.404 80.0219 125.808 80.1587 126.081 80.4323C126.369 80.7059 126.513 81.1163 126.513 81.6635V89.3315C126.513 90.4403 125.988 90.9947 124.936 90.9947C124.418 90.9947 124.022 90.8507 123.748 90.5627C123.475 90.2747 123.338 89.8643 123.338 89.3315V87.8843L123.662 88.7267C123.345 89.4611 122.892 90.0299 122.301 90.4331C121.711 90.8363 121.012 91.0379 120.206 91.0379ZM132.86 91.0379C131.579 91.0379 130.621 90.6851 129.987 89.9795C129.354 89.2595 129.037 88.1939 129.037 86.7827V77.0411C129.037 76.4939 129.174 76.0835 129.447 75.8099C129.735 75.5219 130.146 75.3779 130.679 75.3779C131.197 75.3779 131.593 75.5219 131.867 75.8099C132.155 76.0835 132.299 76.4939 132.299 77.0411V86.6531C132.299 87.2435 132.421 87.6827 132.666 87.9707C132.925 88.2443 133.263 88.3811 133.681 88.3811C133.796 88.3811 133.904 88.3739 134.005 88.3595C134.106 88.3451 134.214 88.3379 134.329 88.3379C134.559 88.3091 134.718 88.3811 134.804 88.5539C134.905 88.7123 134.955 89.0363 134.955 89.5259C134.955 89.9579 134.869 90.2891 134.696 90.5195C134.523 90.7355 134.257 90.8795 133.897 90.9515C133.753 90.9659 133.587 90.9803 133.4 90.9947C133.213 91.0235 133.033 91.0379 132.86 91.0379ZM141.119 91.0379C140.126 91.0379 139.29 90.8723 138.614 90.5411C137.951 90.2099 137.454 89.7275 137.123 89.0939C136.806 88.4603 136.648 87.6611 136.648 86.6963V82.6355H135.741C135.338 82.6355 135.021 82.5275 134.79 82.3115C134.574 82.0955 134.466 81.8003 134.466 81.4259C134.466 81.0227 134.574 80.7203 134.79 80.5187C135.021 80.3027 135.338 80.1947 135.741 80.1947H136.648V78.5531C136.648 78.0059 136.792 77.5955 137.08 77.3219C137.368 77.0339 137.771 76.8899 138.29 76.8899C138.822 76.8899 139.226 77.0339 139.499 77.3219C139.773 77.5955 139.91 78.0059 139.91 78.5531V80.1947H141.962C142.365 80.1947 142.674 80.3027 142.89 80.5187C143.106 80.7203 143.214 81.0227 143.214 81.4259C143.214 81.8003 143.106 82.0955 142.89 82.3115C142.674 82.5275 142.365 82.6355 141.962 82.6355H139.91V86.5667C139.91 87.1715 140.046 87.6251 140.32 87.9275C140.608 88.2299 141.062 88.3811 141.681 88.3811C141.897 88.3811 142.098 88.3595 142.286 88.3163C142.473 88.2731 142.646 88.2443 142.804 88.2299C143.006 88.2155 143.171 88.2803 143.301 88.4243C143.43 88.5539 143.495 88.8491 143.495 89.3099C143.495 89.6555 143.438 89.9579 143.322 90.2171C143.207 90.4763 143.006 90.6635 142.718 90.7787C142.53 90.8507 142.271 90.9083 141.94 90.9515C141.623 91.0091 141.35 91.0379 141.119 91.0379ZM148.232 91.0379C147.454 91.0379 146.756 90.8867 146.137 90.5843C145.518 90.2819 145.035 89.8715 144.69 89.3531C144.344 88.8347 144.171 88.2515 144.171 87.6035C144.171 86.8259 144.373 86.2139 144.776 85.7675C145.179 85.3067 145.834 84.9827 146.742 84.7955C147.649 84.5939 148.851 84.4931 150.349 84.4931H151.494V86.1779H150.37C149.636 86.1779 149.038 86.2211 148.578 86.3075C148.131 86.3795 147.807 86.5091 147.606 86.6963C147.418 86.8835 147.325 87.1427 147.325 87.4739C147.325 87.8771 147.462 88.2083 147.735 88.4675C148.023 88.7267 148.434 88.8563 148.966 88.8563C149.384 88.8563 149.751 88.7627 150.068 88.5755C150.399 88.3739 150.658 88.1075 150.846 87.7763C151.033 87.4307 151.126 87.0419 151.126 86.6099V84.1259C151.126 83.4923 150.982 83.0459 150.694 82.7867C150.406 82.5131 149.917 82.3763 149.226 82.3763C148.837 82.3763 148.412 82.4267 147.951 82.5275C147.505 82.6139 147.008 82.7651 146.461 82.9811C146.144 83.1251 145.863 83.1611 145.618 83.0891C145.374 83.0027 145.186 82.8587 145.057 82.6571C144.927 82.4411 144.862 82.2107 144.862 81.9659C144.862 81.7067 144.934 81.4619 145.078 81.2315C145.222 80.9867 145.46 80.8067 145.791 80.6915C146.468 80.4179 147.102 80.2307 147.692 80.1299C148.297 80.0291 148.851 79.9787 149.355 79.9787C150.464 79.9787 151.371 80.1443 152.077 80.4755C152.797 80.7923 153.337 81.2891 153.697 81.9659C154.057 82.6283 154.237 83.4851 154.237 84.5363V89.3315C154.237 89.8643 154.107 90.2747 153.848 90.5627C153.589 90.8507 153.214 90.9947 152.725 90.9947C152.235 90.9947 151.854 90.8507 151.58 90.5627C151.321 90.2747 151.191 89.8643 151.191 89.3315V88.5323L151.342 88.6619C151.256 89.1515 151.069 89.5763 150.781 89.9363C150.507 90.2819 150.154 90.5555 149.722 90.7571C149.29 90.9443 148.794 91.0379 148.232 91.0379ZM160.731 91.0379C160.097 91.0379 159.442 90.9803 158.765 90.8651C158.103 90.7499 157.498 90.5555 156.951 90.2819C156.663 90.1379 156.454 89.9579 156.324 89.7419C156.209 89.5115 156.159 89.2811 156.173 89.0507C156.187 88.8203 156.259 88.6115 156.389 88.4243C156.533 88.2371 156.713 88.1147 156.929 88.0571C157.159 87.9851 157.411 88.0067 157.685 88.1219C158.275 88.3667 158.815 88.5395 159.305 88.6403C159.795 88.7411 160.277 88.7915 160.752 88.7915C161.371 88.7915 161.818 88.6979 162.091 88.5107C162.379 88.3091 162.523 88.0499 162.523 87.7331C162.523 87.4451 162.43 87.2291 162.243 87.0851C162.055 86.9411 161.782 86.8403 161.422 86.7827L159.154 86.3723C158.261 86.2139 157.57 85.8899 157.08 85.4003C156.605 84.8963 156.367 84.2555 156.367 83.4779C156.367 82.7579 156.569 82.1387 156.972 81.6203C157.375 81.0875 157.93 80.6843 158.635 80.4107C159.355 80.1227 160.169 79.9787 161.076 79.9787C161.724 79.9787 162.322 80.0363 162.869 80.1515C163.416 80.2667 163.942 80.4539 164.446 80.7131C164.705 80.8427 164.885 81.0155 164.986 81.2315C165.101 81.4475 165.137 81.6707 165.094 81.9011C165.065 82.1315 164.979 82.3403 164.835 82.5275C164.691 82.7147 164.503 82.8371 164.273 82.8947C164.057 82.9523 163.805 82.9235 163.517 82.8083C163.056 82.5923 162.631 82.4411 162.243 82.3547C161.854 82.2539 161.479 82.2035 161.119 82.2035C160.471 82.2035 160.003 82.3115 159.715 82.5275C159.427 82.7291 159.283 82.9883 159.283 83.3051C159.283 83.5499 159.363 83.7587 159.521 83.9315C159.694 84.0899 159.953 84.1979 160.299 84.2555L162.567 84.6659C163.503 84.8243 164.215 85.1411 164.705 85.6163C165.195 86.0771 165.439 86.7107 165.439 87.5171C165.439 88.6115 165.007 89.4755 164.143 90.1091C163.294 90.7283 162.156 91.0379 160.731 91.0379ZM168.943 90.9731C168.41 90.9731 167.999 90.8219 167.711 90.5195C167.438 90.2027 167.301 89.7635 167.301 89.2019V81.8147C167.301 81.2387 167.438 80.7995 167.711 80.4971C167.999 80.1803 168.41 80.0219 168.943 80.0219C169.461 80.0219 169.857 80.1803 170.131 80.4971C170.419 80.7995 170.563 81.2387 170.563 81.8147V89.2019C170.563 89.7635 170.426 90.2027 170.152 90.5195C169.879 90.8219 169.475 90.9731 168.943 90.9731ZM168.943 78.2507C168.338 78.2507 167.87 78.1139 167.539 77.8403C167.222 77.5523 167.063 77.1491 167.063 76.6307C167.063 76.0979 167.222 75.6947 167.539 75.4211C167.87 75.1331 168.338 74.9891 168.943 74.9891C169.547 74.9891 170.008 75.1331 170.325 75.4211C170.642 75.6947 170.8 76.0979 170.8 76.6307C170.8 77.1491 170.642 77.5523 170.325 77.8403C170.008 78.1139 169.547 78.2507 168.943 78.2507Z" fill="url(#paint1_linear_1064_2261)"/>
<path opacity="0.8" d="M50.0299 117.631C49.3984 117.631 48.912 117.46 48.5707 117.119C48.2464 116.777 48.0843 116.291 48.0843 115.659V101.093C48.0843 100.445 48.2464 99.9581 48.5707 99.6339C48.912 99.2925 49.3984 99.1219 50.0299 99.1219C50.6443 99.1219 51.1136 99.2925 51.4379 99.6339C51.7792 99.9581 51.9499 100.445 51.9499 101.093V110.027H52.0011L55.7131 105.906C56.0885 105.479 56.4299 105.163 56.7371 104.959C57.0613 104.737 57.488 104.626 58.0171 104.626C58.5461 104.626 58.9472 104.762 59.2203 105.035C59.5104 105.309 59.6555 105.641 59.6555 106.034C59.6725 106.409 59.5104 106.793 59.1691 107.186L55.2523 111.563V110.104L59.6042 115.122C59.9285 115.514 60.065 115.907 60.0139 116.299C59.9797 116.692 59.809 117.016 59.5018 117.272C59.1947 117.511 58.8021 117.631 58.3243 117.631C57.744 117.631 57.2747 117.52 56.9163 117.298C56.5749 117.076 56.2251 116.735 55.8667 116.274L52.0011 111.973H51.9499V115.659C51.9499 116.974 51.3099 117.631 50.0299 117.631ZM68.6872 117.682C67.2024 117.682 65.9224 117.417 64.8472 116.888C63.7891 116.342 62.9699 115.583 62.3896 114.61C61.8264 113.62 61.5448 112.459 61.5448 111.128C61.5448 109.831 61.8179 108.696 62.364 107.723C62.9102 106.734 63.6696 105.966 64.6424 105.419C65.6323 104.856 66.7502 104.575 67.996 104.575C68.9006 104.575 69.7198 104.728 70.4536 105.035C71.1875 105.326 71.819 105.752 72.348 106.315C72.8771 106.862 73.2782 107.536 73.5512 108.338C73.8243 109.123 73.9608 110.002 73.9608 110.975C73.9608 111.299 73.8584 111.546 73.6536 111.717C73.4488 111.871 73.1502 111.947 72.7576 111.947H64.7192V109.951H71.1704L70.7608 110.309C70.7608 109.609 70.6584 109.029 70.4536 108.568C70.2488 108.09 69.9502 107.732 69.5576 107.493C69.1822 107.254 68.7128 107.135 68.1496 107.135C67.5182 107.135 66.9806 107.28 66.5368 107.57C66.0931 107.86 65.7518 108.278 65.5128 108.824C65.2739 109.37 65.1544 110.027 65.1544 110.795V111C65.1544 112.297 65.4531 113.253 66.0504 113.867C66.6648 114.482 67.5694 114.789 68.764 114.789C69.1736 114.789 69.643 114.738 70.172 114.635C70.7011 114.533 71.196 114.371 71.6568 114.149C72.0494 113.961 72.3992 113.902 72.7064 113.97C73.0136 114.021 73.2526 114.158 73.4232 114.379C73.5939 114.601 73.6878 114.857 73.7048 115.147C73.739 115.438 73.6792 115.728 73.5256 116.018C73.372 116.291 73.116 116.521 72.7576 116.709C72.1774 117.033 71.5203 117.272 70.7864 117.426C70.0696 117.597 69.3699 117.682 68.6872 117.682ZM80.7404 117.682C79.2215 117.682 78.0866 117.264 77.3356 116.427C76.5847 115.574 76.2092 114.311 76.2092 112.639V101.093C76.2092 100.445 76.3714 99.9581 76.6956 99.6339C77.037 99.2925 77.5234 99.1219 78.1548 99.1219C78.7692 99.1219 79.2386 99.2925 79.5628 99.6339C79.9042 99.9581 80.0748 100.445 80.0748 101.093V112.485C80.0748 113.185 80.2199 113.705 80.51 114.047C80.8172 114.371 81.2183 114.533 81.7132 114.533C81.8498 114.533 81.9778 114.525 82.0972 114.507C82.2167 114.49 82.3447 114.482 82.4812 114.482C82.7543 114.448 82.942 114.533 83.0444 114.738C83.1639 114.926 83.2236 115.31 83.2236 115.89C83.2236 116.402 83.1212 116.794 82.9164 117.067C82.7116 117.323 82.3959 117.494 81.9692 117.579C81.7986 117.597 81.6023 117.614 81.3804 117.631C81.1586 117.665 80.9452 117.682 80.7404 117.682ZM88.9838 117.682C88.0622 117.682 87.2345 117.503 86.5006 117.144C85.7668 116.786 85.195 116.299 84.7854 115.685C84.3758 115.071 84.171 114.379 84.171 113.611C84.171 112.69 84.41 111.965 84.8878 111.435C85.3657 110.889 86.1422 110.505 87.2174 110.283C88.2926 110.045 89.7177 109.925 91.4926 109.925H92.8494V111.922H91.5182C90.6478 111.922 89.9396 111.973 89.3934 112.075C88.8644 112.161 88.4804 112.314 88.2414 112.536C88.0196 112.758 87.9086 113.065 87.9086 113.458C87.9086 113.936 88.0708 114.328 88.395 114.635C88.7364 114.943 89.2228 115.096 89.8542 115.096C90.3492 115.096 90.7844 114.985 91.1598 114.763C91.5524 114.525 91.8596 114.209 92.0814 113.816C92.3033 113.407 92.4142 112.946 92.4142 112.434V109.49C92.4142 108.739 92.2436 108.21 91.9022 107.903C91.5609 107.578 90.9806 107.416 90.1614 107.416C89.7006 107.416 89.1972 107.476 88.651 107.595C88.122 107.698 87.5332 107.877 86.8846 108.133C86.5092 108.304 86.1764 108.346 85.8862 108.261C85.5961 108.159 85.3742 107.988 85.2206 107.749C85.067 107.493 84.9902 107.22 84.9902 106.93C84.9902 106.623 85.0756 106.333 85.2462 106.059C85.4169 105.769 85.6985 105.556 86.091 105.419C86.8932 105.095 87.6441 104.873 88.3438 104.754C89.0606 104.634 89.7177 104.575 90.315 104.575C91.6292 104.575 92.7044 104.771 93.5406 105.163C94.394 105.539 95.034 106.128 95.4606 106.93C95.8873 107.715 96.1006 108.73 96.1006 109.976V115.659C96.1006 116.291 95.947 116.777 95.6398 117.119C95.3326 117.46 94.8889 117.631 94.3086 117.631C93.7284 117.631 93.2761 117.46 92.9518 117.119C92.6446 116.777 92.491 116.291 92.491 115.659V114.712L92.6702 114.866C92.5678 115.446 92.346 115.95 92.0046 116.376C91.6804 116.786 91.2622 117.11 90.7502 117.349C90.2382 117.571 89.6494 117.682 88.9838 117.682ZM103.797 117.682C103.046 117.682 102.27 117.614 101.467 117.477C100.682 117.341 99.9656 117.11 99.317 116.786C98.9757 116.615 98.7282 116.402 98.5746 116.146C98.4381 115.873 98.3784 115.6 98.3954 115.327C98.4125 115.054 98.4978 114.806 98.6514 114.584C98.8221 114.362 99.0354 114.217 99.2914 114.149C99.5645 114.064 99.8632 114.089 100.187 114.226C100.887 114.516 101.527 114.721 102.107 114.84C102.688 114.96 103.259 115.019 103.823 115.019C104.556 115.019 105.086 114.909 105.41 114.687C105.751 114.448 105.922 114.141 105.922 113.765C105.922 113.424 105.811 113.168 105.589 112.997C105.367 112.826 105.043 112.707 104.616 112.639L101.928 112.152C100.87 111.965 100.051 111.581 99.4706 111C98.9074 110.403 98.6258 109.643 98.6258 108.722C98.6258 107.869 98.8648 107.135 99.3426 106.52C99.8205 105.889 100.478 105.411 101.314 105.087C102.167 104.745 103.131 104.575 104.207 104.575C104.975 104.575 105.683 104.643 106.331 104.779C106.98 104.916 107.603 105.138 108.2 105.445C108.507 105.599 108.721 105.803 108.84 106.059C108.977 106.315 109.019 106.58 108.968 106.853C108.934 107.126 108.832 107.374 108.661 107.595C108.49 107.817 108.268 107.962 107.995 108.031C107.739 108.099 107.441 108.065 107.099 107.928C106.553 107.672 106.05 107.493 105.589 107.391C105.128 107.271 104.684 107.211 104.258 107.211C103.49 107.211 102.935 107.339 102.594 107.595C102.252 107.834 102.082 108.142 102.082 108.517C102.082 108.807 102.176 109.055 102.363 109.259C102.568 109.447 102.875 109.575 103.285 109.643L105.973 110.13C107.082 110.318 107.927 110.693 108.507 111.256C109.088 111.802 109.378 112.553 109.378 113.509C109.378 114.806 108.866 115.83 107.842 116.581C106.835 117.315 105.487 117.682 103.797 117.682ZM124.776 117.682C123.428 117.682 122.25 117.417 121.243 116.888C120.253 116.359 119.485 115.6 118.939 114.61C118.393 113.62 118.12 112.451 118.12 111.103C118.12 110.096 118.273 109.191 118.581 108.389C118.888 107.587 119.332 106.904 119.912 106.341C120.509 105.761 121.217 105.326 122.037 105.035C122.856 104.728 123.769 104.575 124.776 104.575C126.124 104.575 127.293 104.839 128.283 105.368C129.29 105.897 130.066 106.648 130.613 107.621C131.176 108.594 131.457 109.754 131.457 111.103C131.457 112.127 131.295 113.04 130.971 113.842C130.664 114.644 130.22 115.335 129.64 115.915C129.06 116.496 128.351 116.939 127.515 117.247C126.696 117.537 125.783 117.682 124.776 117.682ZM124.776 114.789C125.339 114.789 125.825 114.653 126.235 114.379C126.645 114.106 126.969 113.705 127.208 113.176C127.447 112.63 127.566 111.939 127.566 111.103C127.566 109.857 127.31 108.944 126.798 108.363C126.286 107.766 125.612 107.467 124.776 107.467C124.23 107.467 123.743 107.595 123.317 107.851C122.907 108.107 122.583 108.509 122.344 109.055C122.122 109.584 122.011 110.266 122.011 111.103C122.011 112.349 122.267 113.279 122.779 113.893C123.291 114.49 123.957 114.789 124.776 114.789ZM135.755 117.631C135.123 117.631 134.637 117.46 134.296 117.119C133.971 116.777 133.809 116.291 133.809 115.659V106.571C133.809 105.94 133.971 105.462 134.296 105.138C134.637 104.797 135.106 104.626 135.704 104.626C136.318 104.626 136.787 104.797 137.112 105.138C137.436 105.462 137.598 105.94 137.598 106.571V108.031L137.316 107.186C137.709 106.35 138.289 105.71 139.057 105.266C139.842 104.805 140.73 104.575 141.72 104.575C142.727 104.575 143.554 104.771 144.203 105.163C144.851 105.539 145.338 106.119 145.662 106.904C145.986 107.672 146.148 108.654 146.148 109.848V115.659C146.148 116.291 145.978 116.777 145.636 117.119C145.312 117.46 144.834 117.631 144.203 117.631C143.588 117.631 143.111 117.46 142.769 117.119C142.445 116.777 142.283 116.291 142.283 115.659V110.027C142.283 109.157 142.121 108.534 141.796 108.159C141.489 107.766 141.011 107.57 140.363 107.57C139.544 107.57 138.887 107.826 138.392 108.338C137.914 108.85 137.675 109.533 137.675 110.386V115.659C137.675 116.974 137.035 117.631 135.755 117.631ZM153.565 117.682C152.046 117.682 150.912 117.264 150.161 116.427C149.41 115.574 149.034 114.311 149.034 112.639V101.093C149.034 100.445 149.196 99.9581 149.521 99.6339C149.862 99.2925 150.348 99.1219 150.98 99.1219C151.594 99.1219 152.064 99.2925 152.388 99.6339C152.729 99.9581 152.9 100.445 152.9 101.093V112.485C152.9 113.185 153.045 113.705 153.335 114.047C153.642 114.371 154.043 114.533 154.538 114.533C154.675 114.533 154.803 114.525 154.922 114.507C155.042 114.49 155.17 114.482 155.306 114.482C155.579 114.448 155.767 114.533 155.869 114.738C155.989 114.926 156.049 115.31 156.049 115.89C156.049 116.402 155.946 116.794 155.741 117.067C155.537 117.323 155.221 117.494 154.794 117.579C154.624 117.597 154.427 117.614 154.205 117.631C153.984 117.665 153.77 117.682 153.565 117.682ZM159.505 117.605C158.873 117.605 158.387 117.426 158.046 117.067C157.721 116.692 157.559 116.171 157.559 115.506V106.751C157.559 106.068 157.721 105.547 158.046 105.189C158.387 104.814 158.873 104.626 159.505 104.626C160.119 104.626 160.589 104.814 160.913 105.189C161.254 105.547 161.425 106.068 161.425 106.751V115.506C161.425 116.171 161.263 116.692 160.938 117.067C160.614 117.426 160.136 117.605 159.505 117.605ZM159.505 102.527C158.788 102.527 158.233 102.365 157.841 102.04C157.465 101.699 157.278 101.221 157.278 100.607C157.278 99.9752 157.465 99.4973 157.841 99.1731C158.233 98.8317 158.788 98.6611 159.505 98.6611C160.222 98.6611 160.768 98.8317 161.143 99.1731C161.519 99.4973 161.706 99.9752 161.706 100.607C161.706 101.221 161.519 101.699 161.143 102.04C160.768 102.365 160.222 102.527 159.505 102.527ZM166.355 117.631C165.723 117.631 165.237 117.46 164.896 117.119C164.571 116.777 164.409 116.291 164.409 115.659V106.571C164.409 105.94 164.571 105.462 164.896 105.138C165.237 104.797 165.706 104.626 166.304 104.626C166.918 104.626 167.387 104.797 167.712 105.138C168.036 105.462 168.198 105.94 168.198 106.571V108.031L167.916 107.186C168.309 106.35 168.889 105.71 169.657 105.266C170.442 104.805 171.33 104.575 172.32 104.575C173.327 104.575 174.154 104.771 174.803 105.163C175.451 105.539 175.938 106.119 176.262 106.904C176.586 107.672 176.748 108.654 176.748 109.848V115.659C176.748 116.291 176.578 116.777 176.236 117.119C175.912 117.46 175.434 117.631 174.803 117.631C174.188 117.631 173.711 117.46 173.369 117.119C173.045 116.777 172.883 116.291 172.883 115.659V110.027C172.883 109.157 172.721 108.534 172.396 108.159C172.089 107.766 171.611 107.57 170.963 107.57C170.144 107.57 169.487 107.826 168.992 108.338C168.514 108.85 168.275 109.533 168.275 110.386V115.659C168.275 116.974 167.635 117.631 166.355 117.631ZM186.162 117.682C184.677 117.682 183.397 117.417 182.322 116.888C181.264 116.342 180.445 115.583 179.865 114.61C179.301 113.62 179.02 112.459 179.02 111.128C179.02 109.831 179.293 108.696 179.839 107.723C180.385 106.734 181.145 105.966 182.117 105.419C183.107 104.856 184.225 104.575 185.471 104.575C186.376 104.575 187.195 104.728 187.929 105.035C188.662 105.326 189.294 105.752 189.823 106.315C190.352 106.862 190.753 107.536 191.026 108.338C191.299 109.123 191.436 110.002 191.436 110.975C191.436 111.299 191.333 111.546 191.129 111.717C190.924 111.871 190.625 111.947 190.233 111.947H182.194V109.951H188.645L188.236 110.309C188.236 109.609 188.133 109.029 187.929 108.568C187.724 108.09 187.425 107.732 187.033 107.493C186.657 107.254 186.188 107.135 185.625 107.135C184.993 107.135 184.456 107.28 184.012 107.57C183.568 107.86 183.227 108.278 182.988 108.824C182.749 109.37 182.629 110.027 182.629 110.795V111C182.629 112.297 182.928 113.253 183.525 113.867C184.14 114.482 185.044 114.789 186.239 114.789C186.649 114.789 187.118 114.738 187.647 114.635C188.176 114.533 188.671 114.371 189.132 114.149C189.524 113.961 189.874 113.902 190.181 113.97C190.489 114.021 190.728 114.158 190.898 114.379C191.069 114.601 191.163 114.857 191.18 115.147C191.214 115.438 191.154 115.728 191.001 116.018C190.847 116.291 190.591 116.521 190.233 116.709C189.652 117.033 188.995 117.272 188.261 117.426C187.545 117.597 186.845 117.682 186.162 117.682Z" fill="url(#paint2_linear_1064_2261)"/>
<path d="M29.4315 149.317C27.7227 149.317 26.4459 148.847 25.6011 147.906C24.7563 146.946 24.3339 145.525 24.3339 143.644V130.655C24.3339 129.925 24.5163 129.378 24.8811 129.013C25.2651 128.629 25.8123 128.437 26.5227 128.437C27.2139 128.437 27.7419 128.629 28.1067 129.013C28.4907 129.378 28.6827 129.925 28.6827 130.655V143.471C28.6827 144.258 28.8459 144.844 29.1723 145.228C29.5179 145.592 29.9691 145.775 30.5259 145.775C30.6795 145.775 30.8235 145.765 30.9579 145.746C31.0923 145.727 31.2363 145.717 31.3899 145.717C31.6971 145.679 31.9083 145.775 32.0235 146.005C32.1579 146.216 32.2251 146.648 32.2251 147.301C32.2251 147.877 32.1099 148.319 31.8795 148.626C31.6491 148.914 31.2939 149.106 30.8139 149.202C30.6219 149.221 30.4011 149.24 30.1515 149.26C29.9019 149.298 29.6619 149.317 29.4315 149.317ZM36.1133 149.231C35.4029 149.231 34.8557 149.029 34.4717 148.626C34.1069 148.204 33.9245 147.618 33.9245 146.869V137.02C33.9245 136.252 34.1069 135.666 34.4717 135.263C34.8557 134.84 35.4029 134.629 36.1133 134.629C36.8045 134.629 37.3325 134.84 37.6973 135.263C38.0813 135.666 38.2733 136.252 38.2733 137.02V146.869C38.2733 147.618 38.0909 148.204 37.7261 148.626C37.3613 149.029 36.8237 149.231 36.1133 149.231ZM36.1133 132.268C35.3069 132.268 34.6829 132.085 34.2413 131.72C33.8189 131.336 33.6077 130.799 33.6077 130.108C33.6077 129.397 33.8189 128.86 34.2413 128.495C34.6829 128.111 35.3069 127.919 36.1133 127.919C36.9197 127.919 37.5341 128.111 37.9565 128.495C38.3789 128.86 38.5901 129.397 38.5901 130.108C38.5901 130.799 38.3789 131.336 37.9565 131.72C37.5341 132.085 36.9197 132.268 36.1133 132.268ZM47.6212 149.26C47.0644 149.26 46.5748 149.116 46.1524 148.828C45.73 148.52 45.394 148.069 45.1444 147.474L40.7956 137.452C40.5844 136.952 40.5076 136.492 40.5652 136.069C40.6228 135.628 40.8244 135.282 41.17 135.032C41.5348 134.764 42.034 134.629 42.6676 134.629C43.186 134.629 43.6084 134.754 43.9348 135.004C44.2612 135.234 44.5492 135.685 44.7988 136.357L48.1972 144.997H47.2756L50.818 136.328C51.0868 135.676 51.3844 135.234 51.7108 135.004C52.0372 134.754 52.4884 134.629 53.0644 134.629C53.5636 134.629 53.9572 134.764 54.2452 135.032C54.5524 135.282 54.7348 135.618 54.7924 136.04C54.8692 136.463 54.7924 136.924 54.562 137.423L50.1268 147.474C49.8772 148.088 49.5412 148.54 49.1188 148.828C48.7156 149.116 48.2164 149.26 47.6212 149.26ZM64.0217 149.317C62.3513 149.317 60.9113 149.02 59.7017 148.424C58.5113 147.81 57.5897 146.956 56.9369 145.861C56.3033 144.748 55.9865 143.442 55.9865 141.944C55.9865 140.485 56.2937 139.208 56.9081 138.114C57.5225 137 58.3769 136.136 59.4713 135.522C60.5849 134.888 61.8425 134.572 63.2441 134.572C64.2617 134.572 65.1833 134.744 66.0089 135.09C66.8345 135.416 67.5449 135.896 68.1401 136.53C68.7353 137.144 69.1865 137.903 69.4937 138.805C69.8009 139.688 69.9545 140.677 69.9545 141.772C69.9545 142.136 69.8393 142.415 69.6089 142.607C69.3785 142.78 69.0425 142.866 68.6009 142.866H59.5577V140.62H66.8153L66.3545 141.023C66.3545 140.236 66.2393 139.583 66.0089 139.064C65.7785 138.527 65.4425 138.124 65.0009 137.855C64.5785 137.586 64.0505 137.452 63.4169 137.452C62.7065 137.452 62.1017 137.615 61.6025 137.941C61.1033 138.268 60.7193 138.738 60.4505 139.352C60.1817 139.967 60.0473 140.706 60.0473 141.57V141.8C60.0473 143.26 60.3833 144.335 61.0553 145.026C61.7465 145.717 62.7641 146.063 64.1081 146.063C64.5689 146.063 65.0969 146.005 65.6921 145.89C66.2873 145.775 66.8441 145.592 67.3625 145.343C67.8041 145.132 68.1977 145.064 68.5433 145.141C68.8889 145.199 69.1577 145.352 69.3497 145.602C69.5417 145.852 69.6473 146.14 69.6665 146.466C69.7049 146.792 69.6377 147.119 69.4649 147.445C69.2921 147.752 69.0041 148.012 68.6009 148.223C67.9481 148.588 67.2089 148.856 66.3833 149.029C65.5769 149.221 64.7897 149.317 64.0217 149.317ZM85.942 149.317C85.0972 149.317 84.2236 149.24 83.3212 149.087C82.438 148.933 81.6316 148.674 80.902 148.309C80.518 148.117 80.2396 147.877 80.0668 147.589C79.9132 147.282 79.846 146.975 79.8652 146.668C79.8844 146.36 79.9804 146.082 80.1532 145.832C80.3452 145.583 80.5852 145.42 80.8732 145.343C81.1804 145.247 81.5164 145.276 81.8812 145.429C82.6684 145.756 83.3884 145.986 84.0412 146.12C84.694 146.255 85.3372 146.322 85.9708 146.322C86.7964 146.322 87.3916 146.197 87.7564 145.948C88.1404 145.679 88.3324 145.333 88.3324 144.911C88.3324 144.527 88.2076 144.239 87.958 144.047C87.7084 143.855 87.3436 143.72 86.8636 143.644L83.8396 143.096C82.6492 142.885 81.7276 142.453 81.0748 141.8C80.4412 141.128 80.1244 140.274 80.1244 139.237C80.1244 138.277 80.3932 137.452 80.9308 136.76C81.4684 136.05 82.2076 135.512 83.1484 135.148C84.1084 134.764 85.1932 134.572 86.4028 134.572C87.2668 134.572 88.0636 134.648 88.7932 134.802C89.5228 134.956 90.2236 135.205 90.8956 135.551C91.2412 135.724 91.4812 135.954 91.6156 136.242C91.7692 136.53 91.8172 136.828 91.7596 137.135C91.7212 137.442 91.606 137.72 91.414 137.97C91.222 138.22 90.9724 138.383 90.6652 138.46C90.3772 138.536 90.0412 138.498 89.6572 138.344C89.0428 138.056 88.4764 137.855 87.958 137.74C87.4396 137.605 86.9404 137.538 86.4604 137.538C85.5964 137.538 84.9724 137.682 84.5884 137.97C84.2044 138.239 84.0124 138.584 84.0124 139.007C84.0124 139.333 84.118 139.612 84.3292 139.842C84.5596 140.053 84.9052 140.197 85.366 140.274L88.39 140.821C89.638 141.032 90.5884 141.455 91.2412 142.088C91.894 142.703 92.2204 143.548 92.2204 144.623C92.2204 146.082 91.6444 147.234 90.4924 148.079C89.3596 148.904 87.8428 149.317 85.942 149.317ZM101.503 149.317C100.178 149.317 99.0644 149.096 98.162 148.655C97.2788 148.213 96.6164 147.57 96.1748 146.725C95.7524 145.88 95.5412 144.815 95.5412 143.528V138.114H94.3316C93.794 138.114 93.3716 137.97 93.0644 137.682C92.7764 137.394 92.6324 137 92.6324 136.501C92.6324 135.964 92.7764 135.56 93.0644 135.292C93.3716 135.004 93.794 134.86 94.3316 134.86H95.5412V132.671C95.5412 131.941 95.7332 131.394 96.1172 131.029C96.5012 130.645 97.0388 130.453 97.73 130.453C98.4404 130.453 98.978 130.645 99.3428 131.029C99.7076 131.394 99.89 131.941 99.89 132.671V134.86H102.626C103.164 134.86 103.576 135.004 103.864 135.292C104.152 135.56 104.296 135.964 104.296 136.501C104.296 137 104.152 137.394 103.864 137.682C103.576 137.97 103.164 138.114 102.626 138.114H99.89V143.356C99.89 144.162 100.072 144.767 100.437 145.17C100.821 145.573 101.426 145.775 102.252 145.775C102.54 145.775 102.808 145.746 103.058 145.688C103.308 145.631 103.538 145.592 103.749 145.573C104.018 145.554 104.239 145.64 104.412 145.832C104.584 146.005 104.671 146.399 104.671 147.013C104.671 147.474 104.594 147.877 104.44 148.223C104.287 148.568 104.018 148.818 103.634 148.972C103.384 149.068 103.039 149.144 102.597 149.202C102.175 149.279 101.81 149.317 101.503 149.317ZM108.452 149.26C107.723 149.26 107.166 149.068 106.782 148.684C106.398 148.3 106.206 147.752 106.206 147.042V136.818C106.206 136.108 106.388 135.57 106.753 135.205C107.137 134.821 107.665 134.629 108.337 134.629C109.028 134.629 109.556 134.821 109.921 135.205C110.286 135.57 110.468 136.108 110.468 136.818V138.316H110.18C110.411 137.164 110.919 136.271 111.707 135.637C112.494 135.004 113.511 134.648 114.759 134.572C115.239 134.533 115.604 134.658 115.854 134.946C116.123 135.215 116.267 135.666 116.286 136.3C116.324 136.895 116.199 137.365 115.911 137.711C115.643 138.056 115.182 138.268 114.529 138.344L113.867 138.402C112.772 138.498 111.956 138.815 111.419 139.352C110.9 139.89 110.641 140.668 110.641 141.685V147.042C110.641 147.752 110.449 148.3 110.065 148.684C109.7 149.068 109.163 149.26 108.452 149.26ZM125.165 149.317C123.495 149.317 122.055 149.02 120.845 148.424C119.655 147.81 118.733 146.956 118.081 145.861C117.447 144.748 117.13 143.442 117.13 141.944C117.13 140.485 117.437 139.208 118.052 138.114C118.666 137 119.521 136.136 120.615 135.522C121.729 134.888 122.986 134.572 124.388 134.572C125.405 134.572 126.327 134.744 127.153 135.09C127.978 135.416 128.689 135.896 129.284 136.53C129.879 137.144 130.33 137.903 130.637 138.805C130.945 139.688 131.098 140.677 131.098 141.772C131.098 142.136 130.983 142.415 130.753 142.607C130.522 142.78 130.186 142.866 129.745 142.866H120.701V140.62H127.959L127.498 141.023C127.498 140.236 127.383 139.583 127.153 139.064C126.922 138.527 126.586 138.124 126.145 137.855C125.722 137.586 125.194 137.452 124.561 137.452C123.85 137.452 123.245 137.615 122.746 137.941C122.247 138.268 121.863 138.738 121.594 139.352C121.325 139.967 121.191 140.706 121.191 141.57V141.8C121.191 143.26 121.527 144.335 122.199 145.026C122.89 145.717 123.908 146.063 125.252 146.063C125.713 146.063 126.241 146.005 126.836 145.89C127.431 145.775 127.988 145.592 128.506 145.343C128.948 145.132 129.341 145.064 129.687 145.141C130.033 145.199 130.301 145.352 130.493 145.602C130.685 145.852 130.791 146.14 130.81 146.466C130.849 146.792 130.781 147.119 130.609 147.445C130.436 147.752 130.148 148.012 129.745 148.223C129.092 148.588 128.353 148.856 127.527 149.029C126.721 149.221 125.933 149.317 125.165 149.317ZM138.408 149.317C137.372 149.317 136.44 149.116 135.615 148.712C134.789 148.309 134.146 147.762 133.685 147.071C133.224 146.38 132.994 145.602 132.994 144.738C132.994 143.701 133.263 142.885 133.8 142.29C134.338 141.676 135.212 141.244 136.421 140.994C137.631 140.725 139.234 140.591 141.231 140.591H142.757V142.837H141.26C140.28 142.837 139.484 142.895 138.869 143.01C138.274 143.106 137.842 143.279 137.573 143.528C137.324 143.778 137.199 144.124 137.199 144.565C137.199 145.103 137.381 145.544 137.746 145.89C138.13 146.236 138.677 146.408 139.388 146.408C139.944 146.408 140.434 146.284 140.856 146.034C141.298 145.765 141.644 145.41 141.893 144.968C142.143 144.508 142.268 143.989 142.268 143.413V140.101C142.268 139.256 142.076 138.661 141.692 138.316C141.308 137.951 140.655 137.768 139.733 137.768C139.215 137.768 138.648 137.836 138.034 137.97C137.439 138.085 136.776 138.287 136.047 138.575C135.624 138.767 135.25 138.815 134.924 138.719C134.597 138.604 134.348 138.412 134.175 138.143C134.002 137.855 133.916 137.548 133.916 137.221C133.916 136.876 134.012 136.549 134.204 136.242C134.396 135.916 134.712 135.676 135.154 135.522C136.056 135.157 136.901 134.908 137.688 134.773C138.495 134.639 139.234 134.572 139.906 134.572C141.384 134.572 142.594 134.792 143.535 135.234C144.495 135.656 145.215 136.319 145.695 137.221C146.175 138.104 146.415 139.247 146.415 140.648V147.042C146.415 147.752 146.242 148.3 145.896 148.684C145.551 149.068 145.052 149.26 144.399 149.26C143.746 149.26 143.237 149.068 142.872 148.684C142.527 148.3 142.354 147.752 142.354 147.042V145.976L142.556 146.149C142.44 146.802 142.191 147.368 141.807 147.848C141.442 148.309 140.972 148.674 140.396 148.943C139.82 149.192 139.157 149.317 138.408 149.317ZM151.905 149.26C151.195 149.26 150.648 149.068 150.264 148.684C149.899 148.3 149.716 147.752 149.716 147.042V136.818C149.716 136.108 149.899 135.57 150.264 135.205C150.648 134.821 151.176 134.629 151.848 134.629C152.539 134.629 153.067 134.821 153.432 135.205C153.796 135.57 153.979 136.108 153.979 136.818V138.661L153.662 137.509C154.046 136.626 154.641 135.916 155.448 135.378C156.254 134.84 157.204 134.572 158.299 134.572C159.393 134.572 160.305 134.831 161.035 135.349C161.764 135.868 162.283 136.664 162.59 137.74H162.187C162.609 136.76 163.252 135.992 164.116 135.436C165 134.86 166.008 134.572 167.14 134.572C168.235 134.572 169.128 134.792 169.819 135.234C170.529 135.656 171.057 136.309 171.403 137.192C171.748 138.056 171.921 139.16 171.921 140.504V147.042C171.921 147.752 171.729 148.3 171.345 148.684C170.98 149.068 170.452 149.26 169.761 149.26C169.051 149.26 168.504 149.068 168.12 148.684C167.755 148.3 167.572 147.752 167.572 147.042V140.648C167.572 139.708 167.419 139.026 167.112 138.604C166.824 138.162 166.324 137.941 165.614 137.941C164.788 137.941 164.145 138.229 163.684 138.805C163.224 139.381 162.993 140.197 162.993 141.253V147.042C162.993 147.752 162.801 148.3 162.417 148.684C162.052 149.068 161.524 149.26 160.833 149.26C160.142 149.26 159.604 149.068 159.22 148.684C158.836 148.3 158.644 147.752 158.644 147.042V140.648C158.644 139.708 158.491 139.026 158.184 138.604C157.896 138.162 157.396 137.941 156.686 137.941C155.86 137.941 155.217 138.229 154.756 138.805C154.296 139.381 154.065 140.197 154.065 141.253V147.042C154.065 148.52 153.345 149.26 151.905 149.26ZM177.441 149.231C176.731 149.231 176.184 149.029 175.8 148.626C175.435 148.204 175.253 147.618 175.253 146.869V137.02C175.253 136.252 175.435 135.666 175.8 135.263C176.184 134.84 176.731 134.629 177.441 134.629C178.133 134.629 178.661 134.84 179.025 135.263C179.409 135.666 179.601 136.252 179.601 137.02V146.869C179.601 147.618 179.419 148.204 179.054 148.626C178.689 149.029 178.152 149.231 177.441 149.231ZM177.441 132.268C176.635 132.268 176.011 132.085 175.569 131.72C175.147 131.336 174.936 130.799 174.936 130.108C174.936 129.397 175.147 128.86 175.569 128.495C176.011 128.111 176.635 127.919 177.441 127.919C178.248 127.919 178.862 128.111 179.285 128.495C179.707 128.86 179.918 129.397 179.918 130.108C179.918 130.799 179.707 131.336 179.285 131.72C178.862 132.085 178.248 132.268 177.441 132.268ZM185.148 149.26C184.437 149.26 183.89 149.068 183.506 148.684C183.141 148.3 182.959 147.752 182.959 147.042V136.818C182.959 136.108 183.141 135.57 183.506 135.205C183.89 134.821 184.418 134.629 185.09 134.629C185.781 134.629 186.309 134.821 186.674 135.205C187.039 135.57 187.221 136.108 187.221 136.818V138.46L186.904 137.509C187.346 136.568 187.999 135.848 188.863 135.349C189.746 134.831 190.744 134.572 191.858 134.572C192.991 134.572 193.922 134.792 194.652 135.234C195.381 135.656 195.928 136.309 196.293 137.192C196.658 138.056 196.84 139.16 196.84 140.504V147.042C196.84 147.752 196.648 148.3 196.264 148.684C195.9 149.068 195.362 149.26 194.652 149.26C193.96 149.26 193.423 149.068 193.039 148.684C192.674 148.3 192.492 147.752 192.492 147.042V140.706C192.492 139.727 192.309 139.026 191.944 138.604C191.599 138.162 191.061 137.941 190.332 137.941C189.41 137.941 188.671 138.229 188.114 138.805C187.576 139.381 187.308 140.149 187.308 141.109V147.042C187.308 148.52 186.588 149.26 185.148 149.26ZM206.884 154.501C205.847 154.501 204.849 154.415 203.889 154.242C202.948 154.069 202.113 153.81 201.383 153.464C200.941 153.272 200.625 153.023 200.433 152.716C200.26 152.408 200.183 152.082 200.202 151.736C200.241 151.391 200.356 151.084 200.548 150.815C200.759 150.546 201.018 150.354 201.325 150.239C201.633 150.143 201.959 150.172 202.305 150.325C203.149 150.709 203.927 150.959 204.637 151.074C205.367 151.189 205.991 151.247 206.509 151.247C207.738 151.247 208.66 150.968 209.274 150.412C209.889 149.855 210.196 149 210.196 147.848V145.66H210.455C210.167 146.543 209.572 147.263 208.669 147.82C207.767 148.376 206.769 148.655 205.674 148.655C204.407 148.655 203.303 148.367 202.362 147.791C201.421 147.196 200.692 146.37 200.173 145.314C199.655 144.239 199.396 143 199.396 141.599C199.396 140.543 199.54 139.583 199.828 138.719C200.135 137.855 200.557 137.116 201.095 136.501C201.652 135.887 202.314 135.416 203.082 135.09C203.869 134.744 204.733 134.572 205.674 134.572C206.807 134.572 207.805 134.85 208.669 135.407C209.553 135.944 210.138 136.655 210.426 137.538L210.138 138.46V136.818C210.138 136.108 210.321 135.57 210.685 135.205C211.069 134.821 211.607 134.629 212.298 134.629C212.989 134.629 213.517 134.821 213.882 135.205C214.247 135.57 214.429 136.108 214.429 136.818V147.359C214.429 149.72 213.777 151.496 212.471 152.687C211.185 153.896 209.322 154.501 206.884 154.501ZM206.97 145.4C207.623 145.4 208.18 145.247 208.641 144.94C209.121 144.632 209.495 144.2 209.764 143.644C210.033 143.068 210.167 142.386 210.167 141.599C210.167 140.408 209.869 139.487 209.274 138.834C208.698 138.162 207.93 137.826 206.97 137.826C206.317 137.826 205.751 137.98 205.271 138.287C204.791 138.575 204.417 139.007 204.148 139.583C203.898 140.14 203.773 140.812 203.773 141.599C203.773 142.789 204.061 143.72 204.637 144.392C205.213 145.064 205.991 145.4 206.97 145.4Z" fill="#64748A"/>
<path opacity="0.8" d="M50.6657 175.802C50.2326 175.802 49.8518 175.69 49.5233 175.466C49.1947 175.227 48.9334 174.876 48.7393 174.413L45.3569 166.618C45.1926 166.23 45.1329 165.871 45.1777 165.543C45.2225 165.199 45.3793 164.93 45.6481 164.736C45.9318 164.527 46.3201 164.423 46.8129 164.423C47.2161 164.423 47.5446 164.52 47.7985 164.714C48.0523 164.893 48.2763 165.244 48.4705 165.767L51.1137 172.487H50.3969L53.1521 165.744C53.3611 165.237 53.5926 164.893 53.8465 164.714C54.1003 164.52 54.4513 164.423 54.8993 164.423C55.2875 164.423 55.5937 164.527 55.8177 164.736C56.0566 164.93 56.1985 165.192 56.2433 165.52C56.303 165.849 56.2433 166.207 56.0641 166.596L52.6145 174.413C52.4203 174.891 52.159 175.242 51.8305 175.466C51.5169 175.69 51.1286 175.802 50.6657 175.802ZM63.4216 175.847C62.1224 175.847 61.0024 175.615 60.0616 175.152C59.1357 174.674 58.4189 174.01 57.9112 173.159C57.4184 172.293 57.172 171.277 57.172 170.112C57.172 168.977 57.4109 167.984 57.8888 167.133C58.3667 166.267 59.0312 165.595 59.8824 165.117C60.7485 164.624 61.7267 164.378 62.8168 164.378C63.6083 164.378 64.325 164.512 64.9672 164.781C65.6093 165.035 66.1618 165.408 66.6248 165.901C67.0877 166.379 67.4386 166.969 67.6776 167.671C67.9165 168.358 68.036 169.127 68.036 169.978C68.036 170.262 67.9464 170.478 67.7672 170.628C67.588 170.762 67.3266 170.829 66.9832 170.829H59.9496V169.082H65.5944L65.236 169.396C65.236 168.783 65.1464 168.276 64.9672 167.872C64.788 167.454 64.5266 167.141 64.1832 166.932C63.8547 166.722 63.444 166.618 62.9512 166.618C62.3987 166.618 61.9283 166.745 61.54 166.999C61.1517 167.253 60.8531 167.618 60.644 168.096C60.4349 168.574 60.3304 169.149 60.3304 169.821V170C60.3304 171.135 60.5917 171.972 61.1144 172.509C61.652 173.047 62.4435 173.316 63.4888 173.316C63.8472 173.316 64.2578 173.271 64.7208 173.181C65.1837 173.092 65.6168 172.95 66.02 172.756C66.3634 172.591 66.6696 172.539 66.9384 172.599C67.2072 172.644 67.4162 172.763 67.5656 172.957C67.7149 173.151 67.797 173.375 67.812 173.629C67.8418 173.883 67.7896 174.137 67.6552 174.391C67.5208 174.63 67.2968 174.831 66.9832 174.996C66.4754 175.279 65.9005 175.488 65.2584 175.623C64.6312 175.772 64.0189 175.847 63.4216 175.847ZM71.7505 175.802C71.1831 175.802 70.75 175.653 70.4513 175.354C70.1527 175.055 70.0033 174.63 70.0033 174.077V166.125C70.0033 165.573 70.1452 165.154 70.4289 164.871C70.7276 164.572 71.1383 164.423 71.6609 164.423C72.1985 164.423 72.6092 164.572 72.8929 164.871C73.1767 165.154 73.3185 165.573 73.3185 166.125V167.29H73.0945C73.2737 166.394 73.6695 165.7 74.2817 165.207C74.894 164.714 75.6855 164.438 76.6561 164.378C77.0295 164.348 77.3132 164.445 77.5073 164.669C77.7164 164.878 77.8284 165.229 77.8433 165.722C77.8732 166.185 77.7761 166.551 77.5521 166.82C77.3431 167.088 76.9847 167.253 76.4769 167.312L75.9617 167.357C75.1105 167.432 74.4759 167.678 74.0577 168.096C73.6545 168.514 73.4529 169.119 73.4529 169.911V174.077C73.4529 174.63 73.3036 175.055 73.0049 175.354C72.7212 175.653 72.3031 175.802 71.7505 175.802ZM80.937 175.78C80.3844 175.78 79.9588 175.623 79.6602 175.309C79.3764 174.981 79.2346 174.525 79.2346 173.943V166.282C79.2346 165.685 79.3764 165.229 79.6602 164.916C79.9588 164.587 80.3844 164.423 80.937 164.423C81.4746 164.423 81.8852 164.587 82.169 164.916C82.4676 165.229 82.617 165.685 82.617 166.282V173.943C82.617 174.525 82.4751 174.981 82.1914 175.309C81.9076 175.623 81.4895 175.78 80.937 175.78ZM80.937 162.586C80.3098 162.586 79.8244 162.444 79.481 162.16C79.1524 161.862 78.9882 161.444 78.9882 160.906C78.9882 160.353 79.1524 159.935 79.481 159.652C79.8244 159.353 80.3098 159.204 80.937 159.204C81.5642 159.204 82.042 159.353 82.3706 159.652C82.6991 159.935 82.8634 160.353 82.8634 160.906C82.8634 161.444 82.6991 161.862 82.3706 162.16C82.042 162.444 81.5642 162.586 80.937 162.586ZM87.7819 175.802C87.2294 175.802 86.8038 175.653 86.5051 175.354C86.2214 175.055 86.0795 174.63 86.0795 174.077V167.133H85.2731C84.855 167.133 84.5265 167.021 84.2875 166.797C84.0635 166.573 83.9515 166.267 83.9515 165.879C83.9515 165.461 84.0635 165.147 84.2875 164.938C84.5265 164.714 84.855 164.602 85.2731 164.602H87.0651L86.0795 165.498V164.804C86.0795 163.236 86.4678 162.048 87.2443 161.242C88.0209 160.436 89.1707 159.95 90.6939 159.786L91.3435 159.719C91.7617 159.689 92.0902 159.749 92.3291 159.898C92.583 160.032 92.7473 160.219 92.8219 160.458C92.9115 160.697 92.9339 160.943 92.8891 161.197C92.8443 161.451 92.7398 161.675 92.5755 161.869C92.4262 162.048 92.2321 162.145 91.9931 162.16L91.5227 162.205C90.7761 162.25 90.2459 162.437 89.9323 162.765C89.6187 163.094 89.4619 163.579 89.4619 164.221V164.983L89.0363 164.602H95.3083C95.8459 164.602 96.2566 164.766 96.5403 165.095C96.839 165.408 96.9883 165.856 96.9883 166.439V173.943C96.9883 174.525 96.8464 174.981 96.5627 175.309C96.279 175.623 95.8609 175.78 95.3083 175.78C94.7707 175.78 94.3526 175.623 94.0539 175.309C93.7553 174.981 93.6059 174.525 93.6059 173.943V167.133H89.4619V174.077C89.4619 175.227 88.9019 175.802 87.7819 175.802ZM95.3755 162.586C94.7782 162.586 94.3153 162.444 93.9867 162.16C93.6731 161.862 93.5163 161.444 93.5163 160.906C93.5163 160.353 93.6731 159.935 93.9867 159.652C94.3153 159.353 94.7782 159.204 95.3755 159.204C95.9729 159.204 96.4283 159.353 96.7419 159.652C97.0705 159.935 97.2347 160.353 97.2347 160.906C97.2347 161.444 97.0705 161.862 96.7419 162.16C96.4283 162.444 95.9729 162.586 95.3755 162.586ZM101.303 175.802C100.75 175.802 100.324 175.653 100.026 175.354C99.7421 175.055 99.6002 174.63 99.6002 174.077V161.332C99.6002 160.764 99.7421 160.338 100.026 160.055C100.324 159.756 100.75 159.607 101.303 159.607C101.84 159.607 102.251 159.756 102.535 160.055C102.833 160.338 102.983 160.764 102.983 161.332V169.149H103.027L106.275 165.543C106.604 165.169 106.903 164.893 107.171 164.714C107.455 164.52 107.828 164.423 108.291 164.423C108.754 164.423 109.105 164.542 109.344 164.781C109.598 165.02 109.725 165.311 109.725 165.655C109.74 165.983 109.598 166.319 109.299 166.663L105.872 170.493V169.216L109.68 173.607C109.964 173.95 110.083 174.294 110.039 174.637C110.009 174.981 109.859 175.264 109.591 175.488C109.322 175.697 108.978 175.802 108.56 175.802C108.052 175.802 107.642 175.705 107.328 175.511C107.03 175.317 106.723 175.018 106.41 174.615L103.027 170.852H102.983V174.077C102.983 175.227 102.423 175.802 101.303 175.802ZM115.7 175.847C114.893 175.847 114.169 175.69 113.527 175.376C112.885 175.063 112.385 174.637 112.026 174.1C111.668 173.562 111.489 172.957 111.489 172.285C111.489 171.479 111.698 170.844 112.116 170.381C112.534 169.903 113.213 169.567 114.154 169.373C115.095 169.164 116.342 169.06 117.895 169.06H119.082V170.807H117.917C117.156 170.807 116.536 170.852 116.058 170.941C115.595 171.016 115.259 171.15 115.05 171.344C114.856 171.538 114.759 171.807 114.759 172.151C114.759 172.569 114.901 172.912 115.185 173.181C115.483 173.45 115.909 173.584 116.461 173.584C116.894 173.584 117.275 173.487 117.604 173.293C117.947 173.084 118.216 172.808 118.41 172.464C118.604 172.106 118.701 171.703 118.701 171.255V168.679C118.701 168.022 118.552 167.559 118.253 167.29C117.955 167.006 117.447 166.864 116.73 166.864C116.327 166.864 115.886 166.917 115.409 167.021C114.946 167.111 114.431 167.268 113.863 167.492C113.535 167.641 113.243 167.678 112.989 167.604C112.736 167.514 112.541 167.365 112.407 167.156C112.273 166.932 112.205 166.693 112.205 166.439C112.205 166.17 112.28 165.916 112.429 165.677C112.579 165.423 112.825 165.237 113.169 165.117C113.871 164.833 114.528 164.639 115.14 164.535C115.767 164.43 116.342 164.378 116.865 164.378C118.014 164.378 118.955 164.55 119.687 164.893C120.434 165.222 120.994 165.737 121.367 166.439C121.74 167.126 121.927 168.014 121.927 169.104V174.077C121.927 174.63 121.793 175.055 121.524 175.354C121.255 175.653 120.867 175.802 120.359 175.802C119.851 175.802 119.456 175.653 119.172 175.354C118.903 175.055 118.769 174.63 118.769 174.077V173.248L118.925 173.383C118.836 173.89 118.642 174.331 118.343 174.704C118.059 175.063 117.693 175.346 117.245 175.556C116.797 175.75 116.282 175.847 115.7 175.847ZM128.661 175.847C128.004 175.847 127.325 175.787 126.623 175.668C125.936 175.548 125.309 175.346 124.741 175.063C124.443 174.913 124.226 174.727 124.092 174.503C123.972 174.264 123.92 174.025 123.935 173.786C123.95 173.547 124.025 173.33 124.159 173.136C124.308 172.942 124.495 172.815 124.719 172.756C124.958 172.681 125.219 172.703 125.503 172.823C126.115 173.077 126.675 173.256 127.183 173.36C127.691 173.465 128.191 173.517 128.684 173.517C129.326 173.517 129.789 173.42 130.073 173.226C130.371 173.017 130.521 172.748 130.521 172.42C130.521 172.121 130.424 171.897 130.229 171.748C130.035 171.598 129.752 171.494 129.378 171.434L127.026 171.008C126.1 170.844 125.384 170.508 124.876 170C124.383 169.478 124.137 168.813 124.137 168.007C124.137 167.26 124.346 166.618 124.764 166.08C125.182 165.528 125.757 165.11 126.489 164.826C127.235 164.527 128.079 164.378 129.02 164.378C129.692 164.378 130.312 164.438 130.879 164.557C131.446 164.677 131.992 164.871 132.514 165.14C132.783 165.274 132.97 165.453 133.074 165.677C133.194 165.901 133.231 166.133 133.186 166.372C133.156 166.61 133.067 166.827 132.917 167.021C132.768 167.215 132.574 167.342 132.335 167.402C132.111 167.462 131.85 167.432 131.551 167.312C131.073 167.088 130.633 166.932 130.229 166.842C129.826 166.737 129.438 166.685 129.065 166.685C128.393 166.685 127.907 166.797 127.609 167.021C127.31 167.23 127.161 167.499 127.161 167.828C127.161 168.081 127.243 168.298 127.407 168.477C127.586 168.641 127.855 168.753 128.213 168.813L130.565 169.239C131.536 169.403 132.275 169.732 132.783 170.224C133.291 170.702 133.545 171.359 133.545 172.196C133.545 173.33 133.097 174.226 132.201 174.884C131.32 175.526 130.14 175.847 128.661 175.847ZM137.178 175.78C136.625 175.78 136.199 175.623 135.901 175.309C135.617 174.981 135.475 174.525 135.475 173.943V166.282C135.475 165.685 135.617 165.229 135.901 164.916C136.199 164.587 136.625 164.423 137.178 164.423C137.715 164.423 138.126 164.587 138.41 164.916C138.708 165.229 138.858 165.685 138.858 166.282V173.943C138.858 174.525 138.716 174.981 138.432 175.309C138.148 175.623 137.73 175.78 137.178 175.78ZM137.178 162.586C136.55 162.586 136.065 162.444 135.722 162.16C135.393 161.862 135.229 161.444 135.229 160.906C135.229 160.353 135.393 159.935 135.722 159.652C136.065 159.353 136.55 159.204 137.178 159.204C137.805 159.204 138.283 159.353 138.611 159.652C138.94 159.935 139.104 160.353 139.104 160.906C139.104 161.444 138.94 161.862 138.611 162.16C138.283 162.444 137.805 162.586 137.178 162.586ZM152.004 175.847C151.048 175.847 150.204 175.615 149.472 175.152C148.756 174.689 148.196 174.025 147.792 173.159C147.389 172.293 147.188 171.27 147.188 170.09C147.188 168.91 147.389 167.895 147.792 167.044C148.196 166.192 148.756 165.535 149.472 165.072C150.204 164.609 151.048 164.378 152.004 164.378C152.87 164.378 153.631 164.587 154.288 165.005C154.96 165.423 155.416 165.968 155.655 166.64H155.408V161.332C155.408 160.764 155.55 160.338 155.834 160.055C156.118 159.756 156.536 159.607 157.088 159.607C157.626 159.607 158.044 159.756 158.343 160.055C158.641 160.338 158.791 160.764 158.791 161.332V174.077C158.791 174.63 158.641 175.055 158.343 175.354C158.059 175.653 157.648 175.802 157.111 175.802C156.573 175.802 156.155 175.653 155.856 175.354C155.573 175.055 155.431 174.63 155.431 174.077V172.554L155.677 173.428C155.468 174.159 155.02 174.749 154.333 175.197C153.661 175.63 152.885 175.847 152.004 175.847ZM153.012 173.316C153.504 173.316 153.93 173.196 154.288 172.957C154.647 172.718 154.93 172.367 155.14 171.904C155.349 171.426 155.453 170.822 155.453 170.09C155.453 169 155.229 168.201 154.781 167.693C154.333 167.17 153.743 166.909 153.012 166.909C152.534 166.909 152.108 167.021 151.735 167.245C151.376 167.469 151.093 167.82 150.884 168.298C150.689 168.761 150.592 169.358 150.592 170.09C150.592 171.18 150.816 171.994 151.264 172.532C151.712 173.054 152.295 173.316 153.012 173.316ZM165.115 175.847C164.309 175.847 163.585 175.69 162.943 175.376C162.3 175.063 161.8 174.637 161.442 174.1C161.083 173.562 160.904 172.957 160.904 172.285C160.904 171.479 161.113 170.844 161.531 170.381C161.95 169.903 162.629 169.567 163.57 169.373C164.511 169.164 165.758 169.06 167.311 169.06H168.498V170.807H167.333C166.571 170.807 165.952 170.852 165.474 170.941C165.011 171.016 164.675 171.15 164.466 171.344C164.272 171.538 164.175 171.807 164.175 172.151C164.175 172.569 164.316 172.912 164.6 173.181C164.899 173.45 165.324 173.584 165.877 173.584C166.31 173.584 166.691 173.487 167.019 173.293C167.363 173.084 167.632 172.808 167.826 172.464C168.02 172.106 168.117 171.703 168.117 171.255V168.679C168.117 168.022 167.968 167.559 167.669 167.29C167.37 167.006 166.863 166.864 166.146 166.864C165.743 166.864 165.302 166.917 164.824 167.021C164.361 167.111 163.846 167.268 163.279 167.492C162.95 167.641 162.659 167.678 162.405 167.604C162.151 167.514 161.957 167.365 161.823 167.156C161.688 166.932 161.621 166.693 161.621 166.439C161.621 166.17 161.696 165.916 161.845 165.677C161.994 165.423 162.241 165.237 162.584 165.117C163.286 164.833 163.943 164.639 164.555 164.535C165.183 164.43 165.758 164.378 166.28 164.378C167.43 164.378 168.371 164.55 169.103 164.893C169.849 165.222 170.409 165.737 170.783 166.439C171.156 167.126 171.343 168.014 171.343 169.104V174.077C171.343 174.63 171.208 175.055 170.939 175.354C170.671 175.653 170.282 175.802 169.775 175.802C169.267 175.802 168.871 175.653 168.587 175.354C168.319 175.055 168.184 174.63 168.184 174.077V173.248L168.341 173.383C168.251 173.89 168.057 174.331 167.759 174.704C167.475 175.063 167.109 175.346 166.661 175.556C166.213 175.75 165.698 175.847 165.115 175.847ZM179.264 175.847C178.234 175.847 177.368 175.675 176.666 175.332C175.979 174.988 175.464 174.488 175.12 173.831C174.792 173.174 174.627 172.345 174.627 171.344V167.133H173.687C173.268 167.133 172.94 167.021 172.701 166.797C172.477 166.573 172.365 166.267 172.365 165.879C172.365 165.461 172.477 165.147 172.701 164.938C172.94 164.714 173.268 164.602 173.687 164.602H174.627V162.9C174.627 162.332 174.777 161.906 175.075 161.623C175.374 161.324 175.792 161.175 176.33 161.175C176.882 161.175 177.3 161.324 177.584 161.623C177.868 161.906 178.01 162.332 178.01 162.9V164.602H180.138C180.556 164.602 180.877 164.714 181.101 164.938C181.325 165.147 181.437 165.461 181.437 165.879C181.437 166.267 181.325 166.573 181.101 166.797C180.877 167.021 180.556 167.133 180.138 167.133H178.01V171.21C178.01 171.837 178.152 172.308 178.435 172.621C178.734 172.935 179.204 173.092 179.847 173.092C180.071 173.092 180.28 173.069 180.474 173.024C180.668 172.98 180.847 172.95 181.011 172.935C181.22 172.92 181.392 172.987 181.527 173.136C181.661 173.271 181.728 173.577 181.728 174.055C181.728 174.413 181.668 174.727 181.549 174.996C181.43 175.264 181.22 175.458 180.922 175.578C180.728 175.653 180.459 175.712 180.115 175.757C179.787 175.817 179.503 175.847 179.264 175.847ZM186.64 175.847C185.834 175.847 185.11 175.69 184.468 175.376C183.825 175.063 183.325 174.637 182.967 174.1C182.608 173.562 182.429 172.957 182.429 172.285C182.429 171.479 182.638 170.844 183.056 170.381C183.475 169.903 184.154 169.567 185.095 169.373C186.036 169.164 187.283 169.06 188.836 169.06H190.023V170.807H188.858C188.096 170.807 187.477 170.852 186.999 170.941C186.536 171.016 186.2 171.15 185.991 171.344C185.797 171.538 185.7 171.807 185.7 172.151C185.7 172.569 185.841 172.912 186.125 173.181C186.424 173.45 186.849 173.584 187.402 173.584C187.835 173.584 188.216 173.487 188.544 173.293C188.888 173.084 189.157 172.808 189.351 172.464C189.545 172.106 189.642 171.703 189.642 171.255V168.679C189.642 168.022 189.493 167.559 189.194 167.29C188.895 167.006 188.388 166.864 187.671 166.864C187.268 166.864 186.827 166.917 186.349 167.021C185.886 167.111 185.371 167.268 184.804 167.492C184.475 167.641 184.184 167.678 183.93 167.604C183.676 167.514 183.482 167.365 183.348 167.156C183.213 166.932 183.146 166.693 183.146 166.439C183.146 166.17 183.221 165.916 183.37 165.677C183.519 165.423 183.766 165.237 184.109 165.117C184.811 164.833 185.468 164.639 186.08 164.535C186.708 164.43 187.283 164.378 187.805 164.378C188.955 164.378 189.896 164.55 190.628 164.893C191.374 165.222 191.934 165.737 192.308 166.439C192.681 167.126 192.868 168.014 192.868 169.104V174.077C192.868 174.63 192.733 175.055 192.464 175.354C192.196 175.653 191.807 175.802 191.3 175.802C190.792 175.802 190.396 175.653 190.112 175.354C189.844 175.055 189.709 174.63 189.709 174.077V173.248L189.866 173.383C189.776 173.89 189.582 174.331 189.284 174.704C189 175.063 188.634 175.346 188.186 175.556C187.738 175.75 187.223 175.847 186.64 175.847Z" fill="url(#paint3_linear_1064_2261)"/>
<path opacity="0.6" d="M58.9385 199.678C58.4846 199.678 58.135 199.555 57.8897 199.31C57.6566 199.077 57.5401 198.727 57.5401 198.261V188.417C57.5401 187.963 57.6566 187.62 57.8897 187.387C58.135 187.141 58.4723 187.019 58.9017 187.019C59.3555 187.019 59.699 187.141 59.9321 187.387C60.1651 187.62 60.2817 187.963 60.2817 188.417V189.668L60.0793 188.951C60.2633 188.362 60.6313 187.89 61.1833 187.534C61.7475 187.166 62.3915 186.982 63.1153 186.982C63.9003 186.982 64.5873 187.172 65.1761 187.552C65.7771 187.933 66.2433 188.472 66.5745 189.172C66.9057 189.871 67.0713 190.705 67.0713 191.674C67.0713 192.643 66.9057 193.483 66.5745 194.195C66.2433 194.906 65.7833 195.452 65.1945 195.832C64.6057 196.213 63.9126 196.403 63.1153 196.403C62.4038 196.403 61.7721 196.231 61.2201 195.888C60.6681 195.532 60.2939 195.072 60.0977 194.508H60.3185V198.261C60.3185 198.727 60.1958 199.077 59.9505 199.31C59.7174 199.555 59.3801 199.678 58.9385 199.678ZM62.2873 194.324C62.6798 194.324 63.0233 194.225 63.3177 194.029C63.6243 193.833 63.8574 193.545 64.0169 193.164C64.1886 192.772 64.2745 192.275 64.2745 191.674C64.2745 190.778 64.0905 190.122 63.7225 189.705C63.3545 189.276 62.8761 189.061 62.2873 189.061C61.8947 189.061 61.5451 189.153 61.2385 189.337C60.9441 189.521 60.711 189.809 60.5393 190.202C60.3675 190.582 60.2817 191.073 60.2817 191.674C60.2817 192.569 60.4657 193.238 60.8337 193.68C61.2017 194.109 61.6862 194.324 62.2873 194.324ZM72.1009 196.403C71.3404 196.403 70.7087 196.262 70.2057 195.98C69.7028 195.697 69.3287 195.274 69.0833 194.71C68.8503 194.133 68.7337 193.422 68.7337 192.576V188.417C68.7337 187.951 68.8503 187.601 69.0833 187.368C69.3287 187.135 69.6721 187.019 70.1137 187.019C70.5553 187.019 70.8988 187.135 71.1441 187.368C71.3895 187.601 71.5121 187.951 71.5121 188.417V192.649C71.5121 193.189 71.6225 193.594 71.8433 193.864C72.0641 194.121 72.4137 194.25 72.8921 194.25C73.4196 194.25 73.8489 194.066 74.1801 193.698C74.5236 193.318 74.6953 192.821 74.6953 192.208V188.417C74.6953 187.951 74.8119 187.601 75.0449 187.368C75.2903 187.135 75.6337 187.019 76.0753 187.019C76.5292 187.019 76.8727 187.135 77.1057 187.368C77.3511 187.601 77.4737 187.951 77.4737 188.417V194.949C77.4737 195.894 77.026 196.366 76.1305 196.366C75.6889 196.366 75.3516 196.243 75.1185 195.998C74.8855 195.753 74.7689 195.403 74.7689 194.949V193.716L75.0449 194.434C74.7751 195.06 74.3887 195.544 73.8857 195.888C73.3828 196.231 72.7879 196.403 72.1009 196.403ZM83.0829 196.403C82.5431 196.403 81.985 196.354 81.4085 196.256C80.8442 196.157 80.329 195.992 79.8629 195.759C79.6175 195.636 79.4397 195.483 79.3293 195.299C79.2311 195.102 79.1882 194.906 79.2005 194.71C79.2127 194.514 79.2741 194.336 79.3845 194.176C79.5071 194.017 79.6605 193.913 79.8445 193.864C80.0407 193.802 80.2554 193.821 80.4885 193.919C80.9914 194.127 81.4514 194.274 81.8685 194.36C82.2855 194.446 82.6965 194.489 83.1013 194.489C83.6287 194.489 84.009 194.409 84.2421 194.25C84.4874 194.078 84.6101 193.857 84.6101 193.588C84.6101 193.342 84.5303 193.158 84.3709 193.036C84.2114 192.913 83.9783 192.827 83.6717 192.778L81.7397 192.428C80.9791 192.293 80.3903 192.017 79.9733 191.6C79.5685 191.171 79.3661 190.625 79.3661 189.963C79.3661 189.349 79.5378 188.822 79.8813 188.38C80.2247 187.926 80.697 187.583 81.2981 187.35C81.9114 187.105 82.6045 186.982 83.3773 186.982C83.9293 186.982 84.4383 187.031 84.9045 187.129C85.3706 187.227 85.8183 187.387 86.2477 187.608C86.4685 187.718 86.6218 187.865 86.7077 188.049C86.8058 188.233 86.8365 188.423 86.7997 188.62C86.7751 188.816 86.7015 188.994 86.5789 189.153C86.4562 189.313 86.2967 189.417 86.1005 189.466C85.9165 189.515 85.7018 189.49 85.4565 189.392C85.0639 189.208 84.7021 189.08 84.3709 189.006C84.0397 188.92 83.7207 188.877 83.4141 188.877C82.8621 188.877 82.4634 188.969 82.2181 189.153C81.9727 189.325 81.8501 189.546 81.8501 189.816C81.8501 190.024 81.9175 190.202 82.0525 190.349C82.1997 190.484 82.4205 190.576 82.7149 190.625L84.6469 190.975C85.4442 191.11 86.0514 191.38 86.4685 191.784C86.8855 192.177 87.0941 192.717 87.0941 193.404C87.0941 194.336 86.7261 195.072 85.9901 195.612C85.2663 196.139 84.2973 196.403 83.0829 196.403ZM91.7343 196.403C91.0719 196.403 90.477 196.274 89.9495 196.016C89.422 195.759 89.0111 195.409 88.7167 194.968C88.4223 194.526 88.2751 194.029 88.2751 193.477C88.2751 192.815 88.4468 192.293 88.7903 191.913C89.1338 191.521 89.6919 191.245 90.4647 191.085C91.2375 190.913 92.2618 190.828 93.5375 190.828H94.5127V192.263H93.5559C92.9303 192.263 92.4212 192.3 92.0287 192.373C91.6484 192.434 91.3724 192.545 91.2007 192.704C91.0412 192.864 90.9615 193.085 90.9615 193.367C90.9615 193.71 91.078 193.992 91.3111 194.213C91.5564 194.434 91.906 194.544 92.3599 194.544C92.7156 194.544 93.0284 194.465 93.2983 194.305C93.5804 194.133 93.8012 193.906 93.9607 193.624C94.1202 193.33 94.1999 192.999 94.1999 192.631V190.515C94.1999 189.975 94.0772 189.595 93.8319 189.374C93.5866 189.141 93.1695 189.024 92.5807 189.024C92.2495 189.024 91.8876 189.067 91.4951 189.153C91.1148 189.227 90.6916 189.356 90.2255 189.54C89.9556 189.662 89.7164 189.693 89.5079 189.632C89.2994 189.558 89.1399 189.435 89.0295 189.264C88.9191 189.08 88.8639 188.883 88.8639 188.675C88.8639 188.454 88.9252 188.245 89.0479 188.049C89.1706 187.841 89.373 187.687 89.6551 187.589C90.2316 187.356 90.7714 187.197 91.2743 187.111C91.7895 187.025 92.2618 186.982 92.6911 186.982C93.6356 186.982 94.4084 187.123 95.0095 187.405C95.6228 187.675 96.0828 188.098 96.3895 188.675C96.6962 189.239 96.8495 189.969 96.8495 190.864V194.949C96.8495 195.403 96.7391 195.753 96.5183 195.998C96.2975 196.243 95.9786 196.366 95.5615 196.366C95.1444 196.366 94.8194 196.243 94.5863 195.998C94.3655 195.753 94.2551 195.403 94.2551 194.949V194.268L94.3839 194.379C94.3103 194.796 94.1508 195.158 93.9055 195.464C93.6724 195.759 93.3719 195.992 93.0039 196.164C92.6359 196.323 92.2127 196.403 91.7343 196.403ZM103.356 196.403C102.51 196.403 101.799 196.262 101.222 195.98C100.658 195.697 100.235 195.286 99.9525 194.747C99.6826 194.207 99.5477 193.526 99.5477 192.704V189.245H98.7749C98.4314 189.245 98.1616 189.153 97.9653 188.969C97.7813 188.785 97.6893 188.534 97.6893 188.215C97.6893 187.871 97.7813 187.614 97.9653 187.442C98.1616 187.258 98.4314 187.166 98.7749 187.166H99.5477V185.768C99.5477 185.301 99.6704 184.952 99.9157 184.719C100.161 184.473 100.504 184.351 100.946 184.351C101.4 184.351 101.743 184.473 101.976 184.719C102.21 184.952 102.326 185.301 102.326 185.768V187.166H104.074C104.418 187.166 104.681 187.258 104.865 187.442C105.049 187.614 105.141 187.871 105.141 188.215C105.141 188.534 105.049 188.785 104.865 188.969C104.681 189.153 104.418 189.245 104.074 189.245H102.326V192.594C102.326 193.109 102.443 193.496 102.676 193.753C102.921 194.011 103.307 194.14 103.835 194.14C104.019 194.14 104.191 194.121 104.35 194.084C104.51 194.048 104.657 194.023 104.792 194.011C104.963 193.998 105.104 194.054 105.215 194.176C105.325 194.287 105.38 194.538 105.38 194.931C105.38 195.225 105.331 195.483 105.233 195.704C105.135 195.924 104.963 196.084 104.718 196.182C104.559 196.243 104.338 196.292 104.056 196.329C103.786 196.378 103.553 196.403 103.356 196.403ZM117.075 196.403C116.352 196.403 115.708 196.225 115.143 195.869C114.591 195.501 114.223 195.017 114.039 194.416L114.242 193.808V194.949C114.242 195.403 114.125 195.753 113.892 195.998C113.659 196.243 113.322 196.366 112.88 196.366C112.439 196.366 112.095 196.243 111.85 195.998C111.617 195.753 111.5 195.403 111.5 194.949V184.48C111.5 184.013 111.617 183.664 111.85 183.431C112.095 183.185 112.445 183.063 112.899 183.063C113.34 183.063 113.678 183.185 113.911 183.431C114.156 183.664 114.279 184.013 114.279 184.48V188.84H114.058C114.254 188.288 114.628 187.841 115.18 187.497C115.732 187.154 116.364 186.982 117.075 186.982C117.873 186.982 118.566 187.172 119.155 187.552C119.743 187.933 120.203 188.472 120.535 189.172C120.866 189.871 121.031 190.705 121.031 191.674C121.031 192.643 120.866 193.483 120.535 194.195C120.203 194.906 119.737 195.452 119.136 195.832C118.547 196.213 117.86 196.403 117.075 196.403ZM116.247 194.324C116.64 194.324 116.983 194.225 117.278 194.029C117.584 193.833 117.818 193.545 117.977 193.164C118.149 192.772 118.235 192.275 118.235 191.674C118.235 190.778 118.051 190.122 117.683 189.705C117.315 189.276 116.836 189.061 116.247 189.061C115.855 189.061 115.505 189.153 115.199 189.337C114.904 189.521 114.671 189.809 114.499 190.202C114.328 190.582 114.242 191.073 114.242 191.674C114.242 192.569 114.426 193.238 114.794 193.68C115.162 194.109 115.646 194.324 116.247 194.324ZM125.785 196.403C125.123 196.403 124.528 196.274 124 196.016C123.473 195.759 123.062 195.409 122.767 194.968C122.473 194.526 122.326 194.029 122.326 193.477C122.326 192.815 122.498 192.293 122.841 191.913C123.185 191.521 123.743 191.245 124.515 191.085C125.288 190.913 126.313 190.828 127.588 190.828H128.563V192.263H127.607C126.981 192.263 126.472 192.3 126.079 192.373C125.699 192.434 125.423 192.545 125.251 192.704C125.092 192.864 125.012 193.085 125.012 193.367C125.012 193.71 125.129 193.992 125.362 194.213C125.607 194.434 125.957 194.544 126.411 194.544C126.766 194.544 127.079 194.465 127.349 194.305C127.631 194.133 127.852 193.906 128.011 193.624C128.171 193.33 128.251 192.999 128.251 192.631V190.515C128.251 189.975 128.128 189.595 127.883 189.374C127.637 189.141 127.22 189.024 126.631 189.024C126.3 189.024 125.938 189.067 125.546 189.153C125.166 189.227 124.742 189.356 124.276 189.54C124.006 189.662 123.767 189.693 123.559 189.632C123.35 189.558 123.191 189.435 123.08 189.264C122.97 189.08 122.915 188.883 122.915 188.675C122.915 188.454 122.976 188.245 123.099 188.049C123.221 187.841 123.424 187.687 123.706 187.589C124.282 187.356 124.822 187.197 125.325 187.111C125.84 187.025 126.313 186.982 126.742 186.982C127.686 186.982 128.459 187.123 129.06 187.405C129.674 187.675 130.134 188.098 130.44 188.675C130.747 189.239 130.9 189.969 130.9 190.864V194.949C130.9 195.403 130.79 195.753 130.569 195.998C130.348 196.243 130.029 196.366 129.612 196.366C129.195 196.366 128.87 196.243 128.637 195.998C128.416 195.753 128.306 195.403 128.306 194.949V194.268L128.435 194.379C128.361 194.796 128.202 195.158 127.956 195.464C127.723 195.759 127.423 195.992 127.055 196.164C126.687 196.323 126.263 196.403 125.785 196.403ZM134.371 196.366C133.917 196.366 133.568 196.243 133.322 195.998C133.089 195.753 132.973 195.403 132.973 194.949V188.417C132.973 187.963 133.089 187.62 133.322 187.387C133.568 187.141 133.905 187.019 134.334 187.019C134.776 187.019 135.113 187.141 135.346 187.387C135.58 187.62 135.696 187.963 135.696 188.417V189.466L135.494 188.859C135.776 188.258 136.193 187.798 136.745 187.479C137.309 187.148 137.947 186.982 138.658 186.982C139.382 186.982 139.977 187.123 140.443 187.405C140.909 187.675 141.259 188.092 141.492 188.656C141.725 189.208 141.842 189.914 141.842 190.772V194.949C141.842 195.403 141.719 195.753 141.474 195.998C141.241 196.243 140.897 196.366 140.443 196.366C140.002 196.366 139.658 196.243 139.413 195.998C139.18 195.753 139.063 195.403 139.063 194.949V190.901C139.063 190.276 138.947 189.828 138.714 189.558C138.493 189.276 138.149 189.135 137.683 189.135C137.094 189.135 136.622 189.319 136.266 189.687C135.923 190.055 135.751 190.545 135.751 191.159V194.949C135.751 195.894 135.291 196.366 134.371 196.366ZM148.35 196.403C147.504 196.403 146.792 196.262 146.216 195.98C145.652 195.697 145.228 195.286 144.946 194.747C144.676 194.207 144.541 193.526 144.541 192.704V189.245H143.769C143.425 189.245 143.155 189.153 142.959 188.969C142.775 188.785 142.683 188.534 142.683 188.215C142.683 187.871 142.775 187.614 142.959 187.442C143.155 187.258 143.425 187.166 143.769 187.166H144.541V185.768C144.541 185.301 144.664 184.952 144.909 184.719C145.155 184.473 145.498 184.351 145.94 184.351C146.394 184.351 146.737 184.473 146.97 184.719C147.203 184.952 147.32 185.301 147.32 185.768V187.166H149.068C149.411 187.166 149.675 187.258 149.859 187.442C150.043 187.614 150.135 187.871 150.135 188.215C150.135 188.534 150.043 188.785 149.859 188.969C149.675 189.153 149.411 189.245 149.068 189.245H147.32V192.594C147.32 193.109 147.436 193.496 147.669 193.753C147.915 194.011 148.301 194.14 148.829 194.14C149.013 194.14 149.184 194.121 149.344 194.084C149.503 194.048 149.65 194.023 149.785 194.011C149.957 193.998 150.098 194.054 150.209 194.176C150.319 194.287 150.374 194.538 150.374 194.931C150.374 195.225 150.325 195.483 150.227 195.704C150.129 195.924 149.957 196.084 149.712 196.182C149.552 196.243 149.332 196.292 149.049 196.329C148.78 196.378 148.546 196.403 148.35 196.403ZM154.685 196.403C153.925 196.403 153.293 196.262 152.79 195.98C152.287 195.697 151.913 195.274 151.668 194.71C151.435 194.133 151.318 193.422 151.318 192.576V188.417C151.318 187.951 151.435 187.601 151.668 187.368C151.913 187.135 152.256 187.019 152.698 187.019C153.14 187.019 153.483 187.135 153.728 187.368C153.974 187.601 154.096 187.951 154.096 188.417V192.649C154.096 193.189 154.207 193.594 154.428 193.864C154.648 194.121 154.998 194.25 155.476 194.25C156.004 194.25 156.433 194.066 156.764 193.698C157.108 193.318 157.28 192.821 157.28 192.208V188.417C157.28 187.951 157.396 187.601 157.629 187.368C157.875 187.135 158.218 187.019 158.66 187.019C159.114 187.019 159.457 187.135 159.69 187.368C159.935 187.601 160.058 187.951 160.058 188.417V194.949C160.058 195.894 159.61 196.366 158.715 196.366C158.273 196.366 157.936 196.243 157.703 195.998C157.47 195.753 157.353 195.403 157.353 194.949V193.716L157.629 194.434C157.359 195.06 156.973 195.544 156.47 195.888C155.967 196.231 155.372 196.403 154.685 196.403ZM165.262 196.403C164.6 196.403 164.005 196.274 163.478 196.016C162.95 195.759 162.539 195.409 162.245 194.968C161.95 194.526 161.803 194.029 161.803 193.477C161.803 192.815 161.975 192.293 162.318 191.913C162.662 191.521 163.22 191.245 163.993 191.085C164.766 190.913 165.79 190.828 167.066 190.828H168.041V192.263H167.084C166.458 192.263 165.949 192.3 165.557 192.373C165.177 192.434 164.901 192.545 164.729 192.704C164.569 192.864 164.49 193.085 164.49 193.367C164.49 193.71 164.606 193.992 164.839 194.213C165.085 194.434 165.434 194.544 165.888 194.544C166.244 194.544 166.557 194.465 166.826 194.305C167.109 194.133 167.329 193.906 167.489 193.624C167.648 193.33 167.728 192.999 167.728 192.631V190.515C167.728 189.975 167.605 189.595 167.36 189.374C167.115 189.141 166.698 189.024 166.109 189.024C165.778 189.024 165.416 189.067 165.023 189.153C164.643 189.227 164.22 189.356 163.754 189.54C163.484 189.662 163.245 189.693 163.036 189.632C162.827 189.558 162.668 189.435 162.558 189.264C162.447 189.08 162.392 188.883 162.392 188.675C162.392 188.454 162.453 188.245 162.576 188.049C162.699 187.841 162.901 187.687 163.183 187.589C163.76 187.356 164.299 187.197 164.802 187.111C165.318 187.025 165.79 186.982 166.219 186.982C167.164 186.982 167.937 187.123 168.538 187.405C169.151 187.675 169.611 188.098 169.918 188.675C170.224 189.239 170.378 189.969 170.378 190.864V194.949C170.378 195.403 170.267 195.753 170.046 195.998C169.826 196.243 169.507 196.366 169.09 196.366C168.673 196.366 168.347 196.243 168.114 195.998C167.894 195.753 167.783 195.403 167.783 194.949V194.268L167.912 194.379C167.838 194.796 167.679 195.158 167.434 195.464C167.201 195.759 166.9 195.992 166.532 196.164C166.164 196.323 165.741 196.403 165.262 196.403ZM173.849 196.366C173.395 196.366 173.045 196.243 172.8 195.998C172.567 195.753 172.45 195.403 172.45 194.949V188.417C172.45 187.963 172.567 187.62 172.8 187.387C173.045 187.141 173.382 187.019 173.812 187.019C174.253 187.019 174.591 187.141 174.824 187.387C175.057 187.62 175.173 187.963 175.173 188.417V189.466L174.971 188.859C175.253 188.258 175.67 187.798 176.222 187.479C176.786 187.148 177.424 186.982 178.136 186.982C178.86 186.982 179.454 187.123 179.921 187.405C180.387 187.675 180.736 188.092 180.969 188.656C181.202 189.208 181.319 189.914 181.319 190.772V194.949C181.319 195.403 181.196 195.753 180.951 195.998C180.718 196.243 180.374 196.366 179.921 196.366C179.479 196.366 179.136 196.243 178.89 195.998C178.657 195.753 178.541 195.403 178.541 194.949V190.901C178.541 190.276 178.424 189.828 178.191 189.558C177.97 189.276 177.627 189.135 177.161 189.135C176.572 189.135 176.1 189.319 175.744 189.687C175.4 190.055 175.229 190.545 175.229 191.159V194.949C175.229 195.894 174.769 196.366 173.849 196.366Z" fill="url(#paint4_linear_1064_2261)"/>
<path opacity="0.4" d="M87.6415 213.959C87.2073 213.959 86.8729 213.841 86.6383 213.607C86.4153 213.372 86.3039 213.038 86.3039 212.603V206.355C86.3039 205.921 86.4153 205.593 86.6383 205.37C86.8729 205.135 87.1956 205.018 87.6063 205.018C88.0287 205.018 88.3513 205.135 88.5743 205.37C88.7972 205.593 88.9087 205.921 88.9087 206.355V207.482L88.7151 206.778C88.9497 206.238 89.3135 205.804 89.8063 205.475C90.2991 205.147 90.8799 204.983 91.5487 204.983C92.2175 204.983 92.7748 205.141 93.2207 205.458C93.6665 205.775 93.9833 206.262 94.1711 206.919H93.9247C94.1828 206.32 94.5759 205.851 95.1039 205.511C95.6436 205.159 96.2596 204.983 96.9519 204.983C97.6207 204.983 98.1663 205.118 98.5887 205.387C99.0228 205.646 99.3455 206.045 99.5567 206.584C99.7679 207.112 99.8735 207.787 99.8735 208.608V212.603C99.8735 213.038 99.7561 213.372 99.5215 213.607C99.2985 213.841 98.9759 213.959 98.5535 213.959C98.1193 213.959 97.7849 213.841 97.5503 213.607C97.3273 213.372 97.2159 213.038 97.2159 212.603V208.696C97.2159 208.121 97.122 207.705 96.9343 207.447C96.7583 207.177 96.4532 207.042 96.0191 207.042C95.5145 207.042 95.1215 207.218 94.8399 207.57C94.5583 207.922 94.4175 208.421 94.4175 209.066V212.603C94.4175 213.038 94.3001 213.372 94.0655 213.607C93.8425 213.841 93.5199 213.959 93.0975 213.959C92.6751 213.959 92.3465 213.841 92.1119 213.607C91.8772 213.372 91.7599 213.038 91.7599 212.603V208.696C91.7599 208.121 91.666 207.705 91.4783 207.447C91.3023 207.177 90.9972 207.042 90.5631 207.042C90.0585 207.042 89.6655 207.218 89.3839 207.57C89.1023 207.922 88.9615 208.421 88.9615 209.066V212.603C88.9615 213.507 88.5215 213.959 87.6415 213.959ZM106.397 213.994C105.376 213.994 104.496 213.812 103.757 213.448C103.03 213.073 102.467 212.551 102.068 211.882C101.68 211.201 101.487 210.403 101.487 209.488C101.487 208.597 101.675 207.816 102.05 207.147C102.426 206.467 102.948 205.939 103.616 205.563C104.297 205.176 105.066 204.983 105.922 204.983C106.544 204.983 107.107 205.088 107.612 205.299C108.116 205.499 108.55 205.792 108.914 206.179C109.278 206.555 109.554 207.018 109.741 207.57C109.929 208.11 110.023 208.714 110.023 209.383C110.023 209.606 109.952 209.776 109.812 209.893C109.671 209.999 109.466 210.051 109.196 210.051H103.669V208.679H108.104L107.823 208.925C107.823 208.444 107.752 208.045 107.612 207.728C107.471 207.4 107.266 207.153 106.996 206.989C106.738 206.825 106.415 206.743 106.028 206.743C105.594 206.743 105.224 206.842 104.919 207.042C104.614 207.241 104.379 207.529 104.215 207.904C104.051 208.28 103.968 208.731 103.968 209.259V209.4C103.968 210.292 104.174 210.949 104.584 211.371C105.007 211.794 105.629 212.005 106.45 212.005C106.732 212.005 107.054 211.97 107.418 211.899C107.782 211.829 108.122 211.718 108.439 211.565C108.709 211.436 108.949 211.395 109.16 211.442C109.372 211.477 109.536 211.571 109.653 211.723C109.771 211.876 109.835 212.052 109.847 212.251C109.87 212.451 109.829 212.65 109.724 212.85C109.618 213.038 109.442 213.196 109.196 213.325C108.797 213.548 108.345 213.712 107.84 213.818C107.348 213.935 106.867 213.994 106.397 213.994ZM116.057 213.994C115.036 213.994 114.156 213.812 113.417 213.448C112.689 213.073 112.126 212.551 111.727 211.882C111.34 211.201 111.146 210.403 111.146 209.488C111.146 208.597 111.334 207.816 111.709 207.147C112.085 206.467 112.607 205.939 113.276 205.563C113.956 205.176 114.725 204.983 115.581 204.983C116.203 204.983 116.767 205.088 117.271 205.299C117.776 205.499 118.21 205.792 118.573 206.179C118.937 206.555 119.213 207.018 119.401 207.57C119.588 208.11 119.682 208.714 119.682 209.383C119.682 209.606 119.612 209.776 119.471 209.893C119.33 209.999 119.125 210.051 118.855 210.051H113.329V208.679H117.764L117.482 208.925C117.482 208.444 117.412 208.045 117.271 207.728C117.13 207.4 116.925 207.153 116.655 206.989C116.397 206.825 116.074 206.743 115.687 206.743C115.253 206.743 114.883 206.842 114.578 207.042C114.273 207.241 114.039 207.529 113.874 207.904C113.71 208.28 113.628 208.731 113.628 209.259V209.4C113.628 210.292 113.833 210.949 114.244 211.371C114.666 211.794 115.288 212.005 116.109 212.005C116.391 212.005 116.714 211.97 117.077 211.899C117.441 211.829 117.781 211.718 118.098 211.565C118.368 211.436 118.609 211.395 118.82 211.442C119.031 211.477 119.195 211.571 119.313 211.723C119.43 211.876 119.495 212.052 119.506 212.251C119.53 212.451 119.489 212.65 119.383 212.85C119.277 213.038 119.101 213.196 118.855 213.325C118.456 213.548 118.004 213.712 117.5 213.818C117.007 213.935 116.526 213.994 116.057 213.994ZM125.418 213.994C124.608 213.994 123.928 213.859 123.376 213.589C122.837 213.319 122.432 212.926 122.162 212.41C121.904 211.894 121.775 211.242 121.775 210.456V207.147H121.036C120.707 207.147 120.449 207.059 120.261 206.883C120.085 206.707 119.997 206.467 119.997 206.162C119.997 205.833 120.085 205.587 120.261 205.423C120.449 205.247 120.707 205.159 121.036 205.159H121.775V203.821C121.775 203.375 121.892 203.041 122.127 202.818C122.362 202.583 122.69 202.466 123.112 202.466C123.547 202.466 123.875 202.583 124.098 202.818C124.321 203.041 124.432 203.375 124.432 203.821V205.159H126.104C126.433 205.159 126.685 205.247 126.861 205.423C127.037 205.587 127.125 205.833 127.125 206.162C127.125 206.467 127.037 206.707 126.861 206.883C126.685 207.059 126.433 207.147 126.104 207.147H124.432V210.351C124.432 210.843 124.544 211.213 124.767 211.459C125.002 211.706 125.371 211.829 125.876 211.829C126.052 211.829 126.216 211.811 126.368 211.776C126.521 211.741 126.662 211.718 126.791 211.706C126.955 211.694 127.09 211.747 127.196 211.864C127.301 211.97 127.354 212.21 127.354 212.586C127.354 212.867 127.307 213.114 127.213 213.325C127.119 213.536 126.955 213.689 126.72 213.783C126.568 213.841 126.357 213.888 126.087 213.923C125.829 213.97 125.606 213.994 125.418 213.994ZM129.905 213.941C129.471 213.941 129.136 213.818 128.901 213.571C128.679 213.313 128.567 212.955 128.567 212.498V206.479C128.567 206.009 128.679 205.651 128.901 205.405C129.136 205.147 129.471 205.018 129.905 205.018C130.327 205.018 130.65 205.147 130.873 205.405C131.107 205.651 131.225 206.009 131.225 206.479V212.498C131.225 212.955 131.113 213.313 130.89 213.571C130.667 213.818 130.339 213.941 129.905 213.941ZM129.905 203.575C129.412 203.575 129.031 203.463 128.761 203.24C128.503 203.006 128.373 202.677 128.373 202.255C128.373 201.821 128.503 201.492 128.761 201.269C129.031 201.034 129.412 200.917 129.905 200.917C130.397 200.917 130.773 201.034 131.031 201.269C131.289 201.492 131.418 201.821 131.418 202.255C131.418 202.677 131.289 203.006 131.031 203.24C130.773 203.463 130.397 203.575 129.905 203.575ZM134.614 213.959C134.18 213.959 133.846 213.841 133.611 213.607C133.388 213.372 133.276 213.038 133.276 212.603V206.355C133.276 205.921 133.388 205.593 133.611 205.37C133.846 205.135 134.168 205.018 134.579 205.018C135.001 205.018 135.324 205.135 135.547 205.37C135.77 205.593 135.881 205.921 135.881 206.355V207.359L135.688 206.778C135.958 206.203 136.356 205.763 136.884 205.458C137.424 205.141 138.034 204.983 138.715 204.983C139.407 204.983 139.976 205.118 140.422 205.387C140.868 205.646 141.202 206.045 141.425 206.584C141.648 207.112 141.76 207.787 141.76 208.608V212.603C141.76 213.038 141.642 213.372 141.408 213.607C141.185 213.841 140.856 213.959 140.422 213.959C140 213.959 139.671 213.841 139.436 213.607C139.214 213.372 139.102 213.038 139.102 212.603V208.731C139.102 208.133 138.991 207.705 138.768 207.447C138.556 207.177 138.228 207.042 137.782 207.042C137.219 207.042 136.767 207.218 136.427 207.57C136.098 207.922 135.934 208.391 135.934 208.978V212.603C135.934 213.507 135.494 213.959 134.614 213.959ZM147.897 217.162C147.264 217.162 146.654 217.109 146.067 217.003C145.492 216.898 144.982 216.739 144.536 216.528C144.266 216.411 144.072 216.258 143.955 216.071C143.849 215.883 143.802 215.683 143.814 215.472C143.838 215.261 143.908 215.073 144.025 214.909C144.154 214.745 144.313 214.627 144.5 214.557C144.688 214.498 144.888 214.516 145.099 214.61C145.615 214.845 146.09 214.997 146.524 215.067C146.97 215.138 147.352 215.173 147.668 215.173C148.419 215.173 148.983 215.003 149.358 214.663C149.734 214.322 149.921 213.8 149.921 213.096V211.759H150.08C149.904 212.298 149.54 212.738 148.988 213.079C148.437 213.419 147.827 213.589 147.158 213.589C146.384 213.589 145.709 213.413 145.134 213.061C144.559 212.697 144.113 212.193 143.796 211.547C143.48 210.89 143.321 210.134 143.321 209.277C143.321 208.632 143.409 208.045 143.585 207.517C143.773 206.989 144.031 206.537 144.36 206.162C144.7 205.786 145.105 205.499 145.574 205.299C146.055 205.088 146.583 204.983 147.158 204.983C147.85 204.983 148.46 205.153 148.988 205.493C149.528 205.822 149.886 206.256 150.062 206.795L149.886 207.359V206.355C149.886 205.921 149.998 205.593 150.22 205.37C150.455 205.135 150.784 205.018 151.206 205.018C151.628 205.018 151.951 205.135 152.174 205.37C152.397 205.593 152.508 205.921 152.508 206.355V212.797C152.508 214.24 152.11 215.326 151.312 216.053C150.526 216.792 149.387 217.162 147.897 217.162ZM147.95 211.6C148.349 211.6 148.689 211.506 148.971 211.319C149.264 211.131 149.493 210.867 149.657 210.527C149.822 210.175 149.904 209.758 149.904 209.277C149.904 208.55 149.722 207.986 149.358 207.587C149.006 207.177 148.537 206.971 147.95 206.971C147.551 206.971 147.205 207.065 146.912 207.253C146.618 207.429 146.39 207.693 146.225 208.045C146.073 208.385 145.996 208.796 145.996 209.277C145.996 210.005 146.172 210.574 146.524 210.984C146.876 211.395 147.352 211.6 147.95 211.6Z" fill="url(#paint5_linear_1064_2261)"/>
<path d="M197.286 96.5681C202.109 113.96 220.623 123.783 237.425 111.866C245.515 120.079 257.806 117.664 261.696 107.357C277.635 108.723 288.3 100.916 289.544 85.1346C298.412 80.9476 301.68 65.3272 290.322 59.0468C293.901 50.1899 289.856 41.9771 279.121 41.9771C272.742 26.6787 257.962 19.2711 242.093 27.0008C231.669 16.8556 215.489 19.2711 208.799 33.4422C190.752 33.4422 178.616 49.8678 186.551 68.0648C174.882 79.9814 180.794 96.5681 197.286 96.5681Z" fill="#BD123C"/>
<path d="M201.331 113.799C201.331 118.424 196.873 122.173 191.374 122.173C185.875 122.173 181.417 118.424 181.417 113.799C181.417 109.174 185.875 105.425 191.374 105.425C196.873 105.425 201.331 109.174 201.331 113.799Z" fill="#BD123C"/>
<path d="M182.661 127.487C182.661 130.422 179.736 132.801 176.127 132.801C172.518 132.801 169.593 130.422 169.593 127.487C169.593 124.552 172.518 122.173 176.127 122.173C179.736 122.173 182.661 124.552 182.661 127.487Z" fill="#BD123C"/>
<path d="M182.576 128.349C181.66 130.384 178.947 130.87 176.127 130.87C172.964 130.87 169.231 129.448 169.989 125.661C169.733 126.231 169.593 126.846 169.593 127.488C169.593 130.423 172.518 132.802 176.127 132.802C179.376 132.802 182.07 130.875 182.576 128.349Z" fill="#871337"/>
<path d="M200.752 116.638C198.991 118.996 195.871 119.274 192.315 119.274C186.785 119.274 180.309 115.502 182.945 109.35C181.982 110.639 181.425 112.164 181.425 113.799C181.425 118.424 185.883 122.173 191.382 122.173C195.696 122.173 199.369 119.866 200.752 116.638Z" fill="#871337"/>
<path d="M197.287 96.5681C202.11 113.96 220.623 123.783 237.426 111.866C245.516 120.079 257.807 117.664 261.696 107.357C277.636 108.723 288.3 100.916 289.545 85.1346C295.198 82.4655 298.576 75.1498 297.339 68.5695C297.339 73.54 294.835 79.3373 288.697 81.2698C287.345 86.7641 282.855 93.6694 278.344 97.0512C273.785 99.9214 267.102 103.08 261.77 101.975C261.074 103.332 260.341 105.324 259.375 106.775C258.793 107.649 258.052 108.289 257.251 108.939C254.721 110.993 251.232 110.77 248.202 110.48C246.601 110.327 245.055 110.006 243.511 109.553C240.613 108.702 238.204 106.874 236.553 105.392C232.248 109.847 221.495 110.572 216.19 109.849C213.517 109.485 210.128 108.152 208.003 106.555C205.915 104.986 204.122 103.094 202.618 100.915C200.704 98.1416 198.743 94.9126 197.725 91.6257C196.109 91.6257 194.413 91.2415 192.849 90.8694C187.986 89.7126 181.598 87.3891 180.589 79.6213C179.451 88.5278 185.805 96.5681 197.287 96.5681Z" fill="#871337"/>
<path d="M232.025 71.0769C232.025 67.8057 233.59 66.276 237.253 63.4023C239.852 61.354 241.683 59.9783 241.683 57.4408C241.683 54.6588 239.173 53.0385 236.367 53.0385C234.063 53.0385 232.291 53.9251 230.903 55.79C229.898 56.86 229.101 57.4408 227.742 57.4408C225.498 57.4408 224.346 55.8205 224.346 53.9557C224.346 52.0602 225.379 50.1342 227.004 48.6668C229.19 46.7102 232.675 45.4568 237.282 45.4568C245.493 45.4568 250.133 49.3552 250.133 56.5701C250.133 61.8284 248.211 64.6557 244.637 67.2237C242.215 69.058 241.063 70.128 240.147 72.2986C239.143 74.1329 238.375 75.2493 235.924 75.2493C233.325 75.2493 232.025 73.278 232.025 71.0769ZM230.976 83.7323C230.976 80.7975 233.029 78.902 235.865 78.902C238.7 78.902 240.724 80.7975 240.724 83.7323C240.724 86.6672 238.7 88.5626 235.865 88.5626C233.029 88.5626 230.976 86.6672 230.976 83.7323Z" fill="#FEE3E5"/>
<defs>
<linearGradient id="paint0_linear_1064_2261" x1="119.399" y1="51.2003" x2="119.399" y2="75.2003" gradientUnits="userSpaceOnUse">
<stop stop-color="#64748A" stop-opacity="0.5"/>
<stop offset="1" stop-color="#64748A"/>
</linearGradient>
<linearGradient id="paint1_linear_1064_2261" x1="119.399" y1="68.8003" x2="119.399" y2="97.8003" gradientUnits="userSpaceOnUse">
<stop stop-color="#64748A" stop-opacity="0.5"/>
<stop offset="1" stop-color="#64748A"/>
</linearGradient>
<linearGradient id="paint2_linear_1064_2261" x1="119.399" y1="91.4003" x2="119.399" y2="126.4" gradientUnits="userSpaceOnUse">
<stop stop-color="#64748A" stop-opacity="0.5"/>
<stop offset="1" stop-color="#64748A"/>
</linearGradient>
<linearGradient id="paint3_linear_1064_2261" x1="119.399" y1="152.6" x2="119.399" y2="183.6" gradientUnits="userSpaceOnUse">
<stop stop-color="#64748A"/>
<stop offset="1" stop-color="#64748A" stop-opacity="0.5"/>
</linearGradient>
<linearGradient id="paint4_linear_1064_2261" x1="119.399" y1="177.2" x2="119.399" y2="202.2" gradientUnits="userSpaceOnUse">
<stop stop-color="#64748A"/>
<stop offset="1" stop-color="#64748A" stop-opacity="0.5"/>
</linearGradient>
<linearGradient id="paint5_linear_1064_2261" x1="119.399" y1="195.8" x2="119.399" y2="219.8" gradientUnits="userSpaceOnUse">
<stop stop-color="#64748A"/>
<stop offset="1" stop-color="#64748A" stop-opacity="0.5"/>
</linearGradient>
</defs>
</svg>
