<svg width="400" height="600" viewBox="0 0 400 600" fill="none" xmlns="http://www.w3.org/2000/svg">
<rect width="400" height="600" rx="16" fill="url(#paint0_linear_1_150)"/>
<g filter="url(#filter0_d_1_150)">
<rect x="129" y="506" width="143" height="60" rx="8" fill="#BFDBFE" shape-rendering="crispEdges"/>
<path d="M148.503 529.909L151.667 539.855H151.788L154.959 529.909H158.027L153.514 543H149.947L145.428 529.909H148.503ZM159.551 543V533.182H162.275V543H159.551ZM160.919 531.916C160.515 531.916 160.167 531.782 159.877 531.513C159.592 531.241 159.449 530.915 159.449 530.536C159.449 530.161 159.592 529.839 159.877 529.57C160.167 529.298 160.515 529.161 160.919 529.161C161.324 529.161 161.669 529.298 161.955 529.57C162.245 529.839 162.39 530.161 162.39 530.536C162.39 530.915 162.245 531.241 161.955 531.513C161.669 531.782 161.324 531.916 160.919 531.916ZM168.074 543.16C167.328 543.16 166.653 542.968 166.047 542.585C165.447 542.197 164.969 541.628 164.616 540.878C164.266 540.124 164.091 539.199 164.091 538.104C164.091 536.979 164.273 536.043 164.635 535.298C164.997 534.548 165.479 533.987 166.079 533.616C166.684 533.241 167.347 533.054 168.067 533.054C168.617 533.054 169.075 533.148 169.442 533.335C169.812 533.518 170.111 533.749 170.336 534.026C170.567 534.298 170.741 534.567 170.861 534.831H170.944V529.909H173.66V543H170.976V541.428H170.861C170.733 541.7 170.552 541.971 170.317 542.239C170.087 542.504 169.787 542.723 169.416 542.898C169.05 543.072 168.602 543.16 168.074 543.16ZM168.937 540.993C169.376 540.993 169.746 540.874 170.049 540.635C170.356 540.392 170.59 540.053 170.752 539.619C170.918 539.184 171.001 538.675 171.001 538.091C171.001 537.507 170.92 537 170.758 536.57C170.596 536.139 170.362 535.807 170.055 535.572C169.748 535.338 169.376 535.221 168.937 535.221C168.489 535.221 168.112 535.342 167.805 535.585C167.498 535.828 167.266 536.165 167.108 536.595C166.951 537.026 166.872 537.524 166.872 538.091C166.872 538.662 166.951 539.167 167.108 539.606C167.27 540.04 167.503 540.381 167.805 540.629C168.112 540.871 168.489 540.993 168.937 540.993ZM180.374 543.192C179.364 543.192 178.494 542.987 177.766 542.578C177.041 542.165 176.483 541.581 176.091 540.827C175.699 540.068 175.503 539.171 175.503 538.136C175.503 537.126 175.699 536.239 176.091 535.477C176.483 534.714 177.035 534.119 177.746 533.693C178.462 533.267 179.302 533.054 180.265 533.054C180.913 533.054 181.516 533.158 182.074 533.367C182.636 533.572 183.126 533.881 183.544 534.294C183.966 534.707 184.294 535.227 184.528 535.854C184.763 536.476 184.88 537.205 184.88 538.04V538.788H176.589V537.1H182.317C182.317 536.708 182.232 536.361 182.061 536.058C181.891 535.756 181.654 535.519 181.352 535.349C181.053 535.174 180.706 535.087 180.31 535.087C179.896 535.087 179.53 535.183 179.21 535.374C178.895 535.562 178.648 535.815 178.469 536.135C178.29 536.45 178.198 536.802 178.194 537.19V538.794C178.194 539.28 178.283 539.7 178.462 540.053C178.646 540.407 178.903 540.68 179.236 540.871C179.568 541.063 179.962 541.159 180.418 541.159C180.721 541.159 180.998 541.116 181.249 541.031C181.501 540.946 181.716 540.818 181.895 540.648C182.074 540.477 182.21 540.268 182.304 540.021L184.822 540.188C184.695 540.793 184.433 541.321 184.036 541.773C183.644 542.22 183.137 542.57 182.515 542.821C181.897 543.068 181.183 543.192 180.374 543.192ZM191.093 543.192C190.1 543.192 189.241 542.981 188.517 542.559C187.797 542.133 187.241 541.54 186.849 540.782C186.457 540.019 186.261 539.135 186.261 538.129C186.261 537.115 186.457 536.229 186.849 535.47C187.241 534.707 187.797 534.115 188.517 533.693C189.241 533.267 190.1 533.054 191.093 533.054C192.086 533.054 192.942 533.267 193.663 533.693C194.387 534.115 194.945 534.707 195.337 535.47C195.729 536.229 195.925 537.115 195.925 538.129C195.925 539.135 195.729 540.019 195.337 540.782C194.945 541.54 194.387 542.133 193.663 542.559C192.942 542.981 192.086 543.192 191.093 543.192ZM191.106 541.082C191.558 541.082 191.935 540.955 192.237 540.699C192.54 540.439 192.768 540.085 192.921 539.638C193.079 539.19 193.158 538.681 193.158 538.11C193.158 537.539 193.079 537.03 192.921 536.582C192.768 536.135 192.54 535.781 192.237 535.521C191.935 535.261 191.558 535.131 191.106 535.131C190.65 535.131 190.266 535.261 189.955 535.521C189.648 535.781 189.416 536.135 189.259 536.582C189.105 537.03 189.028 537.539 189.028 538.11C189.028 538.681 189.105 539.19 189.259 539.638C189.416 540.085 189.648 540.439 189.955 540.699C190.266 540.955 190.65 541.082 191.106 541.082ZM201.913 543V529.909H207.078C208.071 529.909 208.917 530.099 209.616 530.478C210.314 530.853 210.847 531.375 211.214 532.044C211.584 532.709 211.77 533.476 211.77 534.345C211.77 535.214 211.582 535.982 211.207 536.646C210.832 537.311 210.289 537.829 209.577 538.2C208.87 538.57 208.013 538.756 207.008 538.756H203.716V536.538H206.56C207.093 536.538 207.532 536.446 207.877 536.263C208.226 536.075 208.486 535.817 208.657 535.489C208.831 535.157 208.919 534.776 208.919 534.345C208.919 533.911 208.831 533.531 208.657 533.207C208.486 532.879 208.226 532.626 207.877 532.447C207.528 532.263 207.084 532.172 206.547 532.172H204.681V543H201.913ZM216.239 529.909V543H213.516V529.909H216.239ZM221.22 543.185C220.594 543.185 220.036 543.077 219.546 542.859C219.056 542.638 218.668 542.312 218.382 541.881C218.101 541.447 217.96 540.906 217.96 540.258C217.96 539.712 218.061 539.254 218.261 538.884C218.461 538.513 218.734 538.214 219.079 537.989C219.424 537.763 219.816 537.592 220.255 537.477C220.698 537.362 221.163 537.281 221.649 537.234C222.22 537.175 222.68 537.119 223.029 537.068C223.379 537.013 223.632 536.932 223.79 536.825C223.948 536.719 224.026 536.561 224.026 536.352V536.314C224.026 535.909 223.899 535.596 223.643 535.374C223.392 535.153 223.034 535.042 222.569 535.042C222.079 535.042 221.689 535.151 221.399 535.368C221.11 535.581 220.918 535.849 220.824 536.173L218.306 535.969C218.433 535.372 218.685 534.857 219.06 534.422C219.435 533.983 219.919 533.646 220.511 533.412C221.107 533.173 221.798 533.054 222.582 533.054C223.127 533.054 223.649 533.118 224.148 533.246C224.651 533.374 225.096 533.572 225.484 533.84C225.876 534.109 226.185 534.454 226.411 534.876C226.637 535.293 226.749 535.794 226.749 536.378V543H224.167V541.638H224.09C223.933 541.945 223.722 542.216 223.458 542.45C223.193 542.68 222.876 542.862 222.505 542.994C222.134 543.121 221.706 543.185 221.22 543.185ZM222 541.306C222.401 541.306 222.754 541.227 223.061 541.07C223.368 540.908 223.609 540.69 223.784 540.418C223.958 540.145 224.046 539.836 224.046 539.491V538.449C223.96 538.504 223.843 538.555 223.694 538.602C223.549 538.645 223.385 538.685 223.202 538.724C223.019 538.758 222.835 538.79 222.652 538.82C222.469 538.845 222.303 538.869 222.154 538.89C221.834 538.937 221.555 539.011 221.316 539.114C221.078 539.216 220.892 539.354 220.76 539.529C220.628 539.7 220.562 539.913 220.562 540.168C220.562 540.539 220.696 540.822 220.965 541.018C221.237 541.21 221.583 541.306 222 541.306ZM230.192 546.682C229.846 546.682 229.523 546.654 229.22 546.599C228.922 546.548 228.675 546.482 228.479 546.401L229.092 544.368C229.412 544.466 229.699 544.519 229.955 544.528C230.215 544.536 230.439 544.477 230.626 544.349C230.818 544.221 230.974 544.004 231.093 543.697L231.253 543.281L227.731 533.182H230.594L232.627 540.392H232.729L234.781 533.182H237.664L233.848 544.061C233.665 544.589 233.415 545.05 233.1 545.442C232.789 545.838 232.395 546.143 231.917 546.356C231.44 546.573 230.865 546.682 230.192 546.682ZM243.215 543.192C242.205 543.192 241.336 542.987 240.607 542.578C239.883 542.165 239.325 541.581 238.933 540.827C238.541 540.068 238.345 539.171 238.345 538.136C238.345 537.126 238.541 536.239 238.933 535.477C239.325 534.714 239.877 534.119 240.588 533.693C241.304 533.267 242.144 533.054 243.107 533.054C243.754 533.054 244.357 533.158 244.916 533.367C245.478 533.572 245.968 533.881 246.386 534.294C246.808 534.707 247.136 535.227 247.37 535.854C247.605 536.476 247.722 537.205 247.722 538.04V538.788H239.431V537.1H245.159C245.159 536.708 245.073 536.361 244.903 536.058C244.732 535.756 244.496 535.519 244.193 535.349C243.895 535.174 243.548 535.087 243.151 535.087C242.738 535.087 242.372 535.183 242.052 535.374C241.737 535.562 241.49 535.815 241.311 536.135C241.132 536.45 241.04 536.802 241.036 537.19V538.794C241.036 539.28 241.125 539.7 241.304 540.053C241.487 540.407 241.745 540.68 242.078 540.871C242.41 541.063 242.804 541.159 243.26 541.159C243.563 541.159 243.84 541.116 244.091 541.031C244.343 540.946 244.558 540.818 244.737 540.648C244.916 540.477 245.052 540.268 245.146 540.021L247.664 540.188C247.536 540.793 247.274 541.321 246.878 541.773C246.486 542.22 245.979 542.57 245.357 542.821C244.739 543.068 244.025 543.192 243.215 543.192ZM249.499 543V533.182H252.139V534.895H252.241C252.42 534.286 252.72 533.825 253.142 533.514C253.564 533.199 254.05 533.041 254.6 533.041C254.736 533.041 254.883 533.05 255.041 533.067C255.198 533.084 255.337 533.107 255.456 533.137V535.553C255.328 535.515 255.151 535.481 254.926 535.451C254.7 535.421 254.493 535.406 254.306 535.406C253.905 535.406 253.547 535.494 253.232 535.668C252.921 535.839 252.673 536.077 252.49 536.384C252.311 536.691 252.222 537.045 252.222 537.445V543H249.499Z" fill="#1E40AF"/>
<rect x="130" y="507" width="141" height="58" rx="7" stroke="#60A5FA" stroke-width="2" shape-rendering="crispEdges"/>
</g>
<g filter="url(#filter1_d_1_150)">
<rect x="165" y="346" width="72" height="60" rx="8" fill="#BFDBFE" shape-rendering="crispEdges"/>
<path d="M193.688 374.492H190.888C190.837 374.13 190.733 373.808 190.575 373.527C190.418 373.241 190.215 372.999 189.968 372.798C189.721 372.598 189.435 372.445 189.112 372.338C188.792 372.232 188.445 372.178 188.07 372.178C187.392 372.178 186.802 372.347 186.299 372.683C185.796 373.016 185.406 373.501 185.129 374.141C184.852 374.776 184.714 375.547 184.714 376.455C184.714 377.388 184.852 378.172 185.129 378.807C185.411 379.442 185.803 379.921 186.305 380.245C186.808 380.569 187.39 380.731 188.05 380.731C188.421 380.731 188.764 380.682 189.08 380.584C189.399 380.486 189.683 380.343 189.93 380.156C190.177 379.964 190.381 379.732 190.543 379.459C190.71 379.186 190.825 378.875 190.888 378.526L193.688 378.538C193.616 379.139 193.435 379.719 193.145 380.277C192.859 380.831 192.474 381.327 191.988 381.766C191.506 382.201 190.931 382.546 190.262 382.802C189.597 383.053 188.845 383.179 188.006 383.179C186.838 383.179 185.794 382.915 184.874 382.386C183.957 381.858 183.233 381.093 182.7 380.092C182.172 379.09 181.908 377.878 181.908 376.455C181.908 375.027 182.176 373.812 182.713 372.811C183.25 371.81 183.979 371.047 184.899 370.523C185.82 369.994 186.855 369.73 188.006 369.73C188.764 369.73 189.467 369.837 190.115 370.05C190.767 370.263 191.344 370.574 191.847 370.983C192.35 371.388 192.759 371.884 193.075 372.472C193.394 373.06 193.599 373.734 193.688 374.492ZM200.314 383H195.673V369.909H200.352C201.669 369.909 202.802 370.171 203.752 370.695C204.703 371.215 205.434 371.963 205.945 372.939C206.461 373.915 206.718 375.082 206.718 376.442C206.718 377.805 206.461 378.977 205.945 379.957C205.434 380.937 204.699 381.69 203.74 382.214C202.785 382.738 201.643 383 200.314 383ZM198.441 380.629H200.199C201.017 380.629 201.705 380.484 202.263 380.194C202.826 379.9 203.248 379.446 203.529 378.832C203.814 378.214 203.957 377.418 203.957 376.442C203.957 375.474 203.814 374.684 203.529 374.07C203.248 373.457 202.828 373.005 202.27 372.715C201.711 372.425 201.023 372.281 200.205 372.281H198.441V380.629ZM219.718 369.909V383H217.328L211.632 374.761H211.536V383H208.769V369.909H211.198L216.848 378.142H216.963V369.909H219.718Z" fill="#1E40AF"/>
<rect x="166" y="347" width="70" height="58" rx="7" stroke="#60A5FA" stroke-width="2" shape-rendering="crispEdges"/>
</g>
<g filter="url(#filter2_d_1_150)">
<rect x="125" y="194" width="151" height="92" rx="8" fill="#BFDBFE" shape-rendering="crispEdges"/>
<path d="M158.087 247V237.182H160.81V247H158.087ZM159.455 235.916C159.05 235.916 158.702 235.782 158.413 235.513C158.127 235.241 157.984 234.915 157.984 234.536C157.984 234.161 158.127 233.839 158.413 233.57C158.702 233.298 159.05 233.161 159.455 233.161C159.859 233.161 160.205 233.298 160.49 233.57C160.78 233.839 160.925 234.161 160.925 234.536C160.925 234.915 160.78 235.241 160.49 235.513C160.205 235.782 159.859 235.916 159.455 235.916ZM165.714 241.324V247H162.991V237.182H165.586V238.914H165.701C165.919 238.343 166.283 237.891 166.794 237.559C167.306 237.222 167.926 237.054 168.654 237.054C169.336 237.054 169.931 237.203 170.438 237.501C170.945 237.8 171.339 238.226 171.62 238.78C171.901 239.33 172.042 239.986 172.042 240.749V247H169.319V241.234C169.323 240.634 169.17 240.165 168.859 239.828C168.548 239.487 168.119 239.317 167.574 239.317C167.208 239.317 166.884 239.396 166.602 239.553C166.325 239.711 166.108 239.941 165.95 240.244C165.797 240.542 165.718 240.902 165.714 241.324ZM174.239 247V233.909H177.007V244.718H182.619V247H174.239ZM184.401 247V237.182H187.124V247H184.401ZM185.769 235.916C185.364 235.916 185.017 235.782 184.727 235.513C184.442 235.241 184.299 234.915 184.299 234.536C184.299 234.161 184.442 233.839 184.727 233.57C185.017 233.298 185.364 233.161 185.769 233.161C186.174 233.161 186.519 233.298 186.805 233.57C187.094 233.839 187.239 234.161 187.239 234.536C187.239 234.915 187.094 235.241 186.805 235.513C186.519 235.782 186.174 235.916 185.769 235.916ZM198.459 237.182L195.026 247H191.958L188.526 237.182H191.402L193.441 244.207H193.543L195.576 237.182H198.459ZM204.01 247.192C203 247.192 202.131 246.987 201.402 246.578C200.678 246.165 200.12 245.581 199.728 244.827C199.336 244.068 199.14 243.171 199.14 242.136C199.14 241.126 199.336 240.239 199.728 239.477C200.12 238.714 200.672 238.119 201.383 237.693C202.099 237.267 202.939 237.054 203.902 237.054C204.549 237.054 205.152 237.158 205.711 237.367C206.273 237.572 206.763 237.881 207.181 238.294C207.603 238.707 207.931 239.227 208.165 239.854C208.4 240.476 208.517 241.205 208.517 242.04V242.788H200.226V241.1H205.953C205.953 240.708 205.868 240.361 205.698 240.058C205.527 239.756 205.291 239.519 204.988 239.349C204.69 239.174 204.343 239.087 203.946 239.087C203.533 239.087 203.167 239.183 202.847 239.374C202.532 239.562 202.284 239.815 202.105 240.135C201.926 240.45 201.835 240.802 201.831 241.19V242.794C201.831 243.28 201.92 243.7 202.099 244.053C202.282 244.407 202.54 244.68 202.873 244.871C203.205 245.063 203.599 245.159 204.055 245.159C204.358 245.159 204.635 245.116 204.886 245.031C205.137 244.946 205.353 244.818 205.532 244.648C205.711 244.477 205.847 244.268 205.941 244.021L208.459 244.188C208.331 244.793 208.069 245.321 207.673 245.773C207.281 246.22 206.774 246.57 206.152 246.821C205.534 247.068 204.82 247.192 204.01 247.192ZM216.767 247H213.801L218.32 233.909H221.887L226.4 247H223.434L220.155 236.901H220.053L216.767 247ZM216.582 241.854H223.588V244.015H216.582V241.854ZM227.976 247V233.909H233.14C234.133 233.909 234.979 234.099 235.678 234.478C236.377 234.853 236.91 235.375 237.276 236.044C237.647 236.709 237.832 237.476 237.832 238.345C237.832 239.214 237.645 239.982 237.27 240.646C236.895 241.311 236.351 241.829 235.64 242.2C234.932 242.57 234.076 242.756 233.07 242.756H229.778V240.538H232.623C233.155 240.538 233.594 240.446 233.939 240.263C234.289 240.075 234.549 239.817 234.719 239.489C234.894 239.157 234.981 238.776 234.981 238.345C234.981 237.911 234.894 237.531 234.719 237.207C234.549 236.879 234.289 236.626 233.939 236.447C233.59 236.263 233.147 236.172 232.61 236.172H230.743V247H227.976ZM242.398 233.909V247H239.63V233.909H242.398Z" fill="#1E40AF"/>
<rect x="126" y="195" width="149" height="90" rx="7" stroke="#60A5FA" stroke-width="2" shape-rendering="crispEdges"/>
</g>
<g filter="url(#filter3_d_1_150)">
<rect x="144" y="34" width="113" height="60" rx="8" fill="#BFDBFE" shape-rendering="crispEdges"/>
<path d="M160.371 57.9091H163.471L166.456 63.5469H166.584L169.569 57.9091H172.669L167.894 66.3722V71H165.146V66.3722L160.371 57.9091ZM176.509 71.1918C175.516 71.1918 174.657 70.9808 173.933 70.5589C173.213 70.1328 172.657 69.5405 172.265 68.782C171.873 68.0192 171.677 67.1349 171.677 66.1293C171.677 65.1151 171.873 64.2287 172.265 63.4702C172.657 62.7074 173.213 62.1151 173.933 61.6932C174.657 61.267 175.516 61.054 176.509 61.054C177.502 61.054 178.358 61.267 179.079 61.6932C179.803 62.1151 180.361 62.7074 180.753 63.4702C181.145 64.2287 181.341 65.1151 181.341 66.1293C181.341 67.1349 181.145 68.0192 180.753 68.782C180.361 69.5405 179.803 70.1328 179.079 70.5589C178.358 70.9808 177.502 71.1918 176.509 71.1918ZM176.522 69.0824C176.974 69.0824 177.351 68.9545 177.653 68.6989C177.956 68.4389 178.184 68.0852 178.337 67.6378C178.495 67.1903 178.574 66.6811 178.574 66.1101C178.574 65.5391 178.495 65.0298 178.337 64.5824C178.184 64.1349 177.956 63.7812 177.653 63.5213C177.351 63.2614 176.974 63.1314 176.522 63.1314C176.066 63.1314 175.682 63.2614 175.371 63.5213C175.064 63.7812 174.832 64.1349 174.675 64.5824C174.521 65.0298 174.444 65.5391 174.444 66.1101C174.444 66.6811 174.521 67.1903 174.675 67.6378C174.832 68.0852 175.064 68.4389 175.371 68.6989C175.682 68.9545 176.066 69.0824 176.522 69.0824ZM189.408 66.8196V61.1818H192.131V71H189.517V69.2166H189.415C189.193 69.7919 188.824 70.2543 188.309 70.6037C187.797 70.9531 187.173 71.1278 186.436 71.1278C185.78 71.1278 185.202 70.9787 184.704 70.6804C184.205 70.3821 183.815 69.9581 183.534 69.4084C183.257 68.8587 183.116 68.2003 183.112 67.4332V61.1818H185.835V66.9474C185.839 67.527 185.995 67.9851 186.302 68.3217C186.608 68.6584 187.02 68.8267 187.535 68.8267C187.863 68.8267 188.17 68.7521 188.456 68.603C188.741 68.4496 188.971 68.2237 189.146 67.9254C189.325 67.6271 189.412 67.2585 189.408 66.8196ZM194.309 71V61.1818H196.949V62.8949H197.051C197.23 62.2855 197.531 61.8253 197.953 61.5142C198.375 61.1989 198.86 61.0412 199.41 61.0412C199.547 61.0412 199.694 61.0497 199.851 61.0668C200.009 61.0838 200.147 61.1072 200.267 61.1371V63.5533C200.139 63.5149 199.962 63.4808 199.736 63.451C199.51 63.4212 199.304 63.4062 199.116 63.4062C198.716 63.4062 198.358 63.4936 198.042 63.6683C197.731 63.8388 197.484 64.0774 197.301 64.3842C197.122 64.6911 197.032 65.0447 197.032 65.4453V71H194.309ZM208.148 71H205.182L209.701 57.9091H213.268L217.781 71H214.815L211.536 60.9006H211.434L208.148 71ZM207.963 65.8544H214.968V68.0149H207.963V65.8544ZM219.305 74.6818V61.1818H221.99V62.831H222.112C222.231 62.5668 222.403 62.2983 222.629 62.0256C222.859 61.7486 223.158 61.5185 223.524 61.3352C223.895 61.1477 224.355 61.054 224.905 61.054C225.621 61.054 226.281 61.2415 226.886 61.6165C227.491 61.9872 227.975 62.5476 228.337 63.2976C228.7 64.0433 228.881 64.9787 228.881 66.1037C228.881 67.1989 228.704 68.1236 228.35 68.8778C228.001 69.6278 227.523 70.1967 226.918 70.5845C226.317 70.968 225.644 71.1598 224.898 71.1598C224.37 71.1598 223.92 71.0724 223.55 70.8977C223.183 70.723 222.883 70.5036 222.648 70.2393C222.414 69.9709 222.235 69.7003 222.112 69.4276H222.028V74.6818H219.305ZM221.971 66.0909C221.971 66.6747 222.052 67.1839 222.214 67.6186C222.376 68.0533 222.61 68.392 222.917 68.6349C223.224 68.8736 223.597 68.9929 224.036 68.9929C224.479 68.9929 224.854 68.8714 225.161 68.6286C225.467 68.3814 225.7 68.0405 225.857 67.6058C226.019 67.1669 226.1 66.6619 226.1 66.0909C226.1 65.5241 226.021 65.0256 225.864 64.5952C225.706 64.1648 225.474 63.8281 225.167 63.5852C224.86 63.3423 224.483 63.2209 224.036 63.2209C223.592 63.2209 223.217 63.3381 222.911 63.5724C222.608 63.8068 222.376 64.1392 222.214 64.5696C222.052 65 221.971 65.5071 221.971 66.0909ZM230.696 74.6818V61.1818H233.381V62.831H233.502C233.621 62.5668 233.794 62.2983 234.02 62.0256C234.25 61.7486 234.548 61.5185 234.915 61.3352C235.286 61.1477 235.746 61.054 236.295 61.054C237.011 61.054 237.672 61.2415 238.277 61.6165C238.882 61.9872 239.366 62.5476 239.728 63.2976C240.09 64.0433 240.271 64.9787 240.271 66.1037C240.271 67.1989 240.094 68.1236 239.741 68.8778C239.391 69.6278 238.914 70.1967 238.309 70.5845C237.708 70.968 237.035 71.1598 236.289 71.1598C235.761 71.1598 235.311 71.0724 234.94 70.8977C234.574 70.723 234.273 70.5036 234.039 70.2393C233.805 69.9709 233.626 69.7003 233.502 69.4276H233.419V74.6818H230.696ZM233.362 66.0909C233.362 66.6747 233.442 67.1839 233.604 67.6186C233.766 68.0533 234.001 68.392 234.308 68.6349C234.614 68.8736 234.987 68.9929 235.426 68.9929C235.869 68.9929 236.244 68.8714 236.551 68.6286C236.858 68.3814 237.09 68.0405 237.248 67.6058C237.41 67.1669 237.491 66.6619 237.491 66.0909C237.491 65.5241 237.412 65.0256 237.254 64.5952C237.097 64.1648 236.864 63.8281 236.558 63.5852C236.251 63.3423 235.874 63.2209 235.426 63.2209C234.983 63.2209 234.608 63.3381 234.301 63.5724C233.999 63.8068 233.766 64.1392 233.604 64.5696C233.442 65 233.362 65.5071 233.362 66.0909Z" fill="#1E40AF"/>
<rect x="145" y="35" width="111" height="58" rx="7" stroke="#60A5FA" stroke-width="2" shape-rendering="crispEdges"/>
</g>
<path d="M201 411.861V495.139" stroke="#3B82F6" stroke-width="2" stroke-linecap="round"/>
<rect x="150.513" y="442" width="100" height="24" rx="8" fill="#3B82F6"/>
<path d="M167.437 459V448.818H169.59V453.019H173.96V448.818H176.107V459H173.96V454.794H169.59V459H167.437ZM177.882 459V448.818H180.035V457.225H184.4V459H177.882ZM191.349 451.746C191.309 451.345 191.138 451.034 190.837 450.812C190.535 450.59 190.126 450.479 189.609 450.479C189.258 450.479 188.961 450.528 188.719 450.628C188.477 450.724 188.291 450.858 188.162 451.031C188.036 451.203 187.973 451.398 187.973 451.617C187.967 451.799 188.005 451.959 188.088 452.094C188.174 452.23 188.291 452.348 188.441 452.447C188.59 452.544 188.762 452.628 188.958 452.701C189.153 452.771 189.362 452.83 189.584 452.88L190.499 453.099C190.943 453.198 191.351 453.331 191.722 453.496C192.093 453.662 192.415 453.866 192.686 454.108C192.958 454.35 193.169 454.635 193.318 454.963C193.47 455.291 193.548 455.667 193.551 456.092C193.548 456.715 193.389 457.255 193.074 457.712C192.763 458.166 192.312 458.519 191.722 458.771C191.135 459.02 190.428 459.144 189.599 459.144C188.777 459.144 188.061 459.018 187.451 458.766C186.845 458.514 186.371 458.142 186.029 457.648C185.691 457.151 185.514 456.536 185.497 455.803H187.58C187.604 456.145 187.701 456.43 187.874 456.658C188.049 456.884 188.283 457.054 188.575 457.17C188.87 457.283 189.203 457.339 189.574 457.339C189.939 457.339 190.255 457.286 190.524 457.18C190.795 457.074 191.006 456.927 191.155 456.738C191.304 456.549 191.379 456.332 191.379 456.087C191.379 455.858 191.311 455.666 191.175 455.51C191.042 455.354 190.847 455.222 190.588 455.112C190.333 455.003 190.02 454.903 189.649 454.814L188.54 454.536C187.682 454.327 187.004 454 186.507 453.556C186.009 453.112 185.763 452.514 185.766 451.761C185.763 451.145 185.927 450.606 186.258 450.146C186.593 449.685 187.052 449.325 187.635 449.067C188.218 448.808 188.881 448.679 189.624 448.679C190.379 448.679 191.039 448.808 191.602 449.067C192.169 449.325 192.61 449.685 192.925 450.146C193.24 450.606 193.402 451.14 193.412 451.746H191.349ZM199.394 448.341L196.113 460.531H194.288L197.57 448.341H199.394ZM204.064 459H200.454V448.818H204.094C205.118 448.818 205.999 449.022 206.738 449.43C207.478 449.834 208.046 450.416 208.444 451.175C208.845 451.934 209.045 452.842 209.045 453.899C209.045 454.96 208.845 455.871 208.444 456.634C208.046 457.396 207.474 457.981 206.729 458.388C205.986 458.796 205.098 459 204.064 459ZM202.607 457.156H203.974C204.611 457.156 205.146 457.043 205.58 456.817C206.018 456.589 206.346 456.236 206.564 455.759C206.787 455.278 206.898 454.658 206.898 453.899C206.898 453.147 206.787 452.532 206.564 452.055C206.346 451.577 206.019 451.226 205.585 451.001C205.151 450.775 204.616 450.663 203.979 450.663H202.607V457.156ZM212.778 459.144C212.291 459.144 211.856 459.06 211.475 458.891C211.094 458.718 210.792 458.465 210.57 458.13C210.352 457.792 210.242 457.371 210.242 456.867C210.242 456.443 210.32 456.087 210.476 455.798C210.632 455.51 210.844 455.278 211.112 455.102C211.381 454.927 211.686 454.794 212.027 454.705C212.372 454.615 212.733 454.552 213.111 454.516C213.555 454.469 213.913 454.426 214.185 454.386C214.456 454.343 214.654 454.28 214.776 454.197C214.899 454.115 214.96 453.992 214.96 453.83V453.8C214.96 453.485 214.861 453.241 214.662 453.069C214.466 452.897 214.188 452.81 213.827 452.81C213.446 452.81 213.142 452.895 212.917 453.064C212.692 453.23 212.542 453.438 212.469 453.69L210.511 453.531C210.61 453.067 210.806 452.666 211.097 452.328C211.389 451.987 211.765 451.725 212.226 451.543C212.69 451.357 213.227 451.264 213.837 451.264C214.261 451.264 214.667 451.314 215.055 451.413C215.446 451.513 215.792 451.667 216.094 451.876C216.399 452.085 216.639 452.353 216.815 452.681C216.99 453.006 217.078 453.395 217.078 453.849V459H215.07V457.941H215.01C214.887 458.18 214.723 458.39 214.518 458.572C214.312 458.751 214.065 458.892 213.777 458.995C213.489 459.094 213.156 459.144 212.778 459.144ZM213.384 457.683C213.696 457.683 213.971 457.621 214.21 457.499C214.448 457.373 214.635 457.204 214.771 456.991C214.907 456.779 214.975 456.539 214.975 456.271V455.46C214.909 455.503 214.818 455.543 214.702 455.58C214.589 455.613 214.461 455.644 214.319 455.674C214.176 455.701 214.034 455.725 213.891 455.749C213.749 455.768 213.62 455.787 213.504 455.803C213.255 455.84 213.038 455.898 212.852 455.977C212.667 456.057 212.523 456.165 212.42 456.3C212.317 456.433 212.266 456.599 212.266 456.798C212.266 457.086 212.37 457.306 212.579 457.459C212.791 457.608 213.059 457.683 213.384 457.683ZM225.075 453.541L223.136 453.661C223.103 453.495 223.032 453.346 222.922 453.213C222.813 453.077 222.669 452.969 222.49 452.89C222.314 452.807 222.104 452.766 221.858 452.766C221.53 452.766 221.253 452.835 221.028 452.974C220.803 453.11 220.69 453.293 220.69 453.521C220.69 453.704 220.763 453.858 220.909 453.984C221.055 454.11 221.305 454.211 221.659 454.287L223.042 454.565C223.784 454.718 224.338 454.963 224.702 455.301C225.067 455.639 225.249 456.083 225.249 456.634C225.249 457.134 225.101 457.573 224.806 457.951C224.515 458.329 224.114 458.624 223.603 458.836C223.096 459.045 222.511 459.149 221.848 459.149C220.838 459.149 220.032 458.939 219.432 458.518C218.836 458.094 218.486 457.517 218.383 456.788L220.466 456.678C220.529 456.987 220.682 457.222 220.924 457.384C221.166 457.543 221.476 457.623 221.853 457.623C222.225 457.623 222.523 457.552 222.748 457.409C222.977 457.263 223.093 457.076 223.096 456.847C223.093 456.655 223.012 456.498 222.853 456.375C222.694 456.249 222.448 456.153 222.117 456.087L220.794 455.823C220.049 455.674 219.494 455.415 219.129 455.048C218.768 454.68 218.587 454.211 218.587 453.641C218.587 453.15 218.72 452.728 218.985 452.373C219.253 452.018 219.629 451.745 220.113 451.553C220.601 451.36 221.171 451.264 221.824 451.264C222.788 451.264 223.547 451.468 224.101 451.876C224.657 452.283 224.982 452.839 225.075 453.541ZM228.7 454.585V459H226.583V448.818H228.641V452.711H228.73C228.903 452.26 229.181 451.907 229.566 451.652C229.95 451.393 230.432 451.264 231.012 451.264C231.543 451.264 232.005 451.38 232.399 451.612C232.797 451.841 233.105 452.171 233.324 452.602C233.546 453.029 233.656 453.541 233.652 454.138V459H231.534V454.516C231.538 454.045 231.418 453.679 231.176 453.417C230.938 453.155 230.603 453.024 230.172 453.024C229.884 453.024 229.629 453.085 229.406 453.208C229.188 453.331 229.015 453.51 228.889 453.745C228.767 453.977 228.704 454.257 228.7 454.585Z" fill="#DBEAFE"/>
<path d="M201 504L201 489" stroke="#3B82F6" stroke-width="2" stroke-linecap="round"/>
<path d="M193 497L201 505L209 497" stroke="#3B82F6" stroke-width="2" stroke-linecap="round" stroke-linejoin="round"/>
<rect x="185" y="390" width="32" height="32" rx="16" fill="#3B82F6" fill-opacity="0.2"/>
<circle cx="201" cy="406" r="4.5" fill="#BFDBFE" stroke="#3B82F6" stroke-width="3"/>
<path d="M201 291.456L201 335.544" stroke="#3B82F6" stroke-width="2" stroke-linecap="round"/>
<path d="M201 344L201 329" stroke="#3B82F6" stroke-width="2" stroke-linecap="round"/>
<path d="M193 337L201 345L209 337" stroke="#3B82F6" stroke-width="2" stroke-linecap="round" stroke-linejoin="round"/>
<rect x="185" y="270" width="32" height="32" rx="16" fill="#3B82F6" fill-opacity="0.2"/>
<circle cx="201" cy="286" r="4.5" fill="#BFDBFE" stroke="#3B82F6" stroke-width="3"/>
<path d="M201 99.8615V183.139" stroke="#3B82F6" stroke-width="2" stroke-linecap="round"/>
<rect x="154.513" y="130" width="92" height="24" rx="8" fill="#3B82F6"/>
<path d="M173.912 147L170.999 136.818H173.351L175.036 143.893H175.12L176.98 136.818H178.993L180.848 143.908H180.937L182.623 136.818H184.974L182.061 147H179.963L178.024 140.343H177.944L176.01 147H173.912ZM188.746 147.149C187.961 147.149 187.285 146.99 186.718 146.672C186.154 146.35 185.72 145.896 185.415 145.31C185.11 144.72 184.958 144.022 184.958 143.217C184.958 142.431 185.11 141.742 185.415 141.148C185.72 140.555 186.149 140.093 186.703 139.761C187.26 139.43 187.913 139.264 188.662 139.264C189.166 139.264 189.635 139.345 190.069 139.508C190.506 139.667 190.887 139.907 191.212 140.229C191.54 140.55 191.796 140.955 191.978 141.442C192.16 141.926 192.251 142.492 192.251 143.142V143.724H185.803V142.411H190.258C190.258 142.106 190.191 141.836 190.059 141.601C189.926 141.366 189.742 141.182 189.507 141.049C189.275 140.913 189.005 140.845 188.697 140.845C188.375 140.845 188.09 140.92 187.841 141.069C187.596 141.215 187.404 141.412 187.265 141.661C187.126 141.906 187.054 142.179 187.051 142.481V143.729C187.051 144.107 187.121 144.433 187.26 144.708C187.402 144.983 187.603 145.195 187.861 145.344C188.12 145.494 188.426 145.568 188.781 145.568C189.016 145.568 189.232 145.535 189.427 145.469C189.623 145.402 189.79 145.303 189.93 145.17C190.069 145.038 190.175 144.875 190.248 144.683L192.207 144.812C192.107 145.283 191.903 145.694 191.595 146.045C191.29 146.393 190.896 146.665 190.412 146.861C189.931 147.053 189.376 147.149 188.746 147.149ZM193.673 147V136.818H195.791V140.646H195.856C195.948 140.441 196.083 140.232 196.258 140.02C196.437 139.804 196.669 139.625 196.954 139.483C197.243 139.337 197.601 139.264 198.028 139.264C198.585 139.264 199.099 139.41 199.569 139.702C200.04 139.99 200.416 140.426 200.698 141.009C200.98 141.589 201.121 142.317 201.121 143.192C201.121 144.044 200.983 144.763 200.708 145.349C200.436 145.933 200.065 146.375 199.594 146.677C199.127 146.975 198.603 147.124 198.023 147.124C197.612 147.124 197.263 147.056 196.974 146.92C196.689 146.785 196.456 146.614 196.273 146.408C196.091 146.2 195.952 145.989 195.856 145.777H195.761V147H193.673ZM195.746 143.182C195.746 143.636 195.809 144.032 195.935 144.37C196.061 144.708 196.243 144.972 196.482 145.161C196.721 145.346 197.011 145.439 197.352 145.439C197.697 145.439 197.988 145.344 198.227 145.156C198.466 144.963 198.646 144.698 198.769 144.36C198.895 144.019 198.958 143.626 198.958 143.182C198.958 142.741 198.897 142.353 198.774 142.018C198.651 141.684 198.471 141.422 198.232 141.233C197.993 141.044 197.7 140.95 197.352 140.95C197.007 140.95 196.716 141.041 196.477 141.223C196.242 141.405 196.061 141.664 195.935 141.999C195.809 142.333 195.746 142.728 195.746 143.182ZM202.574 147V136.818H206.591C207.36 136.818 208.016 136.956 208.559 137.231C209.106 137.503 209.522 137.889 209.807 138.389C210.096 138.886 210.24 139.471 210.24 140.144C210.24 140.82 210.094 141.402 209.802 141.889C209.511 142.373 209.088 142.744 208.534 143.003C207.984 143.261 207.318 143.391 206.536 143.391H203.846V141.661H206.188C206.599 141.661 206.94 141.604 207.212 141.491C207.484 141.379 207.686 141.21 207.819 140.984C207.954 140.759 208.022 140.479 208.022 140.144C208.022 139.806 207.954 139.521 207.819 139.289C207.686 139.057 207.482 138.881 207.207 138.762C206.935 138.639 206.592 138.578 206.178 138.578H204.726V147H202.574ZM208.072 142.366L210.603 147H208.226L205.75 142.366H208.072ZM211.373 138.593V136.818H219.735V138.593H216.618V147H214.49V138.593H211.373ZM229.631 140.383H227.454C227.414 140.101 227.333 139.851 227.21 139.632C227.088 139.41 226.93 139.221 226.738 139.065C226.546 138.91 226.324 138.79 226.072 138.707C225.823 138.625 225.553 138.583 225.261 138.583C224.734 138.583 224.275 138.714 223.884 138.976C223.493 139.234 223.19 139.612 222.974 140.109C222.759 140.603 222.651 141.203 222.651 141.909C222.651 142.635 222.759 143.245 222.974 143.739C223.193 144.232 223.498 144.605 223.889 144.857C224.28 145.109 224.733 145.235 225.246 145.235C225.535 145.235 225.802 145.197 226.047 145.121C226.295 145.045 226.516 144.933 226.708 144.788C226.9 144.638 227.059 144.458 227.185 144.246C227.315 144.034 227.404 143.792 227.454 143.52L229.631 143.53C229.575 143.997 229.434 144.448 229.209 144.882C228.987 145.313 228.687 145.699 228.309 146.04C227.934 146.379 227.487 146.647 226.967 146.846C226.45 147.041 225.865 147.139 225.212 147.139C224.304 147.139 223.492 146.934 222.776 146.523C222.063 146.112 221.5 145.517 221.085 144.738C220.674 143.959 220.469 143.016 220.469 141.909C220.469 140.799 220.678 139.854 221.095 139.075C221.513 138.296 222.08 137.703 222.795 137.295C223.511 136.884 224.317 136.679 225.212 136.679C225.802 136.679 226.349 136.762 226.852 136.928C227.359 137.093 227.809 137.335 228.2 137.653C228.591 137.968 228.909 138.354 229.154 138.812C229.403 139.269 229.562 139.793 229.631 140.383Z" fill="#DBEAFE"/>
<path d="M201 192L201 177" stroke="#3B82F6" stroke-width="2" stroke-linecap="round"/>
<path d="M193 185L201 193L209 185" stroke="#3B82F6" stroke-width="2" stroke-linecap="round" stroke-linejoin="round"/>
<rect x="185" y="78" width="32" height="32" rx="16" fill="#3B82F6" fill-opacity="0.2"/>
<circle cx="201" cy="94" r="4.5" fill="#BFDBFE" stroke="#3B82F6" stroke-width="3"/>
<defs>
<filter id="filter0_d_1_150" x="125" y="506" width="147" height="64" filterUnits="userSpaceOnUse" color-interpolation-filters="sRGB">
<feFlood flood-opacity="0" result="BackgroundImageFix"/>
<feColorMatrix in="SourceAlpha" type="matrix" values="0 0 0 0 0 0 0 0 0 0 0 0 0 0 0 0 0 0 127 0" result="hardAlpha"/>
<feOffset dx="-4" dy="4"/>
<feComposite in2="hardAlpha" operator="out"/>
<feColorMatrix type="matrix" values="0 0 0 0 0.376471 0 0 0 0 0.647059 0 0 0 0 0.980392 0 0 0 0.5 0"/>
<feBlend mode="normal" in2="BackgroundImageFix" result="effect1_dropShadow_1_150"/>
<feBlend mode="normal" in="SourceGraphic" in2="effect1_dropShadow_1_150" result="shape"/>
</filter>
<filter id="filter1_d_1_150" x="161" y="346" width="76" height="64" filterUnits="userSpaceOnUse" color-interpolation-filters="sRGB">
<feFlood flood-opacity="0" result="BackgroundImageFix"/>
<feColorMatrix in="SourceAlpha" type="matrix" values="0 0 0 0 0 0 0 0 0 0 0 0 0 0 0 0 0 0 127 0" result="hardAlpha"/>
<feOffset dx="-4" dy="4"/>
<feComposite in2="hardAlpha" operator="out"/>
<feColorMatrix type="matrix" values="0 0 0 0 0.376471 0 0 0 0 0.647059 0 0 0 0 0.980392 0 0 0 0.5 0"/>
<feBlend mode="normal" in2="BackgroundImageFix" result="effect1_dropShadow_1_150"/>
<feBlend mode="normal" in="SourceGraphic" in2="effect1_dropShadow_1_150" result="shape"/>
</filter>
<filter id="filter2_d_1_150" x="121" y="194" width="155" height="96" filterUnits="userSpaceOnUse" color-interpolation-filters="sRGB">
<feFlood flood-opacity="0" result="BackgroundImageFix"/>
<feColorMatrix in="SourceAlpha" type="matrix" values="0 0 0 0 0 0 0 0 0 0 0 0 0 0 0 0 0 0 127 0" result="hardAlpha"/>
<feOffset dx="-4" dy="4"/>
<feComposite in2="hardAlpha" operator="out"/>
<feColorMatrix type="matrix" values="0 0 0 0 0.376471 0 0 0 0 0.647059 0 0 0 0 0.980392 0 0 0 0.5 0"/>
<feBlend mode="normal" in2="BackgroundImageFix" result="effect1_dropShadow_1_150"/>
<feBlend mode="normal" in="SourceGraphic" in2="effect1_dropShadow_1_150" result="shape"/>
</filter>
<filter id="filter3_d_1_150" x="140" y="34" width="117" height="64" filterUnits="userSpaceOnUse" color-interpolation-filters="sRGB">
<feFlood flood-opacity="0" result="BackgroundImageFix"/>
<feColorMatrix in="SourceAlpha" type="matrix" values="0 0 0 0 0 0 0 0 0 0 0 0 0 0 0 0 0 0 127 0" result="hardAlpha"/>
<feOffset dx="-4" dy="4"/>
<feComposite in2="hardAlpha" operator="out"/>
<feColorMatrix type="matrix" values="0 0 0 0 0.376471 0 0 0 0 0.647059 0 0 0 0 0.980392 0 0 0 0.5 0"/>
<feBlend mode="normal" in2="BackgroundImageFix" result="effect1_dropShadow_1_150"/>
<feBlend mode="normal" in="SourceGraphic" in2="effect1_dropShadow_1_150" result="shape"/>
</filter>
<linearGradient id="paint0_linear_1_150" x1="200" y1="0" x2="200" y2="600" gradientUnits="userSpaceOnUse">
<stop stop-color="#BFDBFE"/>
<stop offset="1" stop-color="#93C5FD"/>
</linearGradient>
</defs>
</svg>
