<svg width="1216" height="400" viewBox="0 0 1216 400" fill="none" xmlns="http://www.w3.org/2000/svg">
<rect width="1216" height="400" rx="16" fill="url(#paint0_linear_6_34)"/>
<rect opacity="0.2" x="498" y="90" width="220" height="220" rx="110" fill="#1E3A8A"/>
<g filter="url(#filter0_d_6_34)">
<rect x="508" y="100" width="200" height="200" rx="100" fill="#BFDBFE"/>
</g>
<path d="M569.415 210V195.974H573.881V210H569.415ZM571.653 194.339C571.026 194.339 570.487 194.133 570.036 193.719C569.586 193.298 569.361 192.793 569.361 192.203C569.361 191.618 569.586 191.119 570.036 190.705C570.487 190.285 571.026 190.075 571.653 190.075C572.286 190.075 572.824 190.285 573.269 190.705C573.719 191.119 573.945 191.618 573.945 192.203C573.945 192.793 573.719 193.298 573.269 193.719C572.824 194.133 572.286 194.339 571.653 194.339Z" fill="#1E3A8A"/>
<path d="M581.831 202.001V210H577.366V195.974H581.612V198.549H581.767C582.078 197.691 582.607 197.018 583.356 196.531C584.105 196.038 584.997 195.791 586.032 195.791C587.018 195.791 587.873 196.014 588.597 196.458C589.328 196.896 589.894 197.511 590.296 198.303C590.704 199.088 590.905 200.007 590.899 201.06V210H586.433V201.937C586.439 201.158 586.242 200.549 585.84 200.111C585.444 199.672 584.893 199.453 584.187 199.453C583.718 199.453 583.304 199.557 582.945 199.764C582.592 199.964 582.318 200.254 582.123 200.631C581.935 201.009 581.837 201.465 581.831 202.001Z" fill="#1E3A8A"/>
<path d="M594.306 210V191.299H598.826V206.329H606.606V210H594.306Z" fill="#1E3A8A"/>
<path d="M609.589 210V195.974H614.054V210H609.589ZM611.826 194.339C611.199 194.339 610.66 194.133 610.21 193.719C609.759 193.298 609.534 192.793 609.534 192.203C609.534 191.618 609.759 191.119 610.21 190.705C610.66 190.285 611.199 190.075 611.826 190.075C612.459 190.075 612.998 190.285 613.442 190.705C613.893 191.119 614.118 191.618 614.118 192.203C614.118 192.793 613.893 193.298 613.442 193.719C612.998 194.133 612.459 194.339 611.826 194.339Z" fill="#1E3A8A"/>
<path d="M631.145 195.974L626.333 210H621.219L616.416 195.974H621.119L623.703 205.635H623.849L626.442 195.974H631.145Z" fill="#1E3A8A"/>
<path d="M639.605 210.265C638.137 210.265 636.871 209.976 635.806 209.397C634.747 208.813 633.931 207.982 633.359 206.904C632.793 205.821 632.509 204.533 632.509 203.042C632.509 201.593 632.796 200.327 633.368 199.243C633.94 198.153 634.747 197.307 635.788 196.705C636.829 196.096 638.055 195.791 639.468 195.791C640.466 195.791 641.379 195.947 642.207 196.257C643.035 196.568 643.75 197.027 644.353 197.636C644.956 198.245 645.424 198.997 645.759 199.891C646.094 200.78 646.261 201.8 646.261 202.95V204.065H634.071V201.471H642.107C642.101 200.996 641.988 200.573 641.769 200.202C641.55 199.831 641.248 199.541 640.865 199.334C640.487 199.121 640.052 199.015 639.559 199.015C639.06 199.015 638.612 199.127 638.217 199.353C637.821 199.572 637.507 199.873 637.276 200.257C637.045 200.634 636.923 201.063 636.911 201.544V204.183C636.911 204.755 637.023 205.258 637.249 205.69C637.474 206.116 637.794 206.448 638.207 206.685C638.621 206.923 639.115 207.041 639.687 207.041C640.082 207.041 640.442 206.987 640.764 206.877C641.087 206.767 641.364 206.606 641.595 206.393C641.827 206.18 642 205.918 642.116 205.608L646.216 205.726C646.045 206.646 645.671 207.446 645.093 208.128C644.52 208.804 643.769 209.33 642.837 209.708C641.906 210.079 640.828 210.265 639.605 210.265Z" fill="#1E3A8A"/>
<rect x="259" y="89" width="154" height="46" rx="23" fill="#BFDBFE"/>
<path opacity="0.8" d="M287.138 105.909H290.551L294.156 114.705H294.31L297.915 105.909H301.328V119H298.643V110.479H298.535L295.147 118.936H293.319L289.931 110.447H289.822V119H287.138V105.909ZM307.993 119.192C307.001 119.192 306.142 118.981 305.417 118.559C304.697 118.133 304.141 117.54 303.749 116.782C303.357 116.019 303.161 115.135 303.161 114.129C303.161 113.115 303.357 112.229 303.749 111.47C304.141 110.707 304.697 110.115 305.417 109.693C306.142 109.267 307.001 109.054 307.993 109.054C308.986 109.054 309.843 109.267 310.563 109.693C311.287 110.115 311.846 110.707 312.238 111.47C312.63 112.229 312.826 113.115 312.826 114.129C312.826 115.135 312.63 116.019 312.238 116.782C311.846 117.54 311.287 118.133 310.563 118.559C309.843 118.981 308.986 119.192 307.993 119.192ZM308.006 117.082C308.458 117.082 308.835 116.955 309.138 116.699C309.44 116.439 309.668 116.085 309.822 115.638C309.979 115.19 310.058 114.681 310.058 114.11C310.058 113.539 309.979 113.03 309.822 112.582C309.668 112.135 309.44 111.781 309.138 111.521C308.835 111.261 308.458 111.131 308.006 111.131C307.55 111.131 307.167 111.261 306.856 111.521C306.549 111.781 306.317 112.135 306.159 112.582C306.006 113.03 305.929 113.539 305.929 114.11C305.929 114.681 306.006 115.19 306.159 115.638C306.317 116.085 306.549 116.439 306.856 116.699C307.167 116.955 307.55 117.082 308.006 117.082ZM314.648 119V105.909H317.371V110.831H317.454C317.573 110.567 317.746 110.298 317.971 110.026C318.202 109.749 318.5 109.518 318.866 109.335C319.237 109.148 319.697 109.054 320.247 109.054C320.963 109.054 321.623 109.241 322.229 109.616C322.834 109.987 323.317 110.548 323.68 111.298C324.042 112.043 324.223 112.979 324.223 114.104C324.223 115.199 324.046 116.124 323.692 116.878C323.343 117.628 322.866 118.197 322.26 118.585C321.66 118.968 320.986 119.16 320.241 119.16C319.712 119.16 319.263 119.072 318.892 118.898C318.525 118.723 318.225 118.504 317.991 118.239C317.756 117.971 317.577 117.7 317.454 117.428H317.332V119H314.648ZM317.313 114.091C317.313 114.675 317.394 115.184 317.556 115.619C317.718 116.053 317.952 116.392 318.259 116.635C318.566 116.874 318.939 116.993 319.378 116.993C319.821 116.993 320.196 116.871 320.503 116.629C320.809 116.381 321.042 116.04 321.199 115.606C321.361 115.167 321.442 114.662 321.442 114.091C321.442 113.524 321.363 113.026 321.206 112.595C321.048 112.165 320.816 111.828 320.509 111.585C320.202 111.342 319.825 111.221 319.378 111.221C318.934 111.221 318.559 111.338 318.253 111.572C317.95 111.807 317.718 112.139 317.556 112.57C317.394 113 317.313 113.507 317.313 114.091ZM326.04 119V109.182H328.763V119H326.04ZM327.408 107.916C327.003 107.916 326.656 107.782 326.366 107.513C326.08 107.241 325.938 106.915 325.938 106.536C325.938 106.161 326.08 105.839 326.366 105.57C326.656 105.298 327.003 105.161 327.408 105.161C327.813 105.161 328.158 105.298 328.443 105.57C328.733 105.839 328.878 106.161 328.878 106.536C328.878 106.915 328.733 107.241 328.443 107.513C328.158 107.782 327.813 107.916 327.408 107.916ZM333.667 105.909V119H330.944V105.909H333.667ZM340.323 119.192C339.313 119.192 338.444 118.987 337.715 118.578C336.99 118.165 336.432 117.581 336.04 116.827C335.648 116.068 335.452 115.171 335.452 114.136C335.452 113.126 335.648 112.239 336.04 111.477C336.432 110.714 336.984 110.119 337.696 109.693C338.412 109.267 339.251 109.054 340.214 109.054C340.862 109.054 341.465 109.158 342.023 109.367C342.586 109.572 343.076 109.881 343.493 110.294C343.915 110.707 344.243 111.227 344.478 111.854C344.712 112.476 344.829 113.205 344.829 114.04V114.788H336.539V113.1H342.266C342.266 112.708 342.181 112.361 342.01 112.058C341.84 111.756 341.603 111.519 341.301 111.349C341.002 111.174 340.655 111.087 340.259 111.087C339.846 111.087 339.479 111.183 339.159 111.374C338.844 111.562 338.597 111.815 338.418 112.135C338.239 112.45 338.147 112.802 338.143 113.19V114.794C338.143 115.28 338.233 115.7 338.412 116.053C338.595 116.407 338.853 116.68 339.185 116.871C339.517 117.063 339.912 117.159 340.368 117.159C340.67 117.159 340.947 117.116 341.199 117.031C341.45 116.946 341.665 116.818 341.844 116.648C342.023 116.477 342.159 116.268 342.253 116.021L344.772 116.188C344.644 116.793 344.382 117.321 343.985 117.773C343.593 118.22 343.086 118.57 342.464 118.821C341.846 119.068 341.132 119.192 340.323 119.192ZM353.08 119H350.114L354.633 105.909H358.2L362.713 119H359.747L356.468 108.901H356.365L353.08 119ZM352.894 113.854H359.9V116.015H352.894V113.854ZM364.237 122.682V109.182H366.922V110.831H367.043C367.162 110.567 367.335 110.298 367.561 110.026C367.791 109.749 368.089 109.518 368.456 109.335C368.827 109.148 369.287 109.054 369.836 109.054C370.552 109.054 371.213 109.241 371.818 109.616C372.423 109.987 372.907 110.548 373.269 111.298C373.631 112.043 373.812 112.979 373.812 114.104C373.812 115.199 373.635 116.124 373.282 116.878C372.932 117.628 372.455 118.197 371.85 118.585C371.249 118.968 370.576 119.16 369.83 119.16C369.302 119.16 368.852 119.072 368.481 118.898C368.115 118.723 367.814 118.504 367.58 118.239C367.346 117.971 367.167 117.7 367.043 117.428H366.96V122.682H364.237ZM366.903 114.091C366.903 114.675 366.983 115.184 367.145 115.619C367.307 116.053 367.542 116.392 367.849 116.635C368.155 116.874 368.528 116.993 368.967 116.993C369.41 116.993 369.785 116.871 370.092 116.629C370.399 116.381 370.631 116.04 370.789 115.606C370.951 115.167 371.032 114.662 371.032 114.091C371.032 113.524 370.953 113.026 370.795 112.595C370.638 112.165 370.405 111.828 370.099 111.585C369.792 111.342 369.415 111.221 368.967 111.221C368.524 111.221 368.149 111.338 367.842 111.572C367.54 111.807 367.307 112.139 367.145 112.57C366.983 113 366.903 113.507 366.903 114.091ZM375.628 122.682V109.182H378.312V110.831H378.434C378.553 110.567 378.726 110.298 378.952 110.026C379.182 109.749 379.48 109.518 379.846 109.335C380.217 109.148 380.677 109.054 381.227 109.054C381.943 109.054 382.604 109.241 383.209 109.616C383.814 109.987 384.297 110.548 384.66 111.298C385.022 112.043 385.203 112.979 385.203 114.104C385.203 115.199 385.026 116.124 384.672 116.878C384.323 117.628 383.846 118.197 383.241 118.585C382.64 118.968 381.966 119.16 381.221 119.16C380.692 119.16 380.243 119.072 379.872 118.898C379.506 118.723 379.205 118.504 378.971 118.239C378.736 117.971 378.557 117.7 378.434 117.428H378.351V122.682H375.628ZM378.293 114.091C378.293 114.675 378.374 115.184 378.536 115.619C378.698 116.053 378.932 116.392 379.239 116.635C379.546 116.874 379.919 116.993 380.358 116.993C380.801 116.993 381.176 116.871 381.483 116.629C381.79 116.381 382.022 116.04 382.18 115.606C382.341 115.167 382.422 114.662 382.422 114.091C382.422 113.524 382.344 113.026 382.186 112.595C382.028 112.165 381.796 111.828 381.489 111.585C381.182 111.342 380.805 111.221 380.358 111.221C379.915 111.221 379.54 111.338 379.233 111.572C378.93 111.807 378.698 112.139 378.536 112.57C378.374 113 378.293 113.507 378.293 114.091Z" fill="#1E3A8A"/>
<rect x="259" y="89" width="154" height="46" rx="23" stroke="#92BEF4" stroke-width="6"/>
<rect x="294" y="265" width="135" height="46" rx="23" fill="#BFDBFE"/>
<path opacity="0.8" d="M325.085 295L321.339 281.909H324.362L326.529 291.005H326.638L329.028 281.909H331.617L334.001 291.024H334.116L336.283 281.909H339.307L335.561 295H332.864L330.371 286.441H330.268L327.782 295H325.085ZM344.157 295.192C343.147 295.192 342.278 294.987 341.549 294.578C340.824 294.165 340.266 293.581 339.874 292.827C339.482 292.068 339.286 291.171 339.286 290.136C339.286 289.126 339.482 288.239 339.874 287.477C340.266 286.714 340.818 286.119 341.53 285.693C342.246 285.267 343.085 285.054 344.048 285.054C344.696 285.054 345.299 285.158 345.857 285.367C346.42 285.572 346.91 285.881 347.327 286.294C347.749 286.707 348.077 287.227 348.312 287.854C348.546 288.476 348.663 289.205 348.663 290.04V290.788H340.373V289.1H346.1C346.1 288.708 346.015 288.361 345.844 288.058C345.674 287.756 345.437 287.519 345.135 287.349C344.836 287.174 344.489 287.087 344.093 287.087C343.68 287.087 343.313 287.183 342.993 287.374C342.678 287.562 342.431 287.815 342.252 288.135C342.073 288.45 341.981 288.802 341.977 289.19V290.794C341.977 291.28 342.067 291.7 342.246 292.053C342.429 292.407 342.687 292.68 343.019 292.871C343.351 293.063 343.746 293.159 344.202 293.159C344.504 293.159 344.781 293.116 345.032 293.031C345.284 292.946 345.499 292.818 345.678 292.648C345.857 292.477 345.993 292.268 346.087 292.021L348.606 292.188C348.478 292.793 348.216 293.321 347.819 293.773C347.427 294.22 346.92 294.57 346.298 294.821C345.68 295.068 344.966 295.192 344.157 295.192ZM350.491 295V281.909H353.214V286.831H353.297C353.417 286.567 353.589 286.298 353.815 286.026C354.045 285.749 354.344 285.518 354.71 285.335C355.081 285.148 355.541 285.054 356.091 285.054C356.807 285.054 357.467 285.241 358.072 285.616C358.677 285.987 359.161 286.548 359.523 287.298C359.885 288.043 360.067 288.979 360.067 290.104C360.067 291.199 359.89 292.124 359.536 292.878C359.187 293.628 358.709 294.197 358.104 294.585C357.503 294.968 356.83 295.16 356.084 295.16C355.556 295.16 355.106 295.072 354.736 294.898C354.369 294.723 354.069 294.504 353.834 294.239C353.6 293.971 353.421 293.7 353.297 293.428H353.176V295H350.491ZM353.157 290.091C353.157 290.675 353.238 291.184 353.4 291.619C353.562 292.053 353.796 292.392 354.103 292.635C354.41 292.874 354.782 292.993 355.221 292.993C355.665 292.993 356.04 292.871 356.346 292.629C356.653 292.381 356.885 292.04 357.043 291.606C357.205 291.167 357.286 290.662 357.286 290.091C357.286 289.524 357.207 289.026 357.05 288.595C356.892 288.165 356.66 287.828 356.353 287.585C356.046 287.342 355.669 287.221 355.221 287.221C354.778 287.221 354.403 287.338 354.096 287.572C353.794 287.807 353.562 288.139 353.4 288.57C353.238 289 353.157 289.507 353.157 290.091ZM368.357 295H365.391L369.91 281.909H373.477L377.99 295H375.024L371.745 284.901H371.643L368.357 295ZM368.172 289.854H375.177V292.015H368.172V289.854ZM379.514 298.682V285.182H382.199V286.831H382.32C382.44 286.567 382.612 286.298 382.838 286.026C383.068 285.749 383.367 285.518 383.733 285.335C384.104 285.148 384.564 285.054 385.114 285.054C385.83 285.054 386.49 285.241 387.095 285.616C387.7 285.987 388.184 286.548 388.546 287.298C388.909 288.043 389.09 288.979 389.09 290.104C389.09 291.199 388.913 292.124 388.559 292.878C388.21 293.628 387.732 294.197 387.127 294.585C386.526 294.968 385.853 295.16 385.107 295.16C384.579 295.16 384.129 295.072 383.759 294.898C383.392 294.723 383.092 294.504 382.857 294.239C382.623 293.971 382.444 293.7 382.32 293.428H382.237V298.682H379.514ZM382.18 290.091C382.18 290.675 382.261 291.184 382.423 291.619C382.585 292.053 382.819 292.392 383.126 292.635C383.433 292.874 383.806 292.993 384.244 292.993C384.688 292.993 385.063 292.871 385.369 292.629C385.676 292.381 385.909 292.04 386.066 291.606C386.228 291.167 386.309 290.662 386.309 290.091C386.309 289.524 386.23 289.026 386.073 288.595C385.915 288.165 385.683 287.828 385.376 287.585C385.069 287.342 384.692 287.221 384.244 287.221C383.801 287.221 383.426 287.338 383.119 287.572C382.817 287.807 382.585 288.139 382.423 288.57C382.261 289 382.18 289.507 382.18 290.091ZM390.905 298.682V285.182H393.59V286.831H393.711C393.83 286.567 394.003 286.298 394.229 286.026C394.459 285.749 394.757 285.518 395.124 285.335C395.494 285.148 395.955 285.054 396.504 285.054C397.22 285.054 397.881 285.241 398.486 285.616C399.091 285.987 399.575 286.548 399.937 287.298C400.299 288.043 400.48 288.979 400.48 290.104C400.48 291.199 400.303 292.124 399.95 292.878C399.6 293.628 399.123 294.197 398.518 294.585C397.917 294.968 397.244 295.16 396.498 295.16C395.97 295.16 395.52 295.072 395.149 294.898C394.783 294.723 394.482 294.504 394.248 294.239C394.014 293.971 393.835 293.7 393.711 293.428H393.628V298.682H390.905ZM393.57 290.091C393.57 290.675 393.651 291.184 393.813 291.619C393.975 292.053 394.21 292.392 394.517 292.635C394.823 292.874 395.196 292.993 395.635 292.993C396.078 292.993 396.453 292.871 396.76 292.629C397.067 292.381 397.299 292.04 397.457 291.606C397.619 291.167 397.7 290.662 397.7 290.091C397.7 289.524 397.621 289.026 397.463 288.595C397.306 288.165 397.073 287.828 396.767 287.585C396.46 287.342 396.083 287.221 395.635 287.221C395.192 287.221 394.817 287.338 394.51 287.572C394.208 287.807 393.975 288.139 393.813 288.57C393.651 289 393.57 289.507 393.57 290.091Z" fill="#1E3A8A"/>
<rect x="294" y="265" width="135" height="46" rx="23" stroke="#92BEF4" stroke-width="6"/>
<rect x="180" y="177" width="185" height="46" rx="23" fill="#BFDBFE"/>
<path opacity="0.8" d="M208.138 207V193.909H213.379C214.342 193.909 215.146 194.052 215.789 194.337C216.433 194.623 216.916 195.019 217.24 195.526C217.564 196.029 217.726 196.609 217.726 197.265C217.726 197.776 217.624 198.226 217.419 198.614C217.214 198.997 216.933 199.312 216.575 199.56C216.222 199.803 215.817 199.975 215.361 200.077V200.205C215.859 200.227 216.326 200.367 216.761 200.627C217.2 200.887 217.555 201.251 217.828 201.72C218.101 202.185 218.237 202.739 218.237 203.382C218.237 204.077 218.065 204.697 217.719 205.242C217.379 205.783 216.874 206.212 216.205 206.527C215.536 206.842 214.711 207 213.731 207H208.138ZM210.906 204.737H213.162C213.933 204.737 214.496 204.59 214.849 204.296C215.203 203.998 215.38 203.602 215.38 203.107C215.38 202.745 215.293 202.425 215.118 202.148C214.943 201.871 214.694 201.654 214.37 201.496C214.05 201.339 213.669 201.26 213.226 201.26H210.906V204.737ZM210.906 199.387H212.957C213.337 199.387 213.673 199.321 213.967 199.189C214.266 199.053 214.5 198.861 214.67 198.614C214.845 198.366 214.933 198.07 214.933 197.725C214.933 197.252 214.764 196.871 214.428 196.581C214.095 196.291 213.622 196.146 213.009 196.146H210.906V199.387ZM219.987 207V197.182H222.627V198.895H222.729C222.908 198.286 223.209 197.825 223.631 197.514C224.052 197.199 224.538 197.041 225.088 197.041C225.224 197.041 225.371 197.05 225.529 197.067C225.687 197.084 225.825 197.107 225.944 197.137V199.553C225.817 199.515 225.64 199.481 225.414 199.451C225.188 199.421 224.981 199.406 224.794 199.406C224.393 199.406 224.035 199.494 223.72 199.668C223.409 199.839 223.162 200.077 222.979 200.384C222.8 200.691 222.71 201.045 222.71 201.445V207H219.987ZM231.331 207.192C230.338 207.192 229.48 206.981 228.755 206.559C228.035 206.133 227.479 205.54 227.087 204.782C226.695 204.019 226.499 203.135 226.499 202.129C226.499 201.115 226.695 200.229 227.087 199.47C227.479 198.707 228.035 198.115 228.755 197.693C229.48 197.267 230.338 197.054 231.331 197.054C232.324 197.054 233.181 197.267 233.901 197.693C234.625 198.115 235.184 198.707 235.576 199.47C235.968 200.229 236.164 201.115 236.164 202.129C236.164 203.135 235.968 204.019 235.576 204.782C235.184 205.54 234.625 206.133 233.901 206.559C233.181 206.981 232.324 207.192 231.331 207.192ZM231.344 205.082C231.796 205.082 232.173 204.955 232.475 204.699C232.778 204.439 233.006 204.085 233.159 203.638C233.317 203.19 233.396 202.681 233.396 202.11C233.396 201.539 233.317 201.03 233.159 200.582C233.006 200.135 232.778 199.781 232.475 199.521C232.173 199.261 231.796 199.131 231.344 199.131C230.888 199.131 230.505 199.261 230.194 199.521C229.887 199.781 229.654 200.135 229.497 200.582C229.343 201.03 229.267 201.539 229.267 202.11C229.267 202.681 229.343 203.19 229.497 203.638C229.654 204.085 229.887 204.439 230.194 204.699C230.505 204.955 230.888 205.082 231.344 205.082ZM240.734 207.185C240.108 207.185 239.549 207.077 239.059 206.859C238.569 206.638 238.181 206.312 237.896 205.881C237.615 205.447 237.474 204.906 237.474 204.258C237.474 203.712 237.574 203.254 237.775 202.884C237.975 202.513 238.248 202.214 238.593 201.989C238.938 201.763 239.33 201.592 239.769 201.477C240.212 201.362 240.676 201.281 241.162 201.234C241.733 201.175 242.194 201.119 242.543 201.068C242.892 201.013 243.146 200.932 243.304 200.825C243.461 200.719 243.54 200.561 243.54 200.352V200.314C243.54 199.909 243.412 199.596 243.157 199.374C242.905 199.153 242.547 199.042 242.083 199.042C241.593 199.042 241.203 199.151 240.913 199.368C240.623 199.581 240.431 199.849 240.338 200.173L237.819 199.969C237.947 199.372 238.199 198.857 238.574 198.422C238.949 197.983 239.432 197.646 240.025 197.412C240.621 197.173 241.311 197.054 242.096 197.054C242.641 197.054 243.163 197.118 243.662 197.246C244.164 197.374 244.61 197.572 244.998 197.84C245.39 198.109 245.699 198.454 245.924 198.876C246.15 199.293 246.263 199.794 246.263 200.378V207H243.681V205.638H243.604C243.446 205.945 243.235 206.216 242.971 206.45C242.707 206.68 242.39 206.862 242.019 206.994C241.648 207.121 241.22 207.185 240.734 207.185ZM241.514 205.306C241.914 205.306 242.268 205.227 242.575 205.07C242.882 204.908 243.123 204.69 243.297 204.418C243.472 204.145 243.559 203.836 243.559 203.491V202.449C243.474 202.504 243.357 202.555 243.208 202.602C243.063 202.645 242.899 202.685 242.716 202.724C242.532 202.758 242.349 202.79 242.166 202.82C241.983 202.845 241.816 202.869 241.667 202.89C241.348 202.937 241.069 203.011 240.83 203.114C240.591 203.216 240.406 203.354 240.274 203.529C240.142 203.7 240.076 203.913 240.076 204.168C240.076 204.539 240.21 204.822 240.478 205.018C240.751 205.21 241.096 205.306 241.514 205.306ZM251.994 207.16C251.248 207.16 250.572 206.968 249.967 206.585C249.366 206.197 248.889 205.628 248.536 204.878C248.186 204.124 248.011 203.199 248.011 202.104C248.011 200.979 248.192 200.043 248.555 199.298C248.917 198.548 249.398 197.987 249.999 197.616C250.604 197.241 251.267 197.054 251.987 197.054C252.537 197.054 252.995 197.148 253.362 197.335C253.732 197.518 254.031 197.749 254.256 198.026C254.487 198.298 254.661 198.567 254.781 198.831H254.864V193.909H257.58V207H254.896V205.428H254.781C254.653 205.7 254.472 205.971 254.237 206.239C254.007 206.504 253.707 206.723 253.336 206.898C252.969 207.072 252.522 207.16 251.994 207.16ZM252.857 204.993C253.295 204.993 253.666 204.874 253.969 204.635C254.276 204.392 254.51 204.053 254.672 203.619C254.838 203.184 254.921 202.675 254.921 202.091C254.921 201.507 254.84 201 254.678 200.57C254.516 200.139 254.282 199.807 253.975 199.572C253.668 199.338 253.295 199.221 252.857 199.221C252.409 199.221 252.032 199.342 251.725 199.585C251.418 199.828 251.186 200.165 251.028 200.595C250.871 201.026 250.792 201.524 250.792 202.091C250.792 202.662 250.871 203.167 251.028 203.606C251.19 204.04 251.423 204.381 251.725 204.629C252.032 204.871 252.409 204.993 252.857 204.993ZM264.255 207.192C263.249 207.192 262.384 206.979 261.66 206.553C260.94 206.122 260.386 205.526 259.998 204.763C259.615 204 259.423 203.122 259.423 202.129C259.423 201.124 259.617 200.241 260.004 199.483C260.396 198.72 260.953 198.126 261.673 197.7C262.393 197.269 263.249 197.054 264.242 197.054C265.099 197.054 265.849 197.21 266.492 197.521C267.136 197.832 267.645 198.268 268.02 198.831C268.395 199.393 268.602 200.054 268.64 200.812H266.07C265.998 200.322 265.806 199.928 265.495 199.63C265.188 199.327 264.786 199.176 264.287 199.176C263.865 199.176 263.497 199.291 263.181 199.521C262.87 199.747 262.627 200.077 262.453 200.512C262.278 200.947 262.191 201.473 262.191 202.091C262.191 202.717 262.276 203.25 262.446 203.689C262.621 204.128 262.866 204.462 263.181 204.692C263.497 204.923 263.865 205.038 264.287 205.038C264.598 205.038 264.877 204.974 265.124 204.846C265.376 204.718 265.583 204.533 265.744 204.29C265.911 204.043 266.019 203.746 266.07 203.401H268.64C268.597 204.151 268.393 204.812 268.026 205.383C267.664 205.95 267.164 206.393 266.524 206.712C265.885 207.032 265.129 207.192 264.255 207.192ZM273.183 207.185C272.557 207.185 271.999 207.077 271.509 206.859C271.018 206.638 270.631 206.312 270.345 205.881C270.064 205.447 269.923 204.906 269.923 204.258C269.923 203.712 270.023 203.254 270.224 202.884C270.424 202.513 270.697 202.214 271.042 201.989C271.387 201.763 271.779 201.592 272.218 201.477C272.661 201.362 273.126 201.281 273.612 201.234C274.183 201.175 274.643 201.119 274.992 201.068C275.342 201.013 275.595 200.932 275.753 200.825C275.911 200.719 275.989 200.561 275.989 200.352V200.314C275.989 199.909 275.862 199.596 275.606 199.374C275.354 199.153 274.996 199.042 274.532 199.042C274.042 199.042 273.652 199.151 273.362 199.368C273.072 199.581 272.881 199.849 272.787 200.173L270.268 199.969C270.396 199.372 270.648 198.857 271.023 198.422C271.398 197.983 271.881 197.646 272.474 197.412C273.07 197.173 273.761 197.054 274.545 197.054C275.09 197.054 275.612 197.118 276.111 197.246C276.614 197.374 277.059 197.572 277.447 197.84C277.839 198.109 278.148 198.454 278.374 198.876C278.599 199.293 278.712 199.794 278.712 200.378V207H276.13V205.638H276.053C275.896 205.945 275.685 206.216 275.42 206.45C275.156 206.68 274.839 206.862 274.468 206.994C274.097 207.121 273.669 207.185 273.183 207.185ZM273.963 205.306C274.364 205.306 274.717 205.227 275.024 205.07C275.331 204.908 275.572 204.69 275.746 204.418C275.921 204.145 276.009 203.836 276.009 203.491V202.449C275.923 202.504 275.806 202.555 275.657 202.602C275.512 202.645 275.348 202.685 275.165 202.724C274.982 202.758 274.798 202.79 274.615 202.82C274.432 202.845 274.266 202.869 274.116 202.89C273.797 202.937 273.518 203.011 273.279 203.114C273.04 203.216 272.855 203.354 272.723 203.529C272.591 203.7 272.525 203.913 272.525 204.168C272.525 204.539 272.659 204.822 272.928 205.018C273.2 205.21 273.545 205.306 273.963 205.306ZM288.994 199.982L286.501 200.135C286.458 199.922 286.367 199.73 286.226 199.56C286.086 199.385 285.9 199.246 285.67 199.144C285.444 199.038 285.174 198.984 284.858 198.984C284.436 198.984 284.081 199.074 283.791 199.253C283.501 199.428 283.356 199.662 283.356 199.956C283.356 200.19 283.45 200.388 283.637 200.55C283.825 200.712 284.147 200.842 284.603 200.94L286.38 201.298C287.334 201.494 288.046 201.81 288.515 202.244C288.983 202.679 289.218 203.25 289.218 203.957C289.218 204.601 289.028 205.165 288.649 205.651C288.274 206.137 287.758 206.516 287.102 206.789C286.45 207.058 285.698 207.192 284.846 207.192C283.546 207.192 282.51 206.921 281.739 206.38C280.972 205.835 280.522 205.093 280.39 204.156L283.069 204.015C283.15 204.411 283.346 204.714 283.657 204.923C283.968 205.127 284.366 205.229 284.852 205.229C285.329 205.229 285.713 205.138 286.002 204.955C286.297 204.767 286.446 204.526 286.45 204.232C286.446 203.985 286.341 203.783 286.137 203.625C285.932 203.463 285.617 203.339 285.191 203.254L283.49 202.915C282.532 202.724 281.818 202.391 281.349 201.918C280.885 201.445 280.652 200.842 280.652 200.109C280.652 199.479 280.823 198.935 281.164 198.479C281.509 198.023 281.993 197.672 282.615 197.425C283.241 197.178 283.974 197.054 284.814 197.054C286.054 197.054 287.029 197.316 287.741 197.84C288.457 198.364 288.875 199.078 288.994 199.982ZM296.155 197.182V199.227H290.242V197.182H296.155ZM291.584 194.83H294.307V203.983C294.307 204.234 294.346 204.43 294.422 204.571C294.499 204.707 294.606 204.803 294.742 204.859C294.883 204.914 295.045 204.942 295.228 204.942C295.356 204.942 295.483 204.931 295.611 204.91C295.739 204.884 295.837 204.865 295.905 204.852L296.334 206.879C296.197 206.921 296.006 206.97 295.758 207.026C295.511 207.085 295.211 207.121 294.857 207.134C294.201 207.16 293.626 207.072 293.131 206.872C292.641 206.672 292.26 206.361 291.987 205.939C291.714 205.517 291.58 204.984 291.584 204.341V194.83ZM304.402 207H301.436L305.955 193.909H309.522L314.035 207H311.069L307.79 196.901H307.688L304.402 207ZM304.217 201.854H311.222V204.015H304.217V201.854ZM315.559 210.682V197.182H318.244V198.831H318.365C318.485 198.567 318.657 198.298 318.883 198.026C319.113 197.749 319.412 197.518 319.778 197.335C320.149 197.148 320.609 197.054 321.159 197.054C321.875 197.054 322.535 197.241 323.14 197.616C323.745 197.987 324.229 198.548 324.591 199.298C324.953 200.043 325.135 200.979 325.135 202.104C325.135 203.199 324.958 204.124 324.604 204.878C324.255 205.628 323.777 206.197 323.172 206.585C322.571 206.968 321.898 207.16 321.152 207.16C320.624 207.16 320.174 207.072 319.804 206.898C319.437 206.723 319.137 206.504 318.902 206.239C318.668 205.971 318.489 205.7 318.365 205.428H318.282V210.682H315.559ZM318.225 202.091C318.225 202.675 318.306 203.184 318.468 203.619C318.63 204.053 318.864 204.392 319.171 204.635C319.478 204.874 319.85 204.993 320.289 204.993C320.733 204.993 321.108 204.871 321.414 204.629C321.721 204.381 321.953 204.04 322.111 203.606C322.273 203.167 322.354 202.662 322.354 202.091C322.354 201.524 322.275 201.026 322.118 200.595C321.96 200.165 321.728 199.828 321.421 199.585C321.114 199.342 320.737 199.221 320.289 199.221C319.846 199.221 319.471 199.338 319.164 199.572C318.862 199.807 318.63 200.139 318.468 200.57C318.306 201 318.225 201.507 318.225 202.091ZM326.95 210.682V197.182H329.635V198.831H329.756C329.875 198.567 330.048 198.298 330.274 198.026C330.504 197.749 330.802 197.518 331.169 197.335C331.539 197.148 332 197.054 332.549 197.054C333.265 197.054 333.926 197.241 334.531 197.616C335.136 197.987 335.62 198.548 335.982 199.298C336.344 200.043 336.525 200.979 336.525 202.104C336.525 203.199 336.348 204.124 335.995 204.878C335.645 205.628 335.168 206.197 334.563 206.585C333.962 206.968 333.289 207.16 332.543 207.16C332.015 207.16 331.565 207.072 331.194 206.898C330.828 206.723 330.527 206.504 330.293 206.239C330.059 205.971 329.88 205.7 329.756 205.428H329.673V210.682H326.95ZM329.615 202.091C329.615 202.675 329.696 203.184 329.858 203.619C330.02 204.053 330.255 204.392 330.561 204.635C330.868 204.874 331.241 204.993 331.68 204.993C332.123 204.993 332.498 204.871 332.805 204.629C333.112 204.381 333.344 204.04 333.502 203.606C333.664 203.167 333.745 202.662 333.745 202.091C333.745 201.524 333.666 201.026 333.508 200.595C333.35 200.165 333.118 199.828 332.811 199.585C332.505 199.342 332.127 199.221 331.68 199.221C331.237 199.221 330.862 199.338 330.555 199.572C330.252 199.807 330.02 200.139 329.858 200.57C329.696 201 329.615 201.507 329.615 202.091Z" fill="#1E3A8A"/>
<rect x="180" y="177" width="185" height="46" rx="23" stroke="#92BEF4" stroke-width="6"/>
<rect x="803" y="89" width="127" height="46" rx="23" fill="#BFDBFE"/>
<path opacity="0.8" d="M834.085 119L830.339 105.909H833.362L835.529 115.005H835.638L838.028 105.909H840.617L843.001 115.024H843.116L845.283 105.909H848.307L844.561 119H841.864L839.371 110.441H839.268L836.782 119H834.085ZM853.157 119.192C852.147 119.192 851.278 118.987 850.549 118.578C849.824 118.165 849.266 117.581 848.874 116.827C848.482 116.068 848.286 115.171 848.286 114.136C848.286 113.126 848.482 112.239 848.874 111.477C849.266 110.714 849.818 110.119 850.53 109.693C851.246 109.267 852.085 109.054 853.048 109.054C853.696 109.054 854.299 109.158 854.857 109.367C855.42 109.572 855.91 109.881 856.327 110.294C856.749 110.707 857.077 111.227 857.312 111.854C857.546 112.476 857.663 113.205 857.663 114.04V114.788H849.373V113.1H855.1C855.1 112.708 855.015 112.361 854.844 112.058C854.674 111.756 854.437 111.519 854.135 111.349C853.836 111.174 853.489 111.087 853.093 111.087C852.68 111.087 852.313 111.183 851.993 111.374C851.678 111.562 851.431 111.815 851.252 112.135C851.073 112.45 850.981 112.802 850.977 113.19V114.794C850.977 115.28 851.067 115.7 851.246 116.053C851.429 116.407 851.687 116.68 852.019 116.871C852.351 117.063 852.746 117.159 853.202 117.159C853.504 117.159 853.781 117.116 854.032 117.031C854.284 116.946 854.499 116.818 854.678 116.648C854.857 116.477 854.993 116.268 855.087 116.021L857.606 116.188C857.478 116.793 857.216 117.321 856.819 117.773C856.427 118.22 855.92 118.57 855.298 118.821C854.68 119.068 853.966 119.192 853.157 119.192ZM859.491 119V105.909H862.214V110.831H862.297C862.417 110.567 862.589 110.298 862.815 110.026C863.045 109.749 863.344 109.518 863.71 109.335C864.081 109.148 864.541 109.054 865.091 109.054C865.807 109.054 866.467 109.241 867.072 109.616C867.677 109.987 868.161 110.548 868.523 111.298C868.885 112.043 869.067 112.979 869.067 114.104C869.067 115.199 868.89 116.124 868.536 116.878C868.187 117.628 867.709 118.197 867.104 118.585C866.503 118.968 865.83 119.16 865.084 119.16C864.556 119.16 864.106 119.072 863.736 118.898C863.369 118.723 863.069 118.504 862.834 118.239C862.6 117.971 862.421 117.7 862.297 117.428H862.176V119H859.491ZM862.157 114.091C862.157 114.675 862.238 115.184 862.4 115.619C862.562 116.053 862.796 116.392 863.103 116.635C863.41 116.874 863.782 116.993 864.221 116.993C864.665 116.993 865.04 116.871 865.346 116.629C865.653 116.381 865.885 116.04 866.043 115.606C866.205 115.167 866.286 114.662 866.286 114.091C866.286 113.524 866.207 113.026 866.05 112.595C865.892 112.165 865.66 111.828 865.353 111.585C865.046 111.342 864.669 111.221 864.221 111.221C863.778 111.221 863.403 111.338 863.096 111.572C862.794 111.807 862.562 112.139 862.4 112.57C862.238 113 862.157 113.507 862.157 114.091ZM879.053 111.982L876.56 112.135C876.517 111.922 876.425 111.73 876.285 111.56C876.144 111.385 875.959 111.246 875.729 111.144C875.503 111.038 875.232 110.984 874.917 110.984C874.495 110.984 874.139 111.074 873.849 111.253C873.56 111.428 873.415 111.662 873.415 111.956C873.415 112.19 873.509 112.388 873.696 112.55C873.884 112.712 874.205 112.842 874.661 112.94L876.438 113.298C877.393 113.494 878.104 113.81 878.573 114.244C879.042 114.679 879.276 115.25 879.276 115.957C879.276 116.601 879.087 117.165 878.707 117.651C878.332 118.137 877.817 118.516 877.161 118.789C876.509 119.058 875.756 119.192 874.904 119.192C873.604 119.192 872.569 118.921 871.798 118.38C871.031 117.835 870.581 117.093 870.449 116.156L873.127 116.015C873.208 116.411 873.404 116.714 873.715 116.923C874.026 117.127 874.425 117.229 874.911 117.229C875.388 117.229 875.771 117.138 876.061 116.955C876.355 116.767 876.504 116.526 876.509 116.232C876.504 115.985 876.4 115.783 876.195 115.625C875.991 115.463 875.675 115.339 875.249 115.254L873.549 114.915C872.59 114.724 871.876 114.391 871.408 113.918C870.943 113.445 870.711 112.842 870.711 112.109C870.711 111.479 870.881 110.935 871.222 110.479C871.567 110.023 872.051 109.672 872.673 109.425C873.3 109.178 874.033 109.054 874.872 109.054C876.112 109.054 877.088 109.316 877.8 109.84C878.516 110.364 878.933 111.078 879.053 111.982ZM880.991 119V109.182H883.714V119H880.991ZM882.359 107.916C881.954 107.916 881.607 107.782 881.317 107.513C881.031 107.241 880.889 106.915 880.889 106.536C880.889 106.161 881.031 105.839 881.317 105.57C881.607 105.298 881.954 105.161 882.359 105.161C882.764 105.161 883.109 105.298 883.394 105.57C883.684 105.839 883.829 106.161 883.829 106.536C883.829 106.915 883.684 107.241 883.394 107.513C883.109 107.782 882.764 107.916 882.359 107.916ZM891.118 109.182V111.227H885.205V109.182H891.118ZM886.547 106.83H889.27V115.983C889.27 116.234 889.309 116.43 889.385 116.571C889.462 116.707 889.569 116.803 889.705 116.859C889.846 116.914 890.007 116.942 890.191 116.942C890.319 116.942 890.446 116.931 890.574 116.91C890.702 116.884 890.8 116.865 890.868 116.852L891.297 118.879C891.16 118.921 890.968 118.97 890.721 119.026C890.474 119.085 890.174 119.121 889.82 119.134C889.164 119.16 888.588 119.072 888.094 118.872C887.604 118.672 887.223 118.361 886.95 117.939C886.677 117.517 886.543 116.984 886.547 116.341V106.83ZM897.26 119.192C896.25 119.192 895.381 118.987 894.652 118.578C893.928 118.165 893.37 117.581 892.978 116.827C892.586 116.068 892.39 115.171 892.39 114.136C892.39 113.126 892.586 112.239 892.978 111.477C893.37 110.714 893.922 110.119 894.633 109.693C895.349 109.267 896.189 109.054 897.152 109.054C897.799 109.054 898.402 109.158 898.961 109.367C899.523 109.572 900.013 109.881 900.431 110.294C900.853 110.707 901.181 111.227 901.415 111.854C901.65 112.476 901.767 113.205 901.767 114.04V114.788H893.476V113.1H899.203C899.203 112.708 899.118 112.361 898.948 112.058C898.777 111.756 898.541 111.519 898.238 111.349C897.94 111.174 897.593 111.087 897.196 111.087C896.783 111.087 896.417 111.183 896.097 111.374C895.782 111.562 895.534 111.815 895.355 112.135C895.176 112.45 895.085 112.802 895.081 113.19V114.794C895.081 115.28 895.17 115.7 895.349 116.053C895.532 116.407 895.79 116.68 896.123 116.871C896.455 117.063 896.849 117.159 897.305 117.159C897.608 117.159 897.885 117.116 898.136 117.031C898.387 116.946 898.603 116.818 898.782 116.648C898.961 116.477 899.097 116.268 899.191 116.021L901.709 116.188C901.581 116.793 901.319 117.321 900.923 117.773C900.531 118.22 900.024 118.57 899.402 118.821C898.784 119.068 898.07 119.192 897.26 119.192Z" fill="#1E3A8A"/>
<rect x="803" y="89" width="127" height="46" rx="23" stroke="#92BEF4" stroke-width="6"/>
<path d="M703.5 156.5L803 121" stroke="url(#paint1_linear_6_34)" stroke-width="6" stroke-linecap="round"/>
<rect x="851" y="177" width="186" height="46" rx="23" fill="#BFDBFE"/>
<path opacity="0.8" d="M881.503 193.909L884.667 203.855H884.788L887.959 193.909H891.027L886.514 207H882.947L878.428 193.909H881.503ZM892.551 207V197.182H895.275V207H892.551ZM893.919 195.916C893.515 195.916 893.167 195.782 892.877 195.513C892.592 195.241 892.449 194.915 892.449 194.536C892.449 194.161 892.592 193.839 892.877 193.57C893.167 193.298 893.515 193.161 893.919 193.161C894.324 193.161 894.669 193.298 894.955 193.57C895.245 193.839 895.39 194.161 895.39 194.536C895.39 194.915 895.245 195.241 894.955 195.513C894.669 195.782 894.324 195.916 893.919 195.916ZM901.074 207.16C900.328 207.16 899.653 206.968 899.047 206.585C898.447 206.197 897.969 205.628 897.616 204.878C897.266 204.124 897.091 203.199 897.091 202.104C897.091 200.979 897.273 200.043 897.635 199.298C897.997 198.548 898.479 197.987 899.079 197.616C899.684 197.241 900.347 197.054 901.067 197.054C901.617 197.054 902.075 197.148 902.442 197.335C902.812 197.518 903.111 197.749 903.336 198.026C903.567 198.298 903.741 198.567 903.861 198.831H903.944V193.909H906.66V207H903.976V205.428H903.861C903.733 205.7 903.552 205.971 903.317 206.239C903.087 206.504 902.787 206.723 902.416 206.898C902.05 207.072 901.602 207.16 901.074 207.16ZM901.937 204.993C902.376 204.993 902.746 204.874 903.049 204.635C903.356 204.392 903.59 204.053 903.752 203.619C903.918 203.184 904.001 202.675 904.001 202.091C904.001 201.507 903.92 201 903.758 200.57C903.596 200.139 903.362 199.807 903.055 199.572C902.748 199.338 902.376 199.221 901.937 199.221C901.489 199.221 901.112 199.342 900.805 199.585C900.498 199.828 900.266 200.165 900.108 200.595C899.951 201.026 899.872 201.524 899.872 202.091C899.872 202.662 899.951 203.167 900.108 203.606C900.27 204.04 900.503 204.381 900.805 204.629C901.112 204.871 901.489 204.993 901.937 204.993ZM913.374 207.192C912.364 207.192 911.494 206.987 910.766 206.578C910.041 206.165 909.483 205.581 909.091 204.827C908.699 204.068 908.503 203.171 908.503 202.136C908.503 201.126 908.699 200.239 909.091 199.477C909.483 198.714 910.035 198.119 910.746 197.693C911.462 197.267 912.302 197.054 913.265 197.054C913.913 197.054 914.516 197.158 915.074 197.367C915.636 197.572 916.126 197.881 916.544 198.294C916.966 198.707 917.294 199.227 917.528 199.854C917.763 200.476 917.88 201.205 917.88 202.04V202.788H909.589V201.1H915.317C915.317 200.708 915.232 200.361 915.061 200.058C914.891 199.756 914.654 199.519 914.352 199.349C914.053 199.174 913.706 199.087 913.31 199.087C912.896 199.087 912.53 199.183 912.21 199.374C911.895 199.562 911.648 199.815 911.469 200.135C911.29 200.45 911.198 200.802 911.194 201.19V202.794C911.194 203.28 911.283 203.7 911.462 204.053C911.646 204.407 911.903 204.68 912.236 204.871C912.568 205.063 912.962 205.159 913.418 205.159C913.721 205.159 913.998 205.116 914.249 205.031C914.501 204.946 914.716 204.818 914.895 204.648C915.074 204.477 915.21 204.268 915.304 204.021L917.822 204.188C917.695 204.793 917.433 205.321 917.036 205.773C916.644 206.22 916.137 206.57 915.515 206.821C914.897 207.068 914.183 207.192 913.374 207.192ZM924.093 207.192C923.1 207.192 922.241 206.981 921.517 206.559C920.797 206.133 920.241 205.54 919.849 204.782C919.457 204.019 919.261 203.135 919.261 202.129C919.261 201.115 919.457 200.229 919.849 199.47C920.241 198.707 920.797 198.115 921.517 197.693C922.241 197.267 923.1 197.054 924.093 197.054C925.086 197.054 925.942 197.267 926.663 197.693C927.387 198.115 927.945 198.707 928.337 199.47C928.729 200.229 928.925 201.115 928.925 202.129C928.925 203.135 928.729 204.019 928.337 204.782C927.945 205.54 927.387 206.133 926.663 206.559C925.942 206.981 925.086 207.192 924.093 207.192ZM924.106 205.082C924.558 205.082 924.935 204.955 925.237 204.699C925.54 204.439 925.768 204.085 925.921 203.638C926.079 203.19 926.158 202.681 926.158 202.11C926.158 201.539 926.079 201.03 925.921 200.582C925.768 200.135 925.54 199.781 925.237 199.521C924.935 199.261 924.558 199.131 924.106 199.131C923.65 199.131 923.266 199.261 922.955 199.521C922.648 199.781 922.416 200.135 922.259 200.582C922.105 201.03 922.028 201.539 922.028 202.11C922.028 202.681 922.105 203.19 922.259 203.638C922.416 204.085 922.648 204.439 922.955 204.699C923.266 204.955 923.65 205.082 924.106 205.082ZM934.913 207V193.909H940.078C941.071 193.909 941.917 194.099 942.616 194.478C943.314 194.853 943.847 195.375 944.214 196.044C944.584 196.709 944.77 197.476 944.77 198.345C944.77 199.214 944.582 199.982 944.207 200.646C943.832 201.311 943.289 201.829 942.577 202.2C941.87 202.57 941.013 202.756 940.008 202.756H936.716V200.538H939.56C940.093 200.538 940.532 200.446 940.877 200.263C941.226 200.075 941.486 199.817 941.657 199.489C941.831 199.157 941.919 198.776 941.919 198.345C941.919 197.911 941.831 197.531 941.657 197.207C941.486 196.879 941.226 196.626 940.877 196.447C940.528 196.263 940.084 196.172 939.547 196.172H937.681V207H934.913ZM949.239 193.909V207H946.516V193.909H949.239ZM954.22 207.185C953.594 207.185 953.036 207.077 952.546 206.859C952.056 206.638 951.668 206.312 951.382 205.881C951.101 205.447 950.96 204.906 950.96 204.258C950.96 203.712 951.061 203.254 951.261 202.884C951.461 202.513 951.734 202.214 952.079 201.989C952.424 201.763 952.816 201.592 953.255 201.477C953.698 201.362 954.163 201.281 954.649 201.234C955.22 201.175 955.68 201.119 956.029 201.068C956.379 201.013 956.632 200.932 956.79 200.825C956.948 200.719 957.026 200.561 957.026 200.352V200.314C957.026 199.909 956.899 199.596 956.643 199.374C956.392 199.153 956.034 199.042 955.569 199.042C955.079 199.042 954.689 199.151 954.399 199.368C954.11 199.581 953.918 199.849 953.824 200.173L951.306 199.969C951.433 199.372 951.685 198.857 952.06 198.422C952.435 197.983 952.919 197.646 953.511 197.412C954.107 197.173 954.798 197.054 955.582 197.054C956.127 197.054 956.649 197.118 957.148 197.246C957.651 197.374 958.096 197.572 958.484 197.84C958.876 198.109 959.185 198.454 959.411 198.876C959.637 199.293 959.749 199.794 959.749 200.378V207H957.167V205.638H957.09C956.933 205.945 956.722 206.216 956.458 206.45C956.193 206.68 955.876 206.862 955.505 206.994C955.134 207.121 954.706 207.185 954.22 207.185ZM955 205.306C955.401 205.306 955.754 205.227 956.061 205.07C956.368 204.908 956.609 204.69 956.784 204.418C956.958 204.145 957.046 203.836 957.046 203.491V202.449C956.96 202.504 956.843 202.555 956.694 202.602C956.549 202.645 956.385 202.685 956.202 202.724C956.019 202.758 955.835 202.79 955.652 202.82C955.469 202.845 955.303 202.869 955.154 202.89C954.834 202.937 954.555 203.011 954.316 203.114C954.078 203.216 953.892 203.354 953.76 203.529C953.628 203.7 953.562 203.913 953.562 204.168C953.562 204.539 953.696 204.822 953.965 205.018C954.237 205.21 954.583 205.306 955 205.306ZM967.084 197.182V199.227H961.172V197.182H967.084ZM962.514 194.83H965.237V203.983C965.237 204.234 965.275 204.43 965.352 204.571C965.429 204.707 965.535 204.803 965.672 204.859C965.812 204.914 965.974 204.942 966.157 204.942C966.285 204.942 966.413 204.931 966.541 204.91C966.669 204.884 966.767 204.865 966.835 204.852L967.263 206.879C967.127 206.921 966.935 206.97 966.688 207.026C966.441 207.085 966.14 207.121 965.787 207.134C965.131 207.16 964.555 207.072 964.061 206.872C963.571 206.672 963.189 206.361 962.917 205.939C962.644 205.517 962.51 204.984 962.514 204.341V194.83ZM974.138 197.182V199.227H968.078V197.182H974.138ZM969.465 207V196.472C969.465 195.761 969.604 195.17 969.881 194.702C970.162 194.233 970.546 193.881 971.031 193.647C971.517 193.413 972.069 193.295 972.687 193.295C973.105 193.295 973.486 193.327 973.831 193.391C974.181 193.455 974.441 193.513 974.611 193.564L974.125 195.609C974.019 195.575 973.887 195.543 973.729 195.513C973.575 195.484 973.418 195.469 973.256 195.469C972.855 195.469 972.576 195.562 972.419 195.75C972.261 195.933 972.182 196.191 972.182 196.523V207H969.465ZM979.886 207.192C978.893 207.192 978.034 206.981 977.31 206.559C976.59 206.133 976.034 205.54 975.642 204.782C975.25 204.019 975.054 203.135 975.054 202.129C975.054 201.115 975.25 200.229 975.642 199.47C976.034 198.707 976.59 198.115 977.31 197.693C978.034 197.267 978.893 197.054 979.886 197.054C980.879 197.054 981.735 197.267 982.456 197.693C983.18 198.115 983.738 198.707 984.13 199.47C984.522 200.229 984.718 201.115 984.718 202.129C984.718 203.135 984.522 204.019 984.13 204.782C983.738 205.54 983.18 206.133 982.456 206.559C981.735 206.981 980.879 207.192 979.886 207.192ZM979.899 205.082C980.35 205.082 980.728 204.955 981.03 204.699C981.333 204.439 981.561 204.085 981.714 203.638C981.872 203.19 981.951 202.681 981.951 202.11C981.951 201.539 981.872 201.03 981.714 200.582C981.561 200.135 981.333 199.781 981.03 199.521C980.728 199.261 980.35 199.131 979.899 199.131C979.443 199.131 979.059 199.261 978.748 199.521C978.441 199.781 978.209 200.135 978.051 200.582C977.898 201.03 977.821 201.539 977.821 202.11C977.821 202.681 977.898 203.19 978.051 203.638C978.209 204.085 978.441 204.439 978.748 204.699C979.059 204.955 979.443 205.082 979.899 205.082ZM986.489 207V197.182H989.129V198.895H989.231C989.41 198.286 989.711 197.825 990.132 197.514C990.554 197.199 991.04 197.041 991.59 197.041C991.726 197.041 991.873 197.05 992.031 197.067C992.189 197.084 992.327 197.107 992.446 197.137V199.553C992.319 199.515 992.142 199.481 991.916 199.451C991.69 199.421 991.483 199.406 991.296 199.406C990.895 199.406 990.537 199.494 990.222 199.668C989.911 199.839 989.664 200.077 989.48 200.384C989.301 200.691 989.212 201.045 989.212 201.445V207H986.489ZM993.854 207V197.182H996.449V198.914H996.564C996.769 198.339 997.11 197.885 997.587 197.553C998.064 197.22 998.635 197.054 999.3 197.054C999.974 197.054 1000.55 197.222 1001.02 197.559C1001.49 197.891 1001.81 198.343 1001.97 198.914H1002.07C1002.27 198.352 1002.63 197.902 1003.15 197.565C1003.68 197.224 1004.31 197.054 1005.03 197.054C1005.94 197.054 1006.69 197.346 1007.26 197.93C1007.83 198.509 1008.12 199.332 1008.12 200.397V207H1005.4V200.934C1005.4 200.388 1005.26 199.979 1004.97 199.707C1004.68 199.434 1004.32 199.298 1003.88 199.298C1003.39 199.298 1003 199.455 1002.73 199.771C1002.45 200.082 1002.31 200.493 1002.31 201.004V207H999.671V200.876C999.671 200.395 999.532 200.011 999.256 199.726C998.983 199.44 998.623 199.298 998.175 199.298C997.873 199.298 997.6 199.374 997.357 199.528C997.118 199.677 996.929 199.888 996.788 200.161C996.648 200.429 996.577 200.744 996.577 201.107V207H993.854Z" fill="#1E3A8A"/>
<rect x="851" y="177" width="186" height="46" rx="23" stroke="#92BEF4" stroke-width="6"/>
<path d="M715 200H850" stroke="url(#paint2_linear_6_34)" stroke-width="6" stroke-linecap="round"/>
<rect x="787" y="265" width="166" height="46" rx="23" fill="#BFDBFE"/>
<path opacity="0.8" d="M822.239 285.674C822.188 285.158 821.969 284.758 821.581 284.472C821.193 284.187 820.667 284.044 820.002 284.044C819.55 284.044 819.169 284.108 818.858 284.236C818.547 284.359 818.308 284.532 818.142 284.754C817.98 284.975 817.899 285.227 817.899 285.508C817.891 285.742 817.94 285.947 818.046 286.121C818.157 286.296 818.308 286.447 818.5 286.575C818.692 286.699 818.913 286.808 819.165 286.901C819.416 286.991 819.685 287.067 819.97 287.131L821.146 287.413C821.717 287.54 822.241 287.711 822.719 287.924C823.196 288.137 823.609 288.399 823.959 288.71C824.308 289.021 824.579 289.388 824.771 289.81C824.967 290.232 825.067 290.715 825.071 291.261C825.067 292.062 824.862 292.756 824.457 293.344C824.057 293.928 823.477 294.382 822.719 294.706C821.964 295.026 821.055 295.185 819.989 295.185C818.933 295.185 818.012 295.023 817.228 294.7C816.448 294.376 815.839 293.896 815.4 293.261C814.965 292.622 814.737 291.832 814.716 290.89H817.394C817.424 291.329 817.55 291.695 817.771 291.989C817.997 292.279 818.298 292.499 818.673 292.648C819.052 292.793 819.48 292.865 819.957 292.865C820.426 292.865 820.833 292.797 821.178 292.661C821.528 292.524 821.798 292.335 821.99 292.092C822.182 291.849 822.278 291.57 822.278 291.254C822.278 290.96 822.19 290.713 822.016 290.513C821.845 290.312 821.594 290.142 821.261 290.001C820.933 289.861 820.531 289.733 820.053 289.618L818.628 289.26C817.524 288.991 816.653 288.572 816.013 288.001C815.374 287.43 815.057 286.661 815.061 285.693C815.057 284.901 815.268 284.208 815.694 283.616C816.124 283.023 816.714 282.561 817.464 282.229C818.214 281.896 819.067 281.73 820.021 281.73C820.993 281.73 821.841 281.896 822.565 282.229C823.294 282.561 823.861 283.023 824.266 283.616C824.67 284.208 824.879 284.894 824.892 285.674H822.239ZM831.318 295.192C830.325 295.192 829.466 294.981 828.742 294.559C828.021 294.133 827.465 293.54 827.073 292.782C826.681 292.019 826.485 291.135 826.485 290.129C826.485 289.115 826.681 288.229 827.073 287.47C827.465 286.707 828.021 286.115 828.742 285.693C829.466 285.267 830.325 285.054 831.318 285.054C832.311 285.054 833.167 285.267 833.887 285.693C834.612 286.115 835.17 286.707 835.562 287.47C835.954 288.229 836.15 289.115 836.15 290.129C836.15 291.135 835.954 292.019 835.562 292.782C835.17 293.54 834.612 294.133 833.887 294.559C833.167 294.981 832.311 295.192 831.318 295.192ZM831.33 293.082C831.782 293.082 832.159 292.955 832.462 292.699C832.764 292.439 832.992 292.085 833.146 291.638C833.303 291.19 833.382 290.681 833.382 290.11C833.382 289.539 833.303 289.03 833.146 288.582C832.992 288.135 832.764 287.781 832.462 287.521C832.159 287.261 831.782 287.131 831.33 287.131C830.874 287.131 830.491 287.261 830.18 287.521C829.873 287.781 829.641 288.135 829.483 288.582C829.33 289.03 829.253 289.539 829.253 290.11C829.253 290.681 829.33 291.19 829.483 291.638C829.641 292.085 829.873 292.439 830.18 292.699C830.491 292.955 830.874 293.082 831.33 293.082ZM842.357 295.192C841.351 295.192 840.486 294.979 839.762 294.553C839.041 294.122 838.487 293.526 838.1 292.763C837.716 292 837.524 291.122 837.524 290.129C837.524 289.124 837.718 288.241 838.106 287.483C838.498 286.72 839.054 286.126 839.774 285.7C840.494 285.269 841.351 285.054 842.344 285.054C843.2 285.054 843.95 285.21 844.594 285.521C845.237 285.832 845.747 286.268 846.122 286.831C846.497 287.393 846.703 288.054 846.742 288.812H844.172C844.1 288.322 843.908 287.928 843.597 287.63C843.29 287.327 842.887 287.176 842.389 287.176C841.967 287.176 841.598 287.291 841.283 287.521C840.972 287.747 840.729 288.077 840.554 288.512C840.379 288.947 840.292 289.473 840.292 290.091C840.292 290.717 840.377 291.25 840.548 291.689C840.722 292.128 840.968 292.462 841.283 292.692C841.598 292.923 841.967 293.038 842.389 293.038C842.7 293.038 842.979 292.974 843.226 292.846C843.477 292.718 843.684 292.533 843.846 292.29C844.012 292.043 844.121 291.746 844.172 291.401H846.742C846.699 292.151 846.494 292.812 846.128 293.383C845.766 293.95 845.265 294.393 844.626 294.712C843.987 295.032 843.23 295.192 842.357 295.192ZM848.485 295V285.182H851.208V295H848.485ZM849.853 283.916C849.448 283.916 849.101 283.782 848.811 283.513C848.526 283.241 848.383 282.915 848.383 282.536C848.383 282.161 848.526 281.839 848.811 281.57C849.101 281.298 849.448 281.161 849.853 281.161C850.258 281.161 850.603 281.298 850.888 281.57C851.178 281.839 851.323 282.161 851.323 282.536C851.323 282.915 851.178 283.241 850.888 283.513C850.603 283.782 850.258 283.916 849.853 283.916ZM856.189 295.185C855.563 295.185 855.004 295.077 854.514 294.859C854.024 294.638 853.637 294.312 853.351 293.881C853.07 293.447 852.929 292.906 852.929 292.258C852.929 291.712 853.029 291.254 853.23 290.884C853.43 290.513 853.703 290.214 854.048 289.989C854.393 289.763 854.785 289.592 855.224 289.477C855.667 289.362 856.132 289.281 856.617 289.234C857.188 289.175 857.649 289.119 857.998 289.068C858.347 289.013 858.601 288.932 858.759 288.825C858.916 288.719 858.995 288.561 858.995 288.352V288.314C858.995 287.909 858.867 287.596 858.612 287.374C858.36 287.153 858.002 287.042 857.538 287.042C857.048 287.042 856.658 287.151 856.368 287.368C856.078 287.581 855.887 287.849 855.793 288.173L853.274 287.969C853.402 287.372 853.654 286.857 854.029 286.422C854.404 285.983 854.887 285.646 855.48 285.412C856.076 285.173 856.767 285.054 857.551 285.054C858.096 285.054 858.618 285.118 859.117 285.246C859.619 285.374 860.065 285.572 860.453 285.84C860.845 286.109 861.154 286.454 861.379 286.876C861.605 287.293 861.718 287.794 861.718 288.378V295H859.136V293.638H859.059C858.901 293.945 858.691 294.216 858.426 294.45C858.162 294.68 857.845 294.862 857.474 294.994C857.103 295.121 856.675 295.185 856.189 295.185ZM856.969 293.306C857.369 293.306 857.723 293.227 858.03 293.07C858.337 292.908 858.578 292.69 858.752 292.418C858.927 292.145 859.014 291.836 859.014 291.491V290.449C858.929 290.504 858.812 290.555 858.663 290.602C858.518 290.645 858.354 290.685 858.171 290.724C857.987 290.758 857.804 290.79 857.621 290.82C857.438 290.845 857.271 290.869 857.122 290.89C856.803 290.937 856.524 291.011 856.285 291.114C856.046 291.216 855.861 291.354 855.729 291.529C855.597 291.7 855.531 291.913 855.531 292.168C855.531 292.539 855.665 292.822 855.933 293.018C856.206 293.21 856.551 293.306 856.969 293.306ZM866.554 281.909V295H863.831V281.909H866.554ZM872.952 281.909H876.366L879.971 290.705H880.124L883.729 281.909H887.143V295H884.458V286.479H884.349L880.961 294.936H879.133L875.746 286.447H875.637V295H872.952V281.909ZM893.846 295.192C892.836 295.192 891.967 294.987 891.238 294.578C890.514 294.165 889.956 293.581 889.564 292.827C889.172 292.068 888.975 291.171 888.975 290.136C888.975 289.126 889.172 288.239 889.564 287.477C889.956 286.714 890.507 286.119 891.219 285.693C891.935 285.267 892.775 285.054 893.738 285.054C894.385 285.054 894.988 285.158 895.547 285.367C896.109 285.572 896.599 285.881 897.017 286.294C897.439 286.707 897.767 287.227 898.001 287.854C898.235 288.476 898.353 289.205 898.353 290.04V290.788H890.062V289.1H895.789C895.789 288.708 895.704 288.361 895.534 288.058C895.363 287.756 895.127 287.519 894.824 287.349C894.526 287.174 894.179 287.087 893.782 287.087C893.369 287.087 893.002 287.183 892.683 287.374C892.368 287.562 892.12 287.815 891.941 288.135C891.762 288.45 891.671 288.802 891.667 289.19V290.794C891.667 291.28 891.756 291.7 891.935 292.053C892.118 292.407 892.376 292.68 892.708 292.871C893.041 293.063 893.435 293.159 893.891 293.159C894.194 293.159 894.471 293.116 894.722 293.031C894.973 292.946 895.189 292.818 895.368 292.648C895.547 292.477 895.683 292.268 895.777 292.021L898.295 292.188C898.167 292.793 897.905 293.321 897.509 293.773C897.117 294.22 896.61 294.57 895.988 294.821C895.37 295.068 894.656 295.192 893.846 295.192ZM903.748 295.16C903.002 295.16 902.326 294.968 901.721 294.585C901.12 294.197 900.643 293.628 900.289 292.878C899.94 292.124 899.765 291.199 899.765 290.104C899.765 288.979 899.946 288.043 900.309 287.298C900.671 286.548 901.152 285.987 901.753 285.616C902.358 285.241 903.021 285.054 903.741 285.054C904.291 285.054 904.749 285.148 905.115 285.335C905.486 285.518 905.784 285.749 906.01 286.026C906.24 286.298 906.415 286.567 906.534 286.831H906.618V281.909H909.334V295H906.65V293.428H906.534C906.407 293.7 906.225 293.971 905.991 294.239C905.761 294.504 905.461 294.723 905.09 294.898C904.723 295.072 904.276 295.16 903.748 295.16ZM904.61 292.993C905.049 292.993 905.42 292.874 905.723 292.635C906.029 292.392 906.264 292.053 906.426 291.619C906.592 291.184 906.675 290.675 906.675 290.091C906.675 289.507 906.594 289 906.432 288.57C906.27 288.139 906.036 287.807 905.729 287.572C905.422 287.338 905.049 287.221 904.61 287.221C904.163 287.221 903.786 287.342 903.479 287.585C903.172 287.828 902.94 288.165 902.782 288.595C902.625 289.026 902.546 289.524 902.546 290.091C902.546 290.662 902.625 291.167 902.782 291.606C902.944 292.04 903.176 292.381 903.479 292.629C903.786 292.871 904.163 292.993 904.61 292.993ZM911.573 295V285.182H914.296V295H911.573ZM912.941 283.916C912.536 283.916 912.189 283.782 911.899 283.513C911.613 283.241 911.471 282.915 911.471 282.536C911.471 282.161 911.613 281.839 911.899 281.57C912.189 281.298 912.536 281.161 912.941 281.161C913.346 281.161 913.691 281.298 913.976 281.57C914.266 281.839 914.411 282.161 914.411 282.536C914.411 282.915 914.266 283.241 913.976 283.513C913.691 283.782 913.346 283.916 912.941 283.916ZM919.277 295.185C918.651 295.185 918.092 295.077 917.602 294.859C917.112 294.638 916.724 294.312 916.439 293.881C916.158 293.447 916.017 292.906 916.017 292.258C916.017 291.712 916.117 291.254 916.317 290.884C916.518 290.513 916.79 290.214 917.136 289.989C917.481 289.763 917.873 289.592 918.312 289.477C918.755 289.362 919.219 289.281 919.705 289.234C920.276 289.175 920.737 289.119 921.086 289.068C921.435 289.013 921.689 288.932 921.847 288.825C922.004 288.719 922.083 288.561 922.083 288.352V288.314C922.083 287.909 921.955 287.596 921.7 287.374C921.448 287.153 921.09 287.042 920.626 287.042C920.136 287.042 919.746 287.151 919.456 287.368C919.166 287.581 918.974 287.849 918.881 288.173L916.362 287.969C916.49 287.372 916.741 286.857 917.116 286.422C917.491 285.983 917.975 285.646 918.567 285.412C919.164 285.173 919.854 285.054 920.638 285.054C921.184 285.054 921.706 285.118 922.205 285.246C922.707 285.374 923.153 285.572 923.54 285.84C923.933 286.109 924.241 286.454 924.467 286.876C924.693 287.293 924.806 287.794 924.806 288.378V295H922.224V293.638H922.147C921.989 293.945 921.778 294.216 921.514 294.45C921.25 294.68 920.933 294.862 920.562 294.994C920.191 295.121 919.763 295.185 919.277 295.185ZM920.057 293.306C920.457 293.306 920.811 293.227 921.118 293.07C921.425 292.908 921.665 292.69 921.84 292.418C922.015 292.145 922.102 291.836 922.102 291.491V290.449C922.017 290.504 921.9 290.555 921.751 290.602C921.606 290.645 921.442 290.685 921.259 290.724C921.075 290.758 920.892 290.79 920.709 290.82C920.526 290.845 920.359 290.869 920.21 290.89C919.891 290.937 919.612 291.011 919.373 291.114C919.134 291.216 918.949 291.354 918.817 291.529C918.685 291.7 918.619 291.913 918.619 292.168C918.619 292.539 918.753 292.822 919.021 293.018C919.294 293.21 919.639 293.306 920.057 293.306Z" fill="#1E3A8A"/>
<rect x="787" y="265" width="166" height="46" rx="23" stroke="#92BEF4" stroke-width="6"/>
<path d="M702.245 246L788.755 275.379" stroke="url(#paint3_linear_6_34)" stroke-width="6" stroke-linecap="round"/>
<path d="M365.5 200H499" stroke="url(#paint4_linear_6_34)" stroke-width="6" stroke-linecap="round"/>
<path d="M426.5 275L512.5 249" stroke="url(#paint5_linear_6_34)" stroke-width="6" stroke-linecap="round"/>
<path d="M411.5 121L509.5 156.5" stroke="url(#paint6_linear_6_34)" stroke-width="6" stroke-linecap="round"/>
<defs>
<filter id="filter0_d_6_34" x="500" y="92" width="216" height="216" filterUnits="userSpaceOnUse" color-interpolation-filters="sRGB">
<feFlood flood-opacity="0" result="BackgroundImageFix"/>
<feColorMatrix in="SourceAlpha" type="matrix" values="0 0 0 0 0 0 0 0 0 0 0 0 0 0 0 0 0 0 127 0" result="hardAlpha"/>
<feOffset/>
<feGaussianBlur stdDeviation="4"/>
<feComposite in2="hardAlpha" operator="out"/>
<feColorMatrix type="matrix" values="0 0 0 0 0 0 0 0 0 0 0 0 0 0 0 0 0 0 0.08 0"/>
<feBlend mode="normal" in2="BackgroundImageFix" result="effect1_dropShadow_6_34"/>
<feBlend mode="normal" in="SourceGraphic" in2="effect1_dropShadow_6_34" result="shape"/>
</filter>
<linearGradient id="paint0_linear_6_34" x1="608" y1="0" x2="608" y2="400" gradientUnits="userSpaceOnUse">
<stop stop-color="#BFDBFE"/>
<stop offset="1" stop-color="#93C5FD"/>
</linearGradient>
<linearGradient id="paint1_linear_6_34" x1="703" y1="38.4909" x2="803" y2="38.4909" gradientUnits="userSpaceOnUse">
<stop stop-color="#91B3E6"/>
<stop offset="1" stop-color="#92BEF4"/>
</linearGradient>
<linearGradient id="paint2_linear_6_34" x1="715" y1="81.9871" x2="850" y2="81.9871" gradientUnits="userSpaceOnUse">
<stop stop-color="#8DB2E5"/>
<stop offset="1" stop-color="#92BEF4"/>
</linearGradient>
<linearGradient id="paint3_linear_6_34" x1="695.585" y1="128.307" x2="782.485" y2="124.129" gradientUnits="userSpaceOnUse">
<stop stop-color="#87AEE4"/>
<stop offset="1" stop-color="#92BEF4"/>
</linearGradient>
<linearGradient id="paint4_linear_6_34" x1="365" y1="198.999" x2="500.48" y2="198.999" gradientUnits="userSpaceOnUse">
<stop stop-color="#92BEF4"/>
<stop offset="1" stop-color="#8CB1E6"/>
</linearGradient>
<linearGradient id="paint5_linear_6_34" x1="426" y1="274.003" x2="512" y2="274.003" gradientUnits="userSpaceOnUse">
<stop stop-color="#92BEF4"/>
<stop offset="1" stop-color="#88B0E6"/>
</linearGradient>
<linearGradient id="paint6_linear_6_34" x1="411" y1="119.999" x2="509" y2="119.999" gradientUnits="userSpaceOnUse">
<stop stop-color="#92BEF4"/>
<stop offset="1" stop-color="#91B4E7"/>
</linearGradient>
</defs>
</svg>
