<svg width="400" height="600" viewBox="0 0 400 600" fill="none" xmlns="http://www.w3.org/2000/svg">
<rect width="400" height="600" rx="16" fill="url(#paint0_linear_6_65)"/>
<rect x="119" y="533" width="163" height="38" rx="19" fill="#BFDBFE"/>
<path opacity="0.8" d="M145.114 546.364L147.926 555.205H148.034L150.852 546.364H153.58L149.568 558H146.398L142.381 546.364H145.114ZM154.935 558V549.273H157.355V558H154.935ZM156.151 548.148C155.791 548.148 155.482 548.028 155.224 547.79C154.971 547.547 154.844 547.258 154.844 546.92C154.844 546.587 154.971 546.301 155.224 546.062C155.482 545.82 155.791 545.699 156.151 545.699C156.51 545.699 156.817 545.82 157.071 546.062C157.329 546.301 157.457 546.587 157.457 546.92C157.457 547.258 157.329 547.547 157.071 547.79C156.817 548.028 156.51 548.148 156.151 548.148ZM162.51 558.142C161.847 558.142 161.247 557.972 160.709 557.631C160.175 557.286 159.75 556.78 159.436 556.114C159.125 555.443 158.97 554.621 158.97 553.648C158.97 552.648 159.131 551.816 159.453 551.153C159.775 550.487 160.203 549.989 160.737 549.659C161.275 549.326 161.864 549.159 162.504 549.159C162.993 549.159 163.4 549.242 163.726 549.409C164.055 549.572 164.321 549.777 164.521 550.023C164.726 550.265 164.881 550.504 164.987 550.739H165.061V546.364H167.476V558H165.089V556.602H164.987C164.874 556.845 164.713 557.085 164.504 557.324C164.3 557.559 164.033 557.754 163.703 557.909C163.377 558.064 162.98 558.142 162.51 558.142ZM163.277 556.216C163.667 556.216 163.997 556.11 164.266 555.898C164.538 555.682 164.747 555.381 164.891 554.994C165.038 554.608 165.112 554.155 165.112 553.636C165.112 553.117 165.04 552.667 164.896 552.284C164.752 551.902 164.544 551.606 164.271 551.398C163.999 551.189 163.667 551.085 163.277 551.085C162.879 551.085 162.544 551.193 162.271 551.409C161.999 551.625 161.792 551.924 161.652 552.307C161.512 552.689 161.442 553.133 161.442 553.636C161.442 554.144 161.512 554.593 161.652 554.983C161.796 555.369 162.002 555.672 162.271 555.892C162.544 556.108 162.879 556.216 163.277 556.216ZM173.443 558.17C172.545 558.17 171.773 557.989 171.125 557.625C170.481 557.258 169.985 556.739 169.636 556.068C169.288 555.394 169.114 554.597 169.114 553.676C169.114 552.778 169.288 551.991 169.636 551.312C169.985 550.634 170.475 550.106 171.108 549.727C171.744 549.348 172.491 549.159 173.347 549.159C173.922 549.159 174.458 549.252 174.955 549.438C175.455 549.619 175.89 549.894 176.261 550.261C176.636 550.629 176.928 551.091 177.136 551.648C177.345 552.201 177.449 552.848 177.449 553.591V554.256H170.08V552.756H175.17C175.17 552.407 175.095 552.098 174.943 551.83C174.792 551.561 174.581 551.35 174.312 551.199C174.047 551.044 173.739 550.966 173.386 550.966C173.019 550.966 172.693 551.051 172.409 551.222C172.129 551.388 171.909 551.614 171.75 551.898C171.591 552.178 171.509 552.491 171.506 552.835V554.261C171.506 554.693 171.585 555.066 171.744 555.381C171.907 555.695 172.136 555.938 172.432 556.108C172.727 556.278 173.078 556.364 173.483 556.364C173.752 556.364 173.998 556.326 174.222 556.25C174.445 556.174 174.636 556.061 174.795 555.909C174.955 555.758 175.076 555.572 175.159 555.352L177.398 555.5C177.284 556.038 177.051 556.508 176.699 556.909C176.35 557.307 175.9 557.617 175.347 557.841C174.797 558.061 174.163 558.17 173.443 558.17ZM182.972 558.17C182.089 558.17 181.326 557.983 180.682 557.608C180.042 557.229 179.547 556.703 179.199 556.028C178.85 555.35 178.676 554.564 178.676 553.67C178.676 552.769 178.85 551.981 179.199 551.307C179.547 550.629 180.042 550.102 180.682 549.727C181.326 549.348 182.089 549.159 182.972 549.159C183.854 549.159 184.616 549.348 185.256 549.727C185.9 550.102 186.396 550.629 186.744 551.307C187.093 551.981 187.267 552.769 187.267 553.67C187.267 554.564 187.093 555.35 186.744 556.028C186.396 556.703 185.9 557.229 185.256 557.608C184.616 557.983 183.854 558.17 182.972 558.17ZM182.983 556.295C183.384 556.295 183.72 556.182 183.989 555.955C184.258 555.723 184.46 555.409 184.597 555.011C184.737 554.614 184.807 554.161 184.807 553.653C184.807 553.146 184.737 552.693 184.597 552.295C184.46 551.898 184.258 551.583 183.989 551.352C183.72 551.121 183.384 551.006 182.983 551.006C182.578 551.006 182.237 551.121 181.96 551.352C181.688 551.583 181.481 551.898 181.341 552.295C181.205 552.693 181.136 553.146 181.136 553.653C181.136 554.161 181.205 554.614 181.341 555.011C181.481 555.409 181.688 555.723 181.96 555.955C182.237 556.182 182.578 556.295 182.983 556.295ZM192.589 558V546.364H197.18C198.063 546.364 198.815 546.532 199.436 546.869C200.057 547.203 200.531 547.667 200.857 548.261C201.186 548.852 201.351 549.534 201.351 550.307C201.351 551.08 201.184 551.761 200.851 552.352C200.518 552.943 200.035 553.403 199.402 553.733C198.773 554.062 198.012 554.227 197.118 554.227H194.192V552.256H196.72C197.194 552.256 197.584 552.174 197.891 552.011C198.201 551.845 198.432 551.616 198.584 551.324C198.739 551.028 198.817 550.689 198.817 550.307C198.817 549.92 198.739 549.583 198.584 549.295C198.432 549.004 198.201 548.778 197.891 548.619C197.58 548.456 197.186 548.375 196.709 548.375H195.05V558H192.589ZM205.324 546.364V558H202.903V546.364H205.324ZM209.751 558.165C209.195 558.165 208.698 558.068 208.263 557.875C207.827 557.678 207.482 557.388 207.229 557.006C206.979 556.619 206.854 556.138 206.854 555.562C206.854 555.078 206.943 554.67 207.121 554.341C207.299 554.011 207.541 553.746 207.848 553.545C208.155 553.345 208.503 553.193 208.893 553.091C209.287 552.989 209.7 552.917 210.132 552.875C210.64 552.822 211.049 552.773 211.359 552.727C211.67 552.678 211.895 552.606 212.036 552.511C212.176 552.417 212.246 552.277 212.246 552.091V552.057C212.246 551.697 212.132 551.419 211.905 551.222C211.681 551.025 211.363 550.926 210.95 550.926C210.515 550.926 210.168 551.023 209.911 551.216C209.653 551.405 209.482 551.644 209.399 551.932L207.161 551.75C207.274 551.22 207.498 550.761 207.831 550.375C208.164 549.985 208.594 549.686 209.121 549.477C209.651 549.265 210.265 549.159 210.962 549.159C211.446 549.159 211.911 549.216 212.354 549.33C212.801 549.443 213.196 549.619 213.541 549.858C213.89 550.097 214.164 550.403 214.365 550.778C214.566 551.15 214.666 551.595 214.666 552.114V558H212.371V556.79H212.303C212.162 557.062 211.975 557.303 211.74 557.511C211.505 557.716 211.223 557.877 210.893 557.994C210.564 558.108 210.183 558.165 209.751 558.165ZM210.445 556.494C210.801 556.494 211.115 556.424 211.388 556.284C211.661 556.14 211.875 555.947 212.03 555.705C212.185 555.462 212.263 555.187 212.263 554.881V553.955C212.187 554.004 212.083 554.049 211.95 554.091C211.821 554.129 211.676 554.165 211.513 554.199C211.35 554.229 211.187 554.258 211.024 554.284C210.861 554.307 210.714 554.328 210.581 554.347C210.297 554.388 210.049 554.455 209.837 554.545C209.625 554.636 209.46 554.759 209.342 554.915C209.225 555.066 209.166 555.256 209.166 555.483C209.166 555.812 209.286 556.064 209.524 556.239C209.767 556.409 210.073 556.494 210.445 556.494ZM221.186 549.273V551.091H215.93V549.273H221.186ZM217.124 547.182H219.544V555.318C219.544 555.542 219.578 555.716 219.646 555.841C219.714 555.962 219.809 556.047 219.93 556.097C220.055 556.146 220.199 556.17 220.362 556.17C220.476 556.17 220.589 556.161 220.703 556.142C220.817 556.119 220.904 556.102 220.964 556.091L221.345 557.892C221.224 557.93 221.054 557.973 220.834 558.023C220.614 558.076 220.347 558.108 220.033 558.119C219.449 558.142 218.938 558.064 218.499 557.886C218.063 557.708 217.724 557.432 217.482 557.057C217.239 556.682 217.12 556.208 217.124 555.636V547.182ZM227.456 549.273V551.091H222.07V549.273H227.456ZM223.303 558V548.642C223.303 548.009 223.426 547.485 223.672 547.068C223.922 546.652 224.263 546.339 224.695 546.131C225.126 545.922 225.617 545.818 226.166 545.818C226.537 545.818 226.876 545.847 227.183 545.903C227.494 545.96 227.725 546.011 227.876 546.057L227.445 547.875C227.35 547.845 227.232 547.816 227.092 547.79C226.956 547.763 226.816 547.75 226.672 547.75C226.316 547.75 226.068 547.833 225.928 548C225.787 548.163 225.717 548.392 225.717 548.688V558H223.303ZM232.565 558.17C231.683 558.17 230.92 557.983 230.276 557.608C229.635 557.229 229.141 556.703 228.793 556.028C228.444 555.35 228.27 554.564 228.27 553.67C228.27 552.769 228.444 551.981 228.793 551.307C229.141 550.629 229.635 550.102 230.276 549.727C230.92 549.348 231.683 549.159 232.565 549.159C233.448 549.159 234.209 549.348 234.849 549.727C235.493 550.102 235.99 550.629 236.338 551.307C236.687 551.981 236.861 552.769 236.861 553.67C236.861 554.564 236.687 555.35 236.338 556.028C235.99 556.703 235.493 557.229 234.849 557.608C234.209 557.983 233.448 558.17 232.565 558.17ZM232.577 556.295C232.978 556.295 233.313 556.182 233.582 555.955C233.851 555.723 234.054 555.409 234.19 555.011C234.33 554.614 234.401 554.161 234.401 553.653C234.401 553.146 234.33 552.693 234.19 552.295C234.054 551.898 233.851 551.583 233.582 551.352C233.313 551.121 232.978 551.006 232.577 551.006C232.171 551.006 231.83 551.121 231.554 551.352C231.281 551.583 231.075 551.898 230.935 552.295C230.798 552.693 230.73 553.146 230.73 553.653C230.73 554.161 230.798 554.614 230.935 555.011C231.075 555.409 231.281 555.723 231.554 555.955C231.83 556.182 232.171 556.295 232.577 556.295ZM238.435 558V549.273H240.781V550.795H240.872C241.031 550.254 241.298 549.845 241.673 549.568C242.048 549.288 242.48 549.148 242.969 549.148C243.09 549.148 243.221 549.155 243.361 549.17C243.501 549.186 243.624 549.206 243.73 549.233V551.381C243.616 551.347 243.459 551.316 243.259 551.29C243.058 551.263 242.874 551.25 242.707 551.25C242.351 551.25 242.033 551.328 241.753 551.483C241.476 551.634 241.257 551.847 241.094 552.119C240.935 552.392 240.855 552.706 240.855 553.062V558H238.435ZM244.982 558V549.273H247.288V550.812H247.391C247.572 550.301 247.875 549.898 248.3 549.602C248.724 549.307 249.232 549.159 249.822 549.159C250.421 549.159 250.93 549.309 251.351 549.608C251.771 549.903 252.052 550.305 252.192 550.812H252.283C252.461 550.312 252.783 549.913 253.249 549.614C253.718 549.311 254.273 549.159 254.913 549.159C255.728 549.159 256.389 549.419 256.896 549.938C257.408 550.453 257.663 551.184 257.663 552.131V558H255.249V552.608C255.249 552.123 255.12 551.759 254.862 551.517C254.605 551.275 254.283 551.153 253.896 551.153C253.457 551.153 253.114 551.294 252.868 551.574C252.622 551.85 252.499 552.216 252.499 552.67V558H250.152V552.557C250.152 552.129 250.029 551.788 249.783 551.534C249.54 551.28 249.22 551.153 248.822 551.153C248.554 551.153 248.311 551.222 248.095 551.358C247.883 551.491 247.714 551.678 247.589 551.92C247.464 552.159 247.402 552.439 247.402 552.761V558H244.982Z" fill="#1E3A8A"/>
<rect x="119" y="533" width="163" height="38" rx="19" stroke="#92BEF4" stroke-width="6"/>
<rect x="225" y="461" width="146" height="38" rx="19" fill="#BFDBFE"/>
<path opacity="0.8" d="M255.324 477.71C255.278 477.252 255.083 476.896 254.739 476.642C254.394 476.388 253.926 476.261 253.335 476.261C252.934 476.261 252.595 476.318 252.318 476.432C252.042 476.542 251.83 476.695 251.682 476.892C251.538 477.089 251.466 477.312 251.466 477.562C251.458 477.771 251.502 477.953 251.597 478.108C251.695 478.263 251.83 478.398 252 478.511C252.17 478.621 252.367 478.718 252.591 478.801C252.814 478.881 253.053 478.949 253.307 479.006L254.352 479.256C254.86 479.369 255.326 479.521 255.75 479.71C256.174 479.9 256.542 480.133 256.852 480.409C257.163 480.686 257.403 481.011 257.574 481.386C257.748 481.761 257.837 482.191 257.841 482.676C257.837 483.388 257.655 484.006 257.295 484.528C256.939 485.047 256.424 485.451 255.75 485.739C255.08 486.023 254.271 486.165 253.324 486.165C252.384 486.165 251.566 486.021 250.869 485.733C250.176 485.445 249.634 485.019 249.244 484.455C248.858 483.886 248.655 483.184 248.636 482.347H251.017C251.044 482.737 251.155 483.062 251.352 483.324C251.553 483.581 251.82 483.777 252.153 483.909C252.491 484.038 252.871 484.102 253.295 484.102C253.712 484.102 254.074 484.042 254.381 483.92C254.691 483.799 254.932 483.631 255.102 483.415C255.273 483.199 255.358 482.951 255.358 482.67C255.358 482.409 255.28 482.189 255.125 482.011C254.973 481.833 254.75 481.682 254.455 481.557C254.163 481.432 253.805 481.318 253.381 481.216L252.114 480.898C251.133 480.659 250.358 480.286 249.79 479.778C249.222 479.271 248.939 478.587 248.943 477.727C248.939 477.023 249.127 476.407 249.506 475.881C249.888 475.354 250.413 474.943 251.08 474.648C251.746 474.352 252.504 474.205 253.352 474.205C254.216 474.205 254.97 474.352 255.614 474.648C256.261 474.943 256.765 475.354 257.125 475.881C257.485 476.407 257.67 477.017 257.682 477.71H255.324ZM263.393 486.17C262.511 486.17 261.748 485.983 261.104 485.608C260.464 485.229 259.969 484.703 259.621 484.028C259.272 483.35 259.098 482.564 259.098 481.67C259.098 480.769 259.272 479.981 259.621 479.307C259.969 478.629 260.464 478.102 261.104 477.727C261.748 477.348 262.511 477.159 263.393 477.159C264.276 477.159 265.037 477.348 265.678 477.727C266.321 478.102 266.818 478.629 267.166 479.307C267.515 479.981 267.689 480.769 267.689 481.67C267.689 482.564 267.515 483.35 267.166 484.028C266.818 484.703 266.321 485.229 265.678 485.608C265.037 485.983 264.276 486.17 263.393 486.17ZM263.405 484.295C263.806 484.295 264.142 484.182 264.411 483.955C264.679 483.723 264.882 483.409 265.018 483.011C265.159 482.614 265.229 482.161 265.229 481.653C265.229 481.146 265.159 480.693 265.018 480.295C264.882 479.898 264.679 479.583 264.411 479.352C264.142 479.121 263.806 479.006 263.405 479.006C263 479.006 262.659 479.121 262.382 479.352C262.109 479.583 261.903 479.898 261.763 480.295C261.626 480.693 261.558 481.146 261.558 481.653C261.558 482.161 261.626 482.614 261.763 483.011C261.903 483.409 262.109 483.723 262.382 483.955C262.659 484.182 263 484.295 263.405 484.295ZM273.206 486.17C272.312 486.17 271.543 485.981 270.899 485.602C270.259 485.22 269.767 484.689 269.422 484.011C269.081 483.333 268.911 482.553 268.911 481.67C268.911 480.777 269.083 479.992 269.428 479.318C269.776 478.64 270.27 478.112 270.911 477.733C271.551 477.35 272.312 477.159 273.195 477.159C273.956 477.159 274.623 477.297 275.195 477.574C275.767 477.85 276.219 478.239 276.553 478.739C276.886 479.239 277.07 479.826 277.104 480.5H274.82C274.755 480.064 274.585 479.714 274.308 479.449C274.036 479.18 273.678 479.045 273.234 479.045C272.859 479.045 272.532 479.148 272.251 479.352C271.975 479.553 271.759 479.847 271.604 480.233C271.448 480.619 271.371 481.087 271.371 481.636C271.371 482.193 271.446 482.667 271.598 483.057C271.753 483.447 271.971 483.744 272.251 483.949C272.532 484.153 272.859 484.256 273.234 484.256C273.511 484.256 273.759 484.199 273.979 484.085C274.202 483.972 274.386 483.807 274.53 483.591C274.678 483.371 274.774 483.108 274.82 482.801H277.104C277.066 483.468 276.884 484.055 276.558 484.562C276.236 485.066 275.791 485.46 275.223 485.744C274.655 486.028 273.982 486.17 273.206 486.17ZM278.653 486V477.273H281.074V486H278.653ZM279.869 476.148C279.509 476.148 279.201 476.028 278.943 475.79C278.689 475.547 278.562 475.258 278.562 474.92C278.562 474.587 278.689 474.301 278.943 474.062C279.201 473.82 279.509 473.699 279.869 473.699C280.229 473.699 280.536 473.82 280.79 474.062C281.047 474.301 281.176 474.587 281.176 474.92C281.176 475.258 281.047 475.547 280.79 475.79C280.536 476.028 280.229 476.148 279.869 476.148ZM285.501 486.165C284.945 486.165 284.448 486.068 284.013 485.875C283.577 485.678 283.232 485.388 282.979 485.006C282.729 484.619 282.604 484.138 282.604 483.562C282.604 483.078 282.693 482.67 282.871 482.341C283.049 482.011 283.291 481.746 283.598 481.545C283.905 481.345 284.253 481.193 284.643 481.091C285.037 480.989 285.45 480.917 285.882 480.875C286.39 480.822 286.799 480.773 287.109 480.727C287.42 480.678 287.645 480.606 287.786 480.511C287.926 480.417 287.996 480.277 287.996 480.091V480.057C287.996 479.697 287.882 479.419 287.655 479.222C287.431 479.025 287.113 478.926 286.7 478.926C286.265 478.926 285.918 479.023 285.661 479.216C285.403 479.405 285.232 479.644 285.149 479.932L282.911 479.75C283.024 479.22 283.248 478.761 283.581 478.375C283.914 477.985 284.344 477.686 284.871 477.477C285.401 477.265 286.015 477.159 286.712 477.159C287.196 477.159 287.661 477.216 288.104 477.33C288.551 477.443 288.946 477.619 289.291 477.858C289.64 478.097 289.914 478.403 290.115 478.778C290.316 479.15 290.416 479.595 290.416 480.114V486H288.121V484.79H288.053C287.912 485.062 287.725 485.303 287.49 485.511C287.255 485.716 286.973 485.877 286.643 485.994C286.314 486.108 285.933 486.165 285.501 486.165ZM286.195 484.494C286.551 484.494 286.865 484.424 287.138 484.284C287.411 484.14 287.625 483.947 287.78 483.705C287.935 483.462 288.013 483.187 288.013 482.881V481.955C287.937 482.004 287.833 482.049 287.7 482.091C287.571 482.129 287.426 482.165 287.263 482.199C287.1 482.229 286.937 482.258 286.774 482.284C286.611 482.307 286.464 482.328 286.331 482.347C286.047 482.388 285.799 482.455 285.587 482.545C285.375 482.636 285.21 482.759 285.092 482.915C284.975 483.066 284.916 483.256 284.916 483.483C284.916 483.812 285.036 484.064 285.274 484.239C285.517 484.409 285.823 484.494 286.195 484.494ZM294.714 474.364V486H292.294V474.364H294.714ZM300.402 474.364H303.436L306.641 482.182H306.777L309.982 474.364H313.016V486H310.629V478.426H310.533L307.521 485.943H305.896L302.885 478.398H302.788V486H300.402V474.364ZM318.974 486.17C318.077 486.17 317.304 485.989 316.656 485.625C316.012 485.258 315.516 484.739 315.168 484.068C314.819 483.394 314.645 482.597 314.645 481.676C314.645 480.778 314.819 479.991 315.168 479.312C315.516 478.634 316.007 478.106 316.639 477.727C317.276 477.348 318.022 477.159 318.878 477.159C319.454 477.159 319.99 477.252 320.486 477.438C320.986 477.619 321.421 477.894 321.793 478.261C322.168 478.629 322.459 479.091 322.668 479.648C322.876 480.201 322.98 480.848 322.98 481.591V482.256H315.611V480.756H320.702C320.702 480.407 320.626 480.098 320.474 479.83C320.323 479.561 320.113 479.35 319.844 479.199C319.579 479.044 319.27 478.966 318.918 478.966C318.55 478.966 318.224 479.051 317.94 479.222C317.66 479.388 317.44 479.614 317.281 479.898C317.122 480.178 317.041 480.491 317.037 480.835V482.261C317.037 482.693 317.116 483.066 317.276 483.381C317.438 483.695 317.668 483.938 317.963 484.108C318.259 484.278 318.609 484.364 319.014 484.364C319.283 484.364 319.529 484.326 319.753 484.25C319.976 484.174 320.168 484.061 320.327 483.909C320.486 483.758 320.607 483.572 320.69 483.352L322.929 483.5C322.815 484.038 322.582 484.508 322.23 484.909C321.882 485.307 321.431 485.617 320.878 485.841C320.329 486.061 319.694 486.17 318.974 486.17ZM327.776 486.142C327.113 486.142 326.512 485.972 325.974 485.631C325.44 485.286 325.016 484.78 324.702 484.114C324.391 483.443 324.236 482.621 324.236 481.648C324.236 480.648 324.397 479.816 324.719 479.153C325.041 478.487 325.469 477.989 326.003 477.659C326.541 477.326 327.13 477.159 327.77 477.159C328.259 477.159 328.666 477.242 328.991 477.409C329.321 477.572 329.586 477.777 329.787 478.023C329.991 478.265 330.147 478.504 330.253 478.739H330.327V474.364H332.741V486H330.355V484.602H330.253C330.139 484.845 329.978 485.085 329.77 485.324C329.565 485.559 329.298 485.754 328.969 485.909C328.643 486.064 328.245 486.142 327.776 486.142ZM328.543 484.216C328.933 484.216 329.262 484.11 329.531 483.898C329.804 483.682 330.012 483.381 330.156 482.994C330.304 482.608 330.378 482.155 330.378 481.636C330.378 481.117 330.306 480.667 330.162 480.284C330.018 479.902 329.81 479.606 329.537 479.398C329.264 479.189 328.933 479.085 328.543 479.085C328.145 479.085 327.81 479.193 327.537 479.409C327.264 479.625 327.058 479.924 326.918 480.307C326.777 480.689 326.707 481.133 326.707 481.636C326.707 482.144 326.777 482.593 326.918 482.983C327.062 483.369 327.268 483.672 327.537 483.892C327.81 484.108 328.145 484.216 328.543 484.216ZM334.732 486V477.273H337.152V486H334.732ZM335.947 476.148C335.588 476.148 335.279 476.028 335.021 475.79C334.768 475.547 334.641 475.258 334.641 474.92C334.641 474.587 334.768 474.301 335.021 474.062C335.279 473.82 335.588 473.699 335.947 473.699C336.307 473.699 336.614 473.82 336.868 474.062C337.125 474.301 337.254 474.587 337.254 474.92C337.254 475.258 337.125 475.547 336.868 475.79C336.614 476.028 336.307 476.148 335.947 476.148ZM341.58 486.165C341.023 486.165 340.527 486.068 340.091 485.875C339.655 485.678 339.311 485.388 339.057 485.006C338.807 484.619 338.682 484.138 338.682 483.562C338.682 483.078 338.771 482.67 338.949 482.341C339.127 482.011 339.369 481.746 339.676 481.545C339.983 481.345 340.331 481.193 340.722 481.091C341.116 480.989 341.528 480.917 341.96 480.875C342.468 480.822 342.877 480.773 343.188 480.727C343.498 480.678 343.723 480.606 343.864 480.511C344.004 480.417 344.074 480.277 344.074 480.091V480.057C344.074 479.697 343.96 479.419 343.733 479.222C343.509 479.025 343.191 478.926 342.778 478.926C342.343 478.926 341.996 479.023 341.739 479.216C341.481 479.405 341.311 479.644 341.227 479.932L338.989 479.75C339.102 479.22 339.326 478.761 339.659 478.375C339.992 477.985 340.422 477.686 340.949 477.477C341.479 477.265 342.093 477.159 342.79 477.159C343.275 477.159 343.739 477.216 344.182 477.33C344.629 477.443 345.025 477.619 345.369 477.858C345.718 478.097 345.992 478.403 346.193 478.778C346.394 479.15 346.494 479.595 346.494 480.114V486H344.199V484.79H344.131C343.991 485.062 343.803 485.303 343.568 485.511C343.333 485.716 343.051 485.877 342.722 485.994C342.392 486.108 342.011 486.165 341.58 486.165ZM342.273 484.494C342.629 484.494 342.943 484.424 343.216 484.284C343.489 484.14 343.703 483.947 343.858 483.705C344.013 483.462 344.091 483.187 344.091 482.881V481.955C344.015 482.004 343.911 482.049 343.778 482.091C343.65 482.129 343.504 482.165 343.341 482.199C343.178 482.229 343.015 482.258 342.852 482.284C342.689 482.307 342.542 482.328 342.409 482.347C342.125 482.388 341.877 482.455 341.665 482.545C341.453 482.636 341.288 482.759 341.17 482.915C341.053 483.066 340.994 483.256 340.994 483.483C340.994 483.812 341.114 484.064 341.352 484.239C341.595 484.409 341.902 484.494 342.273 484.494Z" fill="#1E3A8A"/>
<rect x="225" y="461" width="146" height="38" rx="19" stroke="#92BEF4" stroke-width="6"/>
<rect x="29" y="445" width="111" height="38" rx="19" fill="#BFDBFE"/>
<path opacity="0.8" d="M55.6307 470L52.3011 458.364H54.9886L56.9148 466.449H57.0114L59.1364 458.364H61.4375L63.5568 466.466H63.6591L65.5852 458.364H68.2727L64.9432 470H62.5455L60.3295 462.392H60.2386L58.0284 470H55.6307ZM72.5838 470.17C71.6861 470.17 70.9134 469.989 70.2656 469.625C69.6217 469.258 69.1255 468.739 68.777 468.068C68.4285 467.394 68.2543 466.597 68.2543 465.676C68.2543 464.778 68.4285 463.991 68.777 463.312C69.1255 462.634 69.616 462.106 70.2486 461.727C70.8849 461.348 71.6312 461.159 72.4872 461.159C73.063 461.159 73.599 461.252 74.0952 461.438C74.5952 461.619 75.0308 461.894 75.402 462.261C75.777 462.629 76.0687 463.091 76.277 463.648C76.4853 464.201 76.5895 464.848 76.5895 465.591V466.256H69.2202V464.756H74.3111C74.3111 464.407 74.2353 464.098 74.0838 463.83C73.9323 463.561 73.7221 463.35 73.4531 463.199C73.188 463.044 72.8793 462.966 72.527 462.966C72.1596 462.966 71.8338 463.051 71.5497 463.222C71.2694 463.388 71.0497 463.614 70.8906 463.898C70.7315 464.178 70.6501 464.491 70.6463 464.835V466.261C70.6463 466.693 70.7259 467.066 70.8849 467.381C71.0478 467.695 71.277 467.938 71.5724 468.108C71.8679 468.278 72.2183 468.364 72.6236 468.364C72.8925 468.364 73.1387 468.326 73.3622 468.25C73.5857 468.174 73.777 468.061 73.9361 467.909C74.0952 467.758 74.2164 467.572 74.2997 467.352L76.5384 467.5C76.4247 468.038 76.1918 468.508 75.8395 468.909C75.491 469.307 75.0402 469.617 74.4872 469.841C73.938 470.061 73.3035 470.17 72.5838 470.17ZM78.2145 470V458.364H80.6349V462.739H80.7088C80.8149 462.504 80.9683 462.265 81.169 462.023C81.3736 461.777 81.6387 461.572 81.9645 461.409C82.294 461.242 82.7031 461.159 83.1918 461.159C83.8281 461.159 84.4152 461.326 84.9531 461.659C85.491 461.989 85.9209 462.487 86.2429 463.153C86.5649 463.816 86.7259 464.648 86.7259 465.648C86.7259 466.621 86.5687 467.443 86.2543 468.114C85.9437 468.78 85.5194 469.286 84.9815 469.631C84.4474 469.972 83.849 470.142 83.1861 470.142C82.7164 470.142 82.3168 470.064 81.9872 469.909C81.6615 469.754 81.3944 469.559 81.1861 469.324C80.9777 469.085 80.8187 468.845 80.7088 468.602H80.6009V470H78.2145ZM80.5838 465.636C80.5838 466.155 80.6558 466.608 80.7997 466.994C80.9437 467.381 81.152 467.682 81.4247 467.898C81.6974 468.11 82.0289 468.216 82.419 468.216C82.813 468.216 83.1463 468.108 83.419 467.892C83.6918 467.672 83.8982 467.369 84.0384 466.983C84.1823 466.593 84.2543 466.144 84.2543 465.636C84.2543 465.133 84.1842 464.689 84.044 464.307C83.9039 463.924 83.6974 463.625 83.4247 463.409C83.152 463.193 82.8168 463.085 82.419 463.085C82.0251 463.085 81.6918 463.189 81.419 463.398C81.1501 463.606 80.9437 463.902 80.7997 464.284C80.6558 464.667 80.5838 465.117 80.5838 465.636ZM95.6023 463.761L93.3864 463.898C93.3485 463.708 93.267 463.538 93.142 463.386C93.017 463.231 92.8523 463.108 92.6477 463.017C92.447 462.922 92.2064 462.875 91.9261 462.875C91.5511 462.875 91.2348 462.955 90.9773 463.114C90.7197 463.269 90.5909 463.477 90.5909 463.739C90.5909 463.947 90.6742 464.123 90.8409 464.267C91.0076 464.411 91.2936 464.527 91.6989 464.614L93.2784 464.932C94.1269 465.106 94.7595 465.386 95.1761 465.773C95.5928 466.159 95.8011 466.667 95.8011 467.295C95.8011 467.867 95.6326 468.369 95.2955 468.801C94.9621 469.233 94.5038 469.57 93.9205 469.812C93.3409 470.051 92.6723 470.17 91.9148 470.17C90.7595 470.17 89.839 469.93 89.1534 469.449C88.4716 468.964 88.072 468.305 87.9545 467.472L90.3352 467.347C90.4072 467.699 90.5814 467.968 90.858 468.153C91.1345 468.335 91.4886 468.426 91.9205 468.426C92.3447 468.426 92.6856 468.345 92.9432 468.182C93.2045 468.015 93.3371 467.801 93.3409 467.54C93.3371 467.32 93.2443 467.14 93.0625 467C92.8807 466.856 92.6004 466.746 92.2216 466.67L90.7102 466.369C89.858 466.199 89.2235 465.903 88.8068 465.483C88.3939 465.062 88.1875 464.527 88.1875 463.875C88.1875 463.314 88.339 462.831 88.642 462.426C88.9489 462.021 89.3788 461.708 89.9318 461.489C90.4886 461.269 91.1402 461.159 91.8864 461.159C92.9886 461.159 93.8561 461.392 94.4886 461.858C95.125 462.324 95.4962 462.958 95.6023 463.761ZM97.3253 470V461.273H99.7457V470H97.3253ZM98.5412 460.148C98.1813 460.148 97.8726 460.028 97.6151 459.79C97.3613 459.547 97.2344 459.258 97.2344 458.92C97.2344 458.587 97.3613 458.301 97.6151 458.062C97.8726 457.82 98.1813 457.699 98.5412 457.699C98.901 457.699 99.2079 457.82 99.4616 458.062C99.7192 458.301 99.848 458.587 99.848 458.92C99.848 459.258 99.7192 459.547 99.4616 459.79C99.2079 460.028 98.901 460.148 98.5412 460.148ZM106.327 461.273V463.091H101.071V461.273H106.327ZM102.264 459.182H104.685V467.318C104.685 467.542 104.719 467.716 104.787 467.841C104.855 467.962 104.95 468.047 105.071 468.097C105.196 468.146 105.34 468.17 105.503 468.17C105.616 468.17 105.73 468.161 105.844 468.142C105.957 468.119 106.045 468.102 106.105 468.091L106.486 469.892C106.365 469.93 106.194 469.973 105.974 470.023C105.755 470.076 105.488 470.108 105.173 470.119C104.59 470.142 104.079 470.064 103.639 469.886C103.204 469.708 102.865 469.432 102.622 469.057C102.38 468.682 102.26 468.208 102.264 467.636V459.182ZM111.787 470.17C110.889 470.17 110.116 469.989 109.469 469.625C108.825 469.258 108.329 468.739 107.98 468.068C107.632 467.394 107.457 466.597 107.457 465.676C107.457 464.778 107.632 463.991 107.98 463.312C108.329 462.634 108.819 462.106 109.452 461.727C110.088 461.348 110.834 461.159 111.69 461.159C112.266 461.159 112.802 461.252 113.298 461.438C113.798 461.619 114.234 461.894 114.605 462.261C114.98 462.629 115.272 463.091 115.48 463.648C115.688 464.201 115.793 464.848 115.793 465.591V466.256H108.423V464.756H113.514C113.514 464.407 113.438 464.098 113.287 463.83C113.135 463.561 112.925 463.35 112.656 463.199C112.391 463.044 112.082 462.966 111.73 462.966C111.363 462.966 111.037 463.051 110.753 463.222C110.473 463.388 110.253 463.614 110.094 463.898C109.935 464.178 109.853 464.491 109.849 464.835V466.261C109.849 466.693 109.929 467.066 110.088 467.381C110.251 467.695 110.48 467.938 110.776 468.108C111.071 468.278 111.421 468.364 111.827 468.364C112.096 468.364 112.342 468.326 112.565 468.25C112.789 468.174 112.98 468.061 113.139 467.909C113.298 467.758 113.42 467.572 113.503 467.352L115.741 467.5C115.628 468.038 115.395 468.508 115.043 468.909C114.694 469.307 114.243 469.617 113.69 469.841C113.141 470.061 112.507 470.17 111.787 470.17Z" fill="#1E3A8A"/>
<rect x="29" y="445" width="111" height="38" rx="19" stroke="#92BEF4" stroke-width="6"/>
<rect x="253" y="117" width="118" height="38" rx="19" fill="#BFDBFE"/>
<path opacity="0.8" d="M279.631 142L276.301 130.364H278.989L280.915 138.449H281.011L283.136 130.364H285.438L287.557 138.466H287.659L289.585 130.364H292.273L288.943 142H286.545L284.33 134.392H284.239L282.028 142H279.631ZM296.584 142.17C295.686 142.17 294.913 141.989 294.266 141.625C293.622 141.258 293.125 140.739 292.777 140.068C292.429 139.394 292.254 138.597 292.254 137.676C292.254 136.778 292.429 135.991 292.777 135.312C293.125 134.634 293.616 134.106 294.249 133.727C294.885 133.348 295.631 133.159 296.487 133.159C297.063 133.159 297.599 133.252 298.095 133.438C298.595 133.619 299.031 133.894 299.402 134.261C299.777 134.629 300.069 135.091 300.277 135.648C300.485 136.201 300.589 136.848 300.589 137.591V138.256H293.22V136.756H298.311C298.311 136.407 298.235 136.098 298.084 135.83C297.932 135.561 297.722 135.35 297.453 135.199C297.188 135.044 296.879 134.966 296.527 134.966C296.16 134.966 295.834 135.051 295.55 135.222C295.269 135.388 295.05 135.614 294.891 135.898C294.732 136.178 294.65 136.491 294.646 136.835V138.261C294.646 138.693 294.726 139.066 294.885 139.381C295.048 139.695 295.277 139.938 295.572 140.108C295.868 140.278 296.218 140.364 296.624 140.364C296.893 140.364 297.139 140.326 297.362 140.25C297.586 140.174 297.777 140.061 297.936 139.909C298.095 139.758 298.216 139.572 298.3 139.352L300.538 139.5C300.425 140.038 300.192 140.508 299.839 140.909C299.491 141.307 299.04 141.617 298.487 141.841C297.938 142.061 297.304 142.17 296.584 142.17ZM302.214 142V130.364H304.635V134.739H304.709C304.815 134.504 304.968 134.265 305.169 134.023C305.374 133.777 305.639 133.572 305.964 133.409C306.294 133.242 306.703 133.159 307.192 133.159C307.828 133.159 308.415 133.326 308.953 133.659C309.491 133.989 309.921 134.487 310.243 135.153C310.565 135.816 310.726 136.648 310.726 137.648C310.726 138.621 310.569 139.443 310.254 140.114C309.944 140.78 309.519 141.286 308.982 141.631C308.447 141.972 307.849 142.142 307.186 142.142C306.716 142.142 306.317 142.064 305.987 141.909C305.661 141.754 305.394 141.559 305.186 141.324C304.978 141.085 304.819 140.845 304.709 140.602H304.601V142H302.214ZM304.584 137.636C304.584 138.155 304.656 138.608 304.8 138.994C304.944 139.381 305.152 139.682 305.425 139.898C305.697 140.11 306.029 140.216 306.419 140.216C306.813 140.216 307.146 140.108 307.419 139.892C307.692 139.672 307.898 139.369 308.038 138.983C308.182 138.593 308.254 138.144 308.254 137.636C308.254 137.133 308.184 136.689 308.044 136.307C307.904 135.924 307.697 135.625 307.425 135.409C307.152 135.193 306.817 135.085 306.419 135.085C306.025 135.085 305.692 135.189 305.419 135.398C305.15 135.606 304.944 135.902 304.8 136.284C304.656 136.667 304.584 137.117 304.584 137.636ZM318.095 142H315.459L319.476 130.364H322.646L326.658 142H324.021L321.107 133.023H321.016L318.095 142ZM317.93 137.426H324.158V139.347H317.93V137.426ZM328.013 145.273V133.273H330.399V134.739H330.507C330.613 134.504 330.767 134.265 330.967 134.023C331.172 133.777 331.437 133.572 331.763 133.409C332.092 133.242 332.501 133.159 332.99 133.159C333.626 133.159 334.214 133.326 334.751 133.659C335.289 133.989 335.719 134.487 336.041 135.153C336.363 135.816 336.524 136.648 336.524 137.648C336.524 138.621 336.367 139.443 336.053 140.114C335.742 140.78 335.318 141.286 334.78 141.631C334.246 141.972 333.647 142.142 332.984 142.142C332.515 142.142 332.115 142.064 331.786 141.909C331.46 141.754 331.193 141.559 330.984 141.324C330.776 141.085 330.617 140.845 330.507 140.602H330.433V145.273H328.013ZM330.382 137.636C330.382 138.155 330.454 138.608 330.598 138.994C330.742 139.381 330.95 139.682 331.223 139.898C331.496 140.11 331.827 140.216 332.217 140.216C332.611 140.216 332.945 140.108 333.217 139.892C333.49 139.672 333.696 139.369 333.837 138.983C333.981 138.593 334.053 138.144 334.053 137.636C334.053 137.133 333.982 136.689 333.842 136.307C333.702 135.924 333.496 135.625 333.223 135.409C332.95 135.193 332.615 135.085 332.217 135.085C331.823 135.085 331.49 135.189 331.217 135.398C330.948 135.606 330.742 135.902 330.598 136.284C330.454 136.667 330.382 137.117 330.382 137.636ZM338.138 145.273V133.273H340.524V134.739H340.632C340.738 134.504 340.892 134.265 341.092 134.023C341.297 133.777 341.562 133.572 341.888 133.409C342.217 133.242 342.626 133.159 343.115 133.159C343.751 133.159 344.339 133.326 344.876 133.659C345.414 133.989 345.844 134.487 346.166 135.153C346.488 135.816 346.649 136.648 346.649 137.648C346.649 138.621 346.492 139.443 346.178 140.114C345.867 140.78 345.443 141.286 344.905 141.631C344.371 141.972 343.772 142.142 343.109 142.142C342.64 142.142 342.24 142.064 341.911 141.909C341.585 141.754 341.318 141.559 341.109 141.324C340.901 141.085 340.742 140.845 340.632 140.602H340.558V145.273H338.138ZM340.507 137.636C340.507 138.155 340.579 138.608 340.723 138.994C340.867 139.381 341.075 139.682 341.348 139.898C341.621 140.11 341.952 140.216 342.342 140.216C342.736 140.216 343.07 140.108 343.342 139.892C343.615 139.672 343.821 139.369 343.962 138.983C344.106 138.593 344.178 138.144 344.178 137.636C344.178 137.133 344.107 136.689 343.967 136.307C343.827 135.924 343.621 135.625 343.348 135.409C343.075 135.193 342.74 135.085 342.342 135.085C341.948 135.085 341.615 135.189 341.342 135.398C341.073 135.606 340.867 135.902 340.723 136.284C340.579 136.667 340.507 137.117 340.507 137.636Z" fill="#1E3A8A"/>
<rect x="253" y="117" width="118" height="38" rx="19" stroke="#92BEF4" stroke-width="6"/>
<rect x="29" y="101" width="135" height="38" rx="19" fill="#BFDBFE"/>
<path opacity="0.8" d="M53.0114 114.364H56.0455L59.25 122.182H59.3864L62.5909 114.364H65.625V126H63.2386V118.426H63.142L60.1307 125.943H58.5057L55.4943 118.398H55.3977V126H53.0114V114.364ZM71.5497 126.17C70.6671 126.17 69.9039 125.983 69.2599 125.608C68.6198 125.229 68.1255 124.703 67.777 124.028C67.4285 123.35 67.2543 122.564 67.2543 121.67C67.2543 120.769 67.4285 119.981 67.777 119.307C68.1255 118.629 68.6198 118.102 69.2599 117.727C69.9039 117.348 70.6671 117.159 71.5497 117.159C72.4323 117.159 73.1937 117.348 73.8338 117.727C74.4777 118.102 74.974 118.629 75.3224 119.307C75.6709 119.981 75.8452 120.769 75.8452 121.67C75.8452 122.564 75.6709 123.35 75.3224 124.028C74.974 124.703 74.4777 125.229 73.8338 125.608C73.1937 125.983 72.4323 126.17 71.5497 126.17ZM71.5611 124.295C71.9626 124.295 72.2978 124.182 72.5668 123.955C72.8357 123.723 73.0384 123.409 73.1747 123.011C73.3149 122.614 73.3849 122.161 73.3849 121.653C73.3849 121.146 73.3149 120.693 73.1747 120.295C73.0384 119.898 72.8357 119.583 72.5668 119.352C72.2978 119.121 71.9626 119.006 71.5611 119.006C71.1558 119.006 70.8149 119.121 70.5384 119.352C70.2656 119.583 70.0592 119.898 69.919 120.295C69.7827 120.693 69.7145 121.146 69.7145 121.653C69.7145 122.161 69.7827 122.614 69.919 123.011C70.0592 123.409 70.2656 123.723 70.5384 123.955C70.8149 124.182 71.1558 124.295 71.5611 124.295ZM77.4645 126V114.364H79.8849V118.739H79.9588C80.0649 118.504 80.2183 118.265 80.419 118.023C80.6236 117.777 80.8887 117.572 81.2145 117.409C81.544 117.242 81.9531 117.159 82.4418 117.159C83.0781 117.159 83.6652 117.326 84.2031 117.659C84.741 117.989 85.1709 118.487 85.4929 119.153C85.8149 119.816 85.9759 120.648 85.9759 121.648C85.9759 122.621 85.8187 123.443 85.5043 124.114C85.1937 124.78 84.7694 125.286 84.2315 125.631C83.6974 125.972 83.099 126.142 82.4361 126.142C81.9664 126.142 81.5668 126.064 81.2372 125.909C80.9115 125.754 80.6444 125.559 80.4361 125.324C80.2277 125.085 80.0687 124.845 79.9588 124.602H79.8509V126H77.4645ZM79.8338 121.636C79.8338 122.155 79.9058 122.608 80.0497 122.994C80.1937 123.381 80.402 123.682 80.6747 123.898C80.9474 124.11 81.2789 124.216 81.669 124.216C82.063 124.216 82.3963 124.108 82.669 123.892C82.9418 123.672 83.1482 123.369 83.2884 122.983C83.4323 122.593 83.5043 122.144 83.5043 121.636C83.5043 121.133 83.4342 120.689 83.294 120.307C83.1539 119.924 82.9474 119.625 82.6747 119.409C82.402 119.193 82.0668 119.085 81.669 119.085C81.2751 119.085 80.9418 119.189 80.669 119.398C80.4001 119.606 80.1937 119.902 80.0497 120.284C79.9058 120.667 79.8338 121.117 79.8338 121.636ZM87.5909 126V117.273H90.0114V126H87.5909ZM88.8068 116.148C88.447 116.148 88.1383 116.028 87.8807 115.79C87.6269 115.547 87.5 115.258 87.5 114.92C87.5 114.587 87.6269 114.301 87.8807 114.062C88.1383 113.82 88.447 113.699 88.8068 113.699C89.1667 113.699 89.4735 113.82 89.7273 114.062C89.9848 114.301 90.1136 114.587 90.1136 114.92C90.1136 115.258 89.9848 115.547 89.7273 115.79C89.4735 116.028 89.1667 116.148 88.8068 116.148ZM94.3707 114.364V126H91.9503V114.364H94.3707ZM100.287 126.17C99.3892 126.17 98.6165 125.989 97.9688 125.625C97.3248 125.258 96.8286 124.739 96.4801 124.068C96.1316 123.394 95.9574 122.597 95.9574 121.676C95.9574 120.778 96.1316 119.991 96.4801 119.312C96.8286 118.634 97.3191 118.106 97.9517 117.727C98.5881 117.348 99.3343 117.159 100.19 117.159C100.766 117.159 101.302 117.252 101.798 117.438C102.298 117.619 102.734 117.894 103.105 118.261C103.48 118.629 103.772 119.091 103.98 119.648C104.188 120.201 104.293 120.848 104.293 121.591V122.256H96.9233V120.756H102.014C102.014 120.407 101.938 120.098 101.787 119.83C101.635 119.561 101.425 119.35 101.156 119.199C100.891 119.044 100.582 118.966 100.23 118.966C99.8627 118.966 99.5369 119.051 99.2528 119.222C98.9725 119.388 98.7528 119.614 98.5938 119.898C98.4347 120.178 98.3532 120.491 98.3494 120.835V122.261C98.3494 122.693 98.429 123.066 98.5881 123.381C98.7509 123.695 98.9801 123.938 99.2756 124.108C99.571 124.278 99.9214 124.364 100.327 124.364C100.596 124.364 100.842 124.326 101.065 124.25C101.289 124.174 101.48 124.061 101.639 123.909C101.798 123.758 101.92 123.572 102.003 123.352L104.241 123.5C104.128 124.038 103.895 124.508 103.543 124.909C103.194 125.307 102.743 125.617 102.19 125.841C101.641 126.061 101.007 126.17 100.287 126.17ZM111.626 126H108.99L113.007 114.364H116.178L120.189 126H117.553L114.638 117.023H114.547L111.626 126ZM111.462 121.426H117.689V123.347H111.462V121.426ZM121.544 129.273V117.273H123.93V118.739H124.038C124.144 118.504 124.298 118.265 124.499 118.023C124.703 117.777 124.968 117.572 125.294 117.409C125.624 117.242 126.033 117.159 126.521 117.159C127.158 117.159 127.745 117.326 128.283 117.659C128.821 117.989 129.25 118.487 129.572 119.153C129.894 119.816 130.055 120.648 130.055 121.648C130.055 122.621 129.898 123.443 129.584 124.114C129.273 124.78 128.849 125.286 128.311 125.631C127.777 125.972 127.179 126.142 126.516 126.142C126.046 126.142 125.646 126.064 125.317 125.909C124.991 125.754 124.724 125.559 124.516 125.324C124.307 125.085 124.148 124.845 124.038 124.602H123.964V129.273H121.544ZM123.913 121.636C123.913 122.155 123.985 122.608 124.129 122.994C124.273 123.381 124.482 123.682 124.754 123.898C125.027 124.11 125.358 124.216 125.749 124.216C126.143 124.216 126.476 124.108 126.749 123.892C127.021 123.672 127.228 123.369 127.368 122.983C127.512 122.593 127.584 122.144 127.584 121.636C127.584 121.133 127.514 120.689 127.374 120.307C127.233 119.924 127.027 119.625 126.754 119.409C126.482 119.193 126.146 119.085 125.749 119.085C125.355 119.085 125.021 119.189 124.749 119.398C124.48 119.606 124.273 119.902 124.129 120.284C123.985 120.667 123.913 121.117 123.913 121.636ZM131.669 129.273V117.273H134.055V118.739H134.163C134.269 118.504 134.423 118.265 134.624 118.023C134.828 117.777 135.093 117.572 135.419 117.409C135.749 117.242 136.158 117.159 136.646 117.159C137.283 117.159 137.87 117.326 138.408 117.659C138.946 117.989 139.375 118.487 139.697 119.153C140.019 119.816 140.18 120.648 140.18 121.648C140.18 122.621 140.023 123.443 139.709 124.114C139.398 124.78 138.974 125.286 138.436 125.631C137.902 125.972 137.304 126.142 136.641 126.142C136.171 126.142 135.771 126.064 135.442 125.909C135.116 125.754 134.849 125.559 134.641 125.324C134.432 125.085 134.273 124.845 134.163 124.602H134.089V129.273H131.669ZM134.038 121.636C134.038 122.155 134.11 122.608 134.254 122.994C134.398 123.381 134.607 123.682 134.879 123.898C135.152 124.11 135.483 124.216 135.874 124.216C136.268 124.216 136.601 124.108 136.874 123.892C137.146 123.672 137.353 123.369 137.493 122.983C137.637 122.593 137.709 122.144 137.709 121.636C137.709 121.133 137.639 120.689 137.499 120.307C137.358 119.924 137.152 119.625 136.879 119.409C136.607 119.193 136.271 119.085 135.874 119.085C135.48 119.085 135.146 119.189 134.874 119.398C134.605 119.606 134.398 119.902 134.254 120.284C134.11 120.667 134.038 121.117 134.038 121.636Z" fill="#1E3A8A"/>
<rect x="29" y="101" width="135" height="38" rx="19" stroke="#92BEF4" stroke-width="6"/>
<rect x="119" y="29" width="162" height="38" rx="19" fill="#BFDBFE"/>
<path opacity="0.8" d="M143.011 54V42.3636H147.67C148.527 42.3636 149.241 42.4905 149.812 42.7443C150.384 42.9981 150.814 43.3504 151.102 43.8011C151.39 44.2481 151.534 44.7633 151.534 45.3466C151.534 45.8011 151.443 46.2008 151.261 46.5455C151.08 46.8864 150.83 47.1667 150.511 47.3864C150.197 47.6023 149.837 47.7557 149.432 47.8466V47.9602C149.875 47.9792 150.29 48.1042 150.676 48.3352C151.066 48.5663 151.383 48.8902 151.625 49.3068C151.867 49.7197 151.989 50.2121 151.989 50.7841C151.989 51.4015 151.835 51.9527 151.528 52.4375C151.225 52.9186 150.777 53.2992 150.182 53.5795C149.587 53.8598 148.854 54 147.983 54H143.011ZM145.472 51.9886H147.477C148.163 51.9886 148.663 51.858 148.977 51.5966C149.292 51.3314 149.449 50.9792 149.449 50.5398C149.449 50.2178 149.371 49.9337 149.216 49.6875C149.061 49.4413 148.839 49.2481 148.551 49.108C148.267 48.9678 147.928 48.8977 147.534 48.8977H145.472V51.9886ZM145.472 47.233H147.295C147.633 47.233 147.932 47.1742 148.193 47.0568C148.458 46.9356 148.667 46.7652 148.818 46.5455C148.973 46.3258 149.051 46.0625 149.051 45.7557C149.051 45.3352 148.902 44.9962 148.602 44.7386C148.307 44.4811 147.886 44.3523 147.341 44.3523H145.472V47.233ZM153.544 54V45.2727H155.891V46.7955H155.982C156.141 46.2538 156.408 45.8447 156.783 45.5682C157.158 45.2879 157.589 45.1477 158.078 45.1477C158.199 45.1477 158.33 45.1553 158.47 45.1705C158.61 45.1856 158.733 45.2064 158.839 45.233V47.3807C158.726 47.3466 158.569 47.3163 158.368 47.2898C158.167 47.2633 157.983 47.25 157.817 47.25C157.461 47.25 157.143 47.3277 156.862 47.483C156.586 47.6345 156.366 47.8466 156.203 48.1193C156.044 48.392 155.964 48.7064 155.964 49.0625V54H153.544ZM163.628 54.1705C162.745 54.1705 161.982 53.983 161.338 53.608C160.698 53.2292 160.204 52.7027 159.855 52.0284C159.507 51.3504 159.332 50.5644 159.332 49.6705C159.332 48.7689 159.507 47.9811 159.855 47.3068C160.204 46.6288 160.698 46.1023 161.338 45.7273C161.982 45.3485 162.745 45.1591 163.628 45.1591C164.51 45.1591 165.272 45.3485 165.912 45.7273C166.556 46.1023 167.052 46.6288 167.401 47.3068C167.749 47.9811 167.923 48.7689 167.923 49.6705C167.923 50.5644 167.749 51.3504 167.401 52.0284C167.052 52.7027 166.556 53.2292 165.912 53.608C165.272 53.983 164.51 54.1705 163.628 54.1705ZM163.639 52.2955C164.041 52.2955 164.376 52.1818 164.645 51.9545C164.914 51.7235 165.116 51.4091 165.253 51.0114C165.393 50.6136 165.463 50.161 165.463 49.6534C165.463 49.1458 165.393 48.6932 165.253 48.2955C165.116 47.8977 164.914 47.5833 164.645 47.3523C164.376 47.1212 164.041 47.0057 163.639 47.0057C163.234 47.0057 162.893 47.1212 162.616 47.3523C162.344 47.5833 162.137 47.8977 161.997 48.2955C161.861 48.6932 161.793 49.1458 161.793 49.6534C161.793 50.161 161.861 50.6136 161.997 51.0114C162.137 51.4091 162.344 51.7235 162.616 51.9545C162.893 52.1818 163.234 52.2955 163.639 52.2955ZM171.986 54.1648C171.429 54.1648 170.933 54.0682 170.497 53.875C170.062 53.678 169.717 53.3883 169.463 53.0057C169.213 52.6193 169.088 52.1383 169.088 51.5625C169.088 51.0777 169.177 50.6705 169.355 50.3409C169.533 50.0114 169.776 49.7462 170.082 49.5455C170.389 49.3447 170.738 49.1932 171.128 49.0909C171.522 48.9886 171.935 48.9167 172.366 48.875C172.874 48.822 173.283 48.7727 173.594 48.7273C173.904 48.678 174.13 48.6061 174.27 48.5114C174.41 48.4167 174.48 48.2765 174.48 48.0909V48.0568C174.48 47.697 174.366 47.4186 174.139 47.2216C173.916 47.0246 173.598 46.9261 173.185 46.9261C172.749 46.9261 172.402 47.0227 172.145 47.2159C171.887 47.4053 171.717 47.6439 171.634 47.9318L169.395 47.75C169.509 47.2197 169.732 46.7614 170.065 46.375C170.399 45.9848 170.829 45.6856 171.355 45.4773C171.885 45.2652 172.499 45.1591 173.196 45.1591C173.681 45.1591 174.145 45.2159 174.588 45.3295C175.035 45.4432 175.431 45.6193 175.776 45.858C176.124 46.0966 176.399 46.4034 176.599 46.7784C176.8 47.1496 176.901 47.5947 176.901 48.1136V54H174.605V52.7898H174.537C174.397 53.0625 174.209 53.303 173.974 53.5114C173.74 53.7159 173.457 53.8769 173.128 53.9943C172.798 54.108 172.418 54.1648 171.986 54.1648ZM172.679 52.4943C173.035 52.4943 173.349 52.4242 173.622 52.2841C173.895 52.1402 174.109 51.947 174.264 51.7045C174.42 51.4621 174.497 51.1875 174.497 50.8807V49.9545C174.421 50.0038 174.317 50.0492 174.185 50.0909C174.056 50.1288 173.91 50.1648 173.747 50.1989C173.584 50.2292 173.421 50.2576 173.259 50.2841C173.096 50.3068 172.948 50.3277 172.815 50.3466C172.531 50.3883 172.283 50.4545 172.071 50.5455C171.859 50.6364 171.694 50.7595 171.577 50.9148C171.459 51.0663 171.401 51.2557 171.401 51.483C171.401 51.8125 171.52 52.0644 171.759 52.2386C172.001 52.4091 172.308 52.4943 172.679 52.4943ZM181.994 54.142C181.331 54.142 180.731 53.9716 180.193 53.6307C179.659 53.286 179.235 52.7803 178.92 52.1136C178.61 51.4432 178.455 50.6212 178.455 49.6477C178.455 48.6477 178.616 47.8163 178.938 47.1534C179.259 46.4867 179.688 45.9886 180.222 45.6591C180.759 45.3258 181.348 45.1591 181.989 45.1591C182.477 45.1591 182.884 45.2424 183.21 45.4091C183.54 45.572 183.805 45.7765 184.006 46.0227C184.21 46.2652 184.366 46.5038 184.472 46.7386H184.545V42.3636H186.96V54H184.574V52.6023H184.472C184.358 52.8447 184.197 53.0852 183.989 53.3239C183.784 53.5587 183.517 53.7538 183.188 53.9091C182.862 54.0644 182.464 54.142 181.994 54.142ZM182.761 52.2159C183.152 52.2159 183.481 52.1098 183.75 51.8977C184.023 51.6818 184.231 51.3807 184.375 50.9943C184.523 50.608 184.597 50.1553 184.597 49.6364C184.597 49.1174 184.525 48.6667 184.381 48.2841C184.237 47.9015 184.028 47.6061 183.756 47.3977C183.483 47.1894 183.152 47.0852 182.761 47.0852C182.364 47.0852 182.028 47.1932 181.756 47.4091C181.483 47.625 181.277 47.9242 181.136 48.3068C180.996 48.6894 180.926 49.1326 180.926 49.6364C180.926 50.1439 180.996 50.5928 181.136 50.983C181.28 51.3693 181.487 51.6723 181.756 51.892C182.028 52.108 182.364 52.2159 182.761 52.2159ZM192.893 54.1705C192 54.1705 191.231 53.9811 190.587 53.6023C189.946 53.2197 189.454 52.6894 189.109 52.0114C188.768 51.3333 188.598 50.553 188.598 49.6705C188.598 48.7765 188.77 47.9924 189.115 47.3182C189.464 46.6402 189.958 46.1117 190.598 45.733C191.238 45.3504 192 45.1591 192.882 45.1591C193.643 45.1591 194.31 45.2973 194.882 45.5739C195.454 45.8504 195.907 46.2386 196.24 46.7386C196.573 47.2386 196.757 47.8258 196.791 48.5H194.507C194.443 48.0644 194.272 47.714 193.996 47.4489C193.723 47.1799 193.365 47.0455 192.922 47.0455C192.547 47.0455 192.219 47.1477 191.939 47.3523C191.662 47.553 191.446 47.8466 191.291 48.233C191.136 48.6193 191.058 49.0871 191.058 49.6364C191.058 50.1932 191.134 50.6667 191.286 51.0568C191.441 51.447 191.659 51.7443 191.939 51.9489C192.219 52.1534 192.547 52.2557 192.922 52.2557C193.198 52.2557 193.446 52.1989 193.666 52.0852C193.89 51.9716 194.073 51.8068 194.217 51.5909C194.365 51.3712 194.462 51.108 194.507 50.8011H196.791C196.753 51.4678 196.571 52.0549 196.246 52.5625C195.924 53.0663 195.479 53.4602 194.911 53.7443C194.342 54.0284 193.67 54.1705 192.893 54.1705ZM200.83 54.1648C200.273 54.1648 199.777 54.0682 199.341 53.875C198.905 53.678 198.561 53.3883 198.307 53.0057C198.057 52.6193 197.932 52.1383 197.932 51.5625C197.932 51.0777 198.021 50.6705 198.199 50.3409C198.377 50.0114 198.619 49.7462 198.926 49.5455C199.233 49.3447 199.581 49.1932 199.972 49.0909C200.366 48.9886 200.778 48.9167 201.21 48.875C201.718 48.822 202.127 48.7727 202.438 48.7273C202.748 48.678 202.973 48.6061 203.114 48.5114C203.254 48.4167 203.324 48.2765 203.324 48.0909V48.0568C203.324 47.697 203.21 47.4186 202.983 47.2216C202.759 47.0246 202.441 46.9261 202.028 46.9261C201.593 46.9261 201.246 47.0227 200.989 47.2159C200.731 47.4053 200.561 47.6439 200.477 47.9318L198.239 47.75C198.352 47.2197 198.576 46.7614 198.909 46.375C199.242 45.9848 199.672 45.6856 200.199 45.4773C200.729 45.2652 201.343 45.1591 202.04 45.1591C202.525 45.1591 202.989 45.2159 203.432 45.3295C203.879 45.4432 204.275 45.6193 204.619 45.858C204.968 46.0966 205.242 46.4034 205.443 46.7784C205.644 47.1496 205.744 47.5947 205.744 48.1136V54H203.449V52.7898H203.381C203.241 53.0625 203.053 53.303 202.818 53.5114C202.583 53.7159 202.301 53.8769 201.972 53.9943C201.642 54.108 201.261 54.1648 200.83 54.1648ZM201.523 52.4943C201.879 52.4943 202.193 52.4242 202.466 52.2841C202.739 52.1402 202.953 51.947 203.108 51.7045C203.263 51.4621 203.341 51.1875 203.341 50.8807V49.9545C203.265 50.0038 203.161 50.0492 203.028 50.0909C202.9 50.1288 202.754 50.1648 202.591 50.1989C202.428 50.2292 202.265 50.2576 202.102 50.2841C201.939 50.3068 201.792 50.3277 201.659 50.3466C201.375 50.3883 201.127 50.4545 200.915 50.5455C200.703 50.6364 200.538 50.7595 200.42 50.9148C200.303 51.0663 200.244 51.2557 200.244 51.483C200.244 51.8125 200.364 52.0644 200.602 52.2386C200.845 52.4091 201.152 52.4943 201.523 52.4943ZM214.884 47.7614L212.668 47.8977C212.63 47.7083 212.548 47.5379 212.423 47.3864C212.298 47.2311 212.134 47.108 211.929 47.017C211.728 46.9223 211.488 46.875 211.207 46.875C210.832 46.875 210.516 46.9545 210.259 47.1136C210.001 47.2689 209.872 47.4773 209.872 47.7386C209.872 47.947 209.955 48.1231 210.122 48.267C210.289 48.411 210.575 48.5265 210.98 48.6136L212.56 48.9318C213.408 49.1061 214.041 49.3864 214.457 49.7727C214.874 50.1591 215.082 50.6667 215.082 51.2955C215.082 51.8674 214.914 52.3693 214.577 52.8011C214.243 53.233 213.785 53.5701 213.202 53.8125C212.622 54.0511 211.954 54.1705 211.196 54.1705C210.041 54.1705 209.12 53.9299 208.435 53.4489C207.753 52.964 207.353 52.3049 207.236 51.4716L209.616 51.3466C209.688 51.6989 209.863 51.9678 210.139 52.1534C210.416 52.3352 210.77 52.4261 211.202 52.4261C211.626 52.4261 211.967 52.3447 212.224 52.1818C212.486 52.0152 212.618 51.8011 212.622 51.5398C212.618 51.3201 212.526 51.1402 212.344 51C212.162 50.8561 211.882 50.7462 211.503 50.6705L209.991 50.3693C209.139 50.1989 208.505 49.9034 208.088 49.483C207.675 49.0625 207.469 48.5265 207.469 47.875C207.469 47.3144 207.62 46.8314 207.923 46.4261C208.23 46.0208 208.66 45.7083 209.213 45.4886C209.77 45.2689 210.421 45.1591 211.168 45.1591C212.27 45.1591 213.137 45.392 213.77 45.858C214.406 46.3239 214.777 46.9583 214.884 47.7614ZM221.249 45.2727V47.0909H215.993V45.2727H221.249ZM217.186 43.1818H219.607V51.3182C219.607 51.5417 219.641 51.7159 219.709 51.8409C219.777 51.9621 219.872 52.0473 219.993 52.0966C220.118 52.1458 220.262 52.1705 220.425 52.1705C220.538 52.1705 220.652 52.161 220.766 52.142C220.879 52.1193 220.966 52.1023 221.027 52.0909L221.408 53.892C221.286 53.9299 221.116 53.9735 220.896 54.0227C220.677 54.0758 220.41 54.108 220.095 54.1193C219.512 54.142 219 54.0644 218.561 53.8864C218.125 53.7083 217.786 53.4318 217.544 53.0568C217.302 52.6818 217.182 52.2083 217.186 51.6364V43.1818ZM228.58 54H225.943L229.96 42.3636H233.131L237.142 54H234.506L231.591 45.0227H231.5L228.58 54ZM228.415 49.4261H234.642V51.3466H228.415V49.4261ZM238.497 57.2727V45.2727H240.884V46.7386H240.991C241.098 46.5038 241.251 46.2652 241.452 46.0227C241.656 45.7765 241.921 45.572 242.247 45.4091C242.577 45.2424 242.986 45.1591 243.474 45.1591C244.111 45.1591 244.698 45.3258 245.236 45.6591C245.774 45.9886 246.204 46.4867 246.526 47.1534C246.848 47.8163 247.009 48.6477 247.009 49.6477C247.009 50.6212 246.851 51.4432 246.537 52.1136C246.226 52.7803 245.802 53.286 245.264 53.6307C244.73 53.9716 244.132 54.142 243.469 54.142C242.999 54.142 242.599 54.0644 242.27 53.9091C241.944 53.7538 241.677 53.5587 241.469 53.3239C241.26 53.0852 241.101 52.8447 240.991 52.6023H240.918V57.2727H238.497ZM240.866 49.6364C240.866 50.1553 240.938 50.608 241.082 50.9943C241.226 51.3807 241.435 51.6818 241.707 51.8977C241.98 52.1098 242.312 52.2159 242.702 52.2159C243.096 52.2159 243.429 52.108 243.702 51.892C243.974 51.6723 244.181 51.3693 244.321 50.983C244.465 50.5928 244.537 50.1439 244.537 49.6364C244.537 49.1326 244.467 48.6894 244.327 48.3068C244.187 47.9242 243.98 47.625 243.707 47.4091C243.435 47.1932 243.099 47.0852 242.702 47.0852C242.308 47.0852 241.974 47.1894 241.702 47.3977C241.433 47.6061 241.226 47.9015 241.082 48.2841C240.938 48.6667 240.866 49.1174 240.866 49.6364ZM248.622 57.2727V45.2727H251.009V46.7386H251.116C251.223 46.5038 251.376 46.2652 251.577 46.0227C251.781 45.7765 252.046 45.572 252.372 45.4091C252.702 45.2424 253.111 45.1591 253.599 45.1591C254.236 45.1591 254.823 45.3258 255.361 45.6591C255.899 45.9886 256.329 46.4867 256.651 47.1534C256.973 47.8163 257.134 48.6477 257.134 49.6477C257.134 50.6212 256.976 51.4432 256.662 52.1136C256.351 52.7803 255.927 53.286 255.389 53.6307C254.855 53.9716 254.257 54.142 253.594 54.142C253.124 54.142 252.724 54.0644 252.395 53.9091C252.069 53.7538 251.802 53.5587 251.594 53.3239C251.385 53.0852 251.226 52.8447 251.116 52.6023H251.043V57.2727H248.622ZM250.991 49.6364C250.991 50.1553 251.063 50.608 251.207 50.9943C251.351 51.3807 251.56 51.6818 251.832 51.8977C252.105 52.1098 252.437 52.2159 252.827 52.2159C253.221 52.2159 253.554 52.108 253.827 51.892C254.099 51.6723 254.306 51.3693 254.446 50.983C254.59 50.5928 254.662 50.1439 254.662 49.6364C254.662 49.1326 254.592 48.6894 254.452 48.3068C254.312 47.9242 254.105 47.625 253.832 47.4091C253.56 47.1932 253.224 47.0852 252.827 47.0852C252.433 47.0852 252.099 47.1894 251.827 47.3977C251.558 47.6061 251.351 47.9015 251.207 48.2841C251.063 48.6667 250.991 49.1174 250.991 49.6364Z" fill="#1E3A8A"/>
<rect x="119" y="29" width="162" height="38" rx="19" stroke="#92BEF4" stroke-width="6"/>
<rect opacity="0.2" x="90" y="190" width="220" height="220" rx="110" fill="#1E3A8A"/>
<g filter="url(#filter0_d_6_65)">
<rect x="100" y="200" width="200" height="200" rx="100" fill="#BFDBFE"/>
</g>
<path d="M161.415 310V295.974H165.88V310H161.415ZM163.652 294.339C163.025 294.339 162.487 294.133 162.036 293.719C161.586 293.298 161.36 292.793 161.36 292.203C161.36 291.618 161.586 291.119 162.036 290.705C162.487 290.285 163.025 290.075 163.652 290.075C164.285 290.075 164.824 290.285 165.269 290.705C165.719 291.119 165.944 291.618 165.944 292.203C165.944 292.793 165.719 293.298 165.269 293.719C164.824 294.133 164.285 294.339 163.652 294.339Z" fill="#1E3A8A"/>
<path d="M173.831 302.001V310H169.365V295.974H173.612V298.549H173.767C174.077 297.691 174.607 297.018 175.356 296.531C176.105 296.038 176.996 295.791 178.031 295.791C179.017 295.791 179.873 296.014 180.597 296.458C181.328 296.896 181.894 297.511 182.296 298.303C182.704 299.088 182.904 300.007 182.898 301.06V310H178.433V301.937C178.439 301.158 178.241 300.549 177.839 300.111C177.444 299.672 176.893 299.453 176.187 299.453C175.718 299.453 175.304 299.557 174.945 299.764C174.592 299.964 174.318 300.254 174.123 300.631C173.934 301.009 173.837 301.465 173.831 302.001Z" fill="#1E3A8A"/>
<path d="M186.306 310V291.299H190.826V306.329H198.606V310H186.306Z" fill="#1E3A8A"/>
<path d="M201.589 310V295.974H206.054V310H201.589ZM203.826 294.339C203.199 294.339 202.66 294.133 202.21 293.719C201.759 293.298 201.534 292.793 201.534 292.203C201.534 291.618 201.759 291.119 202.21 290.705C202.66 290.285 203.199 290.075 203.826 290.075C204.459 290.075 204.998 290.285 205.442 290.705C205.893 291.119 206.118 291.618 206.118 292.203C206.118 292.793 205.893 293.298 205.442 293.719C204.998 294.133 204.459 294.339 203.826 294.339Z" fill="#1E3A8A"/>
<path d="M223.145 295.974L218.333 310H213.219L208.416 295.974H213.119L215.703 305.635H215.849L218.442 295.974H223.145Z" fill="#1E3A8A"/>
<path d="M231.604 310.265C230.137 310.265 228.871 309.976 227.806 309.397C226.746 308.813 225.931 307.982 225.358 306.904C224.792 305.821 224.509 304.533 224.509 303.042C224.509 301.593 224.795 300.327 225.368 299.243C225.94 298.153 226.746 297.307 227.787 296.705C228.828 296.096 230.055 295.791 231.467 295.791C232.466 295.791 233.379 295.947 234.207 296.257C235.035 296.568 235.75 297.027 236.353 297.636C236.955 298.245 237.424 298.997 237.759 299.891C238.094 300.78 238.261 301.8 238.261 302.95V304.065H226.071V301.471H234.106C234.1 300.996 233.988 300.573 233.769 300.202C233.549 299.831 233.248 299.541 232.865 299.334C232.487 299.121 232.052 299.015 231.559 299.015C231.06 299.015 230.612 299.127 230.216 299.353C229.821 299.572 229.507 299.873 229.276 300.257C229.044 300.634 228.923 301.063 228.911 301.544V304.183C228.911 304.755 229.023 305.258 229.248 305.69C229.474 306.116 229.793 306.448 230.207 306.685C230.621 306.923 231.114 307.041 231.687 307.041C232.082 307.041 232.441 306.987 232.764 306.877C233.087 306.767 233.364 306.606 233.595 306.393C233.826 306.18 234 305.918 234.116 305.608L238.216 305.726C238.045 306.646 237.671 307.446 237.092 308.128C236.52 308.804 235.768 309.33 234.837 309.708C233.905 310.079 232.828 310.265 231.604 310.265Z" fill="#1E3A8A"/>
<path d="M200 67V193" stroke="url(#paint1_linear_6_65)" stroke-width="6" stroke-linecap="round"/>
<path d="M200 406V532" stroke="url(#paint2_linear_6_65)" stroke-width="6" stroke-linecap="round"/>
<path d="M92 139.5L153 203" stroke="url(#paint3_linear_6_65)" stroke-width="6" stroke-linecap="round"/>
<path d="M312 155L249 203" stroke="url(#paint4_linear_6_65)" stroke-width="6" stroke-linecap="round"/>
<path d="M152 395L85 445" stroke="url(#paint5_linear_6_65)" stroke-width="6" stroke-linecap="round"/>
<path d="M243 395L299.5 459" stroke="url(#paint6_linear_6_65)" stroke-width="6" stroke-linecap="round"/>
<defs>
<filter id="filter0_d_6_65" x="92" y="192" width="216" height="216" filterUnits="userSpaceOnUse" color-interpolation-filters="sRGB">
<feFlood flood-opacity="0" result="BackgroundImageFix"/>
<feColorMatrix in="SourceAlpha" type="matrix" values="0 0 0 0 0 0 0 0 0 0 0 0 0 0 0 0 0 0 127 0" result="hardAlpha"/>
<feOffset/>
<feGaussianBlur stdDeviation="4"/>
<feComposite in2="hardAlpha" operator="out"/>
<feColorMatrix type="matrix" values="0 0 0 0 0 0 0 0 0 0 0 0 0 0 0 0 0 0 0.08 0"/>
<feBlend mode="normal" in2="BackgroundImageFix" result="effect1_dropShadow_6_65"/>
<feBlend mode="normal" in="SourceGraphic" in2="effect1_dropShadow_6_65" result="shape"/>
</filter>
<linearGradient id="paint0_linear_6_65" x1="200" y1="0" x2="200" y2="600" gradientUnits="userSpaceOnUse">
<stop stop-color="#BFDBFE"/>
<stop offset="1" stop-color="#93C5FD"/>
</linearGradient>
<linearGradient id="paint1_linear_6_65" x1="199.498" y1="74.9996" x2="199.998" y2="195" gradientUnits="userSpaceOnUse">
<stop stop-color="#92BEF4"/>
<stop offset="1" stop-color="#93B4E6"/>
</linearGradient>
<linearGradient id="paint2_linear_6_65" x1="199.498" y1="414" x2="199.998" y2="534" gradientUnits="userSpaceOnUse">
<stop stop-color="#87AFE6"/>
<stop offset="1" stop-color="#92BEF4"/>
</linearGradient>
<linearGradient id="paint3_linear_6_65" x1="58.4336" y1="147.025" x2="58.4354" y2="203.95" gradientUnits="userSpaceOnUse">
<stop stop-color="#92BEF4"/>
<stop offset="1" stop-color="#93B4E6"/>
</linearGradient>
<linearGradient id="paint4_linear_6_65" x1="343.47" y1="154.59" x2="343.469" y2="203.821" gradientUnits="userSpaceOnUse">
<stop stop-color="#92BEF4"/>
<stop offset="1" stop-color="#93B4E6"/>
</linearGradient>
<linearGradient id="paint5_linear_6_65" x1="164.516" y1="399.352" x2="146.892" y2="461.744" gradientUnits="userSpaceOnUse">
<stop stop-color="#88AFE6"/>
<stop offset="1" stop-color="#92BEF4"/>
</linearGradient>
<linearGradient id="paint6_linear_6_65" x1="230.484" y1="400.005" x2="253.249" y2="470.085" gradientUnits="userSpaceOnUse">
<stop stop-color="#88AFE6"/>
<stop offset="1" stop-color="#92BEF4"/>
</linearGradient>
</defs>
</svg>
