<svg width="1216" height="400" viewBox="0 0 1216 400" fill="none" xmlns="http://www.w3.org/2000/svg">
<rect width="1216" height="400" rx="16" fill="url(#paint0_linear_1_80)"/>
<g filter="url(#filter0_d_1_80)">
<rect x="877" y="170" width="143" height="60" rx="8" fill="#BFDBFE" shape-rendering="crispEdges"/>
<path d="M896.503 193.909L899.667 203.855H899.788L902.959 193.909H906.027L901.514 207H897.947L893.428 193.909H896.503ZM907.551 207V197.182H910.275V207H907.551ZM908.919 195.916C908.515 195.916 908.167 195.782 907.877 195.513C907.592 195.241 907.449 194.915 907.449 194.536C907.449 194.161 907.592 193.839 907.877 193.57C908.167 193.298 908.515 193.161 908.919 193.161C909.324 193.161 909.669 193.298 909.955 193.57C910.245 193.839 910.39 194.161 910.39 194.536C910.39 194.915 910.245 195.241 909.955 195.513C909.669 195.782 909.324 195.916 908.919 195.916ZM916.074 207.16C915.328 207.16 914.653 206.968 914.047 206.585C913.447 206.197 912.969 205.628 912.616 204.878C912.266 204.124 912.091 203.199 912.091 202.104C912.091 200.979 912.273 200.043 912.635 199.298C912.997 198.548 913.479 197.987 914.079 197.616C914.684 197.241 915.347 197.054 916.067 197.054C916.617 197.054 917.075 197.148 917.442 197.335C917.812 197.518 918.111 197.749 918.336 198.026C918.567 198.298 918.741 198.567 918.861 198.831H918.944V193.909H921.66V207H918.976V205.428H918.861C918.733 205.7 918.552 205.971 918.317 206.239C918.087 206.504 917.787 206.723 917.416 206.898C917.05 207.072 916.602 207.16 916.074 207.16ZM916.937 204.993C917.376 204.993 917.746 204.874 918.049 204.635C918.356 204.392 918.59 204.053 918.752 203.619C918.918 203.184 919.001 202.675 919.001 202.091C919.001 201.507 918.92 201 918.758 200.57C918.596 200.139 918.362 199.807 918.055 199.572C917.748 199.338 917.376 199.221 916.937 199.221C916.489 199.221 916.112 199.342 915.805 199.585C915.498 199.828 915.266 200.165 915.108 200.595C914.951 201.026 914.872 201.524 914.872 202.091C914.872 202.662 914.951 203.167 915.108 203.606C915.27 204.04 915.503 204.381 915.805 204.629C916.112 204.871 916.489 204.993 916.937 204.993ZM928.374 207.192C927.364 207.192 926.494 206.987 925.766 206.578C925.041 206.165 924.483 205.581 924.091 204.827C923.699 204.068 923.503 203.171 923.503 202.136C923.503 201.126 923.699 200.239 924.091 199.477C924.483 198.714 925.035 198.119 925.746 197.693C926.462 197.267 927.302 197.054 928.265 197.054C928.913 197.054 929.516 197.158 930.074 197.367C930.636 197.572 931.126 197.881 931.544 198.294C931.966 198.707 932.294 199.227 932.528 199.854C932.763 200.476 932.88 201.205 932.88 202.04V202.788H924.589V201.1H930.317C930.317 200.708 930.232 200.361 930.061 200.058C929.891 199.756 929.654 199.519 929.352 199.349C929.053 199.174 928.706 199.087 928.31 199.087C927.896 199.087 927.53 199.183 927.21 199.374C926.895 199.562 926.648 199.815 926.469 200.135C926.29 200.45 926.198 200.802 926.194 201.19V202.794C926.194 203.28 926.283 203.7 926.462 204.053C926.646 204.407 926.903 204.68 927.236 204.871C927.568 205.063 927.962 205.159 928.418 205.159C928.721 205.159 928.998 205.116 929.249 205.031C929.501 204.946 929.716 204.818 929.895 204.648C930.074 204.477 930.21 204.268 930.304 204.021L932.822 204.188C932.695 204.793 932.433 205.321 932.036 205.773C931.644 206.22 931.137 206.57 930.515 206.821C929.897 207.068 929.183 207.192 928.374 207.192ZM939.093 207.192C938.1 207.192 937.241 206.981 936.517 206.559C935.797 206.133 935.241 205.54 934.849 204.782C934.457 204.019 934.261 203.135 934.261 202.129C934.261 201.115 934.457 200.229 934.849 199.47C935.241 198.707 935.797 198.115 936.517 197.693C937.241 197.267 938.1 197.054 939.093 197.054C940.086 197.054 940.942 197.267 941.663 197.693C942.387 198.115 942.945 198.707 943.337 199.47C943.729 200.229 943.925 201.115 943.925 202.129C943.925 203.135 943.729 204.019 943.337 204.782C942.945 205.54 942.387 206.133 941.663 206.559C940.942 206.981 940.086 207.192 939.093 207.192ZM939.106 205.082C939.558 205.082 939.935 204.955 940.237 204.699C940.54 204.439 940.768 204.085 940.921 203.638C941.079 203.19 941.158 202.681 941.158 202.11C941.158 201.539 941.079 201.03 940.921 200.582C940.768 200.135 940.54 199.781 940.237 199.521C939.935 199.261 939.558 199.131 939.106 199.131C938.65 199.131 938.266 199.261 937.955 199.521C937.648 199.781 937.416 200.135 937.259 200.582C937.105 201.03 937.028 201.539 937.028 202.11C937.028 202.681 937.105 203.19 937.259 203.638C937.416 204.085 937.648 204.439 937.955 204.699C938.266 204.955 938.65 205.082 939.106 205.082ZM949.913 207V193.909H955.078C956.071 193.909 956.917 194.099 957.616 194.478C958.314 194.853 958.847 195.375 959.214 196.044C959.584 196.709 959.77 197.476 959.77 198.345C959.77 199.214 959.582 199.982 959.207 200.646C958.832 201.311 958.289 201.829 957.577 202.2C956.87 202.57 956.013 202.756 955.008 202.756H951.716V200.538H954.56C955.093 200.538 955.532 200.446 955.877 200.263C956.226 200.075 956.486 199.817 956.657 199.489C956.831 199.157 956.919 198.776 956.919 198.345C956.919 197.911 956.831 197.531 956.657 197.207C956.486 196.879 956.226 196.626 955.877 196.447C955.528 196.263 955.084 196.172 954.547 196.172H952.681V207H949.913ZM964.239 193.909V207H961.516V193.909H964.239ZM969.22 207.185C968.594 207.185 968.036 207.077 967.546 206.859C967.056 206.638 966.668 206.312 966.382 205.881C966.101 205.447 965.96 204.906 965.96 204.258C965.96 203.712 966.061 203.254 966.261 202.884C966.461 202.513 966.734 202.214 967.079 201.989C967.424 201.763 967.816 201.592 968.255 201.477C968.698 201.362 969.163 201.281 969.649 201.234C970.22 201.175 970.68 201.119 971.029 201.068C971.379 201.013 971.632 200.932 971.79 200.825C971.948 200.719 972.026 200.561 972.026 200.352V200.314C972.026 199.909 971.899 199.596 971.643 199.374C971.392 199.153 971.034 199.042 970.569 199.042C970.079 199.042 969.689 199.151 969.399 199.368C969.11 199.581 968.918 199.849 968.824 200.173L966.306 199.969C966.433 199.372 966.685 198.857 967.06 198.422C967.435 197.983 967.919 197.646 968.511 197.412C969.107 197.173 969.798 197.054 970.582 197.054C971.127 197.054 971.649 197.118 972.148 197.246C972.651 197.374 973.096 197.572 973.484 197.84C973.876 198.109 974.185 198.454 974.411 198.876C974.637 199.293 974.749 199.794 974.749 200.378V207H972.167V205.638H972.09C971.933 205.945 971.722 206.216 971.458 206.45C971.193 206.68 970.876 206.862 970.505 206.994C970.134 207.121 969.706 207.185 969.22 207.185ZM970 205.306C970.401 205.306 970.754 205.227 971.061 205.07C971.368 204.908 971.609 204.69 971.784 204.418C971.958 204.145 972.046 203.836 972.046 203.491V202.449C971.96 202.504 971.843 202.555 971.694 202.602C971.549 202.645 971.385 202.685 971.202 202.724C971.019 202.758 970.835 202.79 970.652 202.82C970.469 202.845 970.303 202.869 970.154 202.89C969.834 202.937 969.555 203.011 969.316 203.114C969.078 203.216 968.892 203.354 968.76 203.529C968.628 203.7 968.562 203.913 968.562 204.168C968.562 204.539 968.696 204.822 968.965 205.018C969.237 205.21 969.583 205.306 970 205.306ZM978.192 210.682C977.846 210.682 977.523 210.654 977.22 210.599C976.922 210.548 976.675 210.482 976.479 210.401L977.092 208.368C977.412 208.466 977.699 208.519 977.955 208.528C978.215 208.536 978.439 208.477 978.626 208.349C978.818 208.221 978.974 208.004 979.093 207.697L979.253 207.281L975.731 197.182H978.594L980.627 204.392H980.729L982.781 197.182H985.664L981.848 208.061C981.665 208.589 981.415 209.05 981.1 209.442C980.789 209.838 980.395 210.143 979.917 210.356C979.44 210.573 978.865 210.682 978.192 210.682ZM991.215 207.192C990.205 207.192 989.336 206.987 988.607 206.578C987.883 206.165 987.325 205.581 986.933 204.827C986.541 204.068 986.345 203.171 986.345 202.136C986.345 201.126 986.541 200.239 986.933 199.477C987.325 198.714 987.877 198.119 988.588 197.693C989.304 197.267 990.144 197.054 991.107 197.054C991.754 197.054 992.357 197.158 992.916 197.367C993.478 197.572 993.968 197.881 994.386 198.294C994.808 198.707 995.136 199.227 995.37 199.854C995.605 200.476 995.722 201.205 995.722 202.04V202.788H987.431V201.1H993.159C993.159 200.708 993.073 200.361 992.903 200.058C992.732 199.756 992.496 199.519 992.193 199.349C991.895 199.174 991.548 199.087 991.151 199.087C990.738 199.087 990.372 199.183 990.052 199.374C989.737 199.562 989.49 199.815 989.311 200.135C989.132 200.45 989.04 200.802 989.036 201.19V202.794C989.036 203.28 989.125 203.7 989.304 204.053C989.487 204.407 989.745 204.68 990.078 204.871C990.41 205.063 990.804 205.159 991.26 205.159C991.563 205.159 991.84 205.116 992.091 205.031C992.343 204.946 992.558 204.818 992.737 204.648C992.916 204.477 993.052 204.268 993.146 204.021L995.664 204.188C995.536 204.793 995.274 205.321 994.878 205.773C994.486 206.22 993.979 206.57 993.357 206.821C992.739 207.068 992.025 207.192 991.215 207.192ZM997.499 207V197.182H1000.14V198.895H1000.24C1000.42 198.286 1000.72 197.825 1001.14 197.514C1001.56 197.199 1002.05 197.041 1002.6 197.041C1002.74 197.041 1002.88 197.05 1003.04 197.067C1003.2 197.084 1003.34 197.107 1003.46 197.137V199.553C1003.33 199.515 1003.15 199.481 1002.93 199.451C1002.7 199.421 1002.49 199.406 1002.31 199.406C1001.91 199.406 1001.55 199.494 1001.23 199.668C1000.92 199.839 1000.67 200.077 1000.49 200.384C1000.31 200.691 1000.22 201.045 1000.22 201.445V207H997.499Z" fill="#1E40AF"/>
<rect x="878" y="171" width="141" height="58" rx="7" stroke="#60A5FA" stroke-width="2" shape-rendering="crispEdges"/>
</g>
<g filter="url(#filter1_d_1_80)">
<rect x="645" y="170" width="72" height="60" rx="8" fill="#BFDBFE" shape-rendering="crispEdges"/>
<path d="M673.688 198.492H670.888C670.837 198.13 670.733 197.808 670.575 197.527C670.418 197.241 670.215 196.999 669.968 196.798C669.721 196.598 669.435 196.445 669.112 196.338C668.792 196.232 668.445 196.178 668.07 196.178C667.392 196.178 666.802 196.347 666.299 196.683C665.796 197.016 665.406 197.501 665.129 198.141C664.852 198.776 664.714 199.547 664.714 200.455C664.714 201.388 664.852 202.172 665.129 202.807C665.411 203.442 665.803 203.921 666.305 204.245C666.808 204.569 667.39 204.731 668.05 204.731C668.421 204.731 668.764 204.682 669.08 204.584C669.399 204.486 669.683 204.343 669.93 204.156C670.177 203.964 670.381 203.732 670.543 203.459C670.71 203.186 670.825 202.875 670.888 202.526L673.688 202.538C673.616 203.139 673.435 203.719 673.145 204.277C672.859 204.831 672.474 205.327 671.988 205.766C671.506 206.201 670.931 206.546 670.262 206.802C669.597 207.053 668.845 207.179 668.006 207.179C666.838 207.179 665.794 206.915 664.874 206.386C663.957 205.858 663.233 205.093 662.7 204.092C662.172 203.09 661.908 201.878 661.908 200.455C661.908 199.027 662.176 197.812 662.713 196.811C663.25 195.81 663.979 195.047 664.899 194.523C665.82 193.994 666.855 193.73 668.006 193.73C668.764 193.73 669.467 193.837 670.115 194.05C670.767 194.263 671.344 194.574 671.847 194.983C672.35 195.388 672.759 195.884 673.075 196.472C673.394 197.06 673.599 197.734 673.688 198.492ZM680.314 207H675.673V193.909H680.352C681.669 193.909 682.802 194.171 683.752 194.695C684.703 195.215 685.434 195.963 685.945 196.939C686.461 197.915 686.718 199.082 686.718 200.442C686.718 201.805 686.461 202.977 685.945 203.957C685.434 204.937 684.699 205.69 683.74 206.214C682.785 206.738 681.643 207 680.314 207ZM678.441 204.629H680.199C681.017 204.629 681.705 204.484 682.263 204.194C682.826 203.9 683.248 203.446 683.529 202.832C683.814 202.214 683.957 201.418 683.957 200.442C683.957 199.474 683.814 198.684 683.529 198.07C683.248 197.457 682.828 197.005 682.27 196.715C681.711 196.425 681.023 196.281 680.205 196.281H678.441V204.629ZM699.718 193.909V207H697.328L691.632 198.761H691.536V207H688.769V193.909H691.198L696.848 202.142H696.963V193.909H699.718Z" fill="#1E40AF"/>
<rect x="646" y="171" width="70" height="58" rx="7" stroke="#60A5FA" stroke-width="2" shape-rendering="crispEdges"/>
</g>
<g filter="url(#filter2_d_1_80)">
<rect x="454" y="154" width="151" height="92" rx="8" fill="#BFDBFE" shape-rendering="crispEdges"/>
<path d="M487.087 207V197.182H489.81V207H487.087ZM488.455 195.916C488.05 195.916 487.702 195.782 487.413 195.513C487.127 195.241 486.984 194.915 486.984 194.536C486.984 194.161 487.127 193.839 487.413 193.57C487.702 193.298 488.05 193.161 488.455 193.161C488.859 193.161 489.205 193.298 489.49 193.57C489.78 193.839 489.925 194.161 489.925 194.536C489.925 194.915 489.78 195.241 489.49 195.513C489.205 195.782 488.859 195.916 488.455 195.916ZM494.714 201.324V207H491.991V197.182H494.586V198.914H494.701C494.919 198.343 495.283 197.891 495.794 197.559C496.306 197.222 496.926 197.054 497.654 197.054C498.336 197.054 498.931 197.203 499.438 197.501C499.945 197.8 500.339 198.226 500.62 198.78C500.901 199.33 501.042 199.986 501.042 200.749V207H498.319V201.234C498.323 200.634 498.17 200.165 497.859 199.828C497.548 199.487 497.119 199.317 496.574 199.317C496.208 199.317 495.884 199.396 495.602 199.553C495.325 199.711 495.108 199.941 494.95 200.244C494.797 200.542 494.718 200.902 494.714 201.324ZM503.239 207V193.909H506.007V204.718H511.619V207H503.239ZM513.401 207V197.182H516.124V207H513.401ZM514.769 195.916C514.364 195.916 514.017 195.782 513.727 195.513C513.442 195.241 513.299 194.915 513.299 194.536C513.299 194.161 513.442 193.839 513.727 193.57C514.017 193.298 514.364 193.161 514.769 193.161C515.174 193.161 515.519 193.298 515.805 193.57C516.094 193.839 516.239 194.161 516.239 194.536C516.239 194.915 516.094 195.241 515.805 195.513C515.519 195.782 515.174 195.916 514.769 195.916ZM527.459 197.182L524.026 207H520.958L517.526 197.182H520.402L522.441 204.207H522.543L524.576 197.182H527.459ZM533.01 207.192C532 207.192 531.131 206.987 530.402 206.578C529.678 206.165 529.12 205.581 528.728 204.827C528.336 204.068 528.14 203.171 528.14 202.136C528.14 201.126 528.336 200.239 528.728 199.477C529.12 198.714 529.672 198.119 530.383 197.693C531.099 197.267 531.939 197.054 532.902 197.054C533.549 197.054 534.152 197.158 534.711 197.367C535.273 197.572 535.763 197.881 536.181 198.294C536.603 198.707 536.931 199.227 537.165 199.854C537.4 200.476 537.517 201.205 537.517 202.04V202.788H529.226V201.1H534.953C534.953 200.708 534.868 200.361 534.698 200.058C534.527 199.756 534.291 199.519 533.988 199.349C533.69 199.174 533.343 199.087 532.946 199.087C532.533 199.087 532.167 199.183 531.847 199.374C531.532 199.562 531.284 199.815 531.105 200.135C530.926 200.45 530.835 200.802 530.831 201.19V202.794C530.831 203.28 530.92 203.7 531.099 204.053C531.282 204.407 531.54 204.68 531.873 204.871C532.205 205.063 532.599 205.159 533.055 205.159C533.358 205.159 533.635 205.116 533.886 205.031C534.137 204.946 534.353 204.818 534.532 204.648C534.711 204.477 534.847 204.268 534.941 204.021L537.459 204.188C537.331 204.793 537.069 205.321 536.673 205.773C536.281 206.22 535.774 206.57 535.152 206.821C534.534 207.068 533.82 207.192 533.01 207.192ZM545.767 207H542.801L547.32 193.909H550.887L555.4 207H552.434L549.155 196.901H549.053L545.767 207ZM545.582 201.854H552.588V204.015H545.582V201.854ZM556.976 207V193.909H562.14C563.133 193.909 563.979 194.099 564.678 194.478C565.377 194.853 565.91 195.375 566.276 196.044C566.647 196.709 566.832 197.476 566.832 198.345C566.832 199.214 566.645 199.982 566.27 200.646C565.895 201.311 565.351 201.829 564.64 202.2C563.932 202.57 563.076 202.756 562.07 202.756H558.778V200.538H561.623C562.155 200.538 562.594 200.446 562.939 200.263C563.289 200.075 563.549 199.817 563.719 199.489C563.894 199.157 563.981 198.776 563.981 198.345C563.981 197.911 563.894 197.531 563.719 197.207C563.549 196.879 563.289 196.626 562.939 196.447C562.59 196.263 562.147 196.172 561.61 196.172H559.743V207H556.976ZM571.398 193.909V207H568.63V193.909H571.398Z" fill="#1E40AF"/>
<rect x="455" y="155" width="149" height="90" rx="7" stroke="#60A5FA" stroke-width="2" shape-rendering="crispEdges"/>
</g>
<g filter="url(#filter3_d_1_80)">
<rect x="196" y="170" width="113" height="60" rx="8" fill="#BFDBFE" shape-rendering="crispEdges"/>
<path d="M212.371 193.909H215.471L218.456 199.547H218.584L221.569 193.909H224.669L219.894 202.372V207H217.146V202.372L212.371 193.909ZM228.509 207.192C227.516 207.192 226.657 206.981 225.933 206.559C225.213 206.133 224.657 205.54 224.265 204.782C223.873 204.019 223.677 203.135 223.677 202.129C223.677 201.115 223.873 200.229 224.265 199.47C224.657 198.707 225.213 198.115 225.933 197.693C226.657 197.267 227.516 197.054 228.509 197.054C229.502 197.054 230.358 197.267 231.079 197.693C231.803 198.115 232.361 198.707 232.753 199.47C233.145 200.229 233.341 201.115 233.341 202.129C233.341 203.135 233.145 204.019 232.753 204.782C232.361 205.54 231.803 206.133 231.079 206.559C230.358 206.981 229.502 207.192 228.509 207.192ZM228.522 205.082C228.974 205.082 229.351 204.955 229.653 204.699C229.956 204.439 230.184 204.085 230.337 203.638C230.495 203.19 230.574 202.681 230.574 202.11C230.574 201.539 230.495 201.03 230.337 200.582C230.184 200.135 229.956 199.781 229.653 199.521C229.351 199.261 228.974 199.131 228.522 199.131C228.066 199.131 227.682 199.261 227.371 199.521C227.064 199.781 226.832 200.135 226.675 200.582C226.521 201.03 226.444 201.539 226.444 202.11C226.444 202.681 226.521 203.19 226.675 203.638C226.832 204.085 227.064 204.439 227.371 204.699C227.682 204.955 228.066 205.082 228.522 205.082ZM241.408 202.82V197.182H244.131V207H241.517V205.217H241.415C241.193 205.792 240.824 206.254 240.309 206.604C239.797 206.953 239.173 207.128 238.436 207.128C237.78 207.128 237.202 206.979 236.704 206.68C236.205 206.382 235.815 205.958 235.534 205.408C235.257 204.859 235.116 204.2 235.112 203.433V197.182H237.835V202.947C237.839 203.527 237.995 203.985 238.302 204.322C238.608 204.658 239.02 204.827 239.535 204.827C239.863 204.827 240.17 204.752 240.456 204.603C240.741 204.45 240.971 204.224 241.146 203.925C241.325 203.627 241.412 203.259 241.408 202.82ZM246.309 207V197.182H248.949V198.895H249.051C249.23 198.286 249.531 197.825 249.953 197.514C250.375 197.199 250.86 197.041 251.41 197.041C251.547 197.041 251.694 197.05 251.851 197.067C252.009 197.084 252.147 197.107 252.267 197.137V199.553C252.139 199.515 251.962 199.481 251.736 199.451C251.51 199.421 251.304 199.406 251.116 199.406C250.716 199.406 250.358 199.494 250.042 199.668C249.731 199.839 249.484 200.077 249.301 200.384C249.122 200.691 249.032 201.045 249.032 201.445V207H246.309ZM260.148 207H257.182L261.701 193.909H265.268L269.781 207H266.815L263.536 196.901H263.434L260.148 207ZM259.963 201.854H266.968V204.015H259.963V201.854ZM271.305 210.682V197.182H273.99V198.831H274.112C274.231 198.567 274.403 198.298 274.629 198.026C274.859 197.749 275.158 197.518 275.524 197.335C275.895 197.148 276.355 197.054 276.905 197.054C277.621 197.054 278.281 197.241 278.886 197.616C279.491 197.987 279.975 198.548 280.337 199.298C280.7 200.043 280.881 200.979 280.881 202.104C280.881 203.199 280.704 204.124 280.35 204.878C280.001 205.628 279.523 206.197 278.918 206.585C278.317 206.968 277.644 207.16 276.898 207.16C276.37 207.16 275.92 207.072 275.55 206.898C275.183 206.723 274.883 206.504 274.648 206.239C274.414 205.971 274.235 205.7 274.112 205.428H274.028V210.682H271.305ZM273.971 202.091C273.971 202.675 274.052 203.184 274.214 203.619C274.376 204.053 274.61 204.392 274.917 204.635C275.224 204.874 275.597 204.993 276.036 204.993C276.479 204.993 276.854 204.871 277.161 204.629C277.467 204.381 277.7 204.04 277.857 203.606C278.019 203.167 278.1 202.662 278.1 202.091C278.1 201.524 278.021 201.026 277.864 200.595C277.706 200.165 277.474 199.828 277.167 199.585C276.86 199.342 276.483 199.221 276.036 199.221C275.592 199.221 275.217 199.338 274.911 199.572C274.608 199.807 274.376 200.139 274.214 200.57C274.052 201 273.971 201.507 273.971 202.091ZM282.696 210.682V197.182H285.381V198.831H285.502C285.621 198.567 285.794 198.298 286.02 198.026C286.25 197.749 286.548 197.518 286.915 197.335C287.286 197.148 287.746 197.054 288.295 197.054C289.011 197.054 289.672 197.241 290.277 197.616C290.882 197.987 291.366 198.548 291.728 199.298C292.09 200.043 292.271 200.979 292.271 202.104C292.271 203.199 292.094 204.124 291.741 204.878C291.391 205.628 290.914 206.197 290.309 206.585C289.708 206.968 289.035 207.16 288.289 207.16C287.761 207.16 287.311 207.072 286.94 206.898C286.574 206.723 286.273 206.504 286.039 206.239C285.805 205.971 285.626 205.7 285.502 205.428H285.419V210.682H282.696ZM285.362 202.091C285.362 202.675 285.442 203.184 285.604 203.619C285.766 204.053 286.001 204.392 286.308 204.635C286.614 204.874 286.987 204.993 287.426 204.993C287.869 204.993 288.244 204.871 288.551 204.629C288.858 204.381 289.09 204.04 289.248 203.606C289.41 203.167 289.491 202.662 289.491 202.091C289.491 201.524 289.412 201.026 289.254 200.595C289.097 200.165 288.864 199.828 288.558 199.585C288.251 199.342 287.874 199.221 287.426 199.221C286.983 199.221 286.608 199.338 286.301 199.572C285.999 199.807 285.766 200.139 285.604 200.57C285.442 201 285.362 201.507 285.362 202.091Z" fill="#1E40AF"/>
<rect x="197" y="171" width="111" height="58" rx="7" stroke="#60A5FA" stroke-width="2" shape-rendering="crispEdges"/>
</g>
<path d="M877 200H717" stroke="#3B82F6" stroke-width="2" stroke-linecap="round"/>
<rect x="743" y="188" width="107" height="24" rx="8" fill="#3B82F6"/>
<path d="M759.885 205V194.818H762.038V199.019H766.408V194.818H768.555V205H766.408V200.794H762.038V205H759.885ZM770.33 205V194.818H772.483V203.225H776.848V205H770.33ZM783.797 197.746C783.757 197.345 783.587 197.034 783.285 196.812C782.983 196.59 782.574 196.479 782.057 196.479C781.706 196.479 781.409 196.528 781.167 196.628C780.925 196.724 780.74 196.858 780.61 197.031C780.484 197.203 780.421 197.398 780.421 197.617C780.415 197.799 780.453 197.959 780.536 198.094C780.622 198.23 780.74 198.348 780.889 198.447C781.038 198.544 781.21 198.628 781.406 198.701C781.601 198.771 781.81 198.83 782.032 198.88L782.947 199.099C783.391 199.198 783.799 199.331 784.17 199.496C784.541 199.662 784.863 199.866 785.134 200.108C785.406 200.35 785.617 200.635 785.766 200.963C785.918 201.291 785.996 201.667 785.999 202.092C785.996 202.715 785.837 203.255 785.522 203.712C785.211 204.166 784.76 204.519 784.17 204.771C783.583 205.02 782.876 205.144 782.047 205.144C781.225 205.144 780.509 205.018 779.899 204.766C779.293 204.514 778.819 204.142 778.477 203.648C778.139 203.151 777.962 202.536 777.945 201.803H780.029C780.052 202.145 780.15 202.43 780.322 202.658C780.498 202.884 780.731 203.054 781.023 203.17C781.318 203.283 781.651 203.339 782.022 203.339C782.387 203.339 782.703 203.286 782.972 203.18C783.244 203.074 783.454 202.927 783.603 202.738C783.752 202.549 783.827 202.332 783.827 202.087C783.827 201.858 783.759 201.666 783.623 201.51C783.49 201.354 783.295 201.222 783.036 201.112C782.781 201.003 782.468 200.903 782.097 200.814L780.988 200.536C780.13 200.327 779.452 200 778.955 199.556C778.458 199.112 778.211 198.514 778.214 197.761C778.211 197.145 778.375 196.606 778.706 196.146C779.041 195.685 779.5 195.325 780.083 195.067C780.667 194.808 781.329 194.679 782.072 194.679C782.828 194.679 783.487 194.808 784.051 195.067C784.617 195.325 785.058 195.685 785.373 196.146C785.688 196.606 785.85 197.14 785.86 197.746H783.797ZM795.083 194.341L791.801 206.531H789.977L793.258 194.341H795.083ZM802.992 205H799.383V194.818H803.022C804.046 194.818 804.928 195.022 805.667 195.43C806.406 195.834 806.975 196.416 807.372 197.175C807.773 197.934 807.974 198.842 807.974 199.899C807.974 200.96 807.773 201.871 807.372 202.634C806.975 203.396 806.403 203.981 805.657 204.388C804.915 204.796 804.026 205 802.992 205ZM801.536 203.156H802.903C803.539 203.156 804.075 203.043 804.509 202.817C804.946 202.589 805.274 202.236 805.493 201.759C805.715 201.278 805.826 200.658 805.826 199.899C805.826 199.147 805.715 198.532 805.493 198.055C805.274 197.577 804.948 197.226 804.514 197.001C804.079 196.775 803.544 196.663 802.908 196.663H801.536V203.156ZM811.706 205.144C811.219 205.144 810.785 205.06 810.404 204.891C810.023 204.718 809.721 204.465 809.499 204.13C809.28 203.792 809.171 203.371 809.171 202.867C809.171 202.443 809.249 202.087 809.404 201.798C809.56 201.51 809.772 201.278 810.041 201.102C810.309 200.927 810.614 200.794 810.956 200.705C811.3 200.615 811.662 200.552 812.039 200.516C812.484 200.469 812.842 200.426 813.113 200.386C813.385 200.343 813.582 200.28 813.705 200.197C813.828 200.115 813.889 199.992 813.889 199.83V199.8C813.889 199.485 813.789 199.241 813.591 199.069C813.395 198.897 813.117 198.81 812.755 198.81C812.374 198.81 812.071 198.895 811.846 199.064C811.62 199.23 811.471 199.438 811.398 199.69L809.439 199.531C809.539 199.067 809.734 198.666 810.026 198.328C810.318 197.987 810.694 197.725 811.154 197.543C811.618 197.357 812.155 197.264 812.765 197.264C813.19 197.264 813.596 197.314 813.983 197.413C814.374 197.513 814.721 197.667 815.022 197.876C815.327 198.085 815.568 198.353 815.743 198.681C815.919 199.006 816.007 199.395 816.007 199.849V205H813.998V203.941H813.939C813.816 204.18 813.652 204.39 813.446 204.572C813.241 204.751 812.994 204.892 812.706 204.995C812.417 205.094 812.084 205.144 811.706 205.144ZM812.313 203.683C812.624 203.683 812.9 203.621 813.138 203.499C813.377 203.373 813.564 203.204 813.7 202.991C813.836 202.779 813.904 202.539 813.904 202.271V201.46C813.837 201.503 813.746 201.543 813.63 201.58C813.518 201.613 813.39 201.644 813.248 201.674C813.105 201.701 812.962 201.725 812.82 201.749C812.677 201.768 812.548 201.787 812.432 201.803C812.184 201.84 811.967 201.898 811.781 201.977C811.595 202.057 811.451 202.165 811.348 202.3C811.246 202.433 811.194 202.599 811.194 202.798C811.194 203.086 811.299 203.306 811.507 203.459C811.72 203.608 811.988 203.683 812.313 203.683ZM824.004 199.541L822.065 199.661C822.031 199.495 821.96 199.346 821.851 199.213C821.741 199.077 821.597 198.969 821.418 198.89C821.243 198.807 821.032 198.766 820.787 198.766C820.459 198.766 820.182 198.835 819.957 198.974C819.731 199.11 819.619 199.293 819.619 199.521C819.619 199.704 819.692 199.858 819.837 199.984C819.983 200.11 820.233 200.211 820.588 200.287L821.97 200.565C822.713 200.718 823.266 200.963 823.631 201.301C823.995 201.639 824.178 202.083 824.178 202.634C824.178 203.134 824.03 203.573 823.735 203.951C823.443 204.329 823.042 204.624 822.532 204.836C822.025 205.045 821.44 205.149 820.777 205.149C819.766 205.149 818.961 204.939 818.361 204.518C817.764 204.094 817.415 203.517 817.312 202.788L819.395 202.678C819.458 202.987 819.61 203.222 819.852 203.384C820.094 203.543 820.404 203.623 820.782 203.623C821.153 203.623 821.451 203.552 821.677 203.409C821.906 203.263 822.022 203.076 822.025 202.847C822.022 202.655 821.94 202.498 821.781 202.375C821.622 202.249 821.377 202.153 821.045 202.087L819.723 201.823C818.977 201.674 818.422 201.415 818.058 201.048C817.696 200.68 817.516 200.211 817.516 199.641C817.516 199.15 817.648 198.728 817.913 198.373C818.182 198.018 818.558 197.745 819.042 197.553C819.529 197.36 820.099 197.264 820.752 197.264C821.717 197.264 822.476 197.468 823.029 197.876C823.586 198.283 823.911 198.839 824.004 199.541ZM827.629 200.585V205H825.511V194.818H827.569V198.711H827.659C827.831 198.26 828.11 197.907 828.494 197.652C828.879 197.393 829.361 197.264 829.941 197.264C830.471 197.264 830.934 197.38 831.328 197.612C831.726 197.841 832.034 198.171 832.253 198.602C832.475 199.029 832.584 199.541 832.581 200.138V205H830.463V200.516C830.466 200.045 830.347 199.679 830.105 199.417C829.866 199.155 829.532 199.024 829.101 199.024C828.812 199.024 828.557 199.085 828.335 199.208C828.116 199.331 827.944 199.51 827.818 199.745C827.695 199.977 827.632 200.257 827.629 200.585Z" fill="#DBEAFE"/>
<rect x="701" y="184" width="32" height="32" rx="16" fill="#3B82F6" fill-opacity="0.2"/>
<circle cx="717" cy="200" r="4.5" fill="#BFDBFE" stroke="#3B82F6" stroke-width="3"/>
<path d="M876 200L861 200" stroke="#3B82F6" stroke-width="2" stroke-linecap="round"/>
<path d="M869 208L877 200L869 192" stroke="#3B82F6" stroke-width="2" stroke-linecap="round" stroke-linejoin="round"/>
<path d="M645 200H605" stroke="#3B82F6" stroke-width="2" stroke-linecap="round"/>
<rect x="589" y="184" width="32" height="32" rx="16" fill="#3B82F6" fill-opacity="0.2"/>
<circle cx="605" cy="200" r="4.5" fill="#BFDBFE" stroke="#3B82F6" stroke-width="3"/>
<path d="M644 200L629 200" stroke="#3B82F6" stroke-width="2" stroke-linecap="round"/>
<path d="M637 208L645 200L637 192" stroke="#3B82F6" stroke-width="2" stroke-linecap="round" stroke-linejoin="round"/>
<path d="M454 200H309" stroke="#3B82F6" stroke-width="2" stroke-linecap="round"/>
<rect x="335.047" y="188" width="92" height="24" rx="8" fill="#3B82F6"/>
<path d="M354.224 205L351.31 194.818H353.662L355.347 201.893H355.432L357.291 194.818H359.305L361.159 201.908H361.249L362.934 194.818H365.286L362.372 205H360.274L358.335 198.343H358.256L356.322 205H354.224ZM369.058 205.149C368.272 205.149 367.596 204.99 367.029 204.672C366.466 204.35 366.032 203.896 365.727 203.31C365.422 202.72 365.269 202.022 365.269 201.217C365.269 200.431 365.422 199.742 365.727 199.148C366.032 198.555 366.461 198.093 367.014 197.761C367.571 197.43 368.224 197.264 368.973 197.264C369.477 197.264 369.946 197.345 370.38 197.508C370.818 197.667 371.199 197.907 371.524 198.229C371.852 198.55 372.107 198.955 372.289 199.442C372.472 199.926 372.563 200.492 372.563 201.142V201.724H366.115V200.411H370.569C370.569 200.106 370.503 199.836 370.37 199.601C370.238 199.366 370.054 199.182 369.818 199.049C369.586 198.913 369.316 198.845 369.008 198.845C368.686 198.845 368.401 198.92 368.153 199.069C367.908 199.215 367.715 199.412 367.576 199.661C367.437 199.906 367.366 200.179 367.362 200.481V201.729C367.362 202.107 367.432 202.433 367.571 202.708C367.714 202.983 367.914 203.195 368.173 203.344C368.431 203.494 368.738 203.568 369.093 203.568C369.328 203.568 369.543 203.535 369.739 203.469C369.934 203.402 370.102 203.303 370.241 203.17C370.38 203.038 370.486 202.875 370.559 202.683L372.518 202.812C372.419 203.283 372.215 203.694 371.906 204.045C371.602 204.393 371.207 204.665 370.723 204.861C370.243 205.053 369.687 205.149 369.058 205.149ZM373.985 205V194.818H376.102V198.646H376.167C376.26 198.441 376.394 198.232 376.57 198.02C376.749 197.804 376.981 197.625 377.266 197.483C377.554 197.337 377.912 197.264 378.34 197.264C378.896 197.264 379.41 197.41 379.881 197.702C380.352 197.99 380.728 198.426 381.009 199.009C381.291 199.589 381.432 200.317 381.432 201.192C381.432 202.044 381.294 202.763 381.019 203.349C380.748 203.933 380.376 204.375 379.906 204.677C379.438 204.975 378.915 205.124 378.335 205.124C377.924 205.124 377.574 205.056 377.286 204.92C377.001 204.785 376.767 204.614 376.585 204.408C376.402 204.2 376.263 203.989 376.167 203.777H376.073V205H373.985ZM376.058 201.182C376.058 201.636 376.121 202.032 376.247 202.37C376.373 202.708 376.555 202.972 376.794 203.161C377.032 203.346 377.322 203.439 377.664 203.439C378.008 203.439 378.3 203.344 378.539 203.156C378.777 202.963 378.958 202.698 379.08 202.36C379.206 202.019 379.269 201.626 379.269 201.182C379.269 200.741 379.208 200.353 379.085 200.018C378.963 199.684 378.782 199.422 378.544 199.233C378.305 199.044 378.012 198.95 377.664 198.95C377.319 198.95 377.027 199.041 376.789 199.223C376.553 199.405 376.373 199.664 376.247 199.999C376.121 200.333 376.058 200.728 376.058 201.182ZM382.885 205V194.818H386.902C387.671 194.818 388.327 194.956 388.871 195.231C389.418 195.503 389.834 195.889 390.119 196.389C390.407 196.886 390.551 197.471 390.551 198.144C390.551 198.82 390.405 199.402 390.114 199.889C389.822 200.373 389.399 200.744 388.846 201.003C388.296 201.261 387.629 201.391 386.847 201.391H384.158V199.661H386.499C386.91 199.661 387.252 199.604 387.523 199.491C387.795 199.379 387.997 199.21 388.13 198.984C388.266 198.759 388.334 198.479 388.334 198.144C388.334 197.806 388.266 197.521 388.13 197.289C387.997 197.057 387.794 196.881 387.518 196.762C387.247 196.639 386.904 196.578 386.489 196.578H385.038V205H382.885ZM388.384 200.366L390.914 205H388.538L386.062 200.366H388.384ZM391.685 196.593V194.818H400.047V196.593H396.93V205H394.802V196.593H391.685ZM409.943 198.383H407.765C407.725 198.101 407.644 197.851 407.522 197.632C407.399 197.41 407.242 197.221 407.049 197.065C406.857 196.91 406.635 196.79 406.383 196.707C406.135 196.625 405.864 196.583 405.573 196.583C405.046 196.583 404.587 196.714 404.196 196.976C403.805 197.234 403.501 197.612 403.286 198.109C403.07 198.603 402.963 199.203 402.963 199.909C402.963 200.635 403.07 201.245 403.286 201.739C403.505 202.232 403.81 202.605 404.201 202.857C404.592 203.109 405.044 203.235 405.558 203.235C405.846 203.235 406.113 203.197 406.358 203.121C406.607 203.045 406.827 202.933 407.02 202.788C407.212 202.638 407.371 202.458 407.497 202.246C407.626 202.034 407.716 201.792 407.765 201.52L409.943 201.53C409.886 201.997 409.746 202.448 409.52 202.882C409.298 203.313 408.998 203.699 408.62 204.04C408.246 204.379 407.798 204.647 407.278 204.846C406.761 205.041 406.176 205.139 405.523 205.139C404.615 205.139 403.803 204.934 403.087 204.523C402.374 204.112 401.811 203.517 401.397 202.738C400.986 201.959 400.78 201.016 400.78 199.909C400.78 198.799 400.989 197.854 401.407 197.075C401.824 196.296 402.391 195.703 403.107 195.295C403.823 194.884 404.628 194.679 405.523 194.679C406.113 194.679 406.66 194.762 407.164 194.928C407.671 195.093 408.12 195.335 408.511 195.653C408.902 195.968 409.22 196.354 409.466 196.812C409.714 197.269 409.873 197.793 409.943 198.383Z" fill="#DBEAFE"/>
<rect x="293" y="184" width="32" height="32" rx="16" fill="#3B82F6" fill-opacity="0.2"/>
<circle cx="309" cy="200" r="4.5" fill="#BFDBFE" stroke="#3B82F6" stroke-width="3"/>
<path d="M453 200L438 200" stroke="#3B82F6" stroke-width="2" stroke-linecap="round"/>
<path d="M446 208L454 200L446 192" stroke="#3B82F6" stroke-width="2" stroke-linecap="round" stroke-linejoin="round"/>
<defs>
<filter id="filter0_d_1_80" x="873" y="170" width="147" height="64" filterUnits="userSpaceOnUse" color-interpolation-filters="sRGB">
<feFlood flood-opacity="0" result="BackgroundImageFix"/>
<feColorMatrix in="SourceAlpha" type="matrix" values="0 0 0 0 0 0 0 0 0 0 0 0 0 0 0 0 0 0 127 0" result="hardAlpha"/>
<feOffset dx="-4" dy="4"/>
<feComposite in2="hardAlpha" operator="out"/>
<feColorMatrix type="matrix" values="0 0 0 0 0.376471 0 0 0 0 0.647059 0 0 0 0 0.980392 0 0 0 0.5 0"/>
<feBlend mode="normal" in2="BackgroundImageFix" result="effect1_dropShadow_1_80"/>
<feBlend mode="normal" in="SourceGraphic" in2="effect1_dropShadow_1_80" result="shape"/>
</filter>
<filter id="filter1_d_1_80" x="641" y="170" width="76" height="64" filterUnits="userSpaceOnUse" color-interpolation-filters="sRGB">
<feFlood flood-opacity="0" result="BackgroundImageFix"/>
<feColorMatrix in="SourceAlpha" type="matrix" values="0 0 0 0 0 0 0 0 0 0 0 0 0 0 0 0 0 0 127 0" result="hardAlpha"/>
<feOffset dx="-4" dy="4"/>
<feComposite in2="hardAlpha" operator="out"/>
<feColorMatrix type="matrix" values="0 0 0 0 0.376471 0 0 0 0 0.647059 0 0 0 0 0.980392 0 0 0 0.5 0"/>
<feBlend mode="normal" in2="BackgroundImageFix" result="effect1_dropShadow_1_80"/>
<feBlend mode="normal" in="SourceGraphic" in2="effect1_dropShadow_1_80" result="shape"/>
</filter>
<filter id="filter2_d_1_80" x="450" y="154" width="155" height="96" filterUnits="userSpaceOnUse" color-interpolation-filters="sRGB">
<feFlood flood-opacity="0" result="BackgroundImageFix"/>
<feColorMatrix in="SourceAlpha" type="matrix" values="0 0 0 0 0 0 0 0 0 0 0 0 0 0 0 0 0 0 127 0" result="hardAlpha"/>
<feOffset dx="-4" dy="4"/>
<feComposite in2="hardAlpha" operator="out"/>
<feColorMatrix type="matrix" values="0 0 0 0 0.376471 0 0 0 0 0.647059 0 0 0 0 0.980392 0 0 0 0.5 0"/>
<feBlend mode="normal" in2="BackgroundImageFix" result="effect1_dropShadow_1_80"/>
<feBlend mode="normal" in="SourceGraphic" in2="effect1_dropShadow_1_80" result="shape"/>
</filter>
<filter id="filter3_d_1_80" x="192" y="170" width="117" height="64" filterUnits="userSpaceOnUse" color-interpolation-filters="sRGB">
<feFlood flood-opacity="0" result="BackgroundImageFix"/>
<feColorMatrix in="SourceAlpha" type="matrix" values="0 0 0 0 0 0 0 0 0 0 0 0 0 0 0 0 0 0 127 0" result="hardAlpha"/>
<feOffset dx="-4" dy="4"/>
<feComposite in2="hardAlpha" operator="out"/>
<feColorMatrix type="matrix" values="0 0 0 0 0.376471 0 0 0 0 0.647059 0 0 0 0 0.980392 0 0 0 0.5 0"/>
<feBlend mode="normal" in2="BackgroundImageFix" result="effect1_dropShadow_1_80"/>
<feBlend mode="normal" in="SourceGraphic" in2="effect1_dropShadow_1_80" result="shape"/>
</filter>
<linearGradient id="paint0_linear_1_80" x1="608" y1="0" x2="608" y2="400" gradientUnits="userSpaceOnUse">
<stop stop-color="#BFDBFE"/>
<stop offset="1" stop-color="#93C5FD"/>
</linearGradient>
</defs>
</svg>
