<svg width="400" height="600" viewBox="0 0 400 600" fill="none" xmlns="http://www.w3.org/2000/svg">
<rect width="400" height="600" rx="16" fill="#FDE1E1"/>
<path d="M200 67V193" stroke="#F77171" stroke-width="6" stroke-linecap="round"/>
<path d="M200 406V532" stroke="#F77171" stroke-width="6" stroke-linecap="round"/>
<path d="M92 139.5L153 203" stroke="#F77171" stroke-width="6" stroke-linecap="round"/>
<path d="M312 155L249 203" stroke="#F77171" stroke-width="6" stroke-linecap="round"/>
<path d="M152 395L85 445" stroke="#F77171" stroke-width="6" stroke-linecap="round"/>
<path d="M243 395L299.5 459" stroke="#F77171" stroke-width="6" stroke-linecap="round"/>
<rect x="90" y="190" width="220" height="220" rx="110" fill="#F77171"/>
<g filter="url(#filter0_d_929_2222)">
<rect x="100" y="200" width="200" height="200" rx="100" fill="#FDC9C9"/>
</g>
<g opacity="0.8">
<path d="M161.415 310V295.974H165.881V310H161.415ZM163.653 294.339C163.026 294.339 162.487 294.133 162.036 293.719C161.586 293.298 161.361 292.793 161.361 292.203C161.361 291.618 161.586 291.119 162.036 290.705C162.487 290.285 163.026 290.075 163.653 290.075C164.286 290.075 164.824 290.285 165.269 290.705C165.719 291.119 165.945 291.618 165.945 292.203C165.945 292.793 165.719 293.298 165.269 293.719C164.824 294.133 164.286 294.339 163.653 294.339Z" fill="#B81C1C"/>
<path d="M173.831 302.001V310H169.366V295.974H173.612V298.549H173.767C174.078 297.691 174.607 297.018 175.356 296.531C176.105 296.038 176.997 295.791 178.032 295.791C179.018 295.791 179.873 296.014 180.597 296.458C181.328 296.896 181.894 297.511 182.296 298.303C182.704 299.088 182.905 300.007 182.899 301.06V310H178.433V301.937C178.439 301.158 178.242 300.549 177.84 300.111C177.444 299.672 176.893 299.453 176.187 299.453C175.718 299.453 175.304 299.557 174.945 299.764C174.592 299.964 174.318 300.254 174.123 300.631C173.935 301.009 173.837 301.465 173.831 302.001Z" fill="#B81C1C"/>
<path d="M186.306 310V291.299H190.826V306.329H198.606V310H186.306Z" fill="#B81C1C"/>
<path d="M201.589 310V295.974H206.054V310H201.589ZM203.826 294.339C203.199 294.339 202.66 294.133 202.21 293.719C201.759 293.298 201.534 292.793 201.534 292.203C201.534 291.618 201.759 291.119 202.21 290.705C202.66 290.285 203.199 290.075 203.826 290.075C204.459 290.075 204.998 290.285 205.442 290.705C205.893 291.119 206.118 291.618 206.118 292.203C206.118 292.793 205.893 293.298 205.442 293.719C204.998 294.133 204.459 294.339 203.826 294.339Z" fill="#B81C1C"/>
<path d="M223.145 295.974L218.333 310H213.219L208.416 295.974H213.119L215.703 305.635H215.849L218.442 295.974H223.145Z" fill="#B81C1C"/>
<path d="M231.605 310.265C230.137 310.265 228.871 309.976 227.806 309.397C226.747 308.813 225.931 307.982 225.359 306.904C224.793 305.821 224.509 304.533 224.509 303.042C224.509 301.593 224.796 300.327 225.368 299.243C225.94 298.153 226.747 297.307 227.788 296.705C228.829 296.096 230.055 295.791 231.468 295.791C232.466 295.791 233.379 295.947 234.207 296.257C235.035 296.568 235.75 297.027 236.353 297.636C236.956 298.245 237.424 298.997 237.759 299.891C238.094 300.78 238.261 301.8 238.261 302.95V304.065H226.071V301.471H234.107C234.101 300.996 233.988 300.573 233.769 300.202C233.55 299.831 233.248 299.541 232.865 299.334C232.487 299.121 232.052 299.015 231.559 299.015C231.06 299.015 230.612 299.127 230.217 299.353C229.821 299.572 229.507 299.873 229.276 300.257C229.045 300.634 228.923 301.063 228.911 301.544V304.183C228.911 304.755 229.023 305.258 229.249 305.69C229.474 306.116 229.794 306.448 230.207 306.685C230.621 306.923 231.115 307.041 231.687 307.041C232.082 307.041 232.442 306.987 232.764 306.877C233.087 306.767 233.364 306.606 233.595 306.393C233.827 306.18 234 305.918 234.116 305.608L238.216 305.726C238.045 306.646 237.671 307.446 237.093 308.128C236.52 308.804 235.769 309.33 234.837 309.708C233.906 310.079 232.828 310.265 231.605 310.265Z" fill="#B81C1C"/>
</g>
<rect x="46.6" y="112.6" width="123.2" height="37.4" rx="18.7" fill="#FDC9C9"/>
<path opacity="0.8" d="M69.1102 125.327H71.8409L74.725 132.364H74.8477L77.7318 125.327H80.4625V135.8H78.3147V128.984H78.2278L75.5176 135.749H74.0551L71.3448 128.958H71.2579V135.8H69.1102V125.327ZM85.7947 135.953C85.0004 135.953 84.3134 135.785 83.7339 135.447C83.1578 135.106 82.7129 134.632 82.3992 134.026C82.0856 133.415 81.9288 132.708 81.9288 131.903C81.9288 131.092 82.0856 130.383 82.3992 129.776C82.7129 129.166 83.1578 128.692 83.7339 128.355C84.3134 128.014 85.0004 127.843 85.7947 127.843C86.589 127.843 87.2742 128.014 87.8504 128.355C88.4299 128.692 88.8765 129.166 89.1902 129.776C89.5038 130.383 89.6606 131.092 89.6606 131.903C89.6606 132.708 89.5038 133.415 89.1902 134.026C88.8765 134.632 88.4299 135.106 87.8504 135.447C87.2742 135.785 86.589 135.953 85.7947 135.953ZM85.8049 134.266C86.1663 134.266 86.468 134.164 86.71 133.959C86.9521 133.751 87.1345 133.468 87.2572 133.11C87.3833 132.752 87.4464 132.345 87.4464 131.888C87.4464 131.431 87.3833 131.024 87.2572 130.666C87.1345 130.308 86.9521 130.025 86.71 129.817C86.468 129.609 86.1663 129.505 85.8049 129.505C85.4402 129.505 85.1333 129.609 84.8845 129.817C84.639 130.025 84.4532 130.308 84.3271 130.666C84.2044 131.024 84.143 131.431 84.143 131.888C84.143 132.345 84.2044 132.752 84.3271 133.11C84.4532 133.468 84.639 133.751 84.8845 133.959C85.1333 134.164 85.4402 134.266 85.8049 134.266ZM91.118 135.8V125.327H93.2964V129.265H93.3629C93.4583 129.053 93.5964 128.839 93.7771 128.621C93.9612 128.399 94.1998 128.215 94.493 128.068C94.7896 127.918 95.1578 127.843 95.5975 127.843C96.1703 127.843 96.6987 127.993 97.1828 128.293C97.6669 128.59 98.0538 129.038 98.3436 129.638C98.6333 130.235 98.7782 130.983 98.7782 131.883C98.7782 132.759 98.6367 133.499 98.3538 134.102C98.0742 134.702 97.6924 135.157 97.2083 135.468C96.7277 135.774 96.189 135.928 95.5924 135.928C95.1697 135.928 94.81 135.858 94.5134 135.718C94.2203 135.578 93.9799 135.403 93.7924 135.192C93.6049 134.977 93.4617 134.76 93.3629 134.542H93.2657V135.8H91.118ZM93.2504 131.873C93.2504 132.34 93.3152 132.747 93.4447 133.095C93.5742 133.443 93.7617 133.714 94.0072 133.908C94.2527 134.099 94.5509 134.194 94.9021 134.194C95.2566 134.194 95.5566 134.097 95.8021 133.903C96.0475 133.705 96.2333 133.432 96.3595 133.085C96.489 132.734 96.5538 132.33 96.5538 131.873C96.5538 131.419 96.4907 131.021 96.3646 130.676C96.2384 130.332 96.0527 130.063 95.8072 129.868C95.5617 129.674 95.26 129.577 94.9021 129.577C94.5475 129.577 94.2475 129.671 94.0021 129.858C93.76 130.046 93.5742 130.311 93.4447 130.656C93.3152 131 93.2504 131.406 93.2504 131.873ZM100.232 135.8V127.946H102.41V135.8H100.232ZM101.326 126.933C101.002 126.933 100.724 126.826 100.493 126.611C100.264 126.393 100.15 126.132 100.15 125.828C100.15 125.528 100.264 125.271 100.493 125.056C100.724 124.838 101.002 124.729 101.326 124.729C101.65 124.729 101.926 124.838 102.154 125.056C102.386 125.271 102.502 125.528 102.502 125.828C102.502 126.132 102.386 126.393 102.154 126.611C101.926 126.826 101.65 126.933 101.326 126.933ZM106.334 125.327V135.8H104.155V125.327H106.334ZM111.658 135.953C110.85 135.953 110.155 135.79 109.572 135.463C108.992 135.132 108.546 134.665 108.232 134.061C107.918 133.455 107.762 132.737 107.762 131.909C107.762 131.101 107.918 130.392 108.232 129.781C108.546 129.171 108.987 128.696 109.556 128.355C110.129 128.014 110.801 127.843 111.571 127.843C112.089 127.843 112.572 127.927 113.018 128.094C113.468 128.257 113.86 128.505 114.195 128.835C114.532 129.166 114.795 129.582 114.982 130.083C115.17 130.581 115.263 131.164 115.263 131.832V132.43H108.631V131.08H113.213C113.213 130.767 113.145 130.489 113.008 130.247C112.872 130.005 112.683 129.815 112.441 129.679C112.202 129.539 111.924 129.469 111.607 129.469C111.276 129.469 110.983 129.546 110.728 129.699C110.475 129.849 110.278 130.052 110.134 130.308C109.991 130.56 109.918 130.842 109.914 131.152V132.435C109.914 132.824 109.986 133.16 110.129 133.443C110.276 133.726 110.482 133.944 110.748 134.097C111.014 134.251 111.329 134.327 111.694 134.327C111.936 134.327 112.158 134.293 112.359 134.225C112.56 134.157 112.732 134.055 112.875 133.918C113.018 133.782 113.128 133.615 113.203 133.417L115.217 133.55C115.115 134.034 114.905 134.457 114.588 134.818C114.275 135.176 113.869 135.456 113.371 135.657C112.877 135.855 112.306 135.953 111.658 135.953ZM121.864 135.8H119.491L123.106 125.327H125.96L129.57 135.8H127.197L124.574 127.721H124.492L121.864 135.8ZM121.715 131.684H127.32V133.412H121.715V131.684ZM130.79 138.746V127.946H132.937V129.265H133.034C133.13 129.053 133.268 128.839 133.449 128.621C133.633 128.399 133.871 128.215 134.165 128.068C134.461 127.918 134.829 127.843 135.269 127.843C135.842 127.843 136.37 127.993 136.854 128.293C137.338 128.59 137.725 129.038 138.015 129.638C138.305 130.235 138.45 130.983 138.45 131.883C138.45 132.759 138.308 133.499 138.025 134.102C137.746 134.702 137.364 135.157 136.88 135.468C136.399 135.774 135.861 135.928 135.264 135.928C134.841 135.928 134.482 135.858 134.185 135.718C133.892 135.578 133.652 135.403 133.464 135.192C133.277 134.977 133.133 134.76 133.034 134.542H132.968V138.746H130.79ZM132.922 131.873C132.922 132.34 132.987 132.747 133.116 133.095C133.246 133.443 133.433 133.714 133.679 133.908C133.924 134.099 134.223 134.194 134.574 134.194C134.928 134.194 135.228 134.097 135.474 133.903C135.719 133.705 135.905 133.432 136.031 133.085C136.161 132.734 136.225 132.33 136.225 131.873C136.225 131.419 136.162 131.021 136.036 130.676C135.91 130.332 135.724 130.063 135.479 129.868C135.233 129.674 134.932 129.577 134.574 129.577C134.219 129.577 133.919 129.671 133.674 129.858C133.432 130.046 133.246 130.311 133.116 130.656C132.987 131 132.922 131.406 132.922 131.873ZM139.902 138.746V127.946H142.05V129.265H142.147C142.242 129.053 142.38 128.839 142.561 128.621C142.745 128.399 142.984 128.215 143.277 128.068C143.574 127.918 143.942 127.843 144.382 127.843C144.954 127.843 145.483 127.993 145.967 128.293C146.451 128.59 146.838 129.038 147.128 129.638C147.417 130.235 147.562 130.983 147.562 131.883C147.562 132.759 147.421 133.499 147.138 134.102C146.858 134.702 146.477 135.157 145.992 135.468C145.512 135.774 144.973 135.928 144.377 135.928C143.954 135.928 143.594 135.858 143.298 135.718C143.004 135.578 142.764 135.403 142.577 135.192C142.389 134.977 142.246 134.76 142.147 134.542H142.08V138.746H139.902ZM142.034 131.873C142.034 132.34 142.099 132.747 142.229 133.095C142.358 133.443 142.546 133.714 142.791 133.908C143.037 134.099 143.335 134.194 143.686 134.194C144.041 134.194 144.341 134.097 144.586 133.903C144.832 133.705 145.017 133.432 145.144 133.085C145.273 132.734 145.338 132.33 145.338 131.873C145.338 131.419 145.275 131.021 145.149 130.676C145.023 130.332 144.837 130.063 144.591 129.868C144.346 129.674 144.044 129.577 143.686 129.577C143.332 129.577 143.032 129.671 142.786 129.858C142.544 130.046 142.358 130.311 142.229 130.656C142.099 131 142.034 131.406 142.034 131.873Z" fill="#B81C1C"/>
<rect x="46.6" y="112.6" width="123.2" height="37.4" rx="18.7" stroke="#F77171" stroke-width="4.8"/>
<rect x="245.6" y="135.6" width="108.2" height="37.4" rx="18.7" fill="#FDC9C9"/>
<path opacity="0.8" d="M270.468 158.8L267.471 148.327H269.89L271.623 155.604H271.71L273.623 148.327H275.694L277.601 155.619H277.693L279.427 148.327H281.846L278.849 158.8H276.691L274.697 151.953H274.615L272.626 158.8H270.468ZM285.726 158.953C284.918 158.953 284.222 158.79 283.639 158.462C283.06 158.132 282.613 157.665 282.299 157.061C281.986 156.454 281.829 155.737 281.829 154.908C281.829 154.1 281.986 153.391 282.299 152.781C282.613 152.171 283.055 151.695 283.624 151.354C284.197 151.014 284.868 150.843 285.639 150.843C286.157 150.843 286.639 150.927 287.086 151.094C287.536 151.257 287.928 151.504 288.262 151.835C288.599 152.166 288.862 152.582 289.049 153.083C289.237 153.581 289.331 154.164 289.331 154.832V155.43H282.698V154.08H287.28C287.28 153.766 287.212 153.489 287.076 153.247C286.939 153.004 286.75 152.815 286.508 152.679C286.269 152.539 285.992 152.469 285.674 152.469C285.344 152.469 285.051 152.546 284.795 152.699C284.543 152.849 284.345 153.052 284.202 153.308C284.059 153.56 283.985 153.841 283.982 154.152V155.435C283.982 155.824 284.053 156.16 284.197 156.443C284.343 156.725 284.549 156.944 284.815 157.097C285.081 157.25 285.397 157.327 285.761 157.327C286.003 157.327 286.225 157.293 286.426 157.225C286.627 157.157 286.799 157.054 286.943 156.918C287.086 156.782 287.195 156.615 287.27 156.417L289.285 156.55C289.182 157.034 288.973 157.457 288.656 157.818C288.342 158.176 287.936 158.456 287.439 158.657C286.944 158.854 286.373 158.953 285.726 158.953ZM290.793 158.8V148.327H292.972V152.265H293.038C293.134 152.053 293.272 151.839 293.452 151.62C293.636 151.399 293.875 151.215 294.168 151.068C294.465 150.918 294.833 150.843 295.273 150.843C295.846 150.843 296.374 150.993 296.858 151.293C297.342 151.59 297.729 152.038 298.019 152.638C298.309 153.235 298.453 153.983 298.453 154.883C298.453 155.759 298.312 156.499 298.029 157.102C297.749 157.702 297.368 158.157 296.884 158.468C296.403 158.774 295.864 158.928 295.268 158.928C294.845 158.928 294.485 158.858 294.189 158.718C293.896 158.578 293.655 158.403 293.468 158.191C293.28 157.977 293.137 157.76 293.038 157.542H292.941V158.8H290.793ZM292.926 154.873C292.926 155.34 292.99 155.747 293.12 156.095C293.249 156.443 293.437 156.714 293.682 156.908C293.928 157.099 294.226 157.194 294.577 157.194C294.932 157.194 295.232 157.097 295.477 156.903C295.723 156.705 295.909 156.432 296.035 156.085C296.164 155.733 296.229 155.329 296.229 154.873C296.229 154.419 296.166 154.02 296.04 153.676C295.914 153.332 295.728 153.062 295.482 152.868C295.237 152.674 294.935 152.577 294.577 152.577C294.223 152.577 293.923 152.67 293.677 152.858C293.435 153.045 293.249 153.311 293.12 153.656C292.99 154 292.926 154.406 292.926 154.873ZM305.086 158.8H302.713L306.328 148.327H309.182L312.792 158.8H310.419L307.796 150.72H307.714L305.086 158.8ZM304.938 154.683H310.542V156.412H304.938V154.683ZM314.012 161.745V150.945H316.159V152.265H316.257C316.352 152.053 316.49 151.839 316.671 151.62C316.855 151.399 317.094 151.215 317.387 151.068C317.683 150.918 318.051 150.843 318.491 150.843C319.064 150.843 319.592 150.993 320.076 151.293C320.561 151.59 320.947 152.038 321.237 152.638C321.527 153.235 321.672 153.983 321.672 154.883C321.672 155.759 321.53 156.499 321.247 157.102C320.968 157.702 320.586 158.157 320.102 158.468C319.621 158.774 319.083 158.928 318.486 158.928C318.063 158.928 317.704 158.858 317.407 158.718C317.114 158.578 316.874 158.403 316.686 158.191C316.499 157.977 316.355 157.76 316.257 157.542H316.19V161.745H314.012ZM316.144 154.873C316.144 155.34 316.209 155.747 316.338 156.095C316.468 156.443 316.655 156.714 316.901 156.908C317.146 157.099 317.445 157.194 317.796 157.194C318.15 157.194 318.45 157.097 318.696 156.903C318.941 156.705 319.127 156.432 319.253 156.085C319.383 155.733 319.447 155.329 319.447 154.873C319.447 154.419 319.384 154.02 319.258 153.676C319.132 153.332 318.946 153.062 318.701 152.868C318.455 152.674 318.154 152.577 317.796 152.577C317.441 152.577 317.141 152.67 316.896 152.858C316.654 153.045 316.468 153.311 316.338 153.656C316.209 154 316.144 154.406 316.144 154.873ZM323.124 161.745V150.945H325.272V152.265H325.369C325.465 152.053 325.603 151.839 325.783 151.62C325.967 151.399 326.206 151.215 326.499 151.068C326.796 150.918 327.164 150.843 327.604 150.843C328.176 150.843 328.705 150.993 329.189 151.293C329.673 151.59 330.06 152.038 330.35 152.638C330.64 153.235 330.784 153.983 330.784 154.883C330.784 155.759 330.643 156.499 330.36 157.102C330.08 157.702 329.699 158.157 329.215 158.468C328.734 158.774 328.195 158.928 327.599 158.928C327.176 158.928 326.816 158.858 326.52 158.718C326.226 158.578 325.986 158.403 325.799 158.191C325.611 157.977 325.468 157.76 325.369 157.542H325.303V161.745H323.124ZM325.257 154.873C325.257 155.34 325.321 155.747 325.451 156.095C325.58 156.443 325.768 156.714 326.013 156.908C326.259 157.099 326.557 157.194 326.908 157.194C327.263 157.194 327.563 157.097 327.808 156.903C328.054 156.705 328.24 156.432 328.366 156.085C328.495 155.733 328.56 155.329 328.56 154.873C328.56 154.419 328.497 154.02 328.371 153.676C328.245 153.332 328.059 153.062 327.813 152.868C327.568 152.674 327.266 152.577 326.908 152.577C326.554 152.577 326.254 152.67 326.008 152.858C325.766 153.045 325.58 153.311 325.451 153.656C325.321 154 325.257 154.406 325.257 154.873Z" fill="#B81C1C"/>
<rect x="245.6" y="135.6" width="108.2" height="37.4" rx="18.7" stroke="#F77171" stroke-width="4.8"/>
<rect x="125.6" y="27.6" width="148.2" height="37.4" rx="18.7" fill="#FDC9C9"/>
<path opacity="0.8" d="M148.11 50.8V40.3273H152.304C153.074 40.3273 153.717 40.4415 154.231 40.6699C154.746 40.8983 155.133 41.2154 155.392 41.6211C155.651 42.0233 155.781 42.487 155.781 43.012C155.781 43.4211 155.699 43.7807 155.535 44.091C155.372 44.3978 155.147 44.65 154.86 44.8478C154.577 45.0421 154.254 45.1802 153.889 45.262V45.3643C154.288 45.3813 154.661 45.4938 155.009 45.7018C155.36 45.9097 155.645 46.2012 155.863 46.5762C156.081 46.9478 156.19 47.391 156.19 47.9057C156.19 48.4614 156.052 48.9574 155.776 49.3938C155.503 49.8268 155.099 50.1694 154.564 50.4216C154.029 50.6739 153.369 50.8 152.585 50.8H148.11ZM150.325 48.9898H152.13C152.747 48.9898 153.197 48.8722 153.48 48.637C153.763 48.3983 153.904 48.0813 153.904 47.6858C153.904 47.3961 153.834 47.1404 153.695 46.9188C153.555 46.6972 153.355 46.5233 153.096 46.3972C152.841 46.2711 152.535 46.208 152.181 46.208H150.325V48.9898ZM150.325 44.7097H151.966C152.27 44.7097 152.539 44.6569 152.774 44.5512C153.013 44.4421 153.2 44.2887 153.337 44.091C153.476 43.8932 153.546 43.6563 153.546 43.3802C153.546 43.0018 153.412 42.6966 153.142 42.4648C152.876 42.233 152.498 42.1171 152.007 42.1171H150.325V44.7097ZM157.59 50.8V42.9455H159.702V44.316H159.784C159.927 43.8285 160.167 43.4603 160.505 43.2114C160.842 42.9591 161.231 42.833 161.671 42.833C161.78 42.833 161.897 42.8398 162.023 42.8535C162.149 42.8671 162.26 42.8858 162.356 42.9097V44.8427C162.253 44.812 162.112 44.7847 161.931 44.7608C161.751 44.737 161.585 44.725 161.435 44.725C161.115 44.725 160.828 44.7949 160.576 44.9347C160.327 45.0711 160.13 45.262 159.983 45.5074C159.84 45.7529 159.768 46.0358 159.768 46.3563V50.8H157.59ZM166.665 50.9535C165.871 50.9535 165.184 50.7847 164.604 50.4472C164.028 50.1063 163.583 49.6324 163.27 49.0256C162.956 48.4154 162.799 47.708 162.799 46.9035C162.799 46.0921 162.956 45.383 163.27 44.7762C163.583 44.166 164.028 43.6921 164.604 43.3546C165.184 43.0137 165.871 42.8432 166.665 42.8432C167.46 42.8432 168.145 43.0137 168.721 43.3546C169.3 43.6921 169.747 44.166 170.061 44.7762C170.374 45.383 170.531 46.0921 170.531 46.9035C170.531 47.708 170.374 48.4154 170.061 49.0256C169.747 49.6324 169.3 50.1063 168.721 50.4472C168.145 50.7847 167.46 50.9535 166.665 50.9535ZM166.675 49.266C167.037 49.266 167.339 49.1637 167.581 48.9591C167.823 48.7512 168.005 48.4682 168.128 48.1103C168.254 47.7523 168.317 47.3449 168.317 46.8881C168.317 46.4313 168.254 46.0239 168.128 45.666C168.005 45.308 167.823 45.025 167.581 44.8171C167.339 44.6091 167.037 44.5052 166.675 44.5052C166.311 44.5052 166.004 44.6091 165.755 44.8171C165.51 45.025 165.324 45.308 165.198 45.666C165.075 46.0239 165.014 46.4313 165.014 46.8881C165.014 47.3449 165.075 47.7523 165.198 48.1103C165.324 48.4682 165.51 48.7512 165.755 48.9591C166.004 49.1637 166.311 49.266 166.675 49.266ZM174.187 50.9483C173.686 50.9483 173.24 50.8614 172.848 50.6875C172.456 50.5103 172.145 50.2495 171.917 49.9052C171.692 49.5574 171.579 49.1245 171.579 48.6063C171.579 48.1699 171.66 47.8035 171.82 47.5069C171.98 47.2103 172.198 46.9716 172.474 46.791C172.75 46.6103 173.064 46.4739 173.415 46.3819C173.77 46.2898 174.141 46.225 174.53 46.1875C174.987 46.1398 175.355 46.0955 175.635 46.0546C175.914 46.0103 176.117 45.9455 176.243 45.8603C176.369 45.775 176.432 45.6489 176.432 45.4819V45.4512C176.432 45.1273 176.33 44.8768 176.125 44.6995C175.924 44.5222 175.638 44.4336 175.266 44.4336C174.874 44.4336 174.562 44.5205 174.331 44.6944C174.099 44.8648 173.945 45.0796 173.87 45.3387L171.856 45.175C171.958 44.6978 172.159 44.2853 172.459 43.9375C172.759 43.5864 173.146 43.3171 173.62 43.1296C174.097 42.9387 174.649 42.8432 175.277 42.8432C175.713 42.8432 176.131 42.8944 176.529 42.9966C176.932 43.0989 177.288 43.2574 177.598 43.4722C177.912 43.687 178.159 43.9631 178.34 44.3006C178.52 44.6347 178.611 45.0353 178.611 45.5023V50.8H176.545V49.7108H176.483C176.357 49.9563 176.189 50.1728 175.977 50.3603C175.766 50.5444 175.512 50.6893 175.215 50.7949C174.919 50.8972 174.576 50.9483 174.187 50.9483ZM174.811 49.4449C175.132 49.4449 175.415 49.3819 175.66 49.2557C175.906 49.1262 176.098 48.9523 176.238 48.7341C176.378 48.516 176.448 48.2688 176.448 47.9927V47.1591C176.379 47.2035 176.286 47.2444 176.166 47.2819C176.05 47.316 175.919 47.3483 175.773 47.379C175.626 47.4063 175.479 47.4319 175.333 47.4557C175.186 47.4762 175.053 47.4949 174.934 47.512C174.678 47.5495 174.455 47.6091 174.264 47.691C174.073 47.7728 173.925 47.8836 173.819 48.0233C173.714 48.1597 173.661 48.3302 173.661 48.5347C173.661 48.8313 173.768 49.058 173.983 49.2148C174.201 49.3682 174.477 49.4449 174.811 49.4449ZM183.195 50.9279C182.598 50.9279 182.058 50.7745 181.574 50.4677C181.093 50.1574 180.712 49.7023 180.429 49.1023C180.149 48.4989 180.009 47.7591 180.009 46.883C180.009 45.983 180.154 45.2347 180.444 44.6381C180.734 44.0381 181.119 43.5898 181.6 43.2932C182.084 42.9932 182.614 42.8432 183.19 42.8432C183.63 42.8432 183.996 42.9182 184.289 43.0682C184.586 43.2148 184.825 43.3989 185.005 43.6205C185.189 43.8387 185.329 44.0535 185.425 44.2648H185.491V40.3273H187.664V50.8H185.517V49.5421H185.425C185.322 49.7603 185.177 49.9768 184.99 50.1915C184.806 50.4029 184.566 50.5785 184.269 50.7182C183.976 50.858 183.618 50.9279 183.195 50.9279ZM183.885 49.1944C184.237 49.1944 184.533 49.0989 184.775 48.908C185.021 48.7137 185.208 48.4427 185.338 48.0949C185.471 47.7472 185.537 47.3398 185.537 46.8728C185.537 46.4057 185.472 46 185.343 45.6557C185.213 45.3114 185.026 45.0455 184.78 44.858C184.535 44.6705 184.237 44.5768 183.885 44.5768C183.527 44.5768 183.226 44.6739 182.98 44.8682C182.735 45.0625 182.549 45.3319 182.423 45.6762C182.297 46.0205 182.234 46.4194 182.234 46.8728C182.234 47.3296 182.297 47.7336 182.423 48.0847C182.552 48.4324 182.738 48.7052 182.98 48.9029C183.226 49.0972 183.527 49.1944 183.885 49.1944ZM193.004 50.9535C192.2 50.9535 191.508 50.783 190.928 50.4421C190.352 50.0978 189.909 49.6205 189.599 49.0103C189.292 48.4 189.138 47.6978 189.138 46.9035C189.138 46.0989 189.294 45.3932 189.604 44.7864C189.917 44.1762 190.362 43.7006 190.938 43.3597C191.515 43.0154 192.2 42.8432 192.994 42.8432C193.679 42.8432 194.279 42.9677 194.794 43.2165C195.309 43.4654 195.716 43.8148 196.016 44.2648C196.316 44.7148 196.482 45.2432 196.512 45.85H194.457C194.399 45.458 194.245 45.1427 193.996 44.904C193.751 44.662 193.429 44.541 193.03 44.541C192.692 44.541 192.397 44.633 192.145 44.8171C191.896 44.9978 191.702 45.262 191.562 45.6097C191.422 45.9574 191.353 46.3785 191.353 46.8728C191.353 47.3739 191.421 47.8 191.557 48.1512C191.697 48.5023 191.893 48.7699 192.145 48.954C192.397 49.1381 192.692 49.2302 193.03 49.2302C193.279 49.2302 193.502 49.179 193.7 49.0768C193.901 48.9745 194.066 48.8262 194.196 48.6319C194.329 48.4341 194.416 48.1972 194.457 47.9211H196.512C196.478 48.5211 196.315 49.0495 196.021 49.5063C195.732 49.9597 195.331 50.3143 194.82 50.5699C194.308 50.8256 193.703 50.9535 193.004 50.9535ZM200.147 50.9483C199.646 50.9483 199.199 50.8614 198.807 50.6875C198.415 50.5103 198.105 50.2495 197.876 49.9052C197.651 49.5574 197.539 49.1245 197.539 48.6063C197.539 48.1699 197.619 47.8035 197.779 47.5069C197.939 47.2103 198.158 46.9716 198.434 46.791C198.71 46.6103 199.023 46.4739 199.375 46.3819C199.729 46.2898 200.101 46.225 200.489 46.1875C200.946 46.1398 201.314 46.0955 201.594 46.0546C201.873 46.0103 202.076 45.9455 202.202 45.8603C202.329 45.775 202.392 45.6489 202.392 45.4819V45.4512C202.392 45.1273 202.289 44.8768 202.085 44.6995C201.884 44.5222 201.597 44.4336 201.226 44.4336C200.834 44.4336 200.522 44.5205 200.29 44.6944C200.058 44.8648 199.905 45.0796 199.83 45.3387L197.815 45.175C197.917 44.6978 198.118 44.2853 198.418 43.9375C198.718 43.5864 199.105 43.3171 199.579 43.1296C200.056 42.9387 200.609 42.8432 201.236 42.8432C201.672 42.8432 202.09 42.8944 202.489 42.9966C202.891 43.0989 203.247 43.2574 203.558 43.4722C203.871 43.687 204.118 43.9631 204.299 44.3006C204.48 44.6347 204.57 45.0353 204.57 45.5023V50.8H202.504V49.7108H202.443C202.317 49.9563 202.148 50.1728 201.937 50.3603C201.725 50.5444 201.471 50.6893 201.175 50.7949C200.878 50.8972 200.535 50.9483 200.147 50.9483ZM200.771 49.4449C201.091 49.4449 201.374 49.3819 201.62 49.2557C201.865 49.1262 202.058 48.9523 202.197 48.7341C202.337 48.516 202.407 48.2688 202.407 47.9927V47.1591C202.339 47.2035 202.245 47.2444 202.126 47.2819C202.01 47.316 201.879 47.3483 201.732 47.379C201.585 47.4063 201.439 47.4319 201.292 47.4557C201.146 47.4762 201.013 47.4949 200.893 47.512C200.638 47.5495 200.414 47.6091 200.223 47.691C200.033 47.7728 199.884 47.8836 199.779 48.0233C199.673 48.1597 199.62 48.3302 199.62 48.5347C199.62 48.8313 199.727 49.058 199.942 49.2148C200.16 49.3682 200.437 49.4449 200.771 49.4449ZM212.795 45.1853L210.801 45.308C210.767 45.1375 210.694 44.9841 210.581 44.8478C210.469 44.708 210.32 44.5972 210.136 44.5154C209.956 44.4302 209.739 44.3875 209.487 44.3875C209.149 44.3875 208.865 44.4591 208.633 44.6023C208.401 44.7421 208.285 44.9296 208.285 45.1648C208.285 45.3523 208.36 45.5108 208.51 45.6404C208.66 45.7699 208.918 45.8739 209.282 45.9523L210.704 46.2387C211.468 46.3955 212.037 46.6478 212.412 46.9955C212.787 47.3432 212.974 47.8 212.974 48.366C212.974 48.8807 212.823 49.3324 212.519 49.7211C212.219 50.1097 211.807 50.4131 211.282 50.6313C210.76 50.8461 210.158 50.9535 209.477 50.9535C208.437 50.9535 207.608 50.737 206.991 50.304C206.378 49.8677 206.018 49.2745 205.912 48.5245L208.055 48.412C208.12 48.729 208.277 48.9711 208.525 49.1381C208.774 49.3018 209.093 49.3836 209.482 49.3836C209.864 49.3836 210.17 49.3103 210.402 49.1637C210.637 49.0137 210.757 48.8211 210.76 48.5858C210.757 48.3881 210.673 48.2262 210.51 48.1C210.346 47.9705 210.094 47.8716 209.753 47.8035L208.393 47.5324C207.625 47.379 207.054 47.1131 206.679 46.7347C206.308 46.3563 206.122 45.8739 206.122 45.2875C206.122 44.783 206.258 44.3483 206.531 43.9836C206.807 43.6188 207.194 43.3375 207.692 43.1398C208.193 42.9421 208.779 42.8432 209.451 42.8432C210.443 42.8432 211.224 43.0529 211.793 43.4722C212.366 43.8915 212.7 44.4625 212.795 45.1853ZM218.524 42.9455V44.5819H213.794V42.9455H218.524ZM214.868 41.0637H217.046V48.3864C217.046 48.5875 217.077 48.7444 217.138 48.8569C217.199 48.966 217.285 49.0427 217.394 49.087C217.506 49.1313 217.636 49.1535 217.782 49.1535C217.885 49.1535 217.987 49.1449 218.089 49.1279C218.192 49.1074 218.27 49.0921 218.324 49.0819L218.667 50.7029C218.558 50.737 218.405 50.7762 218.207 50.8205C218.009 50.8682 217.769 50.8972 217.486 50.9074C216.961 50.9279 216.501 50.858 216.105 50.6978C215.713 50.5375 215.408 50.2887 215.19 49.9512C214.972 49.6137 214.864 49.1875 214.868 48.6728V41.0637ZM225.122 50.8H222.749L226.364 40.3273H229.218L232.828 50.8H230.455L227.832 42.7205H227.75L225.122 50.8ZM224.973 46.6836H230.578V48.412H224.973V46.6836ZM234.048 53.7455V42.9455H236.195V44.2648H236.293C236.388 44.0535 236.526 43.8387 236.707 43.6205C236.891 43.3989 237.129 43.2148 237.423 43.0682C237.719 42.9182 238.087 42.8432 238.527 42.8432C239.1 42.8432 239.628 42.9932 240.112 43.2932C240.597 43.5898 240.983 44.0381 241.273 44.6381C241.563 45.2347 241.708 45.983 241.708 46.883C241.708 47.7591 241.566 48.4989 241.283 49.1023C241.004 49.7023 240.622 50.1574 240.138 50.4677C239.657 50.7745 239.119 50.9279 238.522 50.9279C238.099 50.9279 237.74 50.858 237.443 50.7182C237.15 50.5785 236.91 50.4029 236.722 50.1915C236.535 49.9768 236.391 49.7603 236.293 49.5421H236.226V53.7455H234.048ZM236.18 46.8728C236.18 47.3398 236.245 47.7472 236.374 48.0949C236.504 48.4427 236.691 48.7137 236.937 48.908C237.182 49.0989 237.481 49.1944 237.832 49.1944C238.186 49.1944 238.486 49.0972 238.732 48.9029C238.977 48.7052 239.163 48.4324 239.289 48.0847C239.419 47.7336 239.483 47.3296 239.483 46.8728C239.483 46.4194 239.42 46.0205 239.294 45.6762C239.168 45.3319 238.982 45.0625 238.737 44.8682C238.491 44.6739 238.19 44.5768 237.832 44.5768C237.477 44.5768 237.177 44.6705 236.932 44.858C236.69 45.0455 236.504 45.3114 236.374 45.6557C236.245 46 236.18 46.4057 236.18 46.8728ZM243.16 53.7455V42.9455H245.308V44.2648H245.405C245.5 44.0535 245.639 43.8387 245.819 43.6205C246.003 43.3989 246.242 43.2148 246.535 43.0682C246.832 42.9182 247.2 42.8432 247.64 42.8432C248.212 42.8432 248.741 42.9932 249.225 43.2932C249.709 43.5898 250.096 44.0381 250.386 44.6381C250.675 45.2347 250.82 45.983 250.82 46.883C250.82 47.7591 250.679 48.4989 250.396 49.1023C250.116 49.7023 249.735 50.1574 249.25 50.4677C248.77 50.7745 248.231 50.9279 247.635 50.9279C247.212 50.9279 246.852 50.858 246.556 50.7182C246.262 50.5785 246.022 50.4029 245.835 50.1915C245.647 49.9768 245.504 49.7603 245.405 49.5421H245.339V53.7455H243.16ZM245.293 46.8728C245.293 47.3398 245.357 47.7472 245.487 48.0949C245.616 48.4427 245.804 48.7137 246.049 48.908C246.295 49.0989 246.593 49.1944 246.944 49.1944C247.299 49.1944 247.599 49.0972 247.844 48.9029C248.09 48.7052 248.275 48.4324 248.402 48.0847C248.531 47.7336 248.596 47.3296 248.596 46.8728C248.596 46.4194 248.533 46.0205 248.407 45.6762C248.281 45.3319 248.095 45.0625 247.849 44.8682C247.604 44.6739 247.302 44.5768 246.944 44.5768C246.59 44.5768 246.29 44.6705 246.044 44.858C245.802 45.0455 245.616 45.3114 245.487 45.6557C245.357 46 245.293 46.4057 245.293 46.8728Z" fill="#B81C1C"/>
<rect x="125.6" y="27.6" width="148.2" height="37.4" rx="18.7" stroke="#F77171" stroke-width="4.8"/>
<rect x="53.6" y="441.6" width="101.2" height="37.4" rx="18.7" fill="#FDC9C9"/>
<path opacity="0.8" d="M78.4676 464.8L75.471 454.327H77.8897L79.6232 461.604H79.7102L81.6227 454.327H83.6937L85.6011 461.619H85.6931L87.4267 454.327H89.8454L86.8488 464.8H84.6909L82.6965 457.953H82.6147L80.6255 464.8H78.4676ZM93.7254 464.953C92.9174 464.953 92.222 464.79 91.639 464.463C91.0595 464.132 90.6129 463.665 90.2992 463.061C89.9856 462.455 89.8288 461.737 89.8288 460.909C89.8288 460.101 89.9856 459.392 90.2992 458.781C90.6129 458.171 91.0544 457.696 91.6237 457.355C92.1964 457.014 92.868 456.843 93.6384 456.843C94.1566 456.843 94.639 456.927 95.0856 457.094C95.5356 457.257 95.9277 457.505 96.2617 457.835C96.5992 458.166 96.8617 458.582 97.0492 459.083C97.2367 459.581 97.3305 460.164 97.3305 460.832V461.43H90.6981V460.08H95.2799C95.2799 459.767 95.2117 459.489 95.0754 459.247C94.939 459.005 94.7498 458.815 94.5078 458.679C94.2691 458.539 93.9913 458.469 93.6742 458.469C93.3436 458.469 93.0504 458.546 92.7947 458.699C92.5424 458.849 92.3447 459.052 92.2015 459.308C92.0583 459.56 91.985 459.842 91.9816 460.152V461.435C91.9816 461.824 92.0532 462.16 92.1964 462.443C92.343 462.726 92.5492 462.944 92.8152 463.097C93.0811 463.251 93.3964 463.327 93.7612 463.327C94.0032 463.327 94.2248 463.293 94.4259 463.225C94.6271 463.157 94.7992 463.055 94.9424 462.918C95.0856 462.782 95.1947 462.615 95.2697 462.417L97.2845 462.55C97.1822 463.034 96.9725 463.457 96.6555 463.818C96.3419 464.176 95.9362 464.456 95.4384 464.657C94.9441 464.855 94.3731 464.953 93.7254 464.953ZM98.793 464.8V454.327H100.971V458.265H101.038C101.133 458.053 101.271 457.839 101.452 457.621C101.636 457.399 101.875 457.215 102.168 457.068C102.465 456.918 102.833 456.843 103.273 456.843C103.845 456.843 104.374 456.993 104.858 457.293C105.342 457.59 105.729 458.038 106.019 458.638C106.308 459.235 106.453 459.983 106.453 460.883C106.453 461.759 106.312 462.499 106.029 463.102C105.749 463.702 105.367 464.157 104.883 464.468C104.403 464.774 103.864 464.928 103.267 464.928C102.845 464.928 102.485 464.858 102.188 464.718C101.895 464.578 101.655 464.403 101.467 464.192C101.28 463.977 101.137 463.76 101.038 463.542H100.941V464.8H98.793ZM100.925 460.873C100.925 461.34 100.99 461.747 101.12 462.095C101.249 462.443 101.437 462.714 101.682 462.908C101.928 463.099 102.226 463.194 102.577 463.194C102.932 463.194 103.232 463.097 103.477 462.903C103.723 462.705 103.908 462.432 104.034 462.085C104.164 461.734 104.229 461.33 104.229 460.873C104.229 460.419 104.166 460.021 104.04 459.676C103.913 459.332 103.728 459.063 103.482 458.868C103.237 458.674 102.935 458.577 102.577 458.577C102.223 458.577 101.923 458.671 101.677 458.858C101.435 459.046 101.249 459.311 101.12 459.656C100.99 460 100.925 460.406 100.925 460.873ZM114.442 459.185L112.448 459.308C112.414 459.138 112.34 458.984 112.228 458.848C112.115 458.708 111.967 458.597 111.783 458.515C111.602 458.43 111.386 458.388 111.133 458.388C110.796 458.388 110.511 458.459 110.279 458.602C110.048 458.742 109.932 458.93 109.932 459.165C109.932 459.352 110.007 459.511 110.157 459.64C110.307 459.77 110.564 459.874 110.929 459.952L112.351 460.239C113.114 460.396 113.683 460.648 114.058 460.996C114.433 461.343 114.621 461.8 114.621 462.366C114.621 462.881 114.469 463.332 114.166 463.721C113.866 464.11 113.453 464.413 112.928 464.631C112.407 464.846 111.805 464.953 111.123 464.953C110.083 464.953 109.255 464.737 108.638 464.304C108.024 463.868 107.665 463.274 107.559 462.524L109.702 462.412C109.766 462.729 109.923 462.971 110.172 463.138C110.421 463.302 110.74 463.384 111.128 463.384C111.51 463.384 111.817 463.31 112.049 463.164C112.284 463.014 112.403 462.821 112.407 462.586C112.403 462.388 112.32 462.226 112.156 462.1C111.993 461.971 111.74 461.872 111.399 461.803L110.039 461.532C109.272 461.379 108.701 461.113 108.326 460.735C107.954 460.356 107.769 459.874 107.769 459.288C107.769 458.783 107.905 458.348 108.178 457.984C108.454 457.619 108.841 457.338 109.339 457.14C109.84 456.942 110.426 456.843 111.098 456.843C112.09 456.843 112.87 457.053 113.44 457.472C114.012 457.892 114.347 458.463 114.442 459.185ZM115.993 464.8V456.946H118.171V464.8H115.993ZM117.087 455.933C116.763 455.933 116.485 455.826 116.254 455.611C116.025 455.393 115.911 455.132 115.911 454.828C115.911 454.528 116.025 454.271 116.254 454.056C116.485 453.838 116.763 453.729 117.087 453.729C117.411 453.729 117.687 453.838 117.915 454.056C118.147 454.271 118.263 454.528 118.263 454.828C118.263 455.132 118.147 455.393 117.915 455.611C117.687 455.826 117.411 455.933 117.087 455.933ZM124.094 456.946V458.582H119.364V456.946H124.094ZM120.438 455.064H122.616V462.386C122.616 462.588 122.647 462.744 122.708 462.857C122.77 462.966 122.855 463.043 122.964 463.087C123.076 463.131 123.206 463.153 123.353 463.153C123.455 463.153 123.557 463.145 123.659 463.128C123.762 463.107 123.84 463.092 123.895 463.082L124.237 464.703C124.128 464.737 123.975 464.776 123.777 464.821C123.579 464.868 123.339 464.897 123.056 464.907C122.531 464.928 122.071 464.858 121.675 464.698C121.283 464.538 120.978 464.289 120.76 463.951C120.542 463.614 120.434 463.188 120.438 462.673V455.064ZM129.008 464.953C128.2 464.953 127.505 464.79 126.922 464.463C126.342 464.132 125.896 463.665 125.582 463.061C125.268 462.455 125.112 461.737 125.112 460.909C125.112 460.101 125.268 459.392 125.582 458.781C125.896 458.171 126.337 457.696 126.906 457.355C127.479 457.014 128.151 456.843 128.921 456.843C129.439 456.843 129.922 456.927 130.368 457.094C130.818 457.257 131.21 457.505 131.545 457.835C131.882 458.166 132.145 458.582 132.332 459.083C132.52 459.581 132.613 460.164 132.613 460.832V461.43H125.981V460.08H130.563C130.563 459.767 130.495 459.489 130.358 459.247C130.222 459.005 130.033 458.815 129.791 458.679C129.552 458.539 129.274 458.469 128.957 458.469C128.626 458.469 128.333 458.546 128.078 458.699C127.825 458.849 127.628 459.052 127.484 459.308C127.341 459.56 127.268 459.842 127.264 460.152V461.435C127.264 461.824 127.336 462.16 127.479 462.443C127.626 462.726 127.832 462.944 128.098 463.097C128.364 463.251 128.679 463.327 129.044 463.327C129.286 463.327 129.508 463.293 129.709 463.225C129.91 463.157 130.082 463.055 130.225 462.918C130.368 462.782 130.478 462.615 130.553 462.417L132.567 462.55C132.465 463.034 132.255 463.457 131.938 463.818C131.625 464.176 131.219 464.456 130.721 464.657C130.227 464.855 129.656 464.953 129.008 464.953Z" fill="#B81C1C"/>
<rect x="53.6" y="441.6" width="101.2" height="37.4" rx="18.7" stroke="#F77171" stroke-width="4.8"/>
<rect x="125.6" y="534.6" width="148.2" height="37.4" rx="18.7" fill="#FDC9C9"/>
<path opacity="0.8" d="M150.002 547.327L152.533 555.284H152.631L155.167 547.327H157.622L154.011 557.8H151.158L147.543 547.327H150.002ZM158.841 557.8V549.946H161.02V557.8H158.841ZM159.935 548.933C159.612 548.933 159.334 548.826 159.102 548.611C158.874 548.393 158.759 548.132 158.759 547.828C158.759 547.528 158.874 547.271 159.102 547.056C159.334 546.838 159.612 546.729 159.935 546.729C160.259 546.729 160.535 546.838 160.764 547.056C160.996 547.271 161.112 547.528 161.112 547.828C161.112 548.132 160.996 548.393 160.764 548.611C160.535 548.826 160.259 548.933 159.935 548.933ZM165.659 557.928C165.062 557.928 164.522 557.774 164.038 557.468C163.557 557.157 163.175 556.702 162.892 556.102C162.613 555.499 162.473 554.759 162.473 553.883C162.473 552.983 162.618 552.235 162.908 551.638C163.198 551.038 163.583 550.59 164.063 550.293C164.548 549.993 165.078 549.843 165.654 549.843C166.094 549.843 166.46 549.918 166.753 550.068C167.05 550.215 167.288 550.399 167.469 550.621C167.653 550.839 167.793 551.053 167.888 551.265H167.955V547.327H170.128V557.8H167.98V556.542H167.888C167.786 556.76 167.641 556.977 167.454 557.192C167.27 557.403 167.029 557.578 166.733 557.718C166.44 557.858 166.082 557.928 165.659 557.928ZM166.349 556.194C166.7 556.194 166.997 556.099 167.239 555.908C167.484 555.714 167.672 555.443 167.802 555.095C167.934 554.747 168.001 554.34 168.001 553.873C168.001 553.406 167.936 553 167.807 552.656C167.677 552.311 167.49 552.046 167.244 551.858C166.999 551.671 166.7 551.577 166.349 551.577C165.991 551.577 165.69 551.674 165.444 551.868C165.199 552.063 165.013 552.332 164.887 552.676C164.761 553.021 164.698 553.419 164.698 553.873C164.698 554.33 164.761 554.734 164.887 555.085C165.016 555.432 165.202 555.705 165.444 555.903C165.69 556.097 165.991 556.194 166.349 556.194ZM175.499 557.953C174.691 557.953 173.995 557.79 173.412 557.463C172.833 557.132 172.386 556.665 172.073 556.061C171.759 555.455 171.602 554.737 171.602 553.909C171.602 553.101 171.759 552.392 172.073 551.781C172.386 551.171 172.828 550.696 173.397 550.355C173.97 550.014 174.641 549.843 175.412 549.843C175.93 549.843 176.412 549.927 176.859 550.094C177.309 550.257 177.701 550.505 178.035 550.835C178.373 551.166 178.635 551.582 178.823 552.083C179.01 552.581 179.104 553.164 179.104 553.832V554.43H172.472V553.08H177.053C177.053 552.767 176.985 552.489 176.849 552.247C176.712 552.005 176.523 551.815 176.281 551.679C176.043 551.539 175.765 551.469 175.448 551.469C175.117 551.469 174.824 551.546 174.568 551.699C174.316 551.849 174.118 552.052 173.975 552.308C173.832 552.56 173.758 552.842 173.755 553.152V554.435C173.755 554.824 173.827 555.16 173.97 555.443C174.116 555.726 174.323 555.944 174.589 556.097C174.854 556.251 175.17 556.327 175.535 556.327C175.777 556.327 175.998 556.293 176.199 556.225C176.401 556.157 176.573 556.055 176.716 555.918C176.859 555.782 176.968 555.615 177.043 555.417L179.058 555.55C178.956 556.034 178.746 556.457 178.429 556.818C178.115 557.176 177.71 557.456 177.212 557.657C176.718 557.855 176.147 557.953 175.499 557.953ZM184.074 557.953C183.28 557.953 182.593 557.785 182.014 557.447C181.437 557.106 180.993 556.632 180.679 556.026C180.365 555.415 180.208 554.708 180.208 553.903C180.208 553.092 180.365 552.383 180.679 551.776C180.993 551.166 181.437 550.692 182.014 550.355C182.593 550.014 183.28 549.843 184.074 549.843C184.869 549.843 185.554 550.014 186.13 550.355C186.71 550.692 187.156 551.166 187.47 551.776C187.783 552.383 187.94 553.092 187.94 553.903C187.94 554.708 187.783 555.415 187.47 556.026C187.156 556.632 186.71 557.106 186.13 557.447C185.554 557.785 184.869 557.953 184.074 557.953ZM184.085 556.266C184.446 556.266 184.748 556.164 184.99 555.959C185.232 555.751 185.414 555.468 185.537 555.11C185.663 554.752 185.726 554.345 185.726 553.888C185.726 553.431 185.663 553.024 185.537 552.666C185.414 552.308 185.232 552.025 184.99 551.817C184.748 551.609 184.446 551.505 184.085 551.505C183.72 551.505 183.413 551.609 183.164 551.817C182.919 552.025 182.733 552.308 182.607 552.666C182.484 553.024 182.423 553.431 182.423 553.888C182.423 554.345 182.484 554.752 182.607 555.11C182.733 555.468 182.919 555.751 183.164 555.959C183.413 556.164 183.72 556.266 184.085 556.266ZM192.73 557.8V547.327H196.862C197.657 547.327 198.333 547.479 198.892 547.782C199.452 548.082 199.878 548.5 200.171 549.035C200.467 549.567 200.616 550.181 200.616 550.876C200.616 551.572 200.466 552.185 200.166 552.717C199.866 553.249 199.431 553.663 198.862 553.96C198.296 554.256 197.611 554.405 196.806 554.405H194.173V552.63H196.448C196.874 552.63 197.225 552.557 197.502 552.41C197.781 552.26 197.989 552.054 198.125 551.792C198.265 551.526 198.335 551.221 198.335 550.876C198.335 550.528 198.265 550.225 198.125 549.966C197.989 549.703 197.781 549.501 197.502 549.357C197.222 549.211 196.867 549.138 196.438 549.138H194.945V557.8H192.73ZM204.191 547.327V557.8H202.013V547.327H204.191ZM208.176 557.948C207.675 557.948 207.229 557.861 206.836 557.688C206.444 557.51 206.134 557.249 205.906 556.905C205.681 556.557 205.568 556.124 205.568 555.606C205.568 555.17 205.648 554.803 205.809 554.507C205.969 554.21 206.187 553.972 206.463 553.791C206.739 553.61 207.053 553.474 207.404 553.382C207.759 553.29 208.13 553.225 208.519 553.188C208.976 553.14 209.344 553.096 209.623 553.055C209.903 553.01 210.106 552.946 210.232 552.86C210.358 552.775 210.421 552.649 210.421 552.482V552.451C210.421 552.127 210.319 551.877 210.114 551.699C209.913 551.522 209.627 551.434 209.255 551.434C208.863 551.434 208.551 551.521 208.319 551.694C208.088 551.865 207.934 552.08 207.859 552.339L205.844 552.175C205.947 551.698 206.148 551.285 206.448 550.938C206.748 550.586 207.135 550.317 207.609 550.13C208.086 549.939 208.638 549.843 209.265 549.843C209.702 549.843 210.119 549.894 210.518 549.997C210.921 550.099 211.277 550.257 211.587 550.472C211.901 550.687 212.148 550.963 212.329 551.301C212.509 551.635 212.6 552.035 212.6 552.502V557.8H210.534V556.711H210.472C210.346 556.956 210.177 557.173 209.966 557.36C209.755 557.544 209.501 557.689 209.204 557.795C208.907 557.897 208.565 557.948 208.176 557.948ZM208.8 556.445C209.121 556.445 209.404 556.382 209.649 556.256C209.894 556.126 210.087 555.952 210.227 555.734C210.367 555.516 210.436 555.269 210.436 554.993V554.159C210.368 554.203 210.275 554.244 210.155 554.282C210.039 554.316 209.908 554.348 209.761 554.379C209.615 554.406 209.468 554.432 209.322 554.456C209.175 554.476 209.042 554.495 208.923 554.512C208.667 554.549 208.444 554.609 208.253 554.691C208.062 554.773 207.914 554.884 207.808 555.023C207.702 555.16 207.65 555.33 207.65 555.535C207.65 555.831 207.757 556.058 207.972 556.215C208.19 556.368 208.466 556.445 208.8 556.445ZM218.467 549.946V551.582H213.737V549.946H218.467ZM214.811 548.064H216.99V555.386C216.99 555.588 217.02 555.744 217.082 555.857C217.143 555.966 217.228 556.043 217.337 556.087C217.45 556.131 217.579 556.153 217.726 556.153C217.828 556.153 217.93 556.145 218.033 556.128C218.135 556.107 218.213 556.092 218.268 556.082L218.611 557.703C218.502 557.737 218.348 557.776 218.15 557.821C217.953 557.868 217.712 557.897 217.429 557.907C216.904 557.928 216.444 557.858 216.049 557.698C215.657 557.538 215.352 557.289 215.133 556.951C214.915 556.614 214.808 556.188 214.811 555.673V548.064ZM224.11 549.946V551.582H219.263V549.946H224.11ZM220.372 557.8V549.378C220.372 548.809 220.483 548.336 220.705 547.961C220.93 547.586 221.236 547.305 221.625 547.118C222.014 546.93 222.455 546.836 222.95 546.836C223.284 546.836 223.589 546.862 223.865 546.913C224.144 546.964 224.352 547.01 224.489 547.051L224.1 548.688C224.015 548.66 223.909 548.635 223.783 548.611C223.66 548.587 223.534 548.575 223.405 548.575C223.084 548.575 222.861 548.65 222.735 548.8C222.609 548.947 222.546 549.153 222.546 549.419V557.8H220.372ZM228.709 557.953C227.914 557.953 227.228 557.785 226.648 557.447C226.072 557.106 225.627 556.632 225.313 556.026C225 555.415 224.843 554.708 224.843 553.903C224.843 553.092 225 552.383 225.313 551.776C225.627 551.166 226.072 550.692 226.648 550.355C227.228 550.014 227.914 549.843 228.709 549.843C229.503 549.843 230.188 550.014 230.764 550.355C231.344 550.692 231.791 551.166 232.104 551.776C232.418 552.383 232.575 553.092 232.575 553.903C232.575 554.708 232.418 555.415 232.104 556.026C231.791 556.632 231.344 557.106 230.764 557.447C230.188 557.785 229.503 557.953 228.709 557.953ZM228.719 556.266C229.08 556.266 229.382 556.164 229.624 555.959C229.866 555.751 230.049 555.468 230.171 555.11C230.297 554.752 230.36 554.345 230.36 553.888C230.36 553.431 230.297 553.024 230.171 552.666C230.049 552.308 229.866 552.025 229.624 551.817C229.382 551.609 229.08 551.505 228.719 551.505C228.354 551.505 228.047 551.609 227.799 551.817C227.553 552.025 227.367 552.308 227.241 552.666C227.118 553.024 227.057 553.431 227.057 553.888C227.057 554.345 227.118 554.752 227.241 555.11C227.367 555.468 227.553 555.751 227.799 555.959C228.047 556.164 228.354 556.266 228.719 556.266ZM233.991 557.8V549.946H236.103V551.316H236.185C236.328 550.828 236.568 550.46 236.906 550.211C237.243 549.959 237.632 549.833 238.072 549.833C238.181 549.833 238.299 549.84 238.425 549.853C238.551 549.867 238.662 549.886 238.757 549.91V551.843C238.655 551.812 238.513 551.785 238.333 551.761C238.152 551.737 237.987 551.725 237.837 551.725C237.516 551.725 237.23 551.795 236.978 551.935C236.729 552.071 236.531 552.262 236.384 552.507C236.241 552.753 236.17 553.036 236.17 553.356V557.8H233.991ZM239.883 557.8V549.946H241.959V551.331H242.052C242.215 550.871 242.488 550.508 242.87 550.242C243.252 549.976 243.708 549.843 244.24 549.843C244.779 549.843 245.237 549.978 245.616 550.247C245.994 550.513 246.246 550.874 246.373 551.331H246.454C246.615 550.881 246.904 550.522 247.324 550.252C247.746 549.98 248.246 549.843 248.822 549.843C249.555 549.843 250.15 550.077 250.607 550.544C251.067 551.007 251.297 551.665 251.297 552.518V557.8H249.124V552.947C249.124 552.511 249.008 552.184 248.776 551.965C248.544 551.747 248.254 551.638 247.907 551.638C247.511 551.638 247.203 551.764 246.981 552.017C246.759 552.265 246.649 552.594 246.649 553.003V557.8H244.537V552.901C244.537 552.516 244.426 552.209 244.204 551.981C243.986 551.752 243.698 551.638 243.34 551.638C243.098 551.638 242.88 551.699 242.686 551.822C242.495 551.942 242.343 552.11 242.23 552.328C242.118 552.543 242.062 552.796 242.062 553.085V557.8H239.883Z" fill="#B81C1C"/>
<rect x="125.6" y="534.6" width="148.2" height="37.4" rx="18.7" stroke="#F77171" stroke-width="4.8"/>
<rect x="241.6" y="461.6" width="133.2" height="37.4" rx="18.7" fill="#FDC9C9"/>
<path opacity="0.8" d="M269.791 477.339C269.751 476.927 269.575 476.606 269.265 476.378C268.954 476.149 268.533 476.035 268.002 476.035C267.64 476.035 267.335 476.086 267.086 476.189C266.837 476.288 266.647 476.426 266.514 476.603C266.384 476.78 266.319 476.981 266.319 477.206C266.312 477.394 266.352 477.557 266.437 477.697C266.526 477.837 266.647 477.958 266.8 478.06C266.953 478.159 267.131 478.246 267.332 478.321C267.533 478.393 267.748 478.454 267.976 478.505L268.917 478.73C269.374 478.832 269.793 478.969 270.175 479.139C270.557 479.31 270.887 479.519 271.167 479.768C271.447 480.017 271.663 480.31 271.816 480.648C271.973 480.985 272.053 481.372 272.057 481.809C272.053 482.449 271.89 483.005 271.566 483.476C271.245 483.943 270.782 484.306 270.175 484.565C269.572 484.821 268.844 484.948 267.991 484.948C267.146 484.948 266.41 484.819 265.782 484.56C265.158 484.301 264.671 483.917 264.32 483.409C263.972 482.898 263.79 482.265 263.773 481.512H265.915C265.939 481.863 266.04 482.156 266.217 482.392C266.398 482.623 266.638 482.799 266.938 482.918C267.241 483.034 267.584 483.092 267.966 483.092C268.341 483.092 268.666 483.038 268.943 482.928C269.222 482.819 269.439 482.668 269.592 482.473C269.745 482.279 269.822 482.056 269.822 481.803C269.822 481.568 269.752 481.371 269.612 481.21C269.476 481.05 269.275 480.914 269.009 480.801C268.747 480.689 268.424 480.586 268.043 480.494L266.902 480.208C266.019 479.993 265.322 479.657 264.811 479.201C264.299 478.744 264.045 478.128 264.049 477.355C264.045 476.721 264.214 476.167 264.555 475.693C264.899 475.219 265.372 474.849 265.972 474.583C266.572 474.317 267.253 474.184 268.017 474.184C268.794 474.184 269.473 474.317 270.052 474.583C270.635 474.849 271.089 475.219 271.412 475.693C271.736 476.167 271.903 476.715 271.914 477.339H269.791ZM277.054 484.953C276.26 484.953 275.573 484.785 274.993 484.447C274.417 484.106 273.972 483.632 273.659 483.026C273.345 482.415 273.188 481.708 273.188 480.903C273.188 480.092 273.345 479.383 273.659 478.776C273.972 478.166 274.417 477.692 274.993 477.355C275.573 477.014 276.26 476.843 277.054 476.843C277.848 476.843 278.534 477.014 279.11 477.355C279.689 477.692 280.136 478.166 280.45 478.776C280.763 479.383 280.92 480.092 280.92 480.903C280.92 481.708 280.763 482.415 280.45 483.026C280.136 483.632 279.689 484.106 279.11 484.447C278.534 484.785 277.848 484.953 277.054 484.953ZM277.064 483.266C277.426 483.266 277.727 483.164 277.969 482.959C278.211 482.751 278.394 482.468 278.517 482.11C278.643 481.752 278.706 481.345 278.706 480.888C278.706 480.431 278.643 480.024 278.517 479.666C278.394 479.308 278.211 479.025 277.969 478.817C277.727 478.609 277.426 478.505 277.064 478.505C276.7 478.505 276.393 478.609 276.144 478.817C275.898 479.025 275.713 479.308 275.586 479.666C275.464 480.024 275.402 480.431 275.402 480.888C275.402 481.345 275.464 481.752 275.586 482.11C275.713 482.468 275.898 482.751 276.144 482.959C276.393 483.164 276.7 483.266 277.064 483.266ZM285.885 484.953C285.081 484.953 284.389 484.783 283.809 484.442C283.233 484.098 282.79 483.621 282.48 483.01C282.173 482.4 282.019 481.698 282.019 480.903C282.019 480.099 282.175 479.393 282.485 478.786C282.798 478.176 283.243 477.701 283.819 477.36C284.396 477.015 285.081 476.843 285.875 476.843C286.56 476.843 287.16 476.968 287.675 477.217C288.19 477.465 288.597 477.815 288.897 478.265C289.197 478.715 289.363 479.243 289.393 479.85H287.338C287.28 479.458 287.126 479.143 286.877 478.904C286.632 478.662 286.31 478.541 285.911 478.541C285.573 478.541 285.279 478.633 285.026 478.817C284.777 478.998 284.583 479.262 284.443 479.61C284.304 479.957 284.234 480.378 284.234 480.873C284.234 481.374 284.302 481.8 284.438 482.151C284.578 482.502 284.774 482.77 285.026 482.954C285.279 483.138 285.573 483.23 285.911 483.23C286.16 483.23 286.383 483.179 286.581 483.077C286.782 482.974 286.947 482.826 287.077 482.632C287.21 482.434 287.297 482.197 287.338 481.921H289.393C289.359 482.521 289.196 483.049 288.902 483.506C288.613 483.96 288.212 484.314 287.701 484.57C287.189 484.826 286.584 484.953 285.885 484.953ZM290.788 484.8V476.946H292.966V484.8H290.788ZM291.882 475.933C291.558 475.933 291.281 475.826 291.049 475.611C290.82 475.393 290.706 475.132 290.706 474.828C290.706 474.528 290.82 474.271 291.049 474.056C291.281 473.838 291.558 473.729 291.882 473.729C292.206 473.729 292.482 473.838 292.711 474.056C292.943 474.271 293.058 474.528 293.058 474.828C293.058 475.132 292.943 475.393 292.711 475.611C292.482 475.826 292.206 475.933 291.882 475.933ZM296.951 484.948C296.45 484.948 296.004 484.861 295.611 484.688C295.219 484.51 294.909 484.249 294.681 483.905C294.456 483.557 294.343 483.124 294.343 482.606C294.343 482.17 294.423 481.803 294.584 481.507C294.744 481.21 294.962 480.972 295.238 480.791C295.514 480.61 295.828 480.474 296.179 480.382C296.534 480.29 296.905 480.225 297.294 480.188C297.751 480.14 298.119 480.096 298.398 480.055C298.678 480.01 298.881 479.946 299.007 479.86C299.133 479.775 299.196 479.649 299.196 479.482V479.451C299.196 479.127 299.094 478.877 298.889 478.699C298.688 478.522 298.402 478.434 298.03 478.434C297.638 478.434 297.326 478.521 297.094 478.694C296.863 478.865 296.709 479.08 296.634 479.339L294.619 479.175C294.722 478.698 294.923 478.285 295.223 477.938C295.523 477.586 295.91 477.317 296.384 477.13C296.861 476.939 297.413 476.843 298.04 476.843C298.477 476.843 298.894 476.894 299.293 476.997C299.696 477.099 300.052 477.257 300.362 477.472C300.676 477.687 300.923 477.963 301.104 478.301C301.284 478.635 301.375 479.035 301.375 479.502V484.8H299.309V483.711H299.247C299.121 483.956 298.952 484.173 298.741 484.36C298.53 484.544 298.276 484.689 297.979 484.795C297.682 484.897 297.34 484.948 296.951 484.948ZM297.575 483.445C297.896 483.445 298.179 483.382 298.424 483.256C298.669 483.126 298.862 482.952 299.002 482.734C299.142 482.516 299.211 482.269 299.211 481.993V481.159C299.143 481.203 299.05 481.244 298.93 481.282C298.814 481.316 298.683 481.348 298.536 481.379C298.39 481.406 298.243 481.432 298.097 481.456C297.95 481.476 297.817 481.495 297.698 481.512C297.442 481.549 297.219 481.609 297.028 481.691C296.837 481.773 296.689 481.884 296.583 482.023C296.477 482.16 296.425 482.33 296.425 482.535C296.425 482.831 296.532 483.058 296.747 483.215C296.965 483.368 297.241 483.445 297.575 483.445ZM305.243 474.327V484.8H303.065V474.327H305.243ZM310.362 474.327H313.092L315.977 481.364H316.099L318.983 474.327H321.714V484.8H319.566V477.984H319.479L316.769 484.749H315.307L312.596 477.958H312.509V484.8H310.362V474.327ZM327.077 484.953C326.269 484.953 325.574 484.79 324.991 484.463C324.411 484.132 323.964 483.665 323.651 483.061C323.337 482.455 323.18 481.737 323.18 480.909C323.18 480.101 323.337 479.392 323.651 478.781C323.964 478.171 324.406 477.696 324.975 477.355C325.548 477.014 326.22 476.843 326.99 476.843C327.508 476.843 327.991 476.927 328.437 477.094C328.887 477.257 329.279 477.505 329.613 477.835C329.951 478.166 330.213 478.582 330.401 479.083C330.588 479.581 330.682 480.164 330.682 480.832V481.43H324.05V480.08H328.631C328.631 479.767 328.563 479.489 328.427 479.247C328.291 479.005 328.101 478.815 327.859 478.679C327.621 478.539 327.343 478.469 327.026 478.469C326.695 478.469 326.402 478.546 326.146 478.699C325.894 478.849 325.696 479.052 325.553 479.308C325.41 479.56 325.337 479.842 325.333 480.152V481.435C325.333 481.824 325.405 482.16 325.548 482.443C325.695 482.726 325.901 482.944 326.167 483.097C326.433 483.251 326.748 483.327 327.113 483.327C327.355 483.327 327.576 483.293 327.778 483.225C327.979 483.157 328.151 483.055 328.294 482.918C328.437 482.782 328.546 482.615 328.621 482.417L330.636 482.55C330.534 483.034 330.324 483.457 330.007 483.818C329.693 484.176 329.288 484.456 328.79 484.657C328.296 484.855 327.725 484.953 327.077 484.953ZM334.998 484.928C334.401 484.928 333.861 484.774 333.377 484.468C332.896 484.157 332.514 483.702 332.231 483.102C331.952 482.499 331.812 481.759 331.812 480.883C331.812 479.983 331.957 479.235 332.247 478.638C332.537 478.038 332.922 477.59 333.403 477.293C333.887 476.993 334.417 476.843 334.993 476.843C335.433 476.843 335.799 476.918 336.092 477.068C336.389 477.215 336.628 477.399 336.808 477.621C336.992 477.839 337.132 478.053 337.228 478.265H337.294V474.327H339.467V484.8H337.32V483.542H337.228C337.125 483.76 336.98 483.977 336.793 484.192C336.609 484.403 336.368 484.578 336.072 484.718C335.779 484.858 335.421 484.928 334.998 484.928ZM335.688 483.194C336.039 483.194 336.336 483.099 336.578 482.908C336.824 482.714 337.011 482.443 337.141 482.095C337.274 481.747 337.34 481.34 337.34 480.873C337.34 480.406 337.275 480 337.146 479.656C337.016 479.311 336.829 479.046 336.583 478.858C336.338 478.671 336.039 478.577 335.688 478.577C335.33 478.577 335.029 478.674 334.783 478.868C334.538 479.063 334.352 479.332 334.226 479.676C334.1 480.021 334.037 480.419 334.037 480.873C334.037 481.33 334.1 481.734 334.226 482.085C334.355 482.432 334.541 482.705 334.783 482.903C335.029 483.097 335.33 483.194 335.688 483.194ZM341.258 484.8V476.946H343.437V484.8H341.258ZM342.353 475.933C342.029 475.933 341.751 475.826 341.519 475.611C341.291 475.393 341.177 475.132 341.177 474.828C341.177 474.528 341.291 474.271 341.519 474.056C341.751 473.838 342.029 473.729 342.353 473.729C342.677 473.729 342.953 473.838 343.181 474.056C343.413 474.271 343.529 474.528 343.529 474.828C343.529 475.132 343.413 475.393 343.181 475.611C342.953 475.826 342.677 475.933 342.353 475.933ZM347.422 484.948C346.92 484.948 346.474 484.861 346.082 484.688C345.69 484.51 345.379 484.249 345.151 483.905C344.926 483.557 344.814 483.124 344.814 482.606C344.814 482.17 344.894 481.803 345.054 481.507C345.214 481.21 345.432 480.972 345.708 480.791C345.985 480.61 346.298 480.474 346.649 480.382C347.004 480.29 347.376 480.225 347.764 480.188C348.221 480.14 348.589 480.096 348.869 480.055C349.148 480.01 349.351 479.946 349.477 479.86C349.603 479.775 349.666 479.649 349.666 479.482V479.451C349.666 479.127 349.564 478.877 349.36 478.699C349.158 478.522 348.872 478.434 348.501 478.434C348.108 478.434 347.797 478.521 347.565 478.694C347.333 478.865 347.179 479.08 347.104 479.339L345.09 479.175C345.192 478.698 345.393 478.285 345.693 477.938C345.993 477.586 346.38 477.317 346.854 477.13C347.331 476.939 347.883 476.843 348.511 476.843C348.947 476.843 349.365 476.894 349.764 476.997C350.166 477.099 350.522 477.257 350.832 477.472C351.146 477.687 351.393 477.963 351.574 478.301C351.754 478.635 351.845 479.035 351.845 479.502V484.8H349.779V483.711H349.718C349.591 483.956 349.423 484.173 349.211 484.36C349 484.544 348.746 484.689 348.449 484.795C348.153 484.897 347.81 484.948 347.422 484.948ZM348.045 483.445C348.366 483.445 348.649 483.382 348.894 483.256C349.14 483.126 349.332 482.952 349.472 482.734C349.612 482.516 349.682 482.269 349.682 481.993V481.159C349.614 481.203 349.52 481.244 349.401 481.282C349.285 481.316 349.153 481.348 349.007 481.379C348.86 481.406 348.714 481.432 348.567 481.456C348.42 481.476 348.287 481.495 348.168 481.512C347.912 481.549 347.689 481.609 347.498 481.691C347.307 481.773 347.159 481.884 347.053 482.023C346.948 482.16 346.895 482.33 346.895 482.535C346.895 482.831 347.002 483.058 347.217 483.215C347.435 483.368 347.711 483.445 348.045 483.445Z" fill="#B81C1C"/>
<rect x="241.6" y="461.6" width="133.2" height="37.4" rx="18.7" stroke="#F77171" stroke-width="4.8"/>
<defs>
<filter id="filter0_d_929_2222" x="92" y="192" width="216" height="216" filterUnits="userSpaceOnUse" color-interpolation-filters="sRGB">
<feFlood flood-opacity="0" result="BackgroundImageFix"/>
<feColorMatrix in="SourceAlpha" type="matrix" values="0 0 0 0 0 0 0 0 0 0 0 0 0 0 0 0 0 0 127 0" result="hardAlpha"/>
<feOffset/>
<feGaussianBlur stdDeviation="4"/>
<feComposite in2="hardAlpha" operator="out"/>
<feColorMatrix type="matrix" values="0 0 0 0 0 0 0 0 0 0 0 0 0 0 0 0 0 0 0.08 0"/>
<feBlend mode="normal" in2="BackgroundImageFix" result="effect1_dropShadow_929_2222"/>
<feBlend mode="normal" in="SourceGraphic" in2="effect1_dropShadow_929_2222" result="shape"/>
</filter>
</defs>
</svg>
