<svg width="1216" height="401" viewBox="0 0 1216 401" fill="none" xmlns="http://www.w3.org/2000/svg">
<rect y="0.75" width="1216" height="400" rx="16" fill="#FDE1E1"/>
<rect x="498" y="90.75" width="220" height="220" rx="110" fill="#F77171"/>
<g filter="url(#filter0_d_919_2913)">
<rect x="508" y="100.75" width="200" height="200" rx="100" fill="#FDC9C9"/>
</g>
<g opacity="0.8">
<path d="M569.415 210.75V196.724H573.88V210.75H569.415ZM571.652 195.089C571.025 195.089 570.487 194.883 570.036 194.469C569.586 194.048 569.36 193.543 569.36 192.953C569.36 192.368 569.586 191.869 570.036 191.455C570.487 191.035 571.025 190.825 571.652 190.825C572.285 190.825 572.824 191.035 573.269 191.455C573.719 191.869 573.944 192.368 573.944 192.953C573.944 193.543 573.719 194.048 573.269 194.469C572.824 194.883 572.285 195.089 571.652 195.089Z" fill="#B81C1C"/>
<path d="M581.831 202.751V210.75H577.365V196.724H581.612V199.299H581.767C582.077 198.441 582.607 197.768 583.356 197.281C584.105 196.788 584.996 196.541 586.031 196.541C587.017 196.541 587.873 196.764 588.597 197.208C589.328 197.646 589.894 198.261 590.296 199.053C590.704 199.838 590.904 200.757 590.898 201.81V210.75H586.433V202.687C586.439 201.908 586.241 201.299 585.839 200.861C585.444 200.422 584.893 200.203 584.187 200.203C583.718 200.203 583.304 200.307 582.945 200.514C582.592 200.714 582.318 201.004 582.123 201.381C581.934 201.759 581.837 202.215 581.831 202.751Z" fill="#B81C1C"/>
<path d="M594.306 210.75V192.049H598.826V207.079H606.606V210.75H594.306Z" fill="#B81C1C"/>
<path d="M609.589 210.75V196.724H614.054V210.75H609.589ZM611.826 195.089C611.199 195.089 610.66 194.883 610.21 194.469C609.759 194.048 609.534 193.543 609.534 192.953C609.534 192.368 609.759 191.869 610.21 191.455C610.66 191.035 611.199 190.825 611.826 190.825C612.459 190.825 612.998 191.035 613.442 191.455C613.893 191.869 614.118 192.368 614.118 192.953C614.118 193.543 613.893 194.048 613.442 194.469C612.998 194.883 612.459 195.089 611.826 195.089Z" fill="#B81C1C"/>
<path d="M631.145 196.724L626.333 210.75H621.219L616.416 196.724H621.119L623.703 206.385H623.849L626.442 196.724H631.145Z" fill="#B81C1C"/>
<path d="M639.604 211.015C638.137 211.015 636.871 210.726 635.806 210.147C634.746 209.563 633.931 208.732 633.358 207.654C632.792 206.571 632.509 205.283 632.509 203.792C632.509 202.343 632.795 201.077 633.368 199.993C633.94 198.903 634.746 198.057 635.787 197.455C636.828 196.846 638.055 196.541 639.467 196.541C640.466 196.541 641.379 196.697 642.207 197.007C643.035 197.318 643.75 197.777 644.353 198.386C644.955 198.995 645.424 199.747 645.759 200.641C646.094 201.53 646.261 202.55 646.261 203.7V204.815H634.071V202.221H642.106C642.1 201.746 641.988 201.323 641.769 200.952C641.549 200.581 641.248 200.291 640.865 200.084C640.487 199.871 640.052 199.765 639.559 199.765C639.06 199.765 638.612 199.877 638.216 200.103C637.821 200.322 637.507 200.623 637.276 201.007C637.044 201.384 636.923 201.813 636.911 202.294V204.933C636.911 205.505 637.023 206.008 637.248 206.44C637.474 206.866 637.793 207.198 638.207 207.435C638.621 207.673 639.114 207.791 639.687 207.791C640.082 207.791 640.441 207.737 640.764 207.627C641.087 207.517 641.364 207.356 641.595 207.143C641.826 206.93 642 206.668 642.116 206.358L646.216 206.476C646.045 207.396 645.671 208.196 645.092 208.878C644.52 209.554 643.768 210.08 642.837 210.458C641.905 210.829 640.828 211.015 639.604 211.015Z" fill="#B81C1C"/>
</g>
<rect x="259" y="89.75" width="154" height="46" rx="23" fill="#FDC9C9"/>
<path opacity="0.8" d="M287.138 106.659H290.551L294.156 115.455H294.31L297.915 106.659H301.328V119.75H298.643V111.229H298.535L295.147 119.686H293.319L289.931 111.197H289.822V119.75H287.138V106.659ZM307.993 119.942C307.001 119.942 306.142 119.731 305.417 119.309C304.697 118.883 304.141 118.29 303.749 117.532C303.357 116.769 303.161 115.885 303.161 114.879C303.161 113.865 303.357 112.979 303.749 112.22C304.141 111.457 304.697 110.865 305.417 110.443C306.142 110.017 307.001 109.804 307.993 109.804C308.986 109.804 309.843 110.017 310.563 110.443C311.287 110.865 311.846 111.457 312.238 112.22C312.63 112.979 312.826 113.865 312.826 114.879C312.826 115.885 312.63 116.769 312.238 117.532C311.846 118.29 311.287 118.883 310.563 119.309C309.843 119.731 308.986 119.942 307.993 119.942ZM308.006 117.832C308.458 117.832 308.835 117.705 309.138 117.449C309.44 117.189 309.668 116.835 309.822 116.388C309.979 115.94 310.058 115.431 310.058 114.86C310.058 114.289 309.979 113.78 309.822 113.332C309.668 112.885 309.44 112.531 309.138 112.271C308.835 112.011 308.458 111.881 308.006 111.881C307.55 111.881 307.167 112.011 306.856 112.271C306.549 112.531 306.317 112.885 306.159 113.332C306.006 113.78 305.929 114.289 305.929 114.86C305.929 115.431 306.006 115.94 306.159 116.388C306.317 116.835 306.549 117.189 306.856 117.449C307.167 117.705 307.55 117.832 308.006 117.832ZM314.648 119.75V106.659H317.371V111.581H317.454C317.573 111.317 317.746 111.048 317.971 110.776C318.202 110.499 318.5 110.268 318.866 110.085C319.237 109.898 319.697 109.804 320.247 109.804C320.963 109.804 321.623 109.991 322.229 110.366C322.834 110.737 323.317 111.298 323.68 112.048C324.042 112.793 324.223 113.729 324.223 114.854C324.223 115.949 324.046 116.874 323.692 117.628C323.343 118.378 322.866 118.947 322.26 119.335C321.66 119.718 320.986 119.91 320.241 119.91C319.712 119.91 319.263 119.822 318.892 119.648C318.525 119.473 318.225 119.254 317.991 118.989C317.756 118.721 317.577 118.45 317.454 118.178H317.332V119.75H314.648ZM317.313 114.841C317.313 115.425 317.394 115.934 317.556 116.369C317.718 116.803 317.952 117.142 318.259 117.385C318.566 117.624 318.939 117.743 319.378 117.743C319.821 117.743 320.196 117.621 320.503 117.379C320.809 117.131 321.042 116.79 321.199 116.356C321.361 115.917 321.442 115.412 321.442 114.841C321.442 114.274 321.363 113.776 321.206 113.345C321.048 112.915 320.816 112.578 320.509 112.335C320.202 112.092 319.825 111.971 319.378 111.971C318.934 111.971 318.559 112.088 318.253 112.322C317.95 112.557 317.718 112.889 317.556 113.32C317.394 113.75 317.313 114.257 317.313 114.841ZM326.04 119.75V109.932H328.763V119.75H326.04ZM327.408 108.666C327.003 108.666 326.656 108.532 326.366 108.263C326.08 107.991 325.938 107.665 325.938 107.286C325.938 106.911 326.08 106.589 326.366 106.32C326.656 106.048 327.003 105.911 327.408 105.911C327.813 105.911 328.158 106.048 328.443 106.32C328.733 106.589 328.878 106.911 328.878 107.286C328.878 107.665 328.733 107.991 328.443 108.263C328.158 108.532 327.813 108.666 327.408 108.666ZM333.667 106.659V119.75H330.944V106.659H333.667ZM340.323 119.942C339.313 119.942 338.444 119.737 337.715 119.328C336.99 118.915 336.432 118.331 336.04 117.577C335.648 116.818 335.452 115.921 335.452 114.886C335.452 113.876 335.648 112.989 336.04 112.227C336.432 111.464 336.984 110.869 337.696 110.443C338.412 110.017 339.251 109.804 340.214 109.804C340.862 109.804 341.465 109.908 342.023 110.117C342.586 110.322 343.076 110.631 343.493 111.044C343.915 111.457 344.243 111.977 344.478 112.604C344.712 113.226 344.829 113.955 344.829 114.79V115.538H336.539V113.85H342.266C342.266 113.458 342.181 113.111 342.01 112.808C341.84 112.506 341.603 112.269 341.301 112.099C341.002 111.924 340.655 111.837 340.259 111.837C339.846 111.837 339.479 111.933 339.159 112.124C338.844 112.312 338.597 112.565 338.418 112.885C338.239 113.2 338.147 113.552 338.143 113.94V115.544C338.143 116.03 338.233 116.45 338.412 116.803C338.595 117.157 338.853 117.43 339.185 117.621C339.517 117.813 339.912 117.909 340.368 117.909C340.67 117.909 340.947 117.866 341.199 117.781C341.45 117.696 341.665 117.568 341.844 117.398C342.023 117.227 342.159 117.018 342.253 116.771L344.772 116.938C344.644 117.543 344.382 118.071 343.985 118.523C343.593 118.97 343.086 119.32 342.464 119.571C341.846 119.818 341.132 119.942 340.323 119.942ZM353.08 119.75H350.114L354.633 106.659H358.2L362.713 119.75H359.747L356.468 109.651H356.365L353.08 119.75ZM352.894 114.604H359.9V116.765H352.894V114.604ZM364.237 123.432V109.932H366.922V111.581H367.043C367.162 111.317 367.335 111.048 367.561 110.776C367.791 110.499 368.089 110.268 368.456 110.085C368.827 109.898 369.287 109.804 369.836 109.804C370.552 109.804 371.213 109.991 371.818 110.366C372.423 110.737 372.907 111.298 373.269 112.048C373.631 112.793 373.812 113.729 373.812 114.854C373.812 115.949 373.635 116.874 373.282 117.628C372.932 118.378 372.455 118.947 371.85 119.335C371.249 119.718 370.576 119.91 369.83 119.91C369.302 119.91 368.852 119.822 368.481 119.648C368.115 119.473 367.814 119.254 367.58 118.989C367.346 118.721 367.167 118.45 367.043 118.178H366.96V123.432H364.237ZM366.903 114.841C366.903 115.425 366.983 115.934 367.145 116.369C367.307 116.803 367.542 117.142 367.849 117.385C368.155 117.624 368.528 117.743 368.967 117.743C369.41 117.743 369.785 117.621 370.092 117.379C370.399 117.131 370.631 116.79 370.789 116.356C370.951 115.917 371.032 115.412 371.032 114.841C371.032 114.274 370.953 113.776 370.795 113.345C370.638 112.915 370.405 112.578 370.099 112.335C369.792 112.092 369.415 111.971 368.967 111.971C368.524 111.971 368.149 112.088 367.842 112.322C367.54 112.557 367.307 112.889 367.145 113.32C366.983 113.75 366.903 114.257 366.903 114.841ZM375.628 123.432V109.932H378.312V111.581H378.434C378.553 111.317 378.726 111.048 378.952 110.776C379.182 110.499 379.48 110.268 379.846 110.085C380.217 109.898 380.677 109.804 381.227 109.804C381.943 109.804 382.604 109.991 383.209 110.366C383.814 110.737 384.297 111.298 384.66 112.048C385.022 112.793 385.203 113.729 385.203 114.854C385.203 115.949 385.026 116.874 384.672 117.628C384.323 118.378 383.846 118.947 383.241 119.335C382.64 119.718 381.966 119.91 381.221 119.91C380.692 119.91 380.243 119.822 379.872 119.648C379.506 119.473 379.205 119.254 378.971 118.989C378.736 118.721 378.557 118.45 378.434 118.178H378.351V123.432H375.628ZM378.293 114.841C378.293 115.425 378.374 115.934 378.536 116.369C378.698 116.803 378.932 117.142 379.239 117.385C379.546 117.624 379.919 117.743 380.358 117.743C380.801 117.743 381.176 117.621 381.483 117.379C381.79 117.131 382.022 116.79 382.18 116.356C382.341 115.917 382.422 115.412 382.422 114.841C382.422 114.274 382.344 113.776 382.186 113.345C382.028 112.915 381.796 112.578 381.489 112.335C381.182 112.092 380.805 111.971 380.358 111.971C379.915 111.971 379.54 112.088 379.233 112.322C378.93 112.557 378.698 112.889 378.536 113.32C378.374 113.75 378.293 114.257 378.293 114.841Z" fill="#B81C1C"/>
<rect x="259" y="89.75" width="154" height="46" rx="23" stroke="#F77171" stroke-width="6"/>
<rect x="294" y="265.75" width="135" height="46" rx="23" fill="#FDC9C9"/>
<path opacity="0.8" d="M325.085 295.75L321.339 282.659H324.362L326.529 291.755H326.638L329.028 282.659H331.617L334.001 291.774H334.116L336.283 282.659H339.307L335.561 295.75H332.864L330.371 287.191H330.268L327.782 295.75H325.085ZM344.157 295.942C343.147 295.942 342.278 295.737 341.549 295.328C340.824 294.915 340.266 294.331 339.874 293.577C339.482 292.818 339.286 291.921 339.286 290.886C339.286 289.876 339.482 288.989 339.874 288.227C340.266 287.464 340.818 286.869 341.53 286.443C342.246 286.017 343.085 285.804 344.048 285.804C344.696 285.804 345.299 285.908 345.857 286.117C346.42 286.322 346.91 286.631 347.327 287.044C347.749 287.457 348.077 287.977 348.312 288.604C348.546 289.226 348.663 289.955 348.663 290.79V291.538H340.373V289.85H346.1C346.1 289.458 346.015 289.111 345.844 288.808C345.674 288.506 345.437 288.269 345.135 288.099C344.836 287.924 344.489 287.837 344.093 287.837C343.68 287.837 343.313 287.933 342.993 288.124C342.678 288.312 342.431 288.565 342.252 288.885C342.073 289.2 341.981 289.552 341.977 289.94V291.544C341.977 292.03 342.067 292.45 342.246 292.803C342.429 293.157 342.687 293.43 343.019 293.621C343.351 293.813 343.746 293.909 344.202 293.909C344.504 293.909 344.781 293.866 345.032 293.781C345.284 293.696 345.499 293.568 345.678 293.398C345.857 293.227 345.993 293.018 346.087 292.771L348.606 292.938C348.478 293.543 348.216 294.071 347.819 294.523C347.427 294.97 346.92 295.32 346.298 295.571C345.68 295.818 344.966 295.942 344.157 295.942ZM350.491 295.75V282.659H353.214V287.581H353.297C353.417 287.317 353.589 287.048 353.815 286.776C354.045 286.499 354.344 286.268 354.71 286.085C355.081 285.898 355.541 285.804 356.091 285.804C356.807 285.804 357.467 285.991 358.072 286.366C358.677 286.737 359.161 287.298 359.523 288.048C359.885 288.793 360.067 289.729 360.067 290.854C360.067 291.949 359.89 292.874 359.536 293.628C359.187 294.378 358.709 294.947 358.104 295.335C357.503 295.718 356.83 295.91 356.084 295.91C355.556 295.91 355.106 295.822 354.736 295.648C354.369 295.473 354.069 295.254 353.834 294.989C353.6 294.721 353.421 294.45 353.297 294.178H353.176V295.75H350.491ZM353.157 290.841C353.157 291.425 353.238 291.934 353.4 292.369C353.562 292.803 353.796 293.142 354.103 293.385C354.41 293.624 354.782 293.743 355.221 293.743C355.665 293.743 356.04 293.621 356.346 293.379C356.653 293.131 356.885 292.79 357.043 292.356C357.205 291.917 357.286 291.412 357.286 290.841C357.286 290.274 357.207 289.776 357.05 289.345C356.892 288.915 356.66 288.578 356.353 288.335C356.046 288.092 355.669 287.971 355.221 287.971C354.778 287.971 354.403 288.088 354.096 288.322C353.794 288.557 353.562 288.889 353.4 289.32C353.238 289.75 353.157 290.257 353.157 290.841ZM368.357 295.75H365.391L369.91 282.659H373.477L377.99 295.75H375.024L371.745 285.651H371.643L368.357 295.75ZM368.172 290.604H375.177V292.765H368.172V290.604ZM379.514 299.432V285.932H382.199V287.581H382.32C382.44 287.317 382.612 287.048 382.838 286.776C383.068 286.499 383.367 286.268 383.733 286.085C384.104 285.898 384.564 285.804 385.114 285.804C385.83 285.804 386.49 285.991 387.095 286.366C387.7 286.737 388.184 287.298 388.546 288.048C388.909 288.793 389.09 289.729 389.09 290.854C389.09 291.949 388.913 292.874 388.559 293.628C388.21 294.378 387.732 294.947 387.127 295.335C386.526 295.718 385.853 295.91 385.107 295.91C384.579 295.91 384.129 295.822 383.759 295.648C383.392 295.473 383.092 295.254 382.857 294.989C382.623 294.721 382.444 294.45 382.32 294.178H382.237V299.432H379.514ZM382.18 290.841C382.18 291.425 382.261 291.934 382.423 292.369C382.585 292.803 382.819 293.142 383.126 293.385C383.433 293.624 383.806 293.743 384.244 293.743C384.688 293.743 385.063 293.621 385.369 293.379C385.676 293.131 385.909 292.79 386.066 292.356C386.228 291.917 386.309 291.412 386.309 290.841C386.309 290.274 386.23 289.776 386.073 289.345C385.915 288.915 385.683 288.578 385.376 288.335C385.069 288.092 384.692 287.971 384.244 287.971C383.801 287.971 383.426 288.088 383.119 288.322C382.817 288.557 382.585 288.889 382.423 289.32C382.261 289.75 382.18 290.257 382.18 290.841ZM390.905 299.432V285.932H393.59V287.581H393.711C393.83 287.317 394.003 287.048 394.229 286.776C394.459 286.499 394.757 286.268 395.124 286.085C395.494 285.898 395.955 285.804 396.504 285.804C397.22 285.804 397.881 285.991 398.486 286.366C399.091 286.737 399.575 287.298 399.937 288.048C400.299 288.793 400.48 289.729 400.48 290.854C400.48 291.949 400.303 292.874 399.95 293.628C399.6 294.378 399.123 294.947 398.518 295.335C397.917 295.718 397.244 295.91 396.498 295.91C395.97 295.91 395.52 295.822 395.149 295.648C394.783 295.473 394.482 295.254 394.248 294.989C394.014 294.721 393.835 294.45 393.711 294.178H393.628V299.432H390.905ZM393.57 290.841C393.57 291.425 393.651 291.934 393.813 292.369C393.975 292.803 394.21 293.142 394.517 293.385C394.823 293.624 395.196 293.743 395.635 293.743C396.078 293.743 396.453 293.621 396.76 293.379C397.067 293.131 397.299 292.79 397.457 292.356C397.619 291.917 397.7 291.412 397.7 290.841C397.7 290.274 397.621 289.776 397.463 289.345C397.306 288.915 397.073 288.578 396.767 288.335C396.46 288.092 396.083 287.971 395.635 287.971C395.192 287.971 394.817 288.088 394.51 288.322C394.208 288.557 393.975 288.889 393.813 289.32C393.651 289.75 393.57 290.257 393.57 290.841Z" fill="#B81C1C"/>
<rect x="294" y="265.75" width="135" height="46" rx="23" stroke="#F77171" stroke-width="6"/>
<rect x="180" y="177.75" width="185" height="46" rx="23" fill="#FDC9C9"/>
<path opacity="0.8" d="M208.138 207.75V194.659H213.379C214.342 194.659 215.146 194.802 215.789 195.087C216.433 195.373 216.916 195.769 217.24 196.276C217.564 196.779 217.726 197.359 217.726 198.015C217.726 198.526 217.624 198.976 217.419 199.364C217.214 199.747 216.933 200.062 216.575 200.31C216.222 200.553 215.817 200.725 215.361 200.827V200.955C215.859 200.977 216.326 201.117 216.761 201.377C217.2 201.637 217.555 202.001 217.828 202.47C218.101 202.935 218.237 203.489 218.237 204.132C218.237 204.827 218.065 205.447 217.719 205.992C217.379 206.533 216.874 206.962 216.205 207.277C215.536 207.592 214.711 207.75 213.731 207.75H208.138ZM210.906 205.487H213.162C213.933 205.487 214.496 205.34 214.849 205.046C215.203 204.748 215.38 204.352 215.38 203.857C215.38 203.495 215.293 203.175 215.118 202.898C214.943 202.621 214.694 202.404 214.37 202.246C214.05 202.089 213.669 202.01 213.226 202.01H210.906V205.487ZM210.906 200.137H212.957C213.337 200.137 213.673 200.071 213.967 199.939C214.266 199.803 214.5 199.611 214.67 199.364C214.845 199.116 214.933 198.82 214.933 198.475C214.933 198.002 214.764 197.621 214.428 197.331C214.095 197.041 213.622 196.896 213.009 196.896H210.906V200.137ZM219.987 207.75V197.932H222.627V199.645H222.729C222.908 199.036 223.209 198.575 223.631 198.264C224.052 197.949 224.538 197.791 225.088 197.791C225.224 197.791 225.371 197.8 225.529 197.817C225.687 197.834 225.825 197.857 225.944 197.887V200.303C225.817 200.265 225.64 200.231 225.414 200.201C225.188 200.171 224.981 200.156 224.794 200.156C224.393 200.156 224.035 200.244 223.72 200.418C223.409 200.589 223.162 200.827 222.979 201.134C222.8 201.441 222.71 201.795 222.71 202.195V207.75H219.987ZM231.331 207.942C230.338 207.942 229.48 207.731 228.755 207.309C228.035 206.883 227.479 206.29 227.087 205.532C226.695 204.769 226.499 203.885 226.499 202.879C226.499 201.865 226.695 200.979 227.087 200.22C227.479 199.457 228.035 198.865 228.755 198.443C229.48 198.017 230.338 197.804 231.331 197.804C232.324 197.804 233.181 198.017 233.901 198.443C234.625 198.865 235.184 199.457 235.576 200.22C235.968 200.979 236.164 201.865 236.164 202.879C236.164 203.885 235.968 204.769 235.576 205.532C235.184 206.29 234.625 206.883 233.901 207.309C233.181 207.731 232.324 207.942 231.331 207.942ZM231.344 205.832C231.796 205.832 232.173 205.705 232.475 205.449C232.778 205.189 233.006 204.835 233.159 204.388C233.317 203.94 233.396 203.431 233.396 202.86C233.396 202.289 233.317 201.78 233.159 201.332C233.006 200.885 232.778 200.531 232.475 200.271C232.173 200.011 231.796 199.881 231.344 199.881C230.888 199.881 230.505 200.011 230.194 200.271C229.887 200.531 229.654 200.885 229.497 201.332C229.343 201.78 229.267 202.289 229.267 202.86C229.267 203.431 229.343 203.94 229.497 204.388C229.654 204.835 229.887 205.189 230.194 205.449C230.505 205.705 230.888 205.832 231.344 205.832ZM240.734 207.935C240.108 207.935 239.549 207.827 239.059 207.609C238.569 207.388 238.181 207.062 237.896 206.631C237.615 206.197 237.474 205.656 237.474 205.008C237.474 204.462 237.574 204.004 237.775 203.634C237.975 203.263 238.248 202.964 238.593 202.739C238.938 202.513 239.33 202.342 239.769 202.227C240.212 202.112 240.676 202.031 241.162 201.984C241.733 201.925 242.194 201.869 242.543 201.818C242.892 201.763 243.146 201.682 243.304 201.575C243.461 201.469 243.54 201.311 243.54 201.102V201.064C243.54 200.659 243.412 200.346 243.157 200.124C242.905 199.903 242.547 199.792 242.083 199.792C241.593 199.792 241.203 199.901 240.913 200.118C240.623 200.331 240.431 200.599 240.338 200.923L237.819 200.719C237.947 200.122 238.199 199.607 238.574 199.172C238.949 198.733 239.432 198.396 240.025 198.162C240.621 197.923 241.311 197.804 242.096 197.804C242.641 197.804 243.163 197.868 243.662 197.996C244.164 198.124 244.61 198.322 244.998 198.59C245.39 198.859 245.699 199.204 245.924 199.626C246.15 200.043 246.263 200.544 246.263 201.128V207.75H243.681V206.388H243.604C243.446 206.695 243.235 206.966 242.971 207.2C242.707 207.43 242.39 207.612 242.019 207.744C241.648 207.871 241.22 207.935 240.734 207.935ZM241.514 206.056C241.914 206.056 242.268 205.977 242.575 205.82C242.882 205.658 243.123 205.44 243.297 205.168C243.472 204.895 243.559 204.586 243.559 204.241V203.199C243.474 203.254 243.357 203.305 243.208 203.352C243.063 203.395 242.899 203.435 242.716 203.474C242.532 203.508 242.349 203.54 242.166 203.57C241.983 203.595 241.816 203.619 241.667 203.64C241.348 203.687 241.069 203.761 240.83 203.864C240.591 203.966 240.406 204.104 240.274 204.279C240.142 204.45 240.076 204.663 240.076 204.918C240.076 205.289 240.21 205.572 240.478 205.768C240.751 205.96 241.096 206.056 241.514 206.056ZM251.994 207.91C251.248 207.91 250.572 207.718 249.967 207.335C249.366 206.947 248.889 206.378 248.536 205.628C248.186 204.874 248.011 203.949 248.011 202.854C248.011 201.729 248.192 200.793 248.555 200.048C248.917 199.298 249.398 198.737 249.999 198.366C250.604 197.991 251.267 197.804 251.987 197.804C252.537 197.804 252.995 197.898 253.362 198.085C253.732 198.268 254.031 198.499 254.256 198.776C254.487 199.048 254.661 199.317 254.781 199.581H254.864V194.659H257.58V207.75H254.896V206.178H254.781C254.653 206.45 254.472 206.721 254.237 206.989C254.007 207.254 253.707 207.473 253.336 207.648C252.969 207.822 252.522 207.91 251.994 207.91ZM252.857 205.743C253.295 205.743 253.666 205.624 253.969 205.385C254.276 205.142 254.51 204.803 254.672 204.369C254.838 203.934 254.921 203.425 254.921 202.841C254.921 202.257 254.84 201.75 254.678 201.32C254.516 200.889 254.282 200.557 253.975 200.322C253.668 200.088 253.295 199.971 252.857 199.971C252.409 199.971 252.032 200.092 251.725 200.335C251.418 200.578 251.186 200.915 251.028 201.345C250.871 201.776 250.792 202.274 250.792 202.841C250.792 203.412 250.871 203.917 251.028 204.356C251.19 204.79 251.423 205.131 251.725 205.379C252.032 205.621 252.409 205.743 252.857 205.743ZM264.255 207.942C263.249 207.942 262.384 207.729 261.66 207.303C260.94 206.872 260.386 206.276 259.998 205.513C259.615 204.75 259.423 203.872 259.423 202.879C259.423 201.874 259.617 200.991 260.004 200.233C260.396 199.47 260.953 198.876 261.673 198.45C262.393 198.019 263.249 197.804 264.242 197.804C265.099 197.804 265.849 197.96 266.492 198.271C267.136 198.582 267.645 199.018 268.02 199.581C268.395 200.143 268.602 200.804 268.64 201.562H266.07C265.998 201.072 265.806 200.678 265.495 200.38C265.188 200.077 264.786 199.926 264.287 199.926C263.865 199.926 263.497 200.041 263.181 200.271C262.87 200.497 262.627 200.827 262.453 201.262C262.278 201.697 262.191 202.223 262.191 202.841C262.191 203.467 262.276 204 262.446 204.439C262.621 204.878 262.866 205.212 263.181 205.442C263.497 205.673 263.865 205.788 264.287 205.788C264.598 205.788 264.877 205.724 265.124 205.596C265.376 205.468 265.583 205.283 265.744 205.04C265.911 204.793 266.019 204.496 266.07 204.151H268.64C268.597 204.901 268.393 205.562 268.026 206.133C267.664 206.7 267.164 207.143 266.524 207.462C265.885 207.782 265.129 207.942 264.255 207.942ZM273.183 207.935C272.557 207.935 271.999 207.827 271.509 207.609C271.018 207.388 270.631 207.062 270.345 206.631C270.064 206.197 269.923 205.656 269.923 205.008C269.923 204.462 270.023 204.004 270.224 203.634C270.424 203.263 270.697 202.964 271.042 202.739C271.387 202.513 271.779 202.342 272.218 202.227C272.661 202.112 273.126 202.031 273.612 201.984C274.183 201.925 274.643 201.869 274.992 201.818C275.342 201.763 275.595 201.682 275.753 201.575C275.911 201.469 275.989 201.311 275.989 201.102V201.064C275.989 200.659 275.862 200.346 275.606 200.124C275.354 199.903 274.996 199.792 274.532 199.792C274.042 199.792 273.652 199.901 273.362 200.118C273.072 200.331 272.881 200.599 272.787 200.923L270.268 200.719C270.396 200.122 270.648 199.607 271.023 199.172C271.398 198.733 271.881 198.396 272.474 198.162C273.07 197.923 273.761 197.804 274.545 197.804C275.09 197.804 275.612 197.868 276.111 197.996C276.614 198.124 277.059 198.322 277.447 198.59C277.839 198.859 278.148 199.204 278.374 199.626C278.599 200.043 278.712 200.544 278.712 201.128V207.75H276.13V206.388H276.053C275.896 206.695 275.685 206.966 275.42 207.2C275.156 207.43 274.839 207.612 274.468 207.744C274.097 207.871 273.669 207.935 273.183 207.935ZM273.963 206.056C274.364 206.056 274.717 205.977 275.024 205.82C275.331 205.658 275.572 205.44 275.746 205.168C275.921 204.895 276.009 204.586 276.009 204.241V203.199C275.923 203.254 275.806 203.305 275.657 203.352C275.512 203.395 275.348 203.435 275.165 203.474C274.982 203.508 274.798 203.54 274.615 203.57C274.432 203.595 274.266 203.619 274.116 203.64C273.797 203.687 273.518 203.761 273.279 203.864C273.04 203.966 272.855 204.104 272.723 204.279C272.591 204.45 272.525 204.663 272.525 204.918C272.525 205.289 272.659 205.572 272.928 205.768C273.2 205.96 273.545 206.056 273.963 206.056ZM288.994 200.732L286.501 200.885C286.458 200.672 286.367 200.48 286.226 200.31C286.086 200.135 285.9 199.996 285.67 199.894C285.444 199.788 285.174 199.734 284.858 199.734C284.436 199.734 284.081 199.824 283.791 200.003C283.501 200.178 283.356 200.412 283.356 200.706C283.356 200.94 283.45 201.138 283.637 201.3C283.825 201.462 284.147 201.592 284.603 201.69L286.38 202.048C287.334 202.244 288.046 202.56 288.515 202.994C288.983 203.429 289.218 204 289.218 204.707C289.218 205.351 289.028 205.915 288.649 206.401C288.274 206.887 287.758 207.266 287.102 207.539C286.45 207.808 285.698 207.942 284.846 207.942C283.546 207.942 282.51 207.671 281.739 207.13C280.972 206.585 280.522 205.843 280.39 204.906L283.069 204.765C283.15 205.161 283.346 205.464 283.657 205.673C283.968 205.877 284.366 205.979 284.852 205.979C285.329 205.979 285.713 205.888 286.002 205.705C286.297 205.517 286.446 205.276 286.45 204.982C286.446 204.735 286.341 204.533 286.137 204.375C285.932 204.213 285.617 204.089 285.191 204.004L283.49 203.665C282.532 203.474 281.818 203.141 281.349 202.668C280.885 202.195 280.652 201.592 280.652 200.859C280.652 200.229 280.823 199.685 281.164 199.229C281.509 198.773 281.993 198.422 282.615 198.175C283.241 197.928 283.974 197.804 284.814 197.804C286.054 197.804 287.029 198.066 287.741 198.59C288.457 199.114 288.875 199.828 288.994 200.732ZM296.155 197.932V199.977H290.242V197.932H296.155ZM291.584 195.58H294.307V204.733C294.307 204.984 294.346 205.18 294.422 205.321C294.499 205.457 294.606 205.553 294.742 205.609C294.883 205.664 295.045 205.692 295.228 205.692C295.356 205.692 295.483 205.681 295.611 205.66C295.739 205.634 295.837 205.615 295.905 205.602L296.334 207.629C296.197 207.671 296.006 207.72 295.758 207.776C295.511 207.835 295.211 207.871 294.857 207.884C294.201 207.91 293.626 207.822 293.131 207.622C292.641 207.422 292.26 207.111 291.987 206.689C291.714 206.267 291.58 205.734 291.584 205.091V195.58ZM304.402 207.75H301.436L305.955 194.659H309.522L314.035 207.75H311.069L307.79 197.651H307.688L304.402 207.75ZM304.217 202.604H311.222V204.765H304.217V202.604ZM315.559 211.432V197.932H318.244V199.581H318.365C318.485 199.317 318.657 199.048 318.883 198.776C319.113 198.499 319.412 198.268 319.778 198.085C320.149 197.898 320.609 197.804 321.159 197.804C321.875 197.804 322.535 197.991 323.14 198.366C323.745 198.737 324.229 199.298 324.591 200.048C324.953 200.793 325.135 201.729 325.135 202.854C325.135 203.949 324.958 204.874 324.604 205.628C324.255 206.378 323.777 206.947 323.172 207.335C322.571 207.718 321.898 207.91 321.152 207.91C320.624 207.91 320.174 207.822 319.804 207.648C319.437 207.473 319.137 207.254 318.902 206.989C318.668 206.721 318.489 206.45 318.365 206.178H318.282V211.432H315.559ZM318.225 202.841C318.225 203.425 318.306 203.934 318.468 204.369C318.63 204.803 318.864 205.142 319.171 205.385C319.478 205.624 319.85 205.743 320.289 205.743C320.733 205.743 321.108 205.621 321.414 205.379C321.721 205.131 321.953 204.79 322.111 204.356C322.273 203.917 322.354 203.412 322.354 202.841C322.354 202.274 322.275 201.776 322.118 201.345C321.96 200.915 321.728 200.578 321.421 200.335C321.114 200.092 320.737 199.971 320.289 199.971C319.846 199.971 319.471 200.088 319.164 200.322C318.862 200.557 318.63 200.889 318.468 201.32C318.306 201.75 318.225 202.257 318.225 202.841ZM326.95 211.432V197.932H329.635V199.581H329.756C329.875 199.317 330.048 199.048 330.274 198.776C330.504 198.499 330.802 198.268 331.169 198.085C331.539 197.898 332 197.804 332.549 197.804C333.265 197.804 333.926 197.991 334.531 198.366C335.136 198.737 335.62 199.298 335.982 200.048C336.344 200.793 336.525 201.729 336.525 202.854C336.525 203.949 336.348 204.874 335.995 205.628C335.645 206.378 335.168 206.947 334.563 207.335C333.962 207.718 333.289 207.91 332.543 207.91C332.015 207.91 331.565 207.822 331.194 207.648C330.828 207.473 330.527 207.254 330.293 206.989C330.059 206.721 329.88 206.45 329.756 206.178H329.673V211.432H326.95ZM329.615 202.841C329.615 203.425 329.696 203.934 329.858 204.369C330.02 204.803 330.255 205.142 330.561 205.385C330.868 205.624 331.241 205.743 331.68 205.743C332.123 205.743 332.498 205.621 332.805 205.379C333.112 205.131 333.344 204.79 333.502 204.356C333.664 203.917 333.745 203.412 333.745 202.841C333.745 202.274 333.666 201.776 333.508 201.345C333.35 200.915 333.118 200.578 332.811 200.335C332.505 200.092 332.127 199.971 331.68 199.971C331.237 199.971 330.862 200.088 330.555 200.322C330.252 200.557 330.02 200.889 329.858 201.32C329.696 201.75 329.615 202.257 329.615 202.841Z" fill="#B81C1C"/>
<rect x="180" y="177.75" width="185" height="46" rx="23" stroke="#F77171" stroke-width="6"/>
<rect x="803" y="89.75" width="127" height="46" rx="23" fill="#FDC9C9"/>
<path opacity="0.8" d="M834.085 119.75L830.339 106.659H833.362L835.529 115.755H835.638L838.028 106.659H840.617L843.001 115.774H843.116L845.283 106.659H848.307L844.561 119.75H841.864L839.371 111.191H839.268L836.782 119.75H834.085ZM853.157 119.942C852.147 119.942 851.278 119.737 850.549 119.328C849.824 118.915 849.266 118.331 848.874 117.577C848.482 116.818 848.286 115.921 848.286 114.886C848.286 113.876 848.482 112.989 848.874 112.227C849.266 111.464 849.818 110.869 850.53 110.443C851.246 110.017 852.085 109.804 853.048 109.804C853.696 109.804 854.299 109.908 854.857 110.117C855.42 110.322 855.91 110.631 856.327 111.044C856.749 111.457 857.077 111.977 857.312 112.604C857.546 113.226 857.663 113.955 857.663 114.79V115.538H849.373V113.85H855.1C855.1 113.458 855.015 113.111 854.844 112.808C854.674 112.506 854.437 112.269 854.135 112.099C853.836 111.924 853.489 111.837 853.093 111.837C852.68 111.837 852.313 111.933 851.993 112.124C851.678 112.312 851.431 112.565 851.252 112.885C851.073 113.2 850.981 113.552 850.977 113.94V115.544C850.977 116.03 851.067 116.45 851.246 116.803C851.429 117.157 851.687 117.43 852.019 117.621C852.351 117.813 852.746 117.909 853.202 117.909C853.504 117.909 853.781 117.866 854.032 117.781C854.284 117.696 854.499 117.568 854.678 117.398C854.857 117.227 854.993 117.018 855.087 116.771L857.606 116.938C857.478 117.543 857.216 118.071 856.819 118.523C856.427 118.97 855.92 119.32 855.298 119.571C854.68 119.818 853.966 119.942 853.157 119.942ZM859.491 119.75V106.659H862.214V111.581H862.297C862.417 111.317 862.589 111.048 862.815 110.776C863.045 110.499 863.344 110.268 863.71 110.085C864.081 109.898 864.541 109.804 865.091 109.804C865.807 109.804 866.467 109.991 867.072 110.366C867.677 110.737 868.161 111.298 868.523 112.048C868.885 112.793 869.067 113.729 869.067 114.854C869.067 115.949 868.89 116.874 868.536 117.628C868.187 118.378 867.709 118.947 867.104 119.335C866.503 119.718 865.83 119.91 865.084 119.91C864.556 119.91 864.106 119.822 863.736 119.648C863.369 119.473 863.069 119.254 862.834 118.989C862.6 118.721 862.421 118.45 862.297 118.178H862.176V119.75H859.491ZM862.157 114.841C862.157 115.425 862.238 115.934 862.4 116.369C862.562 116.803 862.796 117.142 863.103 117.385C863.41 117.624 863.782 117.743 864.221 117.743C864.665 117.743 865.04 117.621 865.346 117.379C865.653 117.131 865.885 116.79 866.043 116.356C866.205 115.917 866.286 115.412 866.286 114.841C866.286 114.274 866.207 113.776 866.05 113.345C865.892 112.915 865.66 112.578 865.353 112.335C865.046 112.092 864.669 111.971 864.221 111.971C863.778 111.971 863.403 112.088 863.096 112.322C862.794 112.557 862.562 112.889 862.4 113.32C862.238 113.75 862.157 114.257 862.157 114.841ZM879.053 112.732L876.56 112.885C876.517 112.672 876.425 112.48 876.285 112.31C876.144 112.135 875.959 111.996 875.729 111.894C875.503 111.788 875.232 111.734 874.917 111.734C874.495 111.734 874.139 111.824 873.849 112.003C873.56 112.178 873.415 112.412 873.415 112.706C873.415 112.94 873.509 113.138 873.696 113.3C873.884 113.462 874.205 113.592 874.661 113.69L876.438 114.048C877.393 114.244 878.104 114.56 878.573 114.994C879.042 115.429 879.276 116 879.276 116.707C879.276 117.351 879.087 117.915 878.707 118.401C878.332 118.887 877.817 119.266 877.161 119.539C876.509 119.808 875.756 119.942 874.904 119.942C873.604 119.942 872.569 119.671 871.798 119.13C871.031 118.585 870.581 117.843 870.449 116.906L873.127 116.765C873.208 117.161 873.404 117.464 873.715 117.673C874.026 117.877 874.425 117.979 874.911 117.979C875.388 117.979 875.771 117.888 876.061 117.705C876.355 117.517 876.504 117.276 876.509 116.982C876.504 116.735 876.4 116.533 876.195 116.375C875.991 116.213 875.675 116.089 875.249 116.004L873.549 115.665C872.59 115.474 871.876 115.141 871.408 114.668C870.943 114.195 870.711 113.592 870.711 112.859C870.711 112.229 870.881 111.685 871.222 111.229C871.567 110.773 872.051 110.422 872.673 110.175C873.3 109.928 874.033 109.804 874.872 109.804C876.112 109.804 877.088 110.066 877.8 110.59C878.516 111.114 878.933 111.828 879.053 112.732ZM880.991 119.75V109.932H883.714V119.75H880.991ZM882.359 108.666C881.954 108.666 881.607 108.532 881.317 108.263C881.031 107.991 880.889 107.665 880.889 107.286C880.889 106.911 881.031 106.589 881.317 106.32C881.607 106.048 881.954 105.911 882.359 105.911C882.764 105.911 883.109 106.048 883.394 106.32C883.684 106.589 883.829 106.911 883.829 107.286C883.829 107.665 883.684 107.991 883.394 108.263C883.109 108.532 882.764 108.666 882.359 108.666ZM891.118 109.932V111.977H885.205V109.932H891.118ZM886.547 107.58H889.27V116.733C889.27 116.984 889.309 117.18 889.385 117.321C889.462 117.457 889.569 117.553 889.705 117.609C889.846 117.664 890.007 117.692 890.191 117.692C890.319 117.692 890.446 117.681 890.574 117.66C890.702 117.634 890.8 117.615 890.868 117.602L891.297 119.629C891.16 119.671 890.968 119.72 890.721 119.776C890.474 119.835 890.174 119.871 889.82 119.884C889.164 119.91 888.588 119.822 888.094 119.622C887.604 119.422 887.223 119.111 886.95 118.689C886.677 118.267 886.543 117.734 886.547 117.091V107.58ZM897.26 119.942C896.25 119.942 895.381 119.737 894.652 119.328C893.928 118.915 893.37 118.331 892.978 117.577C892.586 116.818 892.39 115.921 892.39 114.886C892.39 113.876 892.586 112.989 892.978 112.227C893.37 111.464 893.922 110.869 894.633 110.443C895.349 110.017 896.189 109.804 897.152 109.804C897.799 109.804 898.402 109.908 898.961 110.117C899.523 110.322 900.013 110.631 900.431 111.044C900.853 111.457 901.181 111.977 901.415 112.604C901.65 113.226 901.767 113.955 901.767 114.79V115.538H893.476V113.85H899.203C899.203 113.458 899.118 113.111 898.948 112.808C898.777 112.506 898.541 112.269 898.238 112.099C897.94 111.924 897.593 111.837 897.196 111.837C896.783 111.837 896.417 111.933 896.097 112.124C895.782 112.312 895.534 112.565 895.355 112.885C895.176 113.2 895.085 113.552 895.081 113.94V115.544C895.081 116.03 895.17 116.45 895.349 116.803C895.532 117.157 895.79 117.43 896.123 117.621C896.455 117.813 896.849 117.909 897.305 117.909C897.608 117.909 897.885 117.866 898.136 117.781C898.387 117.696 898.603 117.568 898.782 117.398C898.961 117.227 899.097 117.018 899.191 116.771L901.709 116.938C901.581 117.543 901.319 118.071 900.923 118.523C900.531 118.97 900.024 119.32 899.402 119.571C898.784 119.818 898.07 119.942 897.26 119.942Z" fill="#B81C1C"/>
<rect x="803" y="89.75" width="127" height="46" rx="23" stroke="#F77171" stroke-width="6"/>
<path d="M703.5 157.25L803 121.75" stroke="#F77171" stroke-width="6" stroke-linecap="round"/>
<rect x="851" y="177.75" width="186" height="46" rx="23" fill="#FDC9C9"/>
<path opacity="0.8" d="M881.503 194.659L884.667 204.605H884.788L887.959 194.659H891.027L886.514 207.75H882.947L878.428 194.659H881.503ZM892.551 207.75V197.932H895.275V207.75H892.551ZM893.919 196.666C893.515 196.666 893.167 196.532 892.877 196.263C892.592 195.991 892.449 195.665 892.449 195.286C892.449 194.911 892.592 194.589 892.877 194.32C893.167 194.048 893.515 193.911 893.919 193.911C894.324 193.911 894.669 194.048 894.955 194.32C895.245 194.589 895.39 194.911 895.39 195.286C895.39 195.665 895.245 195.991 894.955 196.263C894.669 196.532 894.324 196.666 893.919 196.666ZM901.074 207.91C900.328 207.91 899.653 207.718 899.047 207.335C898.447 206.947 897.969 206.378 897.616 205.628C897.266 204.874 897.091 203.949 897.091 202.854C897.091 201.729 897.273 200.793 897.635 200.048C897.997 199.298 898.479 198.737 899.079 198.366C899.684 197.991 900.347 197.804 901.067 197.804C901.617 197.804 902.075 197.898 902.442 198.085C902.812 198.268 903.111 198.499 903.336 198.776C903.567 199.048 903.741 199.317 903.861 199.581H903.944V194.659H906.66V207.75H903.976V206.178H903.861C903.733 206.45 903.552 206.721 903.317 206.989C903.087 207.254 902.787 207.473 902.416 207.648C902.05 207.822 901.602 207.91 901.074 207.91ZM901.937 205.743C902.376 205.743 902.746 205.624 903.049 205.385C903.356 205.142 903.59 204.803 903.752 204.369C903.918 203.934 904.001 203.425 904.001 202.841C904.001 202.257 903.92 201.75 903.758 201.32C903.596 200.889 903.362 200.557 903.055 200.322C902.748 200.088 902.376 199.971 901.937 199.971C901.489 199.971 901.112 200.092 900.805 200.335C900.498 200.578 900.266 200.915 900.108 201.345C899.951 201.776 899.872 202.274 899.872 202.841C899.872 203.412 899.951 203.917 900.108 204.356C900.27 204.79 900.503 205.131 900.805 205.379C901.112 205.621 901.489 205.743 901.937 205.743ZM913.374 207.942C912.364 207.942 911.494 207.737 910.766 207.328C910.041 206.915 909.483 206.331 909.091 205.577C908.699 204.818 908.503 203.921 908.503 202.886C908.503 201.876 908.699 200.989 909.091 200.227C909.483 199.464 910.035 198.869 910.746 198.443C911.462 198.017 912.302 197.804 913.265 197.804C913.913 197.804 914.516 197.908 915.074 198.117C915.636 198.322 916.126 198.631 916.544 199.044C916.966 199.457 917.294 199.977 917.528 200.604C917.763 201.226 917.88 201.955 917.88 202.79V203.538H909.589V201.85H915.317C915.317 201.458 915.232 201.111 915.061 200.808C914.891 200.506 914.654 200.269 914.352 200.099C914.053 199.924 913.706 199.837 913.31 199.837C912.896 199.837 912.53 199.933 912.21 200.124C911.895 200.312 911.648 200.565 911.469 200.885C911.29 201.2 911.198 201.552 911.194 201.94V203.544C911.194 204.03 911.283 204.45 911.462 204.803C911.646 205.157 911.903 205.43 912.236 205.621C912.568 205.813 912.962 205.909 913.418 205.909C913.721 205.909 913.998 205.866 914.249 205.781C914.501 205.696 914.716 205.568 914.895 205.398C915.074 205.227 915.21 205.018 915.304 204.771L917.822 204.938C917.695 205.543 917.433 206.071 917.036 206.523C916.644 206.97 916.137 207.32 915.515 207.571C914.897 207.818 914.183 207.942 913.374 207.942ZM924.093 207.942C923.1 207.942 922.241 207.731 921.517 207.309C920.797 206.883 920.241 206.29 919.849 205.532C919.457 204.769 919.261 203.885 919.261 202.879C919.261 201.865 919.457 200.979 919.849 200.22C920.241 199.457 920.797 198.865 921.517 198.443C922.241 198.017 923.1 197.804 924.093 197.804C925.086 197.804 925.942 198.017 926.663 198.443C927.387 198.865 927.945 199.457 928.337 200.22C928.729 200.979 928.925 201.865 928.925 202.879C928.925 203.885 928.729 204.769 928.337 205.532C927.945 206.29 927.387 206.883 926.663 207.309C925.942 207.731 925.086 207.942 924.093 207.942ZM924.106 205.832C924.558 205.832 924.935 205.705 925.237 205.449C925.54 205.189 925.768 204.835 925.921 204.388C926.079 203.94 926.158 203.431 926.158 202.86C926.158 202.289 926.079 201.78 925.921 201.332C925.768 200.885 925.54 200.531 925.237 200.271C924.935 200.011 924.558 199.881 924.106 199.881C923.65 199.881 923.266 200.011 922.955 200.271C922.648 200.531 922.416 200.885 922.259 201.332C922.105 201.78 922.028 202.289 922.028 202.86C922.028 203.431 922.105 203.94 922.259 204.388C922.416 204.835 922.648 205.189 922.955 205.449C923.266 205.705 923.65 205.832 924.106 205.832ZM934.913 207.75V194.659H940.078C941.071 194.659 941.917 194.849 942.616 195.228C943.314 195.603 943.847 196.125 944.214 196.794C944.584 197.459 944.77 198.226 944.77 199.095C944.77 199.964 944.582 200.732 944.207 201.396C943.832 202.061 943.289 202.579 942.577 202.95C941.87 203.32 941.013 203.506 940.008 203.506H936.716V201.288H939.56C940.093 201.288 940.532 201.196 940.877 201.013C941.226 200.825 941.486 200.567 941.657 200.239C941.831 199.907 941.919 199.526 941.919 199.095C941.919 198.661 941.831 198.281 941.657 197.957C941.486 197.629 941.226 197.376 940.877 197.197C940.528 197.013 940.084 196.922 939.547 196.922H937.681V207.75H934.913ZM949.239 194.659V207.75H946.516V194.659H949.239ZM954.22 207.935C953.594 207.935 953.036 207.827 952.546 207.609C952.056 207.388 951.668 207.062 951.382 206.631C951.101 206.197 950.96 205.656 950.96 205.008C950.96 204.462 951.061 204.004 951.261 203.634C951.461 203.263 951.734 202.964 952.079 202.739C952.424 202.513 952.816 202.342 953.255 202.227C953.698 202.112 954.163 202.031 954.649 201.984C955.22 201.925 955.68 201.869 956.029 201.818C956.379 201.763 956.632 201.682 956.79 201.575C956.948 201.469 957.026 201.311 957.026 201.102V201.064C957.026 200.659 956.899 200.346 956.643 200.124C956.392 199.903 956.034 199.792 955.569 199.792C955.079 199.792 954.689 199.901 954.399 200.118C954.11 200.331 953.918 200.599 953.824 200.923L951.306 200.719C951.433 200.122 951.685 199.607 952.06 199.172C952.435 198.733 952.919 198.396 953.511 198.162C954.107 197.923 954.798 197.804 955.582 197.804C956.127 197.804 956.649 197.868 957.148 197.996C957.651 198.124 958.096 198.322 958.484 198.59C958.876 198.859 959.185 199.204 959.411 199.626C959.637 200.043 959.749 200.544 959.749 201.128V207.75H957.167V206.388H957.09C956.933 206.695 956.722 206.966 956.458 207.2C956.193 207.43 955.876 207.612 955.505 207.744C955.134 207.871 954.706 207.935 954.22 207.935ZM955 206.056C955.401 206.056 955.754 205.977 956.061 205.82C956.368 205.658 956.609 205.44 956.784 205.168C956.958 204.895 957.046 204.586 957.046 204.241V203.199C956.96 203.254 956.843 203.305 956.694 203.352C956.549 203.395 956.385 203.435 956.202 203.474C956.019 203.508 955.835 203.54 955.652 203.57C955.469 203.595 955.303 203.619 955.154 203.64C954.834 203.687 954.555 203.761 954.316 203.864C954.078 203.966 953.892 204.104 953.76 204.279C953.628 204.45 953.562 204.663 953.562 204.918C953.562 205.289 953.696 205.572 953.965 205.768C954.237 205.96 954.583 206.056 955 206.056ZM967.084 197.932V199.977H961.172V197.932H967.084ZM962.514 195.58H965.237V204.733C965.237 204.984 965.275 205.18 965.352 205.321C965.429 205.457 965.535 205.553 965.672 205.609C965.812 205.664 965.974 205.692 966.157 205.692C966.285 205.692 966.413 205.681 966.541 205.66C966.669 205.634 966.767 205.615 966.835 205.602L967.263 207.629C967.127 207.671 966.935 207.72 966.688 207.776C966.441 207.835 966.14 207.871 965.787 207.884C965.131 207.91 964.555 207.822 964.061 207.622C963.571 207.422 963.189 207.111 962.917 206.689C962.644 206.267 962.51 205.734 962.514 205.091V195.58ZM974.138 197.932V199.977H968.078V197.932H974.138ZM969.465 207.75V197.222C969.465 196.511 969.604 195.92 969.881 195.452C970.162 194.983 970.546 194.631 971.031 194.397C971.517 194.163 972.069 194.045 972.687 194.045C973.105 194.045 973.486 194.077 973.831 194.141C974.181 194.205 974.441 194.263 974.611 194.314L974.125 196.359C974.019 196.325 973.887 196.293 973.729 196.263C973.575 196.234 973.418 196.219 973.256 196.219C972.855 196.219 972.576 196.312 972.419 196.5C972.261 196.683 972.182 196.941 972.182 197.273V207.75H969.465ZM979.886 207.942C978.893 207.942 978.034 207.731 977.31 207.309C976.59 206.883 976.034 206.29 975.642 205.532C975.25 204.769 975.054 203.885 975.054 202.879C975.054 201.865 975.25 200.979 975.642 200.22C976.034 199.457 976.59 198.865 977.31 198.443C978.034 198.017 978.893 197.804 979.886 197.804C980.879 197.804 981.735 198.017 982.456 198.443C983.18 198.865 983.738 199.457 984.13 200.22C984.522 200.979 984.718 201.865 984.718 202.879C984.718 203.885 984.522 204.769 984.13 205.532C983.738 206.29 983.18 206.883 982.456 207.309C981.735 207.731 980.879 207.942 979.886 207.942ZM979.899 205.832C980.35 205.832 980.728 205.705 981.03 205.449C981.333 205.189 981.561 204.835 981.714 204.388C981.872 203.94 981.951 203.431 981.951 202.86C981.951 202.289 981.872 201.78 981.714 201.332C981.561 200.885 981.333 200.531 981.03 200.271C980.728 200.011 980.35 199.881 979.899 199.881C979.443 199.881 979.059 200.011 978.748 200.271C978.441 200.531 978.209 200.885 978.051 201.332C977.898 201.78 977.821 202.289 977.821 202.86C977.821 203.431 977.898 203.94 978.051 204.388C978.209 204.835 978.441 205.189 978.748 205.449C979.059 205.705 979.443 205.832 979.899 205.832ZM986.489 207.75V197.932H989.129V199.645H989.231C989.41 199.036 989.711 198.575 990.132 198.264C990.554 197.949 991.04 197.791 991.59 197.791C991.726 197.791 991.873 197.8 992.031 197.817C992.189 197.834 992.327 197.857 992.446 197.887V200.303C992.319 200.265 992.142 200.231 991.916 200.201C991.69 200.171 991.483 200.156 991.296 200.156C990.895 200.156 990.537 200.244 990.222 200.418C989.911 200.589 989.664 200.827 989.48 201.134C989.301 201.441 989.212 201.795 989.212 202.195V207.75H986.489ZM993.854 207.75V197.932H996.449V199.664H996.564C996.769 199.089 997.11 198.635 997.587 198.303C998.064 197.97 998.635 197.804 999.3 197.804C999.974 197.804 1000.55 197.972 1001.02 198.309C1001.49 198.641 1001.81 199.093 1001.97 199.664H1002.07C1002.27 199.102 1002.63 198.652 1003.15 198.315C1003.68 197.974 1004.31 197.804 1005.03 197.804C1005.94 197.804 1006.69 198.096 1007.26 198.68C1007.83 199.259 1008.12 200.082 1008.12 201.147V207.75H1005.4V201.684C1005.4 201.138 1005.26 200.729 1004.97 200.457C1004.68 200.184 1004.32 200.048 1003.88 200.048C1003.39 200.048 1003 200.205 1002.73 200.521C1002.45 200.832 1002.31 201.243 1002.31 201.754V207.75H999.671V201.626C999.671 201.145 999.532 200.761 999.256 200.476C998.983 200.19 998.623 200.048 998.175 200.048C997.873 200.048 997.6 200.124 997.357 200.278C997.118 200.427 996.929 200.638 996.788 200.911C996.648 201.179 996.577 201.494 996.577 201.857V207.75H993.854Z" fill="#B81C1C"/>
<rect x="851" y="177.75" width="186" height="46" rx="23" stroke="#F77171" stroke-width="6"/>
<path d="M715 200.75H850" stroke="#F77171" stroke-width="6" stroke-linecap="round"/>
<rect x="787" y="265.75" width="166" height="46" rx="23" fill="#FDC9C9"/>
<path opacity="0.8" d="M822.239 286.424C822.188 285.909 821.969 285.508 821.581 285.222C821.193 284.937 820.667 284.794 820.002 284.794C819.55 284.794 819.169 284.858 818.858 284.986C818.547 285.109 818.308 285.282 818.142 285.504C817.98 285.725 817.899 285.977 817.899 286.258C817.891 286.492 817.94 286.697 818.046 286.872C818.157 287.046 818.308 287.198 818.5 287.325C818.692 287.449 818.913 287.558 819.165 287.651C819.416 287.741 819.685 287.818 819.97 287.882L821.146 288.163C821.717 288.291 822.241 288.461 822.719 288.674C823.196 288.887 823.609 289.149 823.959 289.46C824.308 289.771 824.579 290.138 824.771 290.56C824.967 290.982 825.067 291.465 825.071 292.011C825.067 292.812 824.862 293.507 824.457 294.095C824.057 294.678 823.477 295.132 822.719 295.456C821.964 295.776 821.055 295.935 819.989 295.935C818.933 295.935 818.012 295.774 817.228 295.45C816.448 295.126 815.839 294.646 815.4 294.011C814.965 293.372 814.737 292.582 814.716 291.64H817.394C817.424 292.079 817.55 292.445 817.771 292.739C817.997 293.029 818.298 293.249 818.673 293.398C819.052 293.543 819.48 293.615 819.957 293.615C820.426 293.615 820.833 293.547 821.178 293.411C821.528 293.274 821.798 293.085 821.99 292.842C822.182 292.599 822.278 292.32 822.278 292.004C822.278 291.71 822.19 291.463 822.016 291.263C821.845 291.063 821.594 290.892 821.261 290.752C820.933 290.611 820.531 290.483 820.053 290.368L818.628 290.01C817.524 289.742 816.653 289.322 816.013 288.751C815.374 288.18 815.057 287.411 815.061 286.443C815.057 285.651 815.268 284.958 815.694 284.366C816.124 283.774 816.714 283.311 817.464 282.979C818.214 282.646 819.067 282.48 820.021 282.48C820.993 282.48 821.841 282.646 822.565 282.979C823.294 283.311 823.861 283.774 824.266 284.366C824.67 284.958 824.879 285.644 824.892 286.424H822.239ZM831.318 295.942C830.325 295.942 829.466 295.731 828.742 295.309C828.021 294.883 827.465 294.291 827.073 293.532C826.681 292.769 826.485 291.885 826.485 290.879C826.485 289.865 826.681 288.979 827.073 288.22C827.465 287.458 828.021 286.865 828.742 286.443C829.466 286.017 830.325 285.804 831.318 285.804C832.311 285.804 833.167 286.017 833.887 286.443C834.612 286.865 835.17 287.458 835.562 288.22C835.954 288.979 836.15 289.865 836.15 290.879C836.15 291.885 835.954 292.769 835.562 293.532C835.17 294.291 834.612 294.883 833.887 295.309C833.167 295.731 832.311 295.942 831.318 295.942ZM831.33 293.833C831.782 293.833 832.159 293.705 832.462 293.449C832.764 293.189 832.992 292.835 833.146 292.388C833.303 291.94 833.382 291.431 833.382 290.86C833.382 290.289 833.303 289.78 833.146 289.333C832.992 288.885 832.764 288.531 832.462 288.271C832.159 288.011 831.782 287.882 831.33 287.882C830.874 287.882 830.491 288.011 830.18 288.271C829.873 288.531 829.641 288.885 829.483 289.333C829.33 289.78 829.253 290.289 829.253 290.86C829.253 291.431 829.33 291.94 829.483 292.388C829.641 292.835 829.873 293.189 830.18 293.449C830.491 293.705 830.874 293.833 831.33 293.833ZM842.357 295.942C841.351 295.942 840.486 295.729 839.762 295.303C839.041 294.872 838.487 294.276 838.1 293.513C837.716 292.75 837.524 291.872 837.524 290.879C837.524 289.874 837.718 288.992 838.106 288.233C838.498 287.47 839.054 286.876 839.774 286.45C840.494 286.019 841.351 285.804 842.344 285.804C843.2 285.804 843.95 285.96 844.594 286.271C845.237 286.582 845.747 287.019 846.122 287.581C846.497 288.144 846.703 288.804 846.742 289.563H844.172C844.1 289.073 843.908 288.678 843.597 288.38C843.29 288.078 842.887 287.926 842.389 287.926C841.967 287.926 841.598 288.041 841.283 288.271C840.972 288.497 840.729 288.828 840.554 289.262C840.379 289.697 840.292 290.223 840.292 290.841C840.292 291.467 840.377 292 840.548 292.439C840.722 292.878 840.968 293.212 841.283 293.443C841.598 293.673 841.967 293.788 842.389 293.788C842.7 293.788 842.979 293.724 843.226 293.596C843.477 293.468 843.684 293.283 843.846 293.04C844.012 292.793 844.121 292.497 844.172 292.151H846.742C846.699 292.901 846.494 293.562 846.128 294.133C845.766 294.7 845.265 295.143 844.626 295.462C843.987 295.782 843.23 295.942 842.357 295.942ZM848.485 295.75V285.932H851.208V295.75H848.485ZM849.853 284.666C849.448 284.666 849.101 284.532 848.811 284.264C848.526 283.991 848.383 283.665 848.383 283.286C848.383 282.911 848.526 282.589 848.811 282.32C849.101 282.048 849.448 281.911 849.853 281.911C850.258 281.911 850.603 282.048 850.888 282.32C851.178 282.589 851.323 282.911 851.323 283.286C851.323 283.665 851.178 283.991 850.888 284.264C850.603 284.532 850.258 284.666 849.853 284.666ZM856.189 295.935C855.563 295.935 855.004 295.827 854.514 295.609C854.024 295.388 853.637 295.062 853.351 294.632C853.07 294.197 852.929 293.656 852.929 293.008C852.929 292.462 853.029 292.004 853.23 291.634C853.43 291.263 853.703 290.965 854.048 290.739C854.393 290.513 854.785 290.342 855.224 290.227C855.667 290.112 856.132 290.031 856.617 289.984C857.188 289.925 857.649 289.869 857.998 289.818C858.347 289.763 858.601 289.682 858.759 289.575C858.916 289.469 858.995 289.311 858.995 289.102V289.064C858.995 288.659 858.867 288.346 858.612 288.124C858.36 287.903 858.002 287.792 857.538 287.792C857.048 287.792 856.658 287.901 856.368 288.118C856.078 288.331 855.887 288.6 855.793 288.923L853.274 288.719C853.402 288.122 853.654 287.607 854.029 287.172C854.404 286.733 854.887 286.396 855.48 286.162C856.076 285.923 856.767 285.804 857.551 285.804C858.096 285.804 858.618 285.868 859.117 285.996C859.619 286.124 860.065 286.322 860.453 286.59C860.845 286.859 861.154 287.204 861.379 287.626C861.605 288.043 861.718 288.544 861.718 289.128V295.75H859.136V294.389H859.059C858.901 294.695 858.691 294.966 858.426 295.2C858.162 295.431 857.845 295.612 857.474 295.744C857.103 295.872 856.675 295.935 856.189 295.935ZM856.969 294.056C857.369 294.056 857.723 293.977 858.03 293.82C858.337 293.658 858.578 293.44 858.752 293.168C858.927 292.895 859.014 292.586 859.014 292.241V291.199C858.929 291.254 858.812 291.306 858.663 291.352C858.518 291.395 858.354 291.435 858.171 291.474C857.987 291.508 857.804 291.54 857.621 291.57C857.438 291.595 857.271 291.619 857.122 291.64C856.803 291.687 856.524 291.761 856.285 291.864C856.046 291.966 855.861 292.105 855.729 292.279C855.597 292.45 855.531 292.663 855.531 292.918C855.531 293.289 855.665 293.573 855.933 293.769C856.206 293.96 856.551 294.056 856.969 294.056ZM866.554 282.659V295.75H863.831V282.659H866.554ZM872.952 282.659H876.366L879.971 291.455H880.124L883.729 282.659H887.143V295.75H884.458V287.23H884.349L880.961 295.686H879.133L875.746 287.198H875.637V295.75H872.952V282.659ZM893.846 295.942C892.836 295.942 891.967 295.737 891.238 295.328C890.514 294.915 889.956 294.331 889.564 293.577C889.172 292.818 888.975 291.921 888.975 290.886C888.975 289.876 889.172 288.989 889.564 288.227C889.956 287.464 890.507 286.869 891.219 286.443C891.935 286.017 892.775 285.804 893.738 285.804C894.385 285.804 894.988 285.909 895.547 286.117C896.109 286.322 896.599 286.631 897.017 287.044C897.439 287.458 897.767 287.977 898.001 288.604C898.235 289.226 898.353 289.955 898.353 290.79V291.538H890.062V289.85H895.789C895.789 289.458 895.704 289.111 895.534 288.808C895.363 288.506 895.127 288.269 894.824 288.099C894.526 287.924 894.179 287.837 893.782 287.837C893.369 287.837 893.002 287.933 892.683 288.124C892.368 288.312 892.12 288.565 891.941 288.885C891.762 289.2 891.671 289.552 891.667 289.94V291.544C891.667 292.03 891.756 292.45 891.935 292.803C892.118 293.157 892.376 293.43 892.708 293.622C893.041 293.813 893.435 293.909 893.891 293.909C894.194 293.909 894.471 293.867 894.722 293.781C894.973 293.696 895.189 293.568 895.368 293.398C895.547 293.227 895.683 293.019 895.777 292.771L898.295 292.938C898.167 293.543 897.905 294.071 897.509 294.523C897.117 294.97 896.61 295.32 895.988 295.571C895.37 295.818 894.656 295.942 893.846 295.942ZM903.748 295.91C903.002 295.91 902.326 295.718 901.721 295.335C901.12 294.947 900.643 294.378 900.289 293.628C899.94 292.874 899.765 291.949 899.765 290.854C899.765 289.729 899.946 288.793 900.309 288.048C900.671 287.298 901.152 286.737 901.753 286.367C902.358 285.992 903.021 285.804 903.741 285.804C904.291 285.804 904.749 285.898 905.115 286.085C905.486 286.269 905.784 286.499 906.01 286.776C906.24 287.048 906.415 287.317 906.534 287.581H906.618V282.659H909.334V295.75H906.65V294.178H906.534C906.407 294.45 906.225 294.721 905.991 294.989C905.761 295.254 905.461 295.473 905.09 295.648C904.723 295.823 904.276 295.91 903.748 295.91ZM904.61 293.743C905.049 293.743 905.42 293.624 905.723 293.385C906.029 293.142 906.264 292.803 906.426 292.369C906.592 291.934 906.675 291.425 906.675 290.841C906.675 290.257 906.594 289.75 906.432 289.32C906.27 288.889 906.036 288.557 905.729 288.323C905.422 288.088 905.049 287.971 904.61 287.971C904.163 287.971 903.786 288.092 903.479 288.335C903.172 288.578 902.94 288.915 902.782 289.345C902.625 289.776 902.546 290.274 902.546 290.841C902.546 291.412 902.625 291.917 902.782 292.356C902.944 292.791 903.176 293.132 903.479 293.379C903.786 293.622 904.163 293.743 904.61 293.743ZM911.573 295.75V285.932H914.296V295.75H911.573ZM912.941 284.666C912.536 284.666 912.189 284.532 911.899 284.264C911.613 283.991 911.471 283.665 911.471 283.286C911.471 282.911 911.613 282.589 911.899 282.32C912.189 282.048 912.536 281.911 912.941 281.911C913.346 281.911 913.691 282.048 913.976 282.32C914.266 282.589 914.411 282.911 914.411 283.286C914.411 283.665 914.266 283.991 913.976 284.264C913.691 284.532 913.346 284.666 912.941 284.666ZM919.277 295.935C918.651 295.935 918.092 295.827 917.602 295.609C917.112 295.388 916.724 295.062 916.439 294.632C916.158 294.197 916.017 293.656 916.017 293.008C916.017 292.462 916.117 292.004 916.317 291.634C916.518 291.263 916.79 290.965 917.136 290.739C917.481 290.513 917.873 290.342 918.312 290.227C918.755 290.112 919.219 290.031 919.705 289.984C920.276 289.925 920.737 289.869 921.086 289.818C921.435 289.763 921.689 289.682 921.847 289.575C922.004 289.469 922.083 289.311 922.083 289.102V289.064C922.083 288.659 921.955 288.346 921.7 288.124C921.448 287.903 921.09 287.792 920.626 287.792C920.136 287.792 919.746 287.901 919.456 288.118C919.166 288.331 918.974 288.6 918.881 288.923L916.362 288.719C916.49 288.122 916.741 287.607 917.116 287.172C917.491 286.733 917.975 286.396 918.567 286.162C919.164 285.923 919.854 285.804 920.638 285.804C921.184 285.804 921.706 285.868 922.205 285.996C922.707 286.124 923.153 286.322 923.54 286.59C923.933 286.859 924.241 287.204 924.467 287.626C924.693 288.043 924.806 288.544 924.806 289.128V295.75H922.224V294.389H922.147C921.989 294.695 921.778 294.966 921.514 295.2C921.25 295.431 920.933 295.612 920.562 295.744C920.191 295.872 919.763 295.935 919.277 295.935ZM920.057 294.056C920.457 294.056 920.811 293.977 921.118 293.82C921.425 293.658 921.665 293.44 921.84 293.168C922.015 292.895 922.102 292.586 922.102 292.241V291.199C922.017 291.254 921.9 291.306 921.751 291.352C921.606 291.395 921.442 291.435 921.259 291.474C921.075 291.508 920.892 291.54 920.709 291.57C920.526 291.595 920.359 291.619 920.21 291.64C919.891 291.687 919.612 291.761 919.373 291.864C919.134 291.966 918.949 292.105 918.817 292.279C918.685 292.45 918.619 292.663 918.619 292.918C918.619 293.289 918.753 293.573 919.021 293.769C919.294 293.96 919.639 294.056 920.057 294.056Z" fill="#B81C1C"/>
<rect x="787" y="265.75" width="166" height="46" rx="23" stroke="#F77171" stroke-width="6"/>
<path d="M702.245 246.75L788.755 276.13" stroke="#F77171" stroke-width="6" stroke-linecap="round"/>
<path d="M365.5 200.75H499" stroke="#F77171" stroke-width="6" stroke-linecap="round"/>
<path d="M426.5 275.75L512.5 249.75" stroke="#F77171" stroke-width="6" stroke-linecap="round"/>
<path d="M411.5 121.75L509.5 157.25" stroke="#F77171" stroke-width="6" stroke-linecap="round"/>
<defs>
<filter id="filter0_d_919_2913" x="500" y="92.75" width="216" height="216" filterUnits="userSpaceOnUse" color-interpolation-filters="sRGB">
<feFlood flood-opacity="0" result="BackgroundImageFix"/>
<feColorMatrix in="SourceAlpha" type="matrix" values="0 0 0 0 0 0 0 0 0 0 0 0 0 0 0 0 0 0 127 0" result="hardAlpha"/>
<feOffset/>
<feGaussianBlur stdDeviation="4"/>
<feComposite in2="hardAlpha" operator="out"/>
<feColorMatrix type="matrix" values="0 0 0 0 0 0 0 0 0 0 0 0 0 0 0 0 0 0 0.08 0"/>
<feBlend mode="normal" in2="BackgroundImageFix" result="effect1_dropShadow_919_2913"/>
<feBlend mode="normal" in="SourceGraphic" in2="effect1_dropShadow_919_2913" result="shape"/>
</filter>
</defs>
</svg>
