<svg width="256" height="192" viewBox="0 0 256 192" fill="none" xmlns="http://www.w3.org/2000/svg">
<rect x="5" y="24.5" width="238" height="158" rx="11" fill="url(#paint0_linear_34_454)" stroke="#9FCCFD" stroke-width="2"/>
<path d="M193.5 161.054C193.5 180.705 193.5 183.47 193.5 183.47H55C55 183.47 55 171.531 55 161.054C55 132.591 91.8011 122.628 123.591 122.628C155.381 122.628 193.5 132.591 193.5 161.054Z" fill="#A3CDFD"/>
<path d="M108.378 111.459C108.378 101.071 115.484 92.6487 124.25 92.6487C133.016 92.6487 140.122 101.071 140.122 111.459V126.743C140.122 137.132 133.016 145.554 124.25 145.554C115.484 145.554 108.378 137.132 108.378 126.743V111.459Z" fill="url(#paint1_linear_34_454)"/>
<path d="M100.443 77.6587C100.443 84.9634 96.2845 92.6486 88.9798 92.6486C81.6751 92.6486 75.7534 84.9634 75.7534 77.6587C75.7534 70.354 78.148 64.4324 85.4527 64.4324C92.7575 64.4324 100.443 70.354 100.443 77.6587Z" fill="#C6E1FE"/>
<path d="M148.057 77.6587C148.057 84.9634 152.216 92.6486 159.52 92.6486C166.825 92.6486 172.747 84.9634 172.747 77.6587C172.747 70.354 170.352 64.4324 163.047 64.4324C155.743 64.4324 148.057 70.354 148.057 77.6587Z" fill="#C6E1FE"/>
<path d="M85.4526 55.3209C85.4526 47.2046 92.0322 40.625 100.149 40.625H148.351C156.468 40.625 163.047 47.2046 163.047 55.3209V81.1858C163.047 102.613 145.677 119.983 124.25 119.983C102.823 119.983 85.4526 102.613 85.4526 81.1858V55.3209Z" fill="url(#paint2_linear_34_454)"/>
<path d="M113.669 69.7229H103.088C103.088 67.775 105.457 66.1959 108.378 66.1959C111.3 66.1959 113.669 67.775 113.669 69.7229Z" fill="#9FCCFD"/>
<path d="M145.412 91.7668H103.088C103.088 101.506 112.563 109.402 124.25 109.402C135.938 109.402 145.412 101.506 145.412 91.7668Z" fill="white"/>
<path d="M145.412 69.7229H134.831C134.831 67.775 137.2 66.1959 140.122 66.1959C143.043 66.1959 145.412 67.775 145.412 69.7229Z" fill="#9FCCFD"/>
<path d="M88.0041 23.2396C103.996 9.01431 143.646 1.50878 162.438 15.3003C172.38 22.5969 164.034 29.6888 161.771 31.5957C161.665 31.6847 161.676 31.8467 161.787 31.9276C167.809 36.2809 165.447 69.723 163.047 69.723C160.618 69.723 160.893 61.7872 160.893 58.0299C160.893 54.0665 161.394 50.3243 159.079 47.2382C155.111 41.9476 151.011 39.5431 145.767 40.9796C134.52 44.0608 116.28 44.427 105.496 41.0444C105.385 41.0094 105.269 41.0807 105.241 41.1942C103.424 48.5757 97.9981 49.35 93.8293 50.3243C92.6072 50.7932 90.3162 53.8801 88.4386 57.9278C86.7853 61.4918 87.2162 69.723 85.4527 69.723C81.0434 69.723 82.721 27.939 88.0041 23.2396Z" fill="url(#paint3_linear_34_454)"/>
<rect x="13" y="32.5" width="42" height="16" rx="2" fill="#BFDCFE"/>
<path d="M25.4672 44.4329C25.4672 43.849 25.049 43.438 24.4506 43.438H21.3864V36.7978C21.3864 35.9831 20.9539 35.5144 20.1896 35.5144C19.4254 35.5144 19 35.9758 19 36.7978V44.0652C19 44.9521 19.4831 45.4279 20.3843 45.4279H24.4506C25.049 45.4279 25.4672 45.0169 25.4672 44.4329Z" fill="#EAF4FF"/>
<path d="M28.3361 45.5C29.0932 45.5 29.5185 45.0386 29.5185 44.2167V36.7978C29.5185 35.9831 29.0859 35.5144 28.3217 35.5144C27.5575 35.5144 27.1321 35.9758 27.1321 36.7978V44.2167C27.1321 45.0314 27.5719 45.5 28.3361 45.5Z" fill="#EAF4FF"/>
<path d="M35.7833 42.8756H35.6751L33.7934 36.6752C33.5554 35.8821 33.1589 35.5 32.5461 35.5C31.8611 35.5 31.3709 35.9398 31.3709 36.5743C31.3709 36.805 31.4358 37.1366 31.5583 37.4971L33.6852 43.8201C34.0601 44.9953 34.6585 45.5 35.704 45.5C36.735 45.5 37.3118 45.0025 37.6939 43.8201L39.8208 37.4971C39.9289 37.1583 40.0082 36.7906 40.0082 36.5526C40.0082 35.9254 39.5252 35.5 38.8402 35.5C38.2058 35.5 37.8525 35.8389 37.6218 36.6752L35.7833 42.8756Z" fill="#EAF4FF"/>
<path d="M41.9399 44.0652C41.9399 44.9521 42.4229 45.4279 43.3242 45.4279H47.751C48.335 45.4279 48.7243 45.0602 48.7243 44.4834C48.7243 43.9138 48.335 43.5389 47.7582 43.5389H44.2975V41.3472H47.614C48.1259 41.3472 48.472 41.0083 48.472 40.482C48.472 39.9629 48.1259 39.6024 47.614 39.6024H44.2975V37.4755H47.787C48.335 37.4755 48.7243 37.0934 48.7243 36.5382C48.7243 35.9758 48.335 35.5865 47.787 35.5865H43.3242C42.4229 35.5865 41.9399 36.0696 41.9399 36.9492V44.0652Z" fill="#EAF4FF"/>
<path d="M252 145.5C252 156.546 243.046 165.5 232 165.5C220.954 165.5 212 156.546 212 145.5C212 134.454 220.954 125.5 232 125.5C243.046 125.5 252 134.454 252 145.5Z" fill="#BFDCFE"/>
<path d="M234.667 138.5H225.333C224.045 138.5 223 139.545 223 140.833V150.167C223 151.455 224.045 152.5 225.333 152.5H234.667C235.955 152.5 237 151.455 237 150.167V147.833L242.312 150.489C242.49 150.578 242.687 150.62 242.886 150.611C243.084 150.602 243.277 150.542 243.447 150.438C243.616 150.333 243.755 150.187 243.852 150.014C243.949 149.84 244 149.644 244 149.446V141.554C244 141.356 243.949 141.16 243.852 140.987C243.755 140.813 243.616 140.667 243.447 140.562C243.277 140.458 243.084 140.398 242.886 140.39C242.687 140.381 242.49 140.423 242.312 140.511L237 143.167V140.833C237 139.545 235.955 138.5 234.667 138.5Z" fill="white"/>
<defs>
<linearGradient id="paint0_linear_34_454" x1="124" y1="23.5" x2="124" y2="183.5" gradientUnits="userSpaceOnUse">
<stop offset="0.25" stop-color="#EAF4FF"/>
<stop offset="1" stop-color="#D4E8FE"/>
</linearGradient>
<linearGradient id="paint1_linear_34_454" x1="124.25" y1="92.6487" x2="124.25" y2="145.554" gradientUnits="userSpaceOnUse">
<stop stop-color="#A4CEFD"/>
<stop offset="1" stop-color="#CDE4FE"/>
</linearGradient>
<linearGradient id="paint2_linear_34_454" x1="124.25" y1="40.625" x2="124.25" y2="119.983" gradientUnits="userSpaceOnUse">
<stop stop-color="#E1EFFE"/>
<stop offset="1" stop-color="#D0E6FE"/>
</linearGradient>
<linearGradient id="paint3_linear_34_454" x1="125.063" y1="8" x2="125.063" y2="69.723" gradientUnits="userSpaceOnUse">
<stop stop-color="#C5E0FE"/>
<stop offset="0.542857" stop-color="#9FCCFD"/>
</linearGradient>
</defs>
</svg>
