<svg width="321" height="240" viewBox="0 0 321 240" fill="none" xmlns="http://www.w3.org/2000/svg">
<path d="M290.834 30.6251H20.8335C13.2396 30.6251 7.0835 36.7812 7.0835 44.3751V214.375C7.0835 221.969 13.2396 228.125 20.8335 228.125H290.834C298.427 228.125 304.584 221.969 304.584 214.375V44.3751C304.584 36.7812 298.427 30.6251 290.834 30.6251Z" fill="url(#paint0_linear_919_2791)" stroke="#CECECE" stroke-width="2.5"/>
<path d="M242.708 201.318C242.708 225.881 242.708 229.338 242.708 229.338H69.583C69.583 229.338 69.583 214.414 69.583 201.318C69.583 165.739 115.584 153.285 155.322 153.285C195.059 153.285 242.708 165.739 242.708 201.318Z" fill="#D0D0D0"/>
<path d="M136.306 139.324C136.306 126.339 145.188 115.811 156.146 115.811C167.103 115.811 175.986 126.339 175.986 139.324V158.429C175.986 171.415 167.103 181.942 156.146 181.942C145.188 181.942 136.306 171.415 136.306 158.429V139.324Z" fill="url(#paint1_linear_919_2791)"/>
<path d="M126.387 97.0734C126.387 106.204 121.189 115.811 112.058 115.811C102.928 115.811 95.5254 106.204 95.5254 97.0734C95.5254 87.9425 98.5186 80.5405 107.65 80.5405C116.781 80.5405 126.387 87.9425 126.387 97.0734Z" fill="#E2E2E2"/>
<path d="M185.905 97.0734C185.905 106.204 191.104 115.811 200.234 115.811C209.365 115.811 216.767 106.204 216.767 97.0734C216.767 87.9425 213.774 80.5405 204.642 80.5405C195.512 80.5405 185.905 87.9425 185.905 97.0734Z" fill="#E2E2E2"/>
<path d="M107.653 69.1512C107.653 59.0059 115.877 50.7814 126.023 50.7814H186.276C196.422 50.7814 204.646 59.0059 204.646 69.1512V101.482C204.646 128.266 182.933 149.979 156.15 149.979C129.366 149.979 107.653 128.266 107.653 101.482V69.1512Z" fill="url(#paint2_linear_919_2791)"/>
<path d="M182.599 114.708H129.694C129.694 126.882 141.538 136.752 156.146 136.752C170.756 136.752 182.599 126.882 182.599 114.708Z" fill="white"/>
<path d="M142.92 87.1537H129.694C129.694 84.7189 132.655 82.745 136.306 82.745C139.959 82.745 142.92 84.7189 142.92 87.1537Z" fill="#CECECE"/>
<path d="M182.599 87.1537H169.373C169.373 84.7189 172.334 82.745 175.986 82.745C179.638 82.745 182.599 84.7189 182.599 87.1537Z" fill="#CECECE"/>
<path d="M110.839 29.0496C130.829 11.268 180.391 1.88611 203.882 19.1255C216.309 28.2463 205.876 37.1111 203.048 39.4948C202.915 39.606 202.929 39.8085 203.068 39.9096C210.595 45.3513 207.643 87.1539 204.643 87.1539C201.606 87.1539 201.95 77.2341 201.95 72.5375C201.95 67.5833 202.576 62.9055 199.683 59.0479C194.723 52.4346 189.598 49.429 183.043 51.2246C168.984 55.0761 146.184 55.5339 132.704 51.3056C132.565 51.2619 132.42 51.351 132.385 51.4929C130.114 60.7198 123.332 61.6876 118.121 62.9055C116.593 63.4916 113.729 67.3503 111.382 72.4099C109.316 76.8649 109.854 87.1539 107.65 87.1539C102.138 87.1539 104.235 34.9239 110.839 29.0496Z" fill="url(#paint3_linear_919_2791)"/>
<path d="M67.0828 40.625H19.5828C18.2021 40.625 17.0828 41.7443 17.0828 43.125V58.125C17.0828 59.5057 18.2021 60.625 19.5828 60.625H67.0828C68.4635 60.625 69.5828 59.5057 69.5828 58.125V43.125C69.5828 41.7443 68.4635 40.625 67.0828 40.625Z" fill="#DFDFDF"/>
<path d="M32.668 55.5412C32.668 54.8113 32.1452 54.2976 31.3972 54.2976H27.567V45.9973C27.567 44.9789 27.0264 44.3931 26.071 44.3931C25.1157 44.3931 24.584 44.9698 24.584 45.9973V55.0816C24.584 56.1902 25.1879 56.7849 26.3144 56.7849H31.3972C32.1452 56.7849 32.668 56.2712 32.668 55.5412Z" fill="#F5F5F5"/>
<path d="M36.255 56.8751C37.2014 56.8751 37.733 56.2983 37.733 55.2709V45.9973C37.733 44.9789 37.1923 44.3931 36.237 44.3931C35.2818 44.3931 34.75 44.9698 34.75 45.9973V55.2709C34.75 56.2893 35.2998 56.8751 36.255 56.8751Z" fill="#F5F5F5"/>
<path d="M45.5658 53.5945H45.4305L43.0784 45.844C42.7809 44.8526 42.2853 44.375 41.5193 44.375C40.663 44.375 40.0503 44.9247 40.0503 45.7179C40.0503 46.0062 40.1314 46.4208 40.2845 46.8714L42.9432 54.7751C43.4118 56.2441 44.1598 56.875 45.4667 56.875C46.7554 56.875 47.4764 56.2531 47.9541 54.7751L50.6127 46.8714C50.7478 46.4479 50.8469 45.9883 50.8469 45.6908C50.8469 44.9068 50.2432 44.375 49.3869 44.375C48.5939 44.375 48.1523 44.7986 47.8639 45.844L45.5658 53.5945Z" fill="#F5F5F5"/>
<path d="M53.2607 55.0817C53.2607 56.1903 53.8645 56.785 54.9911 56.785H60.5246C61.2546 56.785 61.7412 56.3254 61.7412 55.6044C61.7412 54.8924 61.2546 54.4238 60.5336 54.4238H56.2077V51.6842H60.3534C60.9932 51.6842 61.4259 51.2605 61.4259 50.6027C61.4259 49.9538 60.9932 49.5032 60.3534 49.5032H56.2077V46.8445H60.5696C61.2546 46.8445 61.7412 46.3669 61.7412 45.6729C61.7412 44.9699 61.2546 44.4833 60.5696 44.4833H54.9911C53.8645 44.4833 53.2607 45.0872 53.2607 46.1867V55.0817Z" fill="#F5F5F5"/>
<path d="M315.833 181.875C315.833 195.683 304.64 206.875 290.833 206.875C277.025 206.875 265.833 195.683 265.833 181.875C265.833 168.068 277.025 156.875 290.833 156.875C304.64 156.875 315.833 168.068 315.833 181.875Z" fill="#DFDFDF"/>
<path d="M294.167 173.125H282.499C280.889 173.125 279.583 174.431 279.583 176.041V187.709C279.583 189.319 280.889 190.625 282.499 190.625H294.167C295.777 190.625 297.083 189.319 297.083 187.709V184.791L303.723 188.111C303.946 188.223 304.192 188.275 304.441 188.264C304.688 188.253 304.929 188.178 305.142 188.048C305.353 187.916 305.527 187.734 305.648 187.518C305.769 187.3 305.833 187.055 305.833 186.808V176.943C305.833 176.695 305.769 176.45 305.648 176.234C305.527 176.016 305.353 175.834 305.142 175.703C304.929 175.573 304.688 175.498 304.441 175.488C304.192 175.476 303.946 175.529 303.723 175.639L297.083 178.959V176.041C297.083 174.431 295.777 173.125 294.167 173.125Z" fill="white"/>
<defs>
<linearGradient id="paint0_linear_919_2791" x1="155.834" y1="29.3751" x2="155.834" y2="229.375" gradientUnits="userSpaceOnUse">
<stop offset="0.25" stop-color="#F5F5F5"/>
<stop offset="1" stop-color="#E9E9E9"/>
</linearGradient>
<linearGradient id="paint1_linear_919_2791" x1="156.146" y1="115.811" x2="156.146" y2="181.942" gradientUnits="userSpaceOnUse">
<stop stop-color="#D1D1D1"/>
<stop offset="1" stop-color="#E6E6E6"/>
</linearGradient>
<linearGradient id="paint2_linear_919_2791" x1="156.15" y1="50.7814" x2="156.15" y2="149.979" gradientUnits="userSpaceOnUse">
<stop stop-color="#F0F0F0"/>
<stop offset="1" stop-color="#E7E7E7"/>
</linearGradient>
<linearGradient id="paint3_linear_919_2791" x1="157.163" y1="10.0001" x2="157.163" y2="87.1539" gradientUnits="userSpaceOnUse">
<stop stop-color="#E2E2E2"/>
<stop offset="0.542857" stop-color="#CECECE"/>
</linearGradient>
</defs>
</svg>
